<svg xmlns:xlink="http://www.w3.org/1999/xlink" xmlns="http://www.w3.org/2000/svg" version="1.1" viewBox="32.08 8.09 415.28 311.33">
 <metadata>
  <rdf:RDF xmlns:dc="http://purl.org/dc/elements/1.1/" xmlns:cc="http://creativecommons.org/ns#" xmlns:rdf="http://www.w3.org/1999/02/22-rdf-syntax-ns#">
   <cc:Work>
    <dc:type rdf:resource="http://purl.org/dc/dcmitype/StillImage"/>
    <dc:date>2024-03-04T09:02:37.876446</dc:date>
    <dc:format>image/svg+xml</dc:format>
    <dc:creator>
     <cc:Agent>
      <dc:title>Matplotlib v3.5.2, https://matplotlib.org/</dc:title>
     </cc:Agent>
    </dc:creator>
   </cc:Work>
  </rdf:RDF>
 </metadata>
 <defs>
  <style type="text/css">*{stroke-linejoin: round; stroke-linecap: butt}</style>
 </defs>
 <g id="figure_1">
  <g id="patch_1">
   <path d="M 0 345.6  L 460.8 345.6  L 460.8 0  L 0 0  L 0 345.6  z " style="fill: none"/>
  </g>
  <g id="axes_1">
   <g id="patch_2">
    <path d="M 92.16 276.48  L 414.72 276.48  L 414.72 51.84  L 92.16 51.84  L 92.16 276.48  z " style="fill: none"/>
   </g>
   <g id="PathCollection_1">
    <defs>
     <path id="m9b95f4db2c" d="M 0 3  C 0.795609 3 1.55874 2.683901 2.12132 2.12132  C 2.683901 1.55874 3 0.795609 3 0  C 3 -0.795609 2.683901 -1.55874 2.12132 -2.12132  C 1.55874 -2.683901 0.795609 -3 0 -3  C -0.795609 -3 -1.55874 -2.683901 -2.12132 -2.12132  C -2.683901 -1.55874 -3 -0.795609 -3 0  C -3 0.795609 -2.683901 1.55874 -2.12132 2.12132  C -1.55874 2.683901 -0.795609 3 0 3  z " style="stroke: #bfbf00"/>
    </defs>
    <g clip-path="url(#p6f165601ce)">
     <use xlink:href="#m9b95f4db2c" x="352.141928" y="180.076974" style="fill: #bfbf00; stroke: #bfbf00"/>
     <use xlink:href="#m9b95f4db2c" x="400.058182" y="189.271703" style="fill: #bfbf00; stroke: #bfbf00"/>
     <use xlink:href="#m9b95f4db2c" x="382.897712" y="184.116776" style="fill: #bfbf00; stroke: #bfbf00"/>
     <use xlink:href="#m9b95f4db2c" x="372.907828" y="185.863232" style="fill: #bfbf00; stroke: #bfbf00"/>
     <use xlink:href="#m9b95f4db2c" x="356.583965" y="188.286646" style="fill: #bfbf00; stroke: #bfbf00"/>
     <use xlink:href="#m9b95f4db2c" x="365.303252" y="182.169106" style="fill: #bfbf00; stroke: #bfbf00"/>
     <use xlink:href="#m9b95f4db2c" x="357.731819" y="186.240336" style="fill: #bfbf00; stroke: #bfbf00"/>
     <use xlink:href="#m9b95f4db2c" x="380.099635" y="187.398137" style="fill: #bfbf00; stroke: #bfbf00"/>
     <use xlink:href="#m9b95f4db2c" x="370.328358" y="187.362935" style="fill: #bfbf00; stroke: #bfbf00"/>
     <use xlink:href="#m9b95f4db2c" x="354.466567" y="189.640003" style="fill: #bfbf00; stroke: #bfbf00"/>
     <use xlink:href="#m9b95f4db2c" x="380.537996" y="198.578847" style="fill: #bfbf00; stroke: #bfbf00"/>
     <use xlink:href="#m9b95f4db2c" x="368.404233" y="197.434323" style="fill: #bfbf00; stroke: #bfbf00"/>
    </g>
   </g>
   <g id="PathCollection_2">
    <defs>
     <path id="m54be8d70a0" d="M 0 3  C 0.795609 3 1.55874 2.683901 2.12132 2.12132  C 2.683901 1.55874 3 0.795609 3 0  C 3 -0.795609 2.683901 -1.55874 2.12132 -2.12132  C 1.55874 -2.683901 0.795609 -3 0 -3  C -0.795609 -3 -1.55874 -2.683901 -2.12132 -2.12132  C -2.683901 -1.55874 -3 -0.795609 -3 0  C -3 0.795609 -2.683901 1.55874 -2.12132 2.12132  C -1.55874 2.683901 -0.795609 3 0 3  z " style="stroke: #ff0000"/>
    </defs>
    <g clip-path="url(#p6f165601ce)">
     <use xlink:href="#m54be8d70a0" x="245.624426" y="168.791412" style="fill: #ff0000; stroke: #ff0000"/>
     <use xlink:href="#m54be8d70a0" x="252.36807" y="168.93916" style="fill: #ff0000; stroke: #ff0000"/>
     <use xlink:href="#m54be8d70a0" x="254.326396" y="171.868515" style="fill: #ff0000; stroke: #ff0000"/>
     <use xlink:href="#m54be8d70a0" x="257.317052" y="174.405197" style="fill: #ff0000; stroke: #ff0000"/>
     <use xlink:href="#m54be8d70a0" x="256.189689" y="173.519193" style="fill: #ff0000; stroke: #ff0000"/>
     <use xlink:href="#m54be8d70a0" x="261.527249" y="175.32691" style="fill: #ff0000; stroke: #ff0000"/>
     <use xlink:href="#m54be8d70a0" x="250.137368" y="174.33726" style="fill: #ff0000; stroke: #ff0000"/>
     <use xlink:href="#m54be8d70a0" x="257.003906" y="172.682983" style="fill: #ff0000; stroke: #ff0000"/>
     <use xlink:href="#m54be8d70a0" x="257.068475" y="172.263604" style="fill: #ff0000; stroke: #ff0000"/>
     <use xlink:href="#m54be8d70a0" x="252.930516" y="177.93181" style="fill: #ff0000; stroke: #ff0000"/>
     <use xlink:href="#m54be8d70a0" x="230.028578" y="165.623333" style="fill: #ff0000; stroke: #ff0000"/>
     <use xlink:href="#m54be8d70a0" x="223.205833" y="168.33848" style="fill: #ff0000; stroke: #ff0000"/>
     <use xlink:href="#m54be8d70a0" x="226.681118" y="169.904074" style="fill: #ff0000; stroke: #ff0000"/>
     <use xlink:href="#m54be8d70a0" x="225.372944" y="165.226949" style="fill: #ff0000; stroke: #ff0000"/>
     <use xlink:href="#m54be8d70a0" x="230.716284" y="165.567725" style="fill: #ff0000; stroke: #ff0000"/>
     <use xlink:href="#m54be8d70a0" x="217.519084" y="159.608076" style="fill: #ff0000; stroke: #ff0000"/>
     <use xlink:href="#m54be8d70a0" x="264.850568" y="179.030943" style="fill: #ff0000; stroke: #ff0000"/>
     <use xlink:href="#m54be8d70a0" x="244.294917" y="171.120154" style="fill: #ff0000; stroke: #ff0000"/>
     <use xlink:href="#m54be8d70a0" x="255.633922" y="170.440462" style="fill: #ff0000; stroke: #ff0000"/>
     <use xlink:href="#m54be8d70a0" x="249.258303" y="168.177685" style="fill: #ff0000; stroke: #ff0000"/>
     <use xlink:href="#m54be8d70a0" x="260.757654" y="181.604831" style="fill: #ff0000; stroke: #ff0000"/>
     <use xlink:href="#m54be8d70a0" x="251.815802" y="179.826301" style="fill: #ff0000; stroke: #ff0000"/>
     <use xlink:href="#m54be8d70a0" x="253.692669" y="181.622798" style="fill: #ff0000; stroke: #ff0000"/>
     <use xlink:href="#m54be8d70a0" x="270.336832" y="184.825375" style="fill: #ff0000; stroke: #ff0000"/>
    </g>
   </g>
   <g id="PathCollection_3">
    <defs>
     <path id="mf4232bb1bb" d="M 0 3  C 0.795609 3 1.55874 2.683901 2.12132 2.12132  C 2.683901 1.55874 3 0.795609 3 0  C 3 -0.795609 2.683901 -1.55874 2.12132 -2.12132  C 1.55874 -2.683901 0.795609 -3 0 -3  C -0.795609 -3 -1.55874 -2.683901 -2.12132 -2.12132  C -2.683901 -1.55874 -3 -0.795609 -3 0  C -3 0.795609 -2.683901 1.55874 -2.12132 2.12132  C -1.55874 2.683901 -0.795609 3 0 3  z " style="stroke: #008000"/>
    </defs>
    <g clip-path="url(#p6f165601ce)">
     <use xlink:href="#mf4232bb1bb" x="132.481276" y="241.341855" style="fill: #008000; stroke: #008000"/>
     <use xlink:href="#mf4232bb1bb" x="129.561744" y="244.803258" style="fill: #008000; stroke: #008000"/>
     <use xlink:href="#mf4232bb1bb" x="136.0279" y="237.940838" style="fill: #008000; stroke: #008000"/>
     <use xlink:href="#mf4232bb1bb" x="131.808034" y="239.961508" style="fill: #008000; stroke: #008000"/>
     <use xlink:href="#mf4232bb1bb" x="135.955539" y="234.139777" style="fill: #008000; stroke: #008000"/>
     <use xlink:href="#mf4232bb1bb" x="131.852364" y="238.417351" style="fill: #008000; stroke: #008000"/>
     <use xlink:href="#mf4232bb1bb" x="127.57755" y="237.191883" style="fill: #008000; stroke: #008000"/>
     <use xlink:href="#mf4232bb1bb" x="133.650346" y="247.3589" style="fill: #008000; stroke: #008000"/>
     <use xlink:href="#mf4232bb1bb" x="129.115668" y="242.19888" style="fill: #008000; stroke: #008000"/>
     <use xlink:href="#mf4232bb1bb" x="113.381756" y="214.481128" style="fill: #008000; stroke: #008000"/>
     <use xlink:href="#mf4232bb1bb" x="135.270983" y="248.250413" style="fill: #008000; stroke: #008000"/>
     <use xlink:href="#mf4232bb1bb" x="145.990311" y="262.582793" style="fill: #008000; stroke: #008000"/>
     <use xlink:href="#mf4232bb1bb" x="129.663543" y="255.619008" style="fill: #008000; stroke: #008000"/>
     <use xlink:href="#mf4232bb1bb" x="149.302937" y="254.775628" style="fill: #008000; stroke: #008000"/>
     <use xlink:href="#mf4232bb1bb" x="153.868335" y="238.671721" style="fill: #008000; stroke: #008000"/>
     <use xlink:href="#mf4232bb1bb" x="149.526885" y="237.202095" style="fill: #008000; stroke: #008000"/>
     <use xlink:href="#mf4232bb1bb" x="138.938154" y="238.486551" style="fill: #008000; stroke: #008000"/>
     <use xlink:href="#mf4232bb1bb" x="140.923217" y="232.790211" style="fill: #008000; stroke: #008000"/>
     <use xlink:href="#mf4232bb1bb" x="131.741788" y="224.644122" style="fill: #008000; stroke: #008000"/>
     <use xlink:href="#mf4232bb1bb" x="154.042544" y="258.097758" style="fill: #008000; stroke: #008000"/>
     <use xlink:href="#mf4232bb1bb" x="155.065343" y="264.473419" style="fill: #008000; stroke: #008000"/>
     <use xlink:href="#mf4232bb1bb" x="152.942555" y="266.269091" style="fill: #008000; stroke: #008000"/>
     <use xlink:href="#mf4232bb1bb" x="149.315076" y="261.487076" style="fill: #008000; stroke: #008000"/>
     <use xlink:href="#mf4232bb1bb" x="147.633979" y="261.208366" style="fill: #008000; stroke: #008000"/>
     <use xlink:href="#mf4232bb1bb" x="146.385494" y="260.490331" style="fill: #008000; stroke: #008000"/>
     <use xlink:href="#mf4232bb1bb" x="117.251189" y="187.1138" style="fill: #008000; stroke: #008000"/>
     <use xlink:href="#mf4232bb1bb" x="119.547476" y="184.798859" style="fill: #008000; stroke: #008000"/>
     <use xlink:href="#mf4232bb1bb" x="132.65879" y="176.924146" style="fill: #008000; stroke: #008000"/>
     <use xlink:href="#mf4232bb1bb" x="119.968835" y="169.609434" style="fill: #008000; stroke: #008000"/>
     <use xlink:href="#mf4232bb1bb" x="126.501637" y="158.941637" style="fill: #008000; stroke: #008000"/>
     <use xlink:href="#mf4232bb1bb" x="131.503402" y="145.852334" style="fill: #008000; stroke: #008000"/>
     <use xlink:href="#mf4232bb1bb" x="126.718034" y="203.086655" style="fill: #008000; stroke: #008000"/>
     <use xlink:href="#mf4232bb1bb" x="127.148857" y="206.775785" style="fill: #008000; stroke: #008000"/>
     <use xlink:href="#mf4232bb1bb" x="129.411097" y="205.632926" style="fill: #008000; stroke: #008000"/>
     <use xlink:href="#mf4232bb1bb" x="122.841587" y="204.873053" style="fill: #008000; stroke: #008000"/>
     <use xlink:href="#mf4232bb1bb" x="118.519483" y="204.533145" style="fill: #008000; stroke: #008000"/>
     <use xlink:href="#mf4232bb1bb" x="127.204306" y="211.718266" style="fill: #008000; stroke: #008000"/>
     <use xlink:href="#mf4232bb1bb" x="127.04054" y="182.69902" style="fill: #008000; stroke: #008000"/>
     <use xlink:href="#mf4232bb1bb" x="128.666282" y="195.33089" style="fill: #008000; stroke: #008000"/>
     <use xlink:href="#mf4232bb1bb" x="139.846504" y="171.170416" style="fill: #008000; stroke: #008000"/>
     <use xlink:href="#mf4232bb1bb" x="127.912829" y="181.554581" style="fill: #008000; stroke: #008000"/>
     <use xlink:href="#mf4232bb1bb" x="135.316079" y="182.660176" style="fill: #008000; stroke: #008000"/>
     <use xlink:href="#mf4232bb1bb" x="122.983928" y="192.725994" style="fill: #008000; stroke: #008000"/>
     <use xlink:href="#mf4232bb1bb" x="114.413366" y="200.477072" style="fill: #008000; stroke: #008000"/>
     <use xlink:href="#mf4232bb1bb" x="112.275678" y="192.248424" style="fill: #008000; stroke: #008000"/>
     <use xlink:href="#mf4232bb1bb" x="117.650921" y="181.675137" style="fill: #008000; stroke: #008000"/>
     <use xlink:href="#mf4232bb1bb" x="110.310266" y="192.006426" style="fill: #008000; stroke: #008000"/>
     <use xlink:href="#mf4232bb1bb" x="111.024733" y="189.67254" style="fill: #008000; stroke: #008000"/>
     <use xlink:href="#mf4232bb1bb" x="106.821818" y="200.223905" style="fill: #008000; stroke: #008000"/>
     <use xlink:href="#mf4232bb1bb" x="142.143583" y="229.380785" style="fill: #008000; stroke: #008000"/>
     <use xlink:href="#mf4232bb1bb" x="135.112955" y="227.960536" style="fill: #008000; stroke: #008000"/>
     <use xlink:href="#mf4232bb1bb" x="135.942863" y="227.134935" style="fill: #008000; stroke: #008000"/>
     <use xlink:href="#mf4232bb1bb" x="137.064527" y="219.355469" style="fill: #008000; stroke: #008000"/>
     <use xlink:href="#mf4232bb1bb" x="131.654538" y="224.428263" style="fill: #008000; stroke: #008000"/>
     <use xlink:href="#mf4232bb1bb" x="131.123593" y="229.423227" style="fill: #008000; stroke: #008000"/>
    </g>
   </g>
   <g id="PathCollection_4">
    <defs>
     <path id="m10243a4ead" d="M 0 3  C 0.795609 3 1.55874 2.683901 2.12132 2.12132  C 2.683901 1.55874 3 0.795609 3 0  C 3 -0.795609 2.683901 -1.55874 2.12132 -2.12132  C 1.55874 -2.683901 0.795609 -3 0 -3  C -0.795609 -3 -1.55874 -2.683901 -2.12132 -2.12132  C -2.683901 -1.55874 -3 -0.795609 -3 0  C -3 0.795609 -2.683901 1.55874 -2.12132 2.12132  C -1.55874 2.683901 -0.795609 3 0 3  z " style="stroke: #a52a2a"/>
    </defs>
    <g clip-path="url(#p6f165601ce)">
     <use xlink:href="#m10243a4ead" x="174.243207" y="90.606188" style="fill: #a52a2a; stroke: #a52a2a"/>
     <use xlink:href="#m10243a4ead" x="172.605705" y="90.168469" style="fill: #a52a2a; stroke: #a52a2a"/>
     <use xlink:href="#m10243a4ead" x="168.704397" y="85.507377" style="fill: #a52a2a; stroke: #a52a2a"/>
     <use xlink:href="#m10243a4ead" x="170.263401" y="84.182538" style="fill: #a52a2a; stroke: #a52a2a"/>
     <use xlink:href="#m10243a4ead" x="173.871588" y="76.918415" style="fill: #a52a2a; stroke: #a52a2a"/>
     <use xlink:href="#m10243a4ead" x="174.312641" y="70.087177" style="fill: #a52a2a; stroke: #a52a2a"/>
     <use xlink:href="#m10243a4ead" x="181.983667" y="97.041607" style="fill: #a52a2a; stroke: #a52a2a"/>
     <use xlink:href="#m10243a4ead" x="178.47708" y="103.496071" style="fill: #a52a2a; stroke: #a52a2a"/>
     <use xlink:href="#m10243a4ead" x="179.477144" y="104.290643" style="fill: #a52a2a; stroke: #a52a2a"/>
     <use xlink:href="#m10243a4ead" x="184.247742" y="105.663257" style="fill: #a52a2a; stroke: #a52a2a"/>
     <use xlink:href="#m10243a4ead" x="188.054888" y="107.388057" style="fill: #a52a2a; stroke: #a52a2a"/>
     <use xlink:href="#m10243a4ead" x="183.907927" y="102.473731" style="fill: #a52a2a; stroke: #a52a2a"/>
     <use xlink:href="#m10243a4ead" x="182.314087" y="75.871809" style="fill: #a52a2a; stroke: #a52a2a"/>
     <use xlink:href="#m10243a4ead" x="185.695814" y="65.750021" style="fill: #a52a2a; stroke: #a52a2a"/>
     <use xlink:href="#m10243a4ead" x="185.709146" y="67.131712" style="fill: #a52a2a; stroke: #a52a2a"/>
     <use xlink:href="#m10243a4ead" x="183.086015" y="78.64279" style="fill: #a52a2a; stroke: #a52a2a"/>
     <use xlink:href="#m10243a4ead" x="189.103466" y="68.842688" style="fill: #a52a2a; stroke: #a52a2a"/>
     <use xlink:href="#m10243a4ead" x="183.164806" y="71.449258" style="fill: #a52a2a; stroke: #a52a2a"/>
     <use xlink:href="#m10243a4ead" x="182.487049" y="74.629991" style="fill: #a52a2a; stroke: #a52a2a"/>
     <use xlink:href="#m10243a4ead" x="184.569822" y="67.409301" style="fill: #a52a2a; stroke: #a52a2a"/>
     <use xlink:href="#m10243a4ead" x="186.301407" y="67.278812" style="fill: #a52a2a; stroke: #a52a2a"/>
     <use xlink:href="#m10243a4ead" x="186.929239" y="62.050909" style="fill: #a52a2a; stroke: #a52a2a"/>
     <use xlink:href="#m10243a4ead" x="180.950291" y="78.420656" style="fill: #a52a2a; stroke: #a52a2a"/>
     <use xlink:href="#m10243a4ead" x="176.052455" y="82.346754" style="fill: #a52a2a; stroke: #a52a2a"/>
     <use xlink:href="#m10243a4ead" x="174.832932" y="74.060126" style="fill: #a52a2a; stroke: #a52a2a"/>
     <use xlink:href="#m10243a4ead" x="172.833988" y="101.673932" style="fill: #a52a2a; stroke: #a52a2a"/>
     <use xlink:href="#m10243a4ead" x="173.896457" y="89.284342" style="fill: #a52a2a; stroke: #a52a2a"/>
     <use xlink:href="#m10243a4ead" x="172.171752" y="82.765616" style="fill: #a52a2a; stroke: #a52a2a"/>
     <use xlink:href="#m10243a4ead" x="179.226277" y="77.549921" style="fill: #a52a2a; stroke: #a52a2a"/>
     <use xlink:href="#m10243a4ead" x="185.384556" y="70.81088" style="fill: #a52a2a; stroke: #a52a2a"/>
     <use xlink:href="#m10243a4ead" x="184.389508" y="68.402825" style="fill: #a52a2a; stroke: #a52a2a"/>
     <use xlink:href="#m10243a4ead" x="179.417914" y="66.370016" style="fill: #a52a2a; stroke: #a52a2a"/>
     <use xlink:href="#m10243a4ead" x="178.712848" y="93.800637" style="fill: #a52a2a; stroke: #a52a2a"/>
     <use xlink:href="#m10243a4ead" x="175.885835" y="90.04464" style="fill: #a52a2a; stroke: #a52a2a"/>
     <use xlink:href="#m10243a4ead" x="176.764045" y="93.948721" style="fill: #a52a2a; stroke: #a52a2a"/>
     <use xlink:href="#m10243a4ead" x="175.064596" y="103.174467" style="fill: #a52a2a; stroke: #a52a2a"/>
     <use xlink:href="#m10243a4ead" x="175.490847" y="87.774269" style="fill: #a52a2a; stroke: #a52a2a"/>
    </g>
   </g>
   <g id="PathCollection_5">
    <defs>
     <path id="mdf00f8998e" d="M 0 3  C 0.795609 3 1.55874 2.683901 2.12132 2.12132  C 2.683901 1.55874 3 0.795609 3 0  C 3 -0.795609 2.683901 -1.55874 2.12132 -2.12132  C 1.55874 -2.683901 0.795609 -3 0 -3  C -0.795609 -3 -1.55874 -2.683901 -2.12132 -2.12132  C -2.683901 -1.55874 -3 -0.795609 -3 0  C -3 0.795609 -2.683901 1.55874 -2.12132 2.12132  C -1.55874 2.683901 -0.795609 3 0 3  z " style="stroke: #0000ff"/>
    </defs>
    <g clip-path="url(#p6f165601ce)">
     <use xlink:href="#mdf00f8998e" x="295.463748" y="190.046" style="fill: #0000ff; stroke: #0000ff"/>
     <use xlink:href="#mdf00f8998e" x="304.274844" y="193.120505" style="fill: #0000ff; stroke: #0000ff"/>
     <use xlink:href="#mdf00f8998e" x="295.072568" y="189.959864" style="fill: #0000ff; stroke: #0000ff"/>
     <use xlink:href="#mdf00f8998e" x="292.68089" y="206.504314" style="fill: #0000ff; stroke: #0000ff"/>
     <use xlink:href="#mdf00f8998e" x="308.302634" y="194.465626" style="fill: #0000ff; stroke: #0000ff"/>
     <use xlink:href="#mdf00f8998e" x="307.091361" y="195.990173" style="fill: #0000ff; stroke: #0000ff"/>
     <use xlink:href="#mdf00f8998e" x="330.178039" y="186.082761" style="fill: #0000ff; stroke: #0000ff"/>
     <use xlink:href="#mdf00f8998e" x="313.897405" y="182.812038" style="fill: #0000ff; stroke: #0000ff"/>
     <use xlink:href="#mdf00f8998e" x="306.965529" y="182.682726" style="fill: #0000ff; stroke: #0000ff"/>
     <use xlink:href="#mdf00f8998e" x="289.457615" y="177.154811" style="fill: #0000ff; stroke: #0000ff"/>
     <use xlink:href="#mdf00f8998e" x="305.107017" y="180.336154" style="fill: #0000ff; stroke: #0000ff"/>
     <use xlink:href="#mdf00f8998e" x="285.089398" y="176.27918" style="fill: #0000ff; stroke: #0000ff"/>
     <use xlink:href="#mdf00f8998e" x="332.748273" y="187.083581" style="fill: #0000ff; stroke: #0000ff"/>
     <use xlink:href="#mdf00f8998e" x="316.62592" y="184.492534" style="fill: #0000ff; stroke: #0000ff"/>
     <use xlink:href="#mdf00f8998e" x="326.755762" y="186.776791" style="fill: #0000ff; stroke: #0000ff"/>
     <use xlink:href="#mdf00f8998e" x="291.413631" y="183.10617" style="fill: #0000ff; stroke: #0000ff"/>
     <use xlink:href="#mdf00f8998e" x="323.258513" y="188.493621" style="fill: #0000ff; stroke: #0000ff"/>
     <use xlink:href="#mdf00f8998e" x="301.200107" y="183.350281" style="fill: #0000ff; stroke: #0000ff"/>
     <use xlink:href="#mdf00f8998e" x="304.070899" y="185.986851" style="fill: #0000ff; stroke: #0000ff"/>
     <use xlink:href="#mdf00f8998e" x="296.752054" y="181.799966" style="fill: #0000ff; stroke: #0000ff"/>
     <use xlink:href="#mdf00f8998e" x="314.702898" y="184.356399" style="fill: #0000ff; stroke: #0000ff"/>
     <use xlink:href="#mdf00f8998e" x="304.609052" y="184.329" style="fill: #0000ff; stroke: #0000ff"/>
     <use xlink:href="#mdf00f8998e" x="324.714799" y="186.810985" style="fill: #0000ff; stroke: #0000ff"/>
     <use xlink:href="#mdf00f8998e" x="281.931605" y="183.460009" style="fill: #0000ff; stroke: #0000ff"/>
     <use xlink:href="#mdf00f8998e" x="294.406735" y="188.776574" style="fill: #0000ff; stroke: #0000ff"/>
     <use xlink:href="#mdf00f8998e" x="306.099702" y="193.405092" style="fill: #0000ff; stroke: #0000ff"/>
     <use xlink:href="#mdf00f8998e" x="274.027146" y="184.397152" style="fill: #0000ff; stroke: #0000ff"/>
    </g>
   </g>
   <g id="PathCollection_6">
    <defs>
     <path id="md833ba7eb7" d="M 0 3  C 0.795609 3 1.55874 2.683901 2.12132 2.12132  C 2.683901 1.55874 3 0.795609 3 0  C 3 -0.795609 2.683901 -1.55874 2.12132 -2.12132  C 1.55874 -2.683901 0.795609 -3 0 -3  C -0.795609 -3 -1.55874 -2.683901 -2.12132 -2.12132  C -2.683901 -1.55874 -3 -0.795609 -3 0  C -3 0.795609 -2.683901 1.55874 -2.12132 2.12132  C -1.55874 2.683901 -0.795609 3 0 3  z " style="stroke: #00bfbf"/>
    </defs>
    <g clip-path="url(#p6f165601ce)">
     <use xlink:href="#md833ba7eb7" x="221.73104" y="227.706998" style="fill: #00bfbf; stroke: #00bfbf"/>
     <use xlink:href="#md833ba7eb7" x="220.505677" y="229.374478" style="fill: #00bfbf; stroke: #00bfbf"/>
     <use xlink:href="#md833ba7eb7" x="213.256361" y="228.709513" style="fill: #00bfbf; stroke: #00bfbf"/>
     <use xlink:href="#md833ba7eb7" x="223.093877" y="237.199295" style="fill: #00bfbf; stroke: #00bfbf"/>
     <use xlink:href="#md833ba7eb7" x="220.789391" y="232.865759" style="fill: #00bfbf; stroke: #00bfbf"/>
     <use xlink:href="#md833ba7eb7" x="217.477768" y="221.775688" style="fill: #00bfbf; stroke: #00bfbf"/>
     <use xlink:href="#md833ba7eb7" x="163.136943" y="225.860783" style="fill: #00bfbf; stroke: #00bfbf"/>
    </g>
   </g>
   <g id="PathCollection_7">
    <defs>
     <path id="mf77ce2252f" d="M 0 3  C 0.795609 3 1.55874 2.683901 2.12132 2.12132  C 2.683901 1.55874 3 0.795609 3 0  C 3 -0.795609 2.683901 -1.55874 2.12132 -2.12132  C 1.55874 -2.683901 0.795609 -3 0 -3  C -0.795609 -3 -1.55874 -2.683901 -2.12132 -2.12132  C -2.683901 -1.55874 -3 -0.795609 -3 0  C -3 0.795609 -2.683901 1.55874 -2.12132 2.12132  C -1.55874 2.683901 -0.795609 3 0 3  z " style="stroke: #bf00bf"/>
    </defs>
    <g clip-path="url(#p6f165601ce)">
     <use xlink:href="#mf77ce2252f" x="188.137431" y="117.321293" style="fill: #bf00bf; stroke: #bf00bf"/>
     <use xlink:href="#mf77ce2252f" x="185.355374" y="117.689018" style="fill: #bf00bf; stroke: #bf00bf"/>
     <use xlink:href="#mf77ce2252f" x="203.935005" y="144.210017" style="fill: #bf00bf; stroke: #bf00bf"/>
     <use xlink:href="#mf77ce2252f" x="235.396504" y="156.80423" style="fill: #bf00bf; stroke: #bf00bf"/>
     <use xlink:href="#mf77ce2252f" x="210.497651" y="149.175508" style="fill: #bf00bf; stroke: #bf00bf"/>
     <use xlink:href="#mf77ce2252f" x="213.190934" y="147.046027" style="fill: #bf00bf; stroke: #bf00bf"/>
     <use xlink:href="#mf77ce2252f" x="197.671627" y="138.601243" style="fill: #bf00bf; stroke: #bf00bf"/>
     <use xlink:href="#mf77ce2252f" x="196.227727" y="135.339291" style="fill: #bf00bf; stroke: #bf00bf"/>
     <use xlink:href="#mf77ce2252f" x="194.21329" y="136.204902" style="fill: #bf00bf; stroke: #bf00bf"/>
     <use xlink:href="#mf77ce2252f" x="203.03485" y="150.623781" style="fill: #bf00bf; stroke: #bf00bf"/>
     <use xlink:href="#mf77ce2252f" x="197.88882" y="139.280093" style="fill: #bf00bf; stroke: #bf00bf"/>
     <use xlink:href="#mf77ce2252f" x="201.099522" y="140.405278" style="fill: #bf00bf; stroke: #bf00bf"/>
     <use xlink:href="#mf77ce2252f" x="181.37416" y="102.770157" style="fill: #bf00bf; stroke: #bf00bf"/>
     <use xlink:href="#mf77ce2252f" x="186.298217" y="106.110783" style="fill: #bf00bf; stroke: #bf00bf"/>
     <use xlink:href="#mf77ce2252f" x="184.384291" y="108.633465" style="fill: #bf00bf; stroke: #bf00bf"/>
     <use xlink:href="#mf77ce2252f" x="183.53759" y="114.881205" style="fill: #bf00bf; stroke: #bf00bf"/>
     <use xlink:href="#mf77ce2252f" x="184.471396" y="116.446599" style="fill: #bf00bf; stroke: #bf00bf"/>
     <use xlink:href="#mf77ce2252f" x="177.300891" y="114.693065" style="fill: #bf00bf; stroke: #bf00bf"/>
     <use xlink:href="#mf77ce2252f" x="191.33736" y="147.301236" style="fill: #bf00bf; stroke: #bf00bf"/>
     <use xlink:href="#mf77ce2252f" x="190.900755" y="142.269227" style="fill: #bf00bf; stroke: #bf00bf"/>
     <use xlink:href="#mf77ce2252f" x="188.176736" y="144.144779" style="fill: #bf00bf; stroke: #bf00bf"/>
     <use xlink:href="#mf77ce2252f" x="194.330916" y="145.69938" style="fill: #bf00bf; stroke: #bf00bf"/>
     <use xlink:href="#mf77ce2252f" x="195.835061" y="147.418617" style="fill: #bf00bf; stroke: #bf00bf"/>
     <use xlink:href="#mf77ce2252f" x="191.441493" y="140.756059" style="fill: #bf00bf; stroke: #bf00bf"/>
    </g>
   </g>
   <g id="matplotlib.axis_1">
    <g id="xtick_1">
     <g id="line2d_1">
      <defs>
       <path id="m64ed242ffa" d="M 0 0  L 0 3.5  " style="stroke: #000000; stroke-width: 0.8"/>
      </defs>
      <g>
       <use xlink:href="#m64ed242ffa" x="140.179597" y="276.48" style="stroke: #000000; stroke-width: 0.8"/>
      </g>
     </g>
     <g id="text_1">
      <!-- −50 -->
      <g transform="translate(124.351081 294.877656)scale(0.15 -0.15)">
       <defs>
        <path id="DejaVuSans-2212" d="M 678 2272  L 4684 2272  L 4684 1741  L 678 1741  L 678 2272  z " transform="scale(0.015625)"/>
        <path id="DejaVuSans-35" d="M 691 4666  L 3169 4666  L 3169 4134  L 1269 4134  L 1269 2991  Q 1406 3038 1543 3061  Q 1681 3084 1819 3084  Q 2600 3084 3056 2656  Q 3513 2228 3513 1497  Q 3513 744 3044 326  Q 2575 -91 1722 -91  Q 1428 -91 1123 -41  Q 819 9 494 109  L 494 744  Q 775 591 1075 516  Q 1375 441 1709 441  Q 2250 441 2565 725  Q 2881 1009 2881 1497  Q 2881 1984 2565 2268  Q 2250 2553 1709 2553  Q 1456 2553 1204 2497  Q 953 2441 691 2322  L 691 4666  z " transform="scale(0.015625)"/>
        <path id="DejaVuSans-30" d="M 2034 4250  Q 1547 4250 1301 3770  Q 1056 3291 1056 2328  Q 1056 1369 1301 889  Q 1547 409 2034 409  Q 2525 409 2770 889  Q 3016 1369 3016 2328  Q 3016 3291 2770 3770  Q 2525 4250 2034 4250  z M 2034 4750  Q 2819 4750 3233 4129  Q 3647 3509 3647 2328  Q 3647 1150 3233 529  Q 2819 -91 2034 -91  Q 1250 -91 836 529  Q 422 1150 422 2328  Q 422 3509 836 4129  Q 1250 4750 2034 4750  z " transform="scale(0.015625)"/>
       </defs>
       <use xlink:href="#DejaVuSans-2212"/>
       <use xlink:href="#DejaVuSans-35" x="83.789062"/>
       <use xlink:href="#DejaVuSans-30" x="147.412109"/>
      </g>
     </g>
    </g>
    <g id="xtick_2">
     <g id="line2d_2">
      <g>
       <use xlink:href="#m64ed242ffa" x="207.86147" y="276.48" style="stroke: #000000; stroke-width: 0.8"/>
      </g>
     </g>
     <g id="text_2">
      <!-- 0 -->
      <g transform="translate(203.089595 294.877656)scale(0.15 -0.15)">
       <use xlink:href="#DejaVuSans-30"/>
      </g>
     </g>
    </g>
    <g id="xtick_3">
     <g id="line2d_3">
      <g>
       <use xlink:href="#m64ed242ffa" x="275.543344" y="276.48" style="stroke: #000000; stroke-width: 0.8"/>
      </g>
     </g>
     <g id="text_3">
      <!-- 50 -->
      <g transform="translate(265.999594 294.877656)scale(0.15 -0.15)">
       <use xlink:href="#DejaVuSans-35"/>
       <use xlink:href="#DejaVuSans-30" x="63.623047"/>
      </g>
     </g>
    </g>
    <g id="xtick_4">
     <g id="line2d_4">
      <g>
       <use xlink:href="#m64ed242ffa" x="343.225218" y="276.48" style="stroke: #000000; stroke-width: 0.8"/>
      </g>
     </g>
     <g id="text_4">
      <!-- 100 -->
      <g transform="translate(328.909593 294.877656)scale(0.15 -0.15)">
       <defs>
        <path id="DejaVuSans-31" d="M 794 531  L 1825 531  L 1825 4091  L 703 3866  L 703 4441  L 1819 4666  L 2450 4666  L 2450 531  L 3481 531  L 3481 0  L 794 0  L 794 531  z " transform="scale(0.015625)"/>
       </defs>
       <use xlink:href="#DejaVuSans-31"/>
       <use xlink:href="#DejaVuSans-30" x="63.623047"/>
       <use xlink:href="#DejaVuSans-30" x="127.246094"/>
      </g>
     </g>
    </g>
    <g id="xtick_5">
     <g id="line2d_5">
      <g>
       <use xlink:href="#m64ed242ffa" x="410.907092" y="276.48" style="stroke: #000000; stroke-width: 0.8"/>
      </g>
     </g>
     <g id="text_5">
      <!-- 150 -->
      <g transform="translate(396.591467 294.877656)scale(0.15 -0.15)">
       <use xlink:href="#DejaVuSans-31"/>
       <use xlink:href="#DejaVuSans-35" x="63.623047"/>
       <use xlink:href="#DejaVuSans-30" x="127.246094"/>
      </g>
     </g>
    </g>
    <g id="text_6">
     <!-- Principal Component 1 -->
     <g transform="translate(151.232344 315.674375)scale(0.18 -0.18)">
      <defs>
       <path id="DejaVuSans-Oblique-50" d="M 1081 4666  L 2541 4666  Q 3178 4666 3512 4369  Q 3847 4072 3847 3500  Q 3847 2731 3353 2303  Q 2859 1875 1966 1875  L 1172 1875  L 806 0  L 172 0  L 1081 4666  z M 1613 4147  L 1275 2394  L 2069 2394  Q 2606 2394 2893 2669  Q 3181 2944 3181 3456  Q 3181 3784 2986 3965  Q 2791 4147 2438 4147  L 1613 4147  z " transform="scale(0.015625)"/>
       <path id="DejaVuSans-Oblique-72" d="M 2853 2969  Q 2766 3016 2653 3041  Q 2541 3066 2413 3066  Q 1953 3066 1609 2717  Q 1266 2369 1153 1784  L 800 0  L 225 0  L 909 3500  L 1484 3500  L 1375 2956  Q 1603 3259 1920 3421  Q 2238 3584 2597 3584  Q 2691 3584 2781 3573  Q 2872 3563 2963 3538  L 2853 2969  z " transform="scale(0.015625)"/>
       <path id="DejaVuSans-Oblique-69" d="M 1172 4863  L 1747 4863  L 1606 4134  L 1031 4134  L 1172 4863  z M 909 3500  L 1484 3500  L 800 0  L 225 0  L 909 3500  z " transform="scale(0.015625)"/>
       <path id="DejaVuSans-Oblique-6e" d="M 3566 2113  L 3156 0  L 2578 0  L 2988 2091  Q 3016 2238 3031 2350  Q 3047 2463 3047 2528  Q 3047 2791 2881 2937  Q 2716 3084 2419 3084  Q 1956 3084 1622 2776  Q 1288 2469 1184 1941  L 800 0  L 225 0  L 903 3500  L 1478 3500  L 1363 2950  Q 1603 3253 1940 3418  Q 2278 3584 2650 3584  Q 3113 3584 3367 3334  Q 3622 3084 3622 2631  Q 3622 2519 3608 2391  Q 3594 2263 3566 2113  z " transform="scale(0.015625)"/>
       <path id="DejaVuSans-Oblique-63" d="M 3431 3366  L 3316 2797  Q 3109 2947 2876 3022  Q 2644 3097 2394 3097  Q 2119 3097 1870 3000  Q 1622 2903 1453 2725  Q 1184 2453 1037 2087  Q 891 1722 891 1331  Q 891 859 1127 628  Q 1363 397 1844 397  Q 2081 397 2348 469  Q 2616 541 2906 684  L 2797 116  Q 2547 13 2283 -39  Q 2019 -91 1741 -91  Q 1044 -91 669 257  Q 294 606 294 1253  Q 294 1797 489 2255  Q 684 2713 1069 3078  Q 1331 3328 1684 3456  Q 2038 3584 2456 3584  Q 2700 3584 2940 3529  Q 3181 3475 3431 3366  z " transform="scale(0.015625)"/>
       <path id="DejaVuSans-Oblique-70" d="M 3175 2156  Q 3175 2616 2975 2859  Q 2775 3103 2400 3103  Q 2144 3103 1911 2972  Q 1678 2841 1497 2591  Q 1319 2344 1212 1994  Q 1106 1644 1106 1300  Q 1106 863 1306 627  Q 1506 391 1875 391  Q 2147 391 2380 519  Q 2613 647 2778 891  Q 2956 1147 3065 1494  Q 3175 1841 3175 2156  z M 1394 2969  Q 1625 3272 1939 3428  Q 2253 3584 2638 3584  Q 3175 3584 3472 3232  Q 3769 2881 3769 2247  Q 3769 1728 3584 1258  Q 3400 788 3053 416  Q 2822 169 2531 39  Q 2241 -91 1919 -91  Q 1547 -91 1294 64  Q 1041 219 916 525  L 556 -1331  L -19 -1331  L 922 3500  L 1497 3500  L 1394 2969  z " transform="scale(0.015625)"/>
       <path id="DejaVuSans-Oblique-61" d="M 3438 1997  L 3047 0  L 2472 0  L 2578 531  Q 2325 219 2001 64  Q 1678 -91 1281 -91  Q 834 -91 548 182  Q 263 456 263 884  Q 263 1497 752 1853  Q 1241 2209 2100 2209  L 2900 2209  L 2931 2363  Q 2938 2388 2941 2417  Q 2944 2447 2944 2509  Q 2944 2788 2717 2942  Q 2491 3097 2081 3097  Q 1800 3097 1504 3025  Q 1209 2953 897 2809  L 997 3341  Q 1322 3463 1633 3523  Q 1944 3584 2234 3584  Q 2853 3584 3176 3315  Q 3500 3047 3500 2534  Q 3500 2431 3484 2292  Q 3469 2153 3438 1997  z M 2816 1759  L 2241 1759  Q 1534 1759 1195 1570  Q 856 1381 856 984  Q 856 709 1029 553  Q 1203 397 1509 397  Q 1978 397 2328 733  Q 2678 1069 2791 1631  L 2816 1759  z " transform="scale(0.015625)"/>
       <path id="DejaVuSans-Oblique-6c" d="M 1172 4863  L 1747 4863  L 800 0  L 225 0  L 1172 4863  z " transform="scale(0.015625)"/>
       <path id="DejaVuSans-Oblique-20" transform="scale(0.015625)"/>
       <path id="DejaVuSans-Oblique-43" d="M 4447 4306  L 4319 3641  Q 4019 3944 3683 4091  Q 3347 4238 2956 4238  Q 2422 4238 2017 3981  Q 1613 3725 1319 3200  Q 1131 2863 1032 2486  Q 934 2109 934 1728  Q 934 1091 1264 756  Q 1594 422 2222 422  Q 2656 422 3056 561  Q 3456 700 3834 978  L 3688 231  Q 3316 72 2936 -9  Q 2556 -91 2175 -91  Q 1278 -91 773 396  Q 269 884 269 1753  Q 269 2309 461 2846  Q 653 3384 1013 3828  Q 1394 4300 1883 4525  Q 2372 4750 3022 4750  Q 3422 4750 3780 4639  Q 4138 4528 4447 4306  z " transform="scale(0.015625)"/>
       <path id="DejaVuSans-Oblique-6f" d="M 1625 -91  Q 1009 -91 651 289  Q 294 669 294 1325  Q 294 1706 417 2101  Q 541 2497 738 2766  Q 1047 3184 1428 3384  Q 1809 3584 2291 3584  Q 2888 3584 3255 3212  Q 3622 2841 3622 2241  Q 3622 1825 3500 1412  Q 3378 1000 3181 728  Q 2875 309 2494 109  Q 2113 -91 1625 -91  z M 891 1344  Q 891 869 1089 633  Q 1288 397 1691 397  Q 2269 397 2648 901  Q 3028 1406 3028 2181  Q 3028 2634 2825 2865  Q 2622 3097 2228 3097  Q 1903 3097 1650 2945  Q 1397 2794 1197 2484  Q 1050 2253 970 1956  Q 891 1659 891 1344  z " transform="scale(0.015625)"/>
       <path id="DejaVuSans-Oblique-6d" d="M 5747 2113  L 5338 0  L 4763 0  L 5166 2094  Q 5191 2228 5203 2325  Q 5216 2422 5216 2491  Q 5216 2772 5059 2928  Q 4903 3084 4622 3084  Q 4203 3084 3875 2770  Q 3547 2456 3450 1953  L 3066 0  L 2491 0  L 2900 2094  Q 2925 2209 2937 2307  Q 2950 2406 2950 2484  Q 2950 2769 2794 2926  Q 2638 3084 2363 3084  Q 1938 3084 1609 2770  Q 1281 2456 1184 1953  L 800 0  L 225 0  L 909 3500  L 1484 3500  L 1375 2956  Q 1609 3263 1923 3423  Q 2238 3584 2597 3584  Q 2978 3584 3223 3384  Q 3469 3184 3519 2828  Q 3781 3197 4126 3390  Q 4472 3584 4856 3584  Q 5306 3584 5551 3325  Q 5797 3066 5797 2591  Q 5797 2488 5784 2364  Q 5772 2241 5747 2113  z " transform="scale(0.015625)"/>
       <path id="DejaVuSans-Oblique-65" d="M 3078 2063  Q 3088 2113 3092 2166  Q 3097 2219 3097 2272  Q 3097 2653 2873 2875  Q 2650 3097 2266 3097  Q 1838 3097 1509 2826  Q 1181 2556 1013 2059  L 3078 2063  z M 3578 1613  L 903 1613  Q 884 1494 878 1425  Q 872 1356 872 1306  Q 872 872 1139 634  Q 1406 397 1894 397  Q 2269 397 2603 481  Q 2938 566 3225 728  L 3116 159  Q 2806 34 2476 -28  Q 2147 -91 1806 -91  Q 1078 -91 686 257  Q 294 606 294 1247  Q 294 1794 489 2264  Q 684 2734 1063 3103  Q 1306 3334 1642 3459  Q 1978 3584 2356 3584  Q 2950 3584 3301 3228  Q 3653 2872 3653 2272  Q 3653 2128 3634 1964  Q 3616 1800 3578 1613  z " transform="scale(0.015625)"/>
       <path id="DejaVuSans-Oblique-74" d="M 2706 3500  L 2619 3053  L 1472 3053  L 1100 1153  Q 1081 1047 1072 975  Q 1063 903 1063 863  Q 1063 663 1183 572  Q 1303 481 1569 481  L 2150 481  L 2053 0  L 1503 0  Q 991 0 739 200  Q 488 400 488 806  Q 488 878 497 964  Q 506 1050 525 1153  L 897 3053  L 409 3053  L 500 3500  L 978 3500  L 1172 4494  L 1747 4494  L 1556 3500  L 2706 3500  z " transform="scale(0.015625)"/>
       <path id="DejaVuSans-Oblique-31" d="M 416 531  L 1447 531  L 2144 4122  L 978 3897  L 1088 4441  L 2247 4666  L 2881 4666  L 2075 531  L 3103 531  L 3003 0  L 313 0  L 416 531  z " transform="scale(0.015625)"/>
      </defs>
      <use xlink:href="#DejaVuSans-Oblique-50"/>
      <use xlink:href="#DejaVuSans-Oblique-72" x="60.302734"/>
      <use xlink:href="#DejaVuSans-Oblique-69" x="101.416016"/>
      <use xlink:href="#DejaVuSans-Oblique-6e" x="129.199219"/>
      <use xlink:href="#DejaVuSans-Oblique-63" x="192.578125"/>
      <use xlink:href="#DejaVuSans-Oblique-69" x="247.558594"/>
      <use xlink:href="#DejaVuSans-Oblique-70" x="275.341797"/>
      <use xlink:href="#DejaVuSans-Oblique-61" x="338.818359"/>
      <use xlink:href="#DejaVuSans-Oblique-6c" x="400.097656"/>
      <use xlink:href="#DejaVuSans-Oblique-20" x="427.880859"/>
      <use xlink:href="#DejaVuSans-Oblique-43" x="459.667969"/>
      <use xlink:href="#DejaVuSans-Oblique-6f" x="529.492188"/>
      <use xlink:href="#DejaVuSans-Oblique-6d" x="590.673828"/>
      <use xlink:href="#DejaVuSans-Oblique-70" x="688.085938"/>
      <use xlink:href="#DejaVuSans-Oblique-6f" x="751.5625"/>
      <use xlink:href="#DejaVuSans-Oblique-6e" x="812.744141"/>
      <use xlink:href="#DejaVuSans-Oblique-65" x="876.123047"/>
      <use xlink:href="#DejaVuSans-Oblique-6e" x="937.646484"/>
      <use xlink:href="#DejaVuSans-Oblique-74" x="1001.025391"/>
      <use xlink:href="#DejaVuSans-Oblique-20" x="1040.234375"/>
      <use xlink:href="#DejaVuSans-Oblique-31" x="1072.021484"/>
     </g>
    </g>
   </g>
   <g id="matplotlib.axis_2">
    <g id="ytick_1">
     <g id="line2d_6">
      <defs>
       <path id="maf9d064286" d="M 0 0  L -3.5 0  " style="stroke: #000000; stroke-width: 0.8"/>
      </defs>
      <g>
       <use xlink:href="#maf9d064286" x="92.16" y="253.989593" style="stroke: #000000; stroke-width: 0.8"/>
      </g>
     </g>
     <g id="text_7">
      <!-- −60 -->
      <g transform="translate(53.502969 259.688421)scale(0.15 -0.15)">
       <defs>
        <path id="DejaVuSans-36" d="M 2113 2584  Q 1688 2584 1439 2293  Q 1191 2003 1191 1497  Q 1191 994 1439 701  Q 1688 409 2113 409  Q 2538 409 2786 701  Q 3034 994 3034 1497  Q 3034 2003 2786 2293  Q 2538 2584 2113 2584  z M 3366 4563  L 3366 3988  Q 3128 4100 2886 4159  Q 2644 4219 2406 4219  Q 1781 4219 1451 3797  Q 1122 3375 1075 2522  Q 1259 2794 1537 2939  Q 1816 3084 2150 3084  Q 2853 3084 3261 2657  Q 3669 2231 3669 1497  Q 3669 778 3244 343  Q 2819 -91 2113 -91  Q 1303 -91 875 529  Q 447 1150 447 2328  Q 447 3434 972 4092  Q 1497 4750 2381 4750  Q 2619 4750 2861 4703  Q 3103 4656 3366 4563  z " transform="scale(0.015625)"/>
       </defs>
       <use xlink:href="#DejaVuSans-2212"/>
       <use xlink:href="#DejaVuSans-36" x="83.789062"/>
       <use xlink:href="#DejaVuSans-30" x="147.412109"/>
      </g>
     </g>
    </g>
    <g id="ytick_2">
     <g id="line2d_7">
      <g>
       <use xlink:href="#maf9d064286" x="92.16" y="225.503778" style="stroke: #000000; stroke-width: 0.8"/>
      </g>
     </g>
     <g id="text_8">
      <!-- −40 -->
      <g transform="translate(53.502969 231.202606)scale(0.15 -0.15)">
       <defs>
        <path id="DejaVuSans-34" d="M 2419 4116  L 825 1625  L 2419 1625  L 2419 4116  z M 2253 4666  L 3047 4666  L 3047 1625  L 3713 1625  L 3713 1100  L 3047 1100  L 3047 0  L 2419 0  L 2419 1100  L 313 1100  L 313 1709  L 2253 4666  z " transform="scale(0.015625)"/>
       </defs>
       <use xlink:href="#DejaVuSans-2212"/>
       <use xlink:href="#DejaVuSans-34" x="83.789062"/>
       <use xlink:href="#DejaVuSans-30" x="147.412109"/>
      </g>
     </g>
    </g>
    <g id="ytick_3">
     <g id="line2d_8">
      <g>
       <use xlink:href="#maf9d064286" x="92.16" y="197.017963" style="stroke: #000000; stroke-width: 0.8"/>
      </g>
     </g>
     <g id="text_9">
      <!-- −20 -->
      <g transform="translate(53.502969 202.716791)scale(0.15 -0.15)">
       <defs>
        <path id="DejaVuSans-32" d="M 1228 531  L 3431 531  L 3431 0  L 469 0  L 469 531  Q 828 903 1448 1529  Q 2069 2156 2228 2338  Q 2531 2678 2651 2914  Q 2772 3150 2772 3378  Q 2772 3750 2511 3984  Q 2250 4219 1831 4219  Q 1534 4219 1204 4116  Q 875 4013 500 3803  L 500 4441  Q 881 4594 1212 4672  Q 1544 4750 1819 4750  Q 2544 4750 2975 4387  Q 3406 4025 3406 3419  Q 3406 3131 3298 2873  Q 3191 2616 2906 2266  Q 2828 2175 2409 1742  Q 1991 1309 1228 531  z " transform="scale(0.015625)"/>
       </defs>
       <use xlink:href="#DejaVuSans-2212"/>
       <use xlink:href="#DejaVuSans-32" x="83.789062"/>
       <use xlink:href="#DejaVuSans-30" x="147.412109"/>
      </g>
     </g>
    </g>
    <g id="ytick_4">
     <g id="line2d_9">
      <g>
       <use xlink:href="#maf9d064286" x="92.16" y="168.532148" style="stroke: #000000; stroke-width: 0.8"/>
      </g>
     </g>
     <g id="text_10">
      <!-- 0 -->
      <g transform="translate(75.61625 174.230976)scale(0.15 -0.15)">
       <use xlink:href="#DejaVuSans-30"/>
      </g>
     </g>
    </g>
    <g id="ytick_5">
     <g id="line2d_10">
      <g>
       <use xlink:href="#maf9d064286" x="92.16" y="140.046333" style="stroke: #000000; stroke-width: 0.8"/>
      </g>
     </g>
     <g id="text_11">
      <!-- 20 -->
      <g transform="translate(66.0725 145.745162)scale(0.15 -0.15)">
       <use xlink:href="#DejaVuSans-32"/>
       <use xlink:href="#DejaVuSans-30" x="63.623047"/>
      </g>
     </g>
    </g>
    <g id="ytick_6">
     <g id="line2d_11">
      <g>
       <use xlink:href="#maf9d064286" x="92.16" y="111.560519" style="stroke: #000000; stroke-width: 0.8"/>
      </g>
     </g>
     <g id="text_12">
      <!-- 40 -->
      <g transform="translate(66.0725 117.259347)scale(0.15 -0.15)">
       <use xlink:href="#DejaVuSans-34"/>
       <use xlink:href="#DejaVuSans-30" x="63.623047"/>
      </g>
     </g>
    </g>
    <g id="ytick_7">
     <g id="line2d_12">
      <g>
       <use xlink:href="#maf9d064286" x="92.16" y="83.074704" style="stroke: #000000; stroke-width: 0.8"/>
      </g>
     </g>
     <g id="text_13">
      <!-- 60 -->
      <g transform="translate(66.0725 88.773532)scale(0.15 -0.15)">
       <use xlink:href="#DejaVuSans-36"/>
       <use xlink:href="#DejaVuSans-30" x="63.623047"/>
      </g>
     </g>
    </g>
    <g id="ytick_8">
     <g id="line2d_13">
      <g>
       <use xlink:href="#maf9d064286" x="92.16" y="54.588889" style="stroke: #000000; stroke-width: 0.8"/>
      </g>
     </g>
     <g id="text_14">
      <!-- 80 -->
      <g transform="translate(66.0725 60.287717)scale(0.15 -0.15)">
       <defs>
        <path id="DejaVuSans-38" d="M 2034 2216  Q 1584 2216 1326 1975  Q 1069 1734 1069 1313  Q 1069 891 1326 650  Q 1584 409 2034 409  Q 2484 409 2743 651  Q 3003 894 3003 1313  Q 3003 1734 2745 1975  Q 2488 2216 2034 2216  z M 1403 2484  Q 997 2584 770 2862  Q 544 3141 544 3541  Q 544 4100 942 4425  Q 1341 4750 2034 4750  Q 2731 4750 3128 4425  Q 3525 4100 3525 3541  Q 3525 3141 3298 2862  Q 3072 2584 2669 2484  Q 3125 2378 3379 2068  Q 3634 1759 3634 1313  Q 3634 634 3220 271  Q 2806 -91 2034 -91  Q 1263 -91 848 271  Q 434 634 434 1313  Q 434 1759 690 2068  Q 947 2378 1403 2484  z M 1172 3481  Q 1172 3119 1398 2916  Q 1625 2713 2034 2713  Q 2441 2713 2670 2916  Q 2900 3119 2900 3481  Q 2900 3844 2670 4047  Q 2441 4250 2034 4250  Q 1625 4250 1398 4047  Q 1172 3844 1172 3481  z " transform="scale(0.015625)"/>
       </defs>
       <use xlink:href="#DejaVuSans-38"/>
       <use xlink:href="#DejaVuSans-30" x="63.623047"/>
      </g>
     </g>
    </g>
    <g id="text_15">
     <!-- Principal Component 2 -->
     <g transform="translate(45.759531 266.367656)rotate(-90)scale(0.18 -0.18)">
      <defs>
       <path id="DejaVuSans-Oblique-32" d="M 2950 2253  L 934 525  L 3163 525  L 3053 0  L 25 0  L 128 531  L 2234 2338  Q 2656 2703 2832 2979  Q 3009 3256 3009 3547  Q 3009 3850 2796 4040  Q 2584 4231 2241 4231  Q 1944 4231 1581 4125  Q 1219 4019 806 3816  L 922 4441  Q 1309 4594 1662 4672  Q 2016 4750 2316 4750  Q 2928 4750 3301 4425  Q 3675 4100 3675 3572  Q 3675 3216 3497 2892  Q 3319 2569 2950 2253  z " transform="scale(0.015625)"/>
      </defs>
      <use xlink:href="#DejaVuSans-Oblique-50"/>
      <use xlink:href="#DejaVuSans-Oblique-72" x="60.302734"/>
      <use xlink:href="#DejaVuSans-Oblique-69" x="101.416016"/>
      <use xlink:href="#DejaVuSans-Oblique-6e" x="129.199219"/>
      <use xlink:href="#DejaVuSans-Oblique-63" x="192.578125"/>
      <use xlink:href="#DejaVuSans-Oblique-69" x="247.558594"/>
      <use xlink:href="#DejaVuSans-Oblique-70" x="275.341797"/>
      <use xlink:href="#DejaVuSans-Oblique-61" x="338.818359"/>
      <use xlink:href="#DejaVuSans-Oblique-6c" x="400.097656"/>
      <use xlink:href="#DejaVuSans-Oblique-20" x="427.880859"/>
      <use xlink:href="#DejaVuSans-Oblique-43" x="459.667969"/>
      <use xlink:href="#DejaVuSans-Oblique-6f" x="529.492188"/>
      <use xlink:href="#DejaVuSans-Oblique-6d" x="590.673828"/>
      <use xlink:href="#DejaVuSans-Oblique-70" x="688.085938"/>
      <use xlink:href="#DejaVuSans-Oblique-6f" x="751.5625"/>
      <use xlink:href="#DejaVuSans-Oblique-6e" x="812.744141"/>
      <use xlink:href="#DejaVuSans-Oblique-65" x="876.123047"/>
      <use xlink:href="#DejaVuSans-Oblique-6e" x="937.646484"/>
      <use xlink:href="#DejaVuSans-Oblique-74" x="1001.025391"/>
      <use xlink:href="#DejaVuSans-Oblique-20" x="1040.234375"/>
      <use xlink:href="#DejaVuSans-Oblique-32" x="1072.021484"/>
     </g>
    </g>
   </g>
   <g id="patch_3">
    <path d="M 92.16 276.48  L 92.16 51.84  " style="fill: none; stroke: #000000; stroke-width: 0.8; stroke-linejoin: miter; stroke-linecap: square"/>
   </g>
   <g id="patch_4">
    <path d="M 414.72 276.48  L 414.72 51.84  " style="fill: none; stroke: #cccccc; stroke-width: 0.8; stroke-linejoin: miter; stroke-linecap: square"/>
   </g>
   <g id="patch_5">
    <path d="M 92.16 276.48  L 414.72 276.48  " style="fill: none; stroke: #000000; stroke-width: 0.8; stroke-linejoin: miter; stroke-linecap: square"/>
   </g>
   <g id="patch_6">
    <path d="M 92.16 51.84  L 414.72 51.84  " style="fill: none; stroke: #cccccc; stroke-width: 0.8; stroke-linejoin: miter; stroke-linecap: square"/>
   </g>
   <g id="text_16">
    <!-- 7 Clusters van Vector ACA-T type 3 -->
    <g transform="translate(57.93375 23.288125)scale(0.2 -0.2)">
     <defs>
      <path id="DejaVuSans-Bold-37" d="M 428 4666  L 3944 4666  L 3944 3988  L 2125 0  L 953 0  L 2675 3781  L 428 3781  L 428 4666  z " transform="scale(0.015625)"/>
      <path id="DejaVuSans-Bold-20" transform="scale(0.015625)"/>
      <path id="DejaVuSans-Bold-43" d="M 4288 256  Q 3956 84 3597 -3  Q 3238 -91 2847 -91  Q 1681 -91 1000 561  Q 319 1213 319 2328  Q 319 3447 1000 4098  Q 1681 4750 2847 4750  Q 3238 4750 3597 4662  Q 3956 4575 4288 4403  L 4288 3438  Q 3953 3666 3628 3772  Q 3303 3878 2944 3878  Q 2300 3878 1931 3465  Q 1563 3053 1563 2328  Q 1563 1606 1931 1193  Q 2300 781 2944 781  Q 3303 781 3628 887  Q 3953 994 4288 1222  L 4288 256  z " transform="scale(0.015625)"/>
      <path id="DejaVuSans-Bold-6c" d="M 538 4863  L 1656 4863  L 1656 0  L 538 0  L 538 4863  z " transform="scale(0.015625)"/>
      <path id="DejaVuSans-Bold-75" d="M 500 1363  L 500 3500  L 1625 3500  L 1625 3150  Q 1625 2866 1622 2436  Q 1619 2006 1619 1863  Q 1619 1441 1641 1255  Q 1663 1069 1716 984  Q 1784 875 1895 815  Q 2006 756 2150 756  Q 2500 756 2700 1025  Q 2900 1294 2900 1772  L 2900 3500  L 4019 3500  L 4019 0  L 2900 0  L 2900 506  Q 2647 200 2364 54  Q 2081 -91 1741 -91  Q 1134 -91 817 281  Q 500 653 500 1363  z " transform="scale(0.015625)"/>
      <path id="DejaVuSans-Bold-73" d="M 3272 3391  L 3272 2541  Q 2913 2691 2578 2766  Q 2244 2841 1947 2841  Q 1628 2841 1473 2761  Q 1319 2681 1319 2516  Q 1319 2381 1436 2309  Q 1553 2238 1856 2203  L 2053 2175  Q 2913 2066 3209 1816  Q 3506 1566 3506 1031  Q 3506 472 3093 190  Q 2681 -91 1863 -91  Q 1516 -91 1145 -36  Q 775 19 384 128  L 384 978  Q 719 816 1070 734  Q 1422 653 1784 653  Q 2113 653 2278 743  Q 2444 834 2444 1013  Q 2444 1163 2330 1236  Q 2216 1309 1875 1350  L 1678 1375  Q 931 1469 631 1722  Q 331 1975 331 2491  Q 331 3047 712 3315  Q 1094 3584 1881 3584  Q 2191 3584 2531 3537  Q 2872 3491 3272 3391  z " transform="scale(0.015625)"/>
      <path id="DejaVuSans-Bold-74" d="M 1759 4494  L 1759 3500  L 2913 3500  L 2913 2700  L 1759 2700  L 1759 1216  Q 1759 972 1856 886  Q 1953 800 2241 800  L 2816 800  L 2816 0  L 1856 0  Q 1194 0 917 276  Q 641 553 641 1216  L 641 2700  L 84 2700  L 84 3500  L 641 3500  L 641 4494  L 1759 4494  z " transform="scale(0.015625)"/>
      <path id="DejaVuSans-Bold-65" d="M 4031 1759  L 4031 1441  L 1416 1441  Q 1456 1047 1700 850  Q 1944 653 2381 653  Q 2734 653 3104 758  Q 3475 863 3866 1075  L 3866 213  Q 3469 63 3072 -14  Q 2675 -91 2278 -91  Q 1328 -91 801 392  Q 275 875 275 1747  Q 275 2603 792 3093  Q 1309 3584 2216 3584  Q 3041 3584 3536 3087  Q 4031 2591 4031 1759  z M 2881 2131  Q 2881 2450 2695 2645  Q 2509 2841 2209 2841  Q 1884 2841 1681 2658  Q 1478 2475 1428 2131  L 2881 2131  z " transform="scale(0.015625)"/>
      <path id="DejaVuSans-Bold-72" d="M 3138 2547  Q 2991 2616 2845 2648  Q 2700 2681 2553 2681  Q 2122 2681 1889 2404  Q 1656 2128 1656 1613  L 1656 0  L 538 0  L 538 3500  L 1656 3500  L 1656 2925  Q 1872 3269 2151 3426  Q 2431 3584 2822 3584  Q 2878 3584 2943 3579  Q 3009 3575 3134 3559  L 3138 2547  z " transform="scale(0.015625)"/>
      <path id="DejaVuSans-Bold-76" d="M 97 3500  L 1216 3500  L 2088 1081  L 2956 3500  L 4078 3500  L 2700 0  L 1472 0  L 97 3500  z " transform="scale(0.015625)"/>
      <path id="DejaVuSans-Bold-61" d="M 2106 1575  Q 1756 1575 1579 1456  Q 1403 1338 1403 1106  Q 1403 894 1545 773  Q 1688 653 1941 653  Q 2256 653 2472 879  Q 2688 1106 2688 1447  L 2688 1575  L 2106 1575  z M 3816 1997  L 3816 0  L 2688 0  L 2688 519  Q 2463 200 2181 54  Q 1900 -91 1497 -91  Q 953 -91 614 226  Q 275 544 275 1050  Q 275 1666 698 1953  Q 1122 2241 2028 2241  L 2688 2241  L 2688 2328  Q 2688 2594 2478 2717  Q 2269 2841 1825 2841  Q 1466 2841 1156 2769  Q 847 2697 581 2553  L 581 3406  Q 941 3494 1303 3539  Q 1666 3584 2028 3584  Q 2975 3584 3395 3211  Q 3816 2838 3816 1997  z " transform="scale(0.015625)"/>
      <path id="DejaVuSans-Bold-6e" d="M 4056 2131  L 4056 0  L 2931 0  L 2931 347  L 2931 1631  Q 2931 2084 2911 2256  Q 2891 2428 2841 2509  Q 2775 2619 2662 2680  Q 2550 2741 2406 2741  Q 2056 2741 1856 2470  Q 1656 2200 1656 1722  L 1656 0  L 538 0  L 538 3500  L 1656 3500  L 1656 2988  Q 1909 3294 2193 3439  Q 2478 3584 2822 3584  Q 3428 3584 3742 3212  Q 4056 2841 4056 2131  z " transform="scale(0.015625)"/>
      <path id="DejaVuSans-Bold-56" d="M 31 4666  L 1241 4666  L 2478 1222  L 3713 4666  L 4922 4666  L 3194 0  L 1759 0  L 31 4666  z " transform="scale(0.015625)"/>
      <path id="DejaVuSans-Bold-63" d="M 3366 3391  L 3366 2478  Q 3138 2634 2908 2709  Q 2678 2784 2431 2784  Q 1963 2784 1702 2511  Q 1441 2238 1441 1747  Q 1441 1256 1702 982  Q 1963 709 2431 709  Q 2694 709 2930 787  Q 3166 866 3366 1019  L 3366 103  Q 3103 6 2833 -42  Q 2563 -91 2291 -91  Q 1344 -91 809 395  Q 275 881 275 1747  Q 275 2613 809 3098  Q 1344 3584 2291 3584  Q 2566 3584 2833 3536  Q 3100 3488 3366 3391  z " transform="scale(0.015625)"/>
      <path id="DejaVuSans-Bold-6f" d="M 2203 2784  Q 1831 2784 1636 2517  Q 1441 2250 1441 1747  Q 1441 1244 1636 976  Q 1831 709 2203 709  Q 2569 709 2762 976  Q 2956 1244 2956 1747  Q 2956 2250 2762 2517  Q 2569 2784 2203 2784  z M 2203 3584  Q 3106 3584 3614 3096  Q 4122 2609 4122 1747  Q 4122 884 3614 396  Q 3106 -91 2203 -91  Q 1297 -91 786 396  Q 275 884 275 1747  Q 275 2609 786 3096  Q 1297 3584 2203 3584  z " transform="scale(0.015625)"/>
      <path id="DejaVuSans-Bold-41" d="M 3419 850  L 1538 850  L 1241 0  L 31 0  L 1759 4666  L 3194 4666  L 4922 0  L 3713 0  L 3419 850  z M 1838 1716  L 3116 1716  L 2478 3572  L 1838 1716  z " transform="scale(0.015625)"/>
      <path id="DejaVuSans-Bold-2d" d="M 347 2297  L 2309 2297  L 2309 1388  L 347 1388  L 347 2297  z " transform="scale(0.015625)"/>
      <path id="DejaVuSans-Bold-54" d="M 31 4666  L 4331 4666  L 4331 3756  L 2784 3756  L 2784 0  L 1581 0  L 1581 3756  L 31 3756  L 31 4666  z " transform="scale(0.015625)"/>
      <path id="DejaVuSans-Bold-79" d="M 78 3500  L 1197 3500  L 2138 1125  L 2938 3500  L 4056 3500  L 2584 -331  Q 2363 -916 2067 -1148  Q 1772 -1381 1288 -1381  L 641 -1381  L 641 -647  L 991 -647  Q 1275 -647 1404 -556  Q 1534 -466 1606 -231  L 1638 -134  L 78 3500  z " transform="scale(0.015625)"/>
      <path id="DejaVuSans-Bold-70" d="M 1656 506  L 1656 -1331  L 538 -1331  L 538 3500  L 1656 3500  L 1656 2988  Q 1888 3294 2169 3439  Q 2450 3584 2816 3584  Q 3463 3584 3878 3070  Q 4294 2556 4294 1747  Q 4294 938 3878 423  Q 3463 -91 2816 -91  Q 2450 -91 2169 54  Q 1888 200 1656 506  z M 2400 2772  Q 2041 2772 1848 2508  Q 1656 2244 1656 1747  Q 1656 1250 1848 986  Q 2041 722 2400 722  Q 2759 722 2948 984  Q 3138 1247 3138 1747  Q 3138 2247 2948 2509  Q 2759 2772 2400 2772  z " transform="scale(0.015625)"/>
      <path id="DejaVuSans-Bold-33" d="M 2981 2516  Q 3453 2394 3698 2092  Q 3944 1791 3944 1325  Q 3944 631 3412 270  Q 2881 -91 1863 -91  Q 1503 -91 1142 -33  Q 781 25 428 141  L 428 1069  Q 766 900 1098 814  Q 1431 728 1753 728  Q 2231 728 2486 893  Q 2741 1059 2741 1369  Q 2741 1688 2480 1852  Q 2219 2016 1709 2016  L 1228 2016  L 1228 2791  L 1734 2791  Q 2188 2791 2409 2933  Q 2631 3075 2631 3366  Q 2631 3634 2415 3781  Q 2200 3928 1806 3928  Q 1516 3928 1219 3862  Q 922 3797 628 3669  L 628 4550  Q 984 4650 1334 4700  Q 1684 4750 2022 4750  Q 2931 4750 3382 4451  Q 3834 4153 3834 3553  Q 3834 3144 3618 2883  Q 3403 2622 2981 2516  z " transform="scale(0.015625)"/>
     </defs>
     <use xlink:href="#DejaVuSans-Bold-37"/>
     <use xlink:href="#DejaVuSans-Bold-20" x="69.580078"/>
     <use xlink:href="#DejaVuSans-Bold-43" x="104.394531"/>
     <use xlink:href="#DejaVuSans-Bold-6c" x="177.783203"/>
     <use xlink:href="#DejaVuSans-Bold-75" x="212.060547"/>
     <use xlink:href="#DejaVuSans-Bold-73" x="283.251953"/>
     <use xlink:href="#DejaVuSans-Bold-74" x="342.773438"/>
     <use xlink:href="#DejaVuSans-Bold-65" x="390.576172"/>
     <use xlink:href="#DejaVuSans-Bold-72" x="458.398438"/>
     <use xlink:href="#DejaVuSans-Bold-73" x="507.714844"/>
     <use xlink:href="#DejaVuSans-Bold-20" x="567.236328"/>
     <use xlink:href="#DejaVuSans-Bold-76" x="602.050781"/>
     <use xlink:href="#DejaVuSans-Bold-61" x="667.236328"/>
     <use xlink:href="#DejaVuSans-Bold-6e" x="734.716797"/>
     <use xlink:href="#DejaVuSans-Bold-20" x="805.908203"/>
     <use xlink:href="#DejaVuSans-Bold-56" x="840.722656"/>
     <use xlink:href="#DejaVuSans-Bold-65" x="912.615234"/>
     <use xlink:href="#DejaVuSans-Bold-63" x="980.4375"/>
     <use xlink:href="#DejaVuSans-Bold-74" x="1039.714844"/>
     <use xlink:href="#DejaVuSans-Bold-6f" x="1087.517578"/>
     <use xlink:href="#DejaVuSans-Bold-72" x="1156.21875"/>
     <use xlink:href="#DejaVuSans-Bold-20" x="1205.535156"/>
     <use xlink:href="#DejaVuSans-Bold-41" x="1240.349609"/>
     <use xlink:href="#DejaVuSans-Bold-43" x="1317.742188"/>
     <use xlink:href="#DejaVuSans-Bold-41" x="1391.130859"/>
     <use xlink:href="#DejaVuSans-Bold-2d" x="1468.523438"/>
     <use xlink:href="#DejaVuSans-Bold-54" x="1495.277344"/>
     <use xlink:href="#DejaVuSans-Bold-20" x="1563.490234"/>
     <use xlink:href="#DejaVuSans-Bold-74" x="1598.304688"/>
     <use xlink:href="#DejaVuSans-Bold-79" x="1646.107422"/>
     <use xlink:href="#DejaVuSans-Bold-70" x="1711.292969"/>
     <use xlink:href="#DejaVuSans-Bold-65" x="1782.875"/>
     <use xlink:href="#DejaVuSans-Bold-20" x="1850.697266"/>
     <use xlink:href="#DejaVuSans-Bold-33" x="1885.511719"/>
    </g>
    <!-- rang 25 -->
    <g transform="translate(210.086875 45.84)scale(0.2 -0.2)">
     <defs>
      <path id="DejaVuSans-Bold-67" d="M 2919 594  Q 2688 288 2409 144  Q 2131 0 1766 0  Q 1125 0 706 504  Q 288 1009 288 1791  Q 288 2575 706 3076  Q 1125 3578 1766 3578  Q 2131 3578 2409 3434  Q 2688 3291 2919 2981  L 2919 3500  L 4044 3500  L 4044 353  Q 4044 -491 3511 -936  Q 2978 -1381 1966 -1381  Q 1638 -1381 1331 -1331  Q 1025 -1281 716 -1178  L 716 -306  Q 1009 -475 1290 -558  Q 1572 -641 1856 -641  Q 2406 -641 2662 -400  Q 2919 -159 2919 353  L 2919 594  z M 2181 2772  Q 1834 2772 1640 2515  Q 1447 2259 1447 1791  Q 1447 1309 1634 1061  Q 1822 813 2181 813  Q 2531 813 2725 1069  Q 2919 1325 2919 1791  Q 2919 2259 2725 2515  Q 2531 2772 2181 2772  z " transform="scale(0.015625)"/>
      <path id="DejaVuSans-Bold-32" d="M 1844 884  L 3897 884  L 3897 0  L 506 0  L 506 884  L 2209 2388  Q 2438 2594 2547 2791  Q 2656 2988 2656 3200  Q 2656 3528 2436 3728  Q 2216 3928 1850 3928  Q 1569 3928 1234 3808  Q 900 3688 519 3450  L 519 4475  Q 925 4609 1322 4679  Q 1719 4750 2100 4750  Q 2938 4750 3402 4381  Q 3866 4013 3866 3353  Q 3866 2972 3669 2642  Q 3472 2313 2841 1759  L 1844 884  z " transform="scale(0.015625)"/>
      <path id="DejaVuSans-Bold-35" d="M 678 4666  L 3669 4666  L 3669 3781  L 1638 3781  L 1638 3059  Q 1775 3097 1914 3117  Q 2053 3138 2203 3138  Q 3056 3138 3531 2711  Q 4006 2284 4006 1522  Q 4006 766 3489 337  Q 2972 -91 2053 -91  Q 1656 -91 1267 -14  Q 878 63 494 219  L 494 1166  Q 875 947 1217 837  Q 1559 728 1863 728  Q 2300 728 2551 942  Q 2803 1156 2803 1522  Q 2803 1891 2551 2103  Q 2300 2316 1863 2316  Q 1603 2316 1309 2248  Q 1016 2181 678 2041  L 678 4666  z " transform="scale(0.015625)"/>
     </defs>
     <use xlink:href="#DejaVuSans-Bold-72"/>
     <use xlink:href="#DejaVuSans-Bold-61" x="49.316406"/>
     <use xlink:href="#DejaVuSans-Bold-6e" x="116.796875"/>
     <use xlink:href="#DejaVuSans-Bold-67" x="187.988281"/>
     <use xlink:href="#DejaVuSans-Bold-20" x="259.570312"/>
     <use xlink:href="#DejaVuSans-Bold-32" x="294.384766"/>
     <use xlink:href="#DejaVuSans-Bold-35" x="363.964844"/>
    </g>
   </g>
  </g>
 </g>
 <defs>
  <clipPath id="p6f165601ce">
   <rect x="92.16" y="51.84" width="322.56" height="224.64"/>
  </clipPath>
 </defs>
</svg>