<svg xmlns:xlink="http://www.w3.org/1999/xlink" xmlns="http://www.w3.org/2000/svg" version="1.1" viewBox="32.08 8.09 415.28 311.33">
 <metadata>
  <rdf:RDF xmlns:dc="http://purl.org/dc/elements/1.1/" xmlns:cc="http://creativecommons.org/ns#" xmlns:rdf="http://www.w3.org/1999/02/22-rdf-syntax-ns#">
   <cc:Work>
    <dc:type rdf:resource="http://purl.org/dc/dcmitype/StillImage"/>
    <dc:date>2024-03-04T09:02:37.250770</dc:date>
    <dc:format>image/svg+xml</dc:format>
    <dc:creator>
     <cc:Agent>
      <dc:title>Matplotlib v3.5.2, https://matplotlib.org/</dc:title>
     </cc:Agent>
    </dc:creator>
   </cc:Work>
  </rdf:RDF>
 </metadata>
 <defs>
  <style type="text/css">*{stroke-linejoin: round; stroke-linecap: butt}</style>
 </defs>
 <g id="figure_1">
  <g id="patch_1">
   <path d="M 0 345.6  L 460.8 345.6  L 460.8 0  L 0 0  L 0 345.6  z " style="fill: none"/>
  </g>
  <g id="axes_1">
   <g id="patch_2">
    <path d="M 92.16 276.48  L 414.72 276.48  L 414.72 51.84  L 92.16 51.84  L 92.16 276.48  z " style="fill: none"/>
   </g>
   <g id="PathCollection_1">
    <defs>
     <path id="m8cdffe401f" d="M 0 3  C 0.795609 3 1.55874 2.683901 2.12132 2.12132  C 2.683901 1.55874 3 0.795609 3 0  C 3 -0.795609 2.683901 -1.55874 2.12132 -2.12132  C 1.55874 -2.683901 0.795609 -3 0 -3  C -0.795609 -3 -1.55874 -2.683901 -2.12132 -2.12132  C -2.683901 -1.55874 -3 -0.795609 -3 0  C -3 0.795609 -2.683901 1.55874 -2.12132 2.12132  C -1.55874 2.683901 -0.795609 3 0 3  z " style="stroke: #bfbf00"/>
    </defs>
    <g clip-path="url(#pfee7a73892)">
     <use xlink:href="#m8cdffe401f" x="349.282932" y="193.376977" style="fill: #bfbf00; stroke: #bfbf00"/>
     <use xlink:href="#m8cdffe401f" x="400.058182" y="222.174217" style="fill: #bfbf00; stroke: #bfbf00"/>
     <use xlink:href="#m8cdffe401f" x="382.056669" y="212.938573" style="fill: #bfbf00; stroke: #bfbf00"/>
     <use xlink:href="#m8cdffe401f" x="374.691043" y="219.173066" style="fill: #bfbf00; stroke: #bfbf00"/>
     <use xlink:href="#m8cdffe401f" x="354.070737" y="198.798786" style="fill: #bfbf00; stroke: #bfbf00"/>
     <use xlink:href="#m8cdffe401f" x="363.631114" y="205.893028" style="fill: #bfbf00; stroke: #bfbf00"/>
     <use xlink:href="#m8cdffe401f" x="352.222105" y="200.069578" style="fill: #bfbf00; stroke: #bfbf00"/>
     <use xlink:href="#m8cdffe401f" x="319.663325" y="208.56344" style="fill: #bfbf00; stroke: #bfbf00"/>
     <use xlink:href="#m8cdffe401f" x="323.130132" y="215.1533" style="fill: #bfbf00; stroke: #bfbf00"/>
     <use xlink:href="#m8cdffe401f" x="324.01961" y="211.779352" style="fill: #bfbf00; stroke: #bfbf00"/>
     <use xlink:href="#m8cdffe401f" x="321.088577" y="222.758571" style="fill: #bfbf00; stroke: #bfbf00"/>
     <use xlink:href="#m8cdffe401f" x="322.402425" y="213.987112" style="fill: #bfbf00; stroke: #bfbf00"/>
     <use xlink:href="#m8cdffe401f" x="319.349136" y="217.704062" style="fill: #bfbf00; stroke: #bfbf00"/>
     <use xlink:href="#m8cdffe401f" x="375.763999" y="201.853179" style="fill: #bfbf00; stroke: #bfbf00"/>
     <use xlink:href="#m8cdffe401f" x="331.009579" y="183.559904" style="fill: #bfbf00; stroke: #bfbf00"/>
     <use xlink:href="#m8cdffe401f" x="320.607716" y="175.954169" style="fill: #bfbf00; stroke: #bfbf00"/>
     <use xlink:href="#m8cdffe401f" x="312.479841" y="174.422385" style="fill: #bfbf00; stroke: #bfbf00"/>
     <use xlink:href="#m8cdffe401f" x="299.115443" y="164.947996" style="fill: #bfbf00; stroke: #bfbf00"/>
     <use xlink:href="#m8cdffe401f" x="307.537122" y="166.893169" style="fill: #bfbf00; stroke: #bfbf00"/>
     <use xlink:href="#m8cdffe401f" x="284.660556" y="165.849034" style="fill: #bfbf00; stroke: #bfbf00"/>
     <use xlink:href="#m8cdffe401f" x="362.172046" y="208.254259" style="fill: #bfbf00; stroke: #bfbf00"/>
     <use xlink:href="#m8cdffe401f" x="345.244584" y="201.536691" style="fill: #bfbf00; stroke: #bfbf00"/>
     <use xlink:href="#m8cdffe401f" x="331.443855" y="191.158459" style="fill: #bfbf00; stroke: #bfbf00"/>
     <use xlink:href="#m8cdffe401f" x="319.325467" y="181.845436" style="fill: #bfbf00; stroke: #bfbf00"/>
     <use xlink:href="#m8cdffe401f" x="321.666636" y="188.533689" style="fill: #bfbf00; stroke: #bfbf00"/>
     <use xlink:href="#m8cdffe401f" x="286.890399" y="174.195818" style="fill: #bfbf00; stroke: #bfbf00"/>
     <use xlink:href="#m8cdffe401f" x="324.14211" y="180.535679" style="fill: #bfbf00; stroke: #bfbf00"/>
     <use xlink:href="#m8cdffe401f" x="302.158192" y="168.852941" style="fill: #bfbf00; stroke: #bfbf00"/>
     <use xlink:href="#m8cdffe401f" x="302.141333" y="169.605116" style="fill: #bfbf00; stroke: #bfbf00"/>
     <use xlink:href="#m8cdffe401f" x="297.408566" y="166.766858" style="fill: #bfbf00; stroke: #bfbf00"/>
     <use xlink:href="#m8cdffe401f" x="311.349023" y="171.312756" style="fill: #bfbf00; stroke: #bfbf00"/>
     <use xlink:href="#m8cdffe401f" x="295.644268" y="175.943955" style="fill: #bfbf00; stroke: #bfbf00"/>
     <use xlink:href="#m8cdffe401f" x="317.406313" y="181.753674" style="fill: #bfbf00; stroke: #bfbf00"/>
     <use xlink:href="#m8cdffe401f" x="385.996946" y="234.452769" style="fill: #bfbf00; stroke: #bfbf00"/>
     <use xlink:href="#m8cdffe401f" x="376.301215" y="224.49187" style="fill: #bfbf00; stroke: #bfbf00"/>
     <use xlink:href="#m8cdffe401f" x="268.144955" y="183.425016" style="fill: #bfbf00; stroke: #bfbf00"/>
     <use xlink:href="#m8cdffe401f" x="291.128331" y="182.527116" style="fill: #bfbf00; stroke: #bfbf00"/>
     <use xlink:href="#m8cdffe401f" x="307.683208" y="176.821004" style="fill: #bfbf00; stroke: #bfbf00"/>
     <use xlink:href="#m8cdffe401f" x="309.041079" y="204.955056" style="fill: #bfbf00; stroke: #bfbf00"/>
     <use xlink:href="#m8cdffe401f" x="277.17709" y="180.814179" style="fill: #bfbf00; stroke: #bfbf00"/>
     <use xlink:href="#m8cdffe401f" x="272.058981" y="185.07787" style="fill: #bfbf00; stroke: #bfbf00"/>
    </g>
   </g>
   <g id="PathCollection_2">
    <defs>
     <path id="mb13d0888f7" d="M 0 3  C 0.795609 3 1.55874 2.683901 2.12132 2.12132  C 2.683901 1.55874 3 0.795609 3 0  C 3 -0.795609 2.683901 -1.55874 2.12132 -2.12132  C 1.55874 -2.683901 0.795609 -3 0 -3  C -0.795609 -3 -1.55874 -2.683901 -2.12132 -2.12132  C -2.683901 -1.55874 -3 -0.795609 -3 0  C -3 0.795609 -2.683901 1.55874 -2.12132 2.12132  C -1.55874 2.683901 -0.795609 3 0 3  z " style="stroke: #ff0000"/>
    </defs>
    <g clip-path="url(#pfee7a73892)">
     <use xlink:href="#mb13d0888f7" x="206.643197" y="83.853704" style="fill: #ff0000; stroke: #ff0000"/>
     <use xlink:href="#mb13d0888f7" x="204.060559" y="82.356839" style="fill: #ff0000; stroke: #ff0000"/>
     <use xlink:href="#mb13d0888f7" x="231.53016" y="102.40267" style="fill: #ff0000; stroke: #ff0000"/>
     <use xlink:href="#mb13d0888f7" x="259.497858" y="99.80652" style="fill: #ff0000; stroke: #ff0000"/>
     <use xlink:href="#mb13d0888f7" x="237.418726" y="103.796545" style="fill: #ff0000; stroke: #ff0000"/>
     <use xlink:href="#mb13d0888f7" x="236.047952" y="110.932324" style="fill: #ff0000; stroke: #ff0000"/>
     <use xlink:href="#mb13d0888f7" x="236.312149" y="205.892713" style="fill: #ff0000; stroke: #ff0000"/>
     <use xlink:href="#mb13d0888f7" x="233.928869" y="207.152696" style="fill: #ff0000; stroke: #ff0000"/>
     <use xlink:href="#mb13d0888f7" x="227.686364" y="204.306521" style="fill: #ff0000; stroke: #ff0000"/>
     <use xlink:href="#mb13d0888f7" x="228.843181" y="206.773317" style="fill: #ff0000; stroke: #ff0000"/>
     <use xlink:href="#mb13d0888f7" x="227.894958" y="205.161756" style="fill: #ff0000; stroke: #ff0000"/>
     <use xlink:href="#mb13d0888f7" x="225.32676" y="200.397757" style="fill: #ff0000; stroke: #ff0000"/>
     <use xlink:href="#mb13d0888f7" x="194.454615" y="91.609111" style="fill: #ff0000; stroke: #ff0000"/>
     <use xlink:href="#mb13d0888f7" x="194.010483" y="84.29508" style="fill: #ff0000; stroke: #ff0000"/>
     <use xlink:href="#mb13d0888f7" x="192.902353" y="78.62077" style="fill: #ff0000; stroke: #ff0000"/>
     <use xlink:href="#mb13d0888f7" x="188.765921" y="76.345517" style="fill: #ff0000; stroke: #ff0000"/>
     <use xlink:href="#mb13d0888f7" x="186.301404" y="75.174804" style="fill: #ff0000; stroke: #ff0000"/>
     <use xlink:href="#mb13d0888f7" x="178.125404" y="71.202816" style="fill: #ff0000; stroke: #ff0000"/>
     <use xlink:href="#mb13d0888f7" x="230.161458" y="106.380332" style="fill: #ff0000; stroke: #ff0000"/>
     <use xlink:href="#mb13d0888f7" x="228.066448" y="108.328038" style="fill: #ff0000; stroke: #ff0000"/>
     <use xlink:href="#mb13d0888f7" x="225.256731" y="105.519443" style="fill: #ff0000; stroke: #ff0000"/>
     <use xlink:href="#mb13d0888f7" x="231.738524" y="114.782583" style="fill: #ff0000; stroke: #ff0000"/>
     <use xlink:href="#mb13d0888f7" x="222.768837" y="106.659924" style="fill: #ff0000; stroke: #ff0000"/>
     <use xlink:href="#mb13d0888f7" x="223.556888" y="108.623475" style="fill: #ff0000; stroke: #ff0000"/>
     <use xlink:href="#mb13d0888f7" x="199.492755" y="87.481402" style="fill: #ff0000; stroke: #ff0000"/>
     <use xlink:href="#mb13d0888f7" x="201.670948" y="88.738732" style="fill: #ff0000; stroke: #ff0000"/>
     <use xlink:href="#mb13d0888f7" x="201.369094" y="89.406971" style="fill: #ff0000; stroke: #ff0000"/>
     <use xlink:href="#mb13d0888f7" x="204.282" y="100.983384" style="fill: #ff0000; stroke: #ff0000"/>
     <use xlink:href="#mb13d0888f7" x="202.356012" y="97.898675" style="fill: #ff0000; stroke: #ff0000"/>
     <use xlink:href="#mb13d0888f7" x="195.895567" y="103.810168" style="fill: #ff0000; stroke: #ff0000"/>
     <use xlink:href="#mb13d0888f7" x="198.156263" y="79.861298" style="fill: #ff0000; stroke: #ff0000"/>
     <use xlink:href="#mb13d0888f7" x="197.023978" y="85.101349" style="fill: #ff0000; stroke: #ff0000"/>
     <use xlink:href="#mb13d0888f7" x="197.002061" y="91.44152" style="fill: #ff0000; stroke: #ff0000"/>
     <use xlink:href="#mb13d0888f7" x="197.678038" y="88.193931" style="fill: #ff0000; stroke: #ff0000"/>
     <use xlink:href="#mb13d0888f7" x="199.574598" y="88.704557" style="fill: #ff0000; stroke: #ff0000"/>
     <use xlink:href="#mb13d0888f7" x="194.734223" y="86.401049" style="fill: #ff0000; stroke: #ff0000"/>
     <use xlink:href="#mb13d0888f7" x="232.052594" y="126.278001" style="fill: #ff0000; stroke: #ff0000"/>
     <use xlink:href="#mb13d0888f7" x="230.885035" y="121.969641" style="fill: #ff0000; stroke: #ff0000"/>
     <use xlink:href="#mb13d0888f7" x="233.079913" y="124.220321" style="fill: #ff0000; stroke: #ff0000"/>
     <use xlink:href="#mb13d0888f7" x="228.762952" y="126.837983" style="fill: #ff0000; stroke: #ff0000"/>
     <use xlink:href="#mb13d0888f7" x="230.062595" y="124.634624" style="fill: #ff0000; stroke: #ff0000"/>
     <use xlink:href="#mb13d0888f7" x="224.799306" y="120.058347" style="fill: #ff0000; stroke: #ff0000"/>
     <use xlink:href="#mb13d0888f7" x="257.763365" y="157.069214" style="fill: #ff0000; stroke: #ff0000"/>
     <use xlink:href="#mb13d0888f7" x="266.320616" y="164.370503" style="fill: #ff0000; stroke: #ff0000"/>
     <use xlink:href="#mb13d0888f7" x="268.904466" y="165.961357" style="fill: #ff0000; stroke: #ff0000"/>
     <use xlink:href="#mb13d0888f7" x="263.734893" y="166.923722" style="fill: #ff0000; stroke: #ff0000"/>
     <use xlink:href="#mb13d0888f7" x="171.395733" y="71.660755" style="fill: #ff0000; stroke: #ff0000"/>
     <use xlink:href="#mb13d0888f7" x="173.61586" y="67.159708" style="fill: #ff0000; stroke: #ff0000"/>
     <use xlink:href="#mb13d0888f7" x="176.05115" y="62.050909" style="fill: #ff0000; stroke: #ff0000"/>
     <use xlink:href="#mb13d0888f7" x="168.38869" y="77.043471" style="fill: #ff0000; stroke: #ff0000"/>
     <use xlink:href="#mb13d0888f7" x="173.332689" y="64.735278" style="fill: #ff0000; stroke: #ff0000"/>
     <use xlink:href="#mb13d0888f7" x="172.097293" y="69.378004" style="fill: #ff0000; stroke: #ff0000"/>
     <use xlink:href="#mb13d0888f7" x="261.062506" y="161.41631" style="fill: #ff0000; stroke: #ff0000"/>
     <use xlink:href="#mb13d0888f7" x="265.092708" y="165.758721" style="fill: #ff0000; stroke: #ff0000"/>
     <use xlink:href="#mb13d0888f7" x="257.124827" y="162.080427" style="fill: #ff0000; stroke: #ff0000"/>
     <use xlink:href="#mb13d0888f7" x="262.848319" y="164.17593" style="fill: #ff0000; stroke: #ff0000"/>
     <use xlink:href="#mb13d0888f7" x="260.30501" y="159.083909" style="fill: #ff0000; stroke: #ff0000"/>
     <use xlink:href="#mb13d0888f7" x="254.782248" y="169.014889" style="fill: #ff0000; stroke: #ff0000"/>
     <use xlink:href="#mb13d0888f7" x="171.568445" y="75.965055" style="fill: #ff0000; stroke: #ff0000"/>
     <use xlink:href="#mb13d0888f7" x="169.456486" y="72.431034" style="fill: #ff0000; stroke: #ff0000"/>
     <use xlink:href="#mb13d0888f7" x="170.614021" y="74.212282" style="fill: #ff0000; stroke: #ff0000"/>
     <use xlink:href="#mb13d0888f7" x="165.375718" y="71.667205" style="fill: #ff0000; stroke: #ff0000"/>
     <use xlink:href="#mb13d0888f7" x="164.598115" y="89.45388" style="fill: #ff0000; stroke: #ff0000"/>
     <use xlink:href="#mb13d0888f7" x="151.580829" y="96.970767" style="fill: #ff0000; stroke: #ff0000"/>
     <use xlink:href="#mb13d0888f7" x="252.210901" y="146.151916" style="fill: #ff0000; stroke: #ff0000"/>
     <use xlink:href="#mb13d0888f7" x="239.543982" y="146.602425" style="fill: #ff0000; stroke: #ff0000"/>
     <use xlink:href="#mb13d0888f7" x="241.381105" y="137.575546" style="fill: #ff0000; stroke: #ff0000"/>
     <use xlink:href="#mb13d0888f7" x="245.481353" y="143.427909" style="fill: #ff0000; stroke: #ff0000"/>
     <use xlink:href="#mb13d0888f7" x="243.062471" y="142.785876" style="fill: #ff0000; stroke: #ff0000"/>
     <use xlink:href="#mb13d0888f7" x="229.663067" y="141.185641" style="fill: #ff0000; stroke: #ff0000"/>
     <use xlink:href="#mb13d0888f7" x="178.276531" y="73.584079" style="fill: #ff0000; stroke: #ff0000"/>
     <use xlink:href="#mb13d0888f7" x="179.745549" y="96.653475" style="fill: #ff0000; stroke: #ff0000"/>
     <use xlink:href="#mb13d0888f7" x="180.068185" y="87.206073" style="fill: #ff0000; stroke: #ff0000"/>
     <use xlink:href="#mb13d0888f7" x="175.126528" y="81.597697" style="fill: #ff0000; stroke: #ff0000"/>
     <use xlink:href="#mb13d0888f7" x="175.728832" y="73.02472" style="fill: #ff0000; stroke: #ff0000"/>
     <use xlink:href="#mb13d0888f7" x="174.761448" y="71.091346" style="fill: #ff0000; stroke: #ff0000"/>
     <use xlink:href="#mb13d0888f7" x="168.911625" y="75.246212" style="fill: #ff0000; stroke: #ff0000"/>
     <use xlink:href="#mb13d0888f7" x="253.111088" y="161.813181" style="fill: #ff0000; stroke: #ff0000"/>
     <use xlink:href="#mb13d0888f7" x="263.194237" y="166.159431" style="fill: #ff0000; stroke: #ff0000"/>
     <use xlink:href="#mb13d0888f7" x="258.365658" y="174.121246" style="fill: #ff0000; stroke: #ff0000"/>
     <use xlink:href="#mb13d0888f7" x="182.967823" y="65.37706" style="fill: #ff0000; stroke: #ff0000"/>
     <use xlink:href="#mb13d0888f7" x="194.390808" y="97.308468" style="fill: #ff0000; stroke: #ff0000"/>
     <use xlink:href="#mb13d0888f7" x="193.69913" y="95.871077" style="fill: #ff0000; stroke: #ff0000"/>
     <use xlink:href="#mb13d0888f7" x="191.568292" y="90.834821" style="fill: #ff0000; stroke: #ff0000"/>
     <use xlink:href="#mb13d0888f7" x="189.928097" y="109.930329" style="fill: #ff0000; stroke: #ff0000"/>
     <use xlink:href="#mb13d0888f7" x="187.835701" y="91.577649" style="fill: #ff0000; stroke: #ff0000"/>
     <use xlink:href="#mb13d0888f7" x="266.233394" y="177.478018" style="fill: #ff0000; stroke: #ff0000"/>
     <use xlink:href="#mb13d0888f7" x="261.897598" y="174.187528" style="fill: #ff0000; stroke: #ff0000"/>
     <use xlink:href="#mb13d0888f7" x="259.241948" y="171.838911" style="fill: #ff0000; stroke: #ff0000"/>
    </g>
   </g>
   <g id="PathCollection_3">
    <defs>
     <path id="mad17ca70dd" d="M 0 3  C 0.795609 3 1.55874 2.683901 2.12132 2.12132  C 2.683901 1.55874 3 0.795609 3 0  C 3 -0.795609 2.683901 -1.55874 2.12132 -2.12132  C 1.55874 -2.683901 0.795609 -3 0 -3  C -0.795609 -3 -1.55874 -2.683901 -2.12132 -2.12132  C -2.683901 -1.55874 -3 -0.795609 -3 0  C -3 0.795609 -2.683901 1.55874 -2.12132 2.12132  C -1.55874 2.683901 -0.795609 3 0 3  z " style="stroke: #008000"/>
    </defs>
    <g clip-path="url(#pfee7a73892)">
     <use xlink:href="#mad17ca70dd" x="135.937953" y="250.256802" style="fill: #008000; stroke: #008000"/>
     <use xlink:href="#mad17ca70dd" x="138.974311" y="251.173686" style="fill: #008000; stroke: #008000"/>
     <use xlink:href="#mad17ca70dd" x="140.699781" y="245.05633" style="fill: #008000; stroke: #008000"/>
     <use xlink:href="#mad17ca70dd" x="139.077923" y="243.880698" style="fill: #008000; stroke: #008000"/>
     <use xlink:href="#mad17ca70dd" x="137.392809" y="230.099998" style="fill: #008000; stroke: #008000"/>
     <use xlink:href="#mad17ca70dd" x="133.25757" y="237.64552" style="fill: #008000; stroke: #008000"/>
     <use xlink:href="#mad17ca70dd" x="133.340297" y="231.302742" style="fill: #008000; stroke: #008000"/>
     <use xlink:href="#mad17ca70dd" x="165.112335" y="243.677399" style="fill: #008000; stroke: #008000"/>
     <use xlink:href="#mad17ca70dd" x="160.01956" y="239.868412" style="fill: #008000; stroke: #008000"/>
     <use xlink:href="#mad17ca70dd" x="148.184932" y="230.533279" style="fill: #008000; stroke: #008000"/>
     <use xlink:href="#mad17ca70dd" x="168.423392" y="221.873849" style="fill: #008000; stroke: #008000"/>
     <use xlink:href="#mad17ca70dd" x="168.540472" y="224.55769" style="fill: #008000; stroke: #008000"/>
     <use xlink:href="#mad17ca70dd" x="155.864699" y="221.782888" style="fill: #008000; stroke: #008000"/>
     <use xlink:href="#mad17ca70dd" x="156.466944" y="248.765422" style="fill: #008000; stroke: #008000"/>
     <use xlink:href="#mad17ca70dd" x="170.979697" y="217.258542" style="fill: #008000; stroke: #008000"/>
     <use xlink:href="#mad17ca70dd" x="167.116896" y="233.502338" style="fill: #008000; stroke: #008000"/>
     <use xlink:href="#mad17ca70dd" x="165.952965" y="229.92398" style="fill: #008000; stroke: #008000"/>
     <use xlink:href="#mad17ca70dd" x="162.874992" y="207.14134" style="fill: #008000; stroke: #008000"/>
     <use xlink:href="#mad17ca70dd" x="161.998651" y="209.443797" style="fill: #008000; stroke: #008000"/>
     <use xlink:href="#mad17ca70dd" x="156.773028" y="191.963889" style="fill: #008000; stroke: #008000"/>
     <use xlink:href="#mad17ca70dd" x="161.362169" y="260.374054" style="fill: #008000; stroke: #008000"/>
     <use xlink:href="#mad17ca70dd" x="152.576728" y="266.269091" style="fill: #008000; stroke: #008000"/>
     <use xlink:href="#mad17ca70dd" x="151.191455" y="262.073694" style="fill: #008000; stroke: #008000"/>
     <use xlink:href="#mad17ca70dd" x="141.530454" y="238.36347" style="fill: #008000; stroke: #008000"/>
     <use xlink:href="#mad17ca70dd" x="143.401637" y="245.860412" style="fill: #008000; stroke: #008000"/>
     <use xlink:href="#mad17ca70dd" x="139.299554" y="246.255836" style="fill: #008000; stroke: #008000"/>
     <use xlink:href="#mad17ca70dd" x="111.063852" y="213.653663" style="fill: #008000; stroke: #008000"/>
     <use xlink:href="#mad17ca70dd" x="109.021223" y="206.320765" style="fill: #008000; stroke: #008000"/>
     <use xlink:href="#mad17ca70dd" x="106.821818" y="206.364909" style="fill: #008000; stroke: #008000"/>
     <use xlink:href="#mad17ca70dd" x="119.681066" y="198.507854" style="fill: #008000; stroke: #008000"/>
     <use xlink:href="#mad17ca70dd" x="123.824481" y="185.814048" style="fill: #008000; stroke: #008000"/>
     <use xlink:href="#mad17ca70dd" x="123.927591" y="182.876213" style="fill: #008000; stroke: #008000"/>
     <use xlink:href="#mad17ca70dd" x="122.775963" y="221.858964" style="fill: #008000; stroke: #008000"/>
     <use xlink:href="#mad17ca70dd" x="118.14709" y="218.172407" style="fill: #008000; stroke: #008000"/>
     <use xlink:href="#mad17ca70dd" x="118.830604" y="218.493838" style="fill: #008000; stroke: #008000"/>
     <use xlink:href="#mad17ca70dd" x="122.023901" y="209.362967" style="fill: #008000; stroke: #008000"/>
     <use xlink:href="#mad17ca70dd" x="120.730793" y="204.924558" style="fill: #008000; stroke: #008000"/>
     <use xlink:href="#mad17ca70dd" x="116.486758" y="203.265993" style="fill: #008000; stroke: #008000"/>
     <use xlink:href="#mad17ca70dd" x="133.677704" y="207.512307" style="fill: #008000; stroke: #008000"/>
     <use xlink:href="#mad17ca70dd" x="134.536104" y="217.534536" style="fill: #008000; stroke: #008000"/>
     <use xlink:href="#mad17ca70dd" x="134.597786" y="211.940325" style="fill: #008000; stroke: #008000"/>
     <use xlink:href="#mad17ca70dd" x="131.167341" y="195.297174" style="fill: #008000; stroke: #008000"/>
     <use xlink:href="#mad17ca70dd" x="137.747502" y="197.727264" style="fill: #008000; stroke: #008000"/>
     <use xlink:href="#mad17ca70dd" x="127.717569" y="197.935429" style="fill: #008000; stroke: #008000"/>
     <use xlink:href="#mad17ca70dd" x="133.174847" y="251.6275" style="fill: #008000; stroke: #008000"/>
     <use xlink:href="#mad17ca70dd" x="130.798169" y="240.641741" style="fill: #008000; stroke: #008000"/>
     <use xlink:href="#mad17ca70dd" x="133.630193" y="225.872631" style="fill: #008000; stroke: #008000"/>
     <use xlink:href="#mad17ca70dd" x="129.976526" y="220.50946" style="fill: #008000; stroke: #008000"/>
     <use xlink:href="#mad17ca70dd" x="121.484197" y="222.41498" style="fill: #008000; stroke: #008000"/>
     <use xlink:href="#mad17ca70dd" x="123.83089" y="227.588433" style="fill: #008000; stroke: #008000"/>
     <use xlink:href="#mad17ca70dd" x="161.681908" y="228.796595" style="fill: #008000; stroke: #008000"/>
     <use xlink:href="#mad17ca70dd" x="152.797391" y="242.045217" style="fill: #008000; stroke: #008000"/>
     <use xlink:href="#mad17ca70dd" x="154.019651" y="242.400856" style="fill: #008000; stroke: #008000"/>
     <use xlink:href="#mad17ca70dd" x="158.478904" y="227.328456" style="fill: #008000; stroke: #008000"/>
     <use xlink:href="#mad17ca70dd" x="152.750487" y="234.915646" style="fill: #008000; stroke: #008000"/>
     <use xlink:href="#mad17ca70dd" x="153.749844" y="244.912842" style="fill: #008000; stroke: #008000"/>
    </g>
   </g>
   <g id="matplotlib.axis_1">
    <g id="xtick_1">
     <g id="line2d_1">
      <defs>
       <path id="m8d1da1aedc" d="M 0 0  L 0 3.5  " style="stroke: #000000; stroke-width: 0.8"/>
      </defs>
      <g>
       <use xlink:href="#m8d1da1aedc" x="128.998706" y="276.48" style="stroke: #000000; stroke-width: 0.8"/>
      </g>
     </g>
     <g id="text_1">
      <!-- −50 -->
      <g transform="translate(113.170191 294.877656)scale(0.15 -0.15)">
       <defs>
        <path id="DejaVuSans-2212" d="M 678 2272  L 4684 2272  L 4684 1741  L 678 1741  L 678 2272  z " transform="scale(0.015625)"/>
        <path id="DejaVuSans-35" d="M 691 4666  L 3169 4666  L 3169 4134  L 1269 4134  L 1269 2991  Q 1406 3038 1543 3061  Q 1681 3084 1819 3084  Q 2600 3084 3056 2656  Q 3513 2228 3513 1497  Q 3513 744 3044 326  Q 2575 -91 1722 -91  Q 1428 -91 1123 -41  Q 819 9 494 109  L 494 744  Q 775 591 1075 516  Q 1375 441 1709 441  Q 2250 441 2565 725  Q 2881 1009 2881 1497  Q 2881 1984 2565 2268  Q 2250 2553 1709 2553  Q 1456 2553 1204 2497  Q 953 2441 691 2322  L 691 4666  z " transform="scale(0.015625)"/>
        <path id="DejaVuSans-30" d="M 2034 4250  Q 1547 4250 1301 3770  Q 1056 3291 1056 2328  Q 1056 1369 1301 889  Q 1547 409 2034 409  Q 2525 409 2770 889  Q 3016 1369 3016 2328  Q 3016 3291 2770 3770  Q 2525 4250 2034 4250  z M 2034 4750  Q 2819 4750 3233 4129  Q 3647 3509 3647 2328  Q 3647 1150 3233 529  Q 2819 -91 2034 -91  Q 1250 -91 836 529  Q 422 1150 422 2328  Q 422 3509 836 4129  Q 1250 4750 2034 4750  z " transform="scale(0.015625)"/>
       </defs>
       <use xlink:href="#DejaVuSans-2212"/>
       <use xlink:href="#DejaVuSans-35" x="83.789062"/>
       <use xlink:href="#DejaVuSans-30" x="147.412109"/>
      </g>
     </g>
    </g>
    <g id="xtick_2">
     <g id="line2d_2">
      <g>
       <use xlink:href="#m8d1da1aedc" x="172.750577" y="276.48" style="stroke: #000000; stroke-width: 0.8"/>
      </g>
     </g>
     <g id="text_2">
      <!-- −25 -->
      <g transform="translate(156.922061 294.877656)scale(0.15 -0.15)">
       <defs>
        <path id="DejaVuSans-32" d="M 1228 531  L 3431 531  L 3431 0  L 469 0  L 469 531  Q 828 903 1448 1529  Q 2069 2156 2228 2338  Q 2531 2678 2651 2914  Q 2772 3150 2772 3378  Q 2772 3750 2511 3984  Q 2250 4219 1831 4219  Q 1534 4219 1204 4116  Q 875 4013 500 3803  L 500 4441  Q 881 4594 1212 4672  Q 1544 4750 1819 4750  Q 2544 4750 2975 4387  Q 3406 4025 3406 3419  Q 3406 3131 3298 2873  Q 3191 2616 2906 2266  Q 2828 2175 2409 1742  Q 1991 1309 1228 531  z " transform="scale(0.015625)"/>
       </defs>
       <use xlink:href="#DejaVuSans-2212"/>
       <use xlink:href="#DejaVuSans-32" x="83.789062"/>
       <use xlink:href="#DejaVuSans-35" x="147.412109"/>
      </g>
     </g>
    </g>
    <g id="xtick_3">
     <g id="line2d_3">
      <g>
       <use xlink:href="#m8d1da1aedc" x="216.502448" y="276.48" style="stroke: #000000; stroke-width: 0.8"/>
      </g>
     </g>
     <g id="text_3">
      <!-- 0 -->
      <g transform="translate(211.730573 294.877656)scale(0.15 -0.15)">
       <use xlink:href="#DejaVuSans-30"/>
      </g>
     </g>
    </g>
    <g id="xtick_4">
     <g id="line2d_4">
      <g>
       <use xlink:href="#m8d1da1aedc" x="260.254318" y="276.48" style="stroke: #000000; stroke-width: 0.8"/>
      </g>
     </g>
     <g id="text_4">
      <!-- 25 -->
      <g transform="translate(250.710568 294.877656)scale(0.15 -0.15)">
       <use xlink:href="#DejaVuSans-32"/>
       <use xlink:href="#DejaVuSans-35" x="63.623047"/>
      </g>
     </g>
    </g>
    <g id="xtick_5">
     <g id="line2d_5">
      <g>
       <use xlink:href="#m8d1da1aedc" x="304.006189" y="276.48" style="stroke: #000000; stroke-width: 0.8"/>
      </g>
     </g>
     <g id="text_5">
      <!-- 50 -->
      <g transform="translate(294.462439 294.877656)scale(0.15 -0.15)">
       <use xlink:href="#DejaVuSans-35"/>
       <use xlink:href="#DejaVuSans-30" x="63.623047"/>
      </g>
     </g>
    </g>
    <g id="xtick_6">
     <g id="line2d_6">
      <g>
       <use xlink:href="#m8d1da1aedc" x="347.75806" y="276.48" style="stroke: #000000; stroke-width: 0.8"/>
      </g>
     </g>
     <g id="text_6">
      <!-- 75 -->
      <g transform="translate(338.21431 294.877656)scale(0.15 -0.15)">
       <defs>
        <path id="DejaVuSans-37" d="M 525 4666  L 3525 4666  L 3525 4397  L 1831 0  L 1172 0  L 2766 4134  L 525 4134  L 525 4666  z " transform="scale(0.015625)"/>
       </defs>
       <use xlink:href="#DejaVuSans-37"/>
       <use xlink:href="#DejaVuSans-35" x="63.623047"/>
      </g>
     </g>
    </g>
    <g id="xtick_7">
     <g id="line2d_7">
      <g>
       <use xlink:href="#m8d1da1aedc" x="391.509931" y="276.48" style="stroke: #000000; stroke-width: 0.8"/>
      </g>
     </g>
     <g id="text_7">
      <!-- 100 -->
      <g transform="translate(377.194306 294.877656)scale(0.15 -0.15)">
       <defs>
        <path id="DejaVuSans-31" d="M 794 531  L 1825 531  L 1825 4091  L 703 3866  L 703 4441  L 1819 4666  L 2450 4666  L 2450 531  L 3481 531  L 3481 0  L 794 0  L 794 531  z " transform="scale(0.015625)"/>
       </defs>
       <use xlink:href="#DejaVuSans-31"/>
       <use xlink:href="#DejaVuSans-30" x="63.623047"/>
       <use xlink:href="#DejaVuSans-30" x="127.246094"/>
      </g>
     </g>
    </g>
    <g id="text_8">
     <!-- Principal Component 1 -->
     <g transform="translate(151.232344 315.674375)scale(0.18 -0.18)">
      <defs>
       <path id="DejaVuSans-Oblique-50" d="M 1081 4666  L 2541 4666  Q 3178 4666 3512 4369  Q 3847 4072 3847 3500  Q 3847 2731 3353 2303  Q 2859 1875 1966 1875  L 1172 1875  L 806 0  L 172 0  L 1081 4666  z M 1613 4147  L 1275 2394  L 2069 2394  Q 2606 2394 2893 2669  Q 3181 2944 3181 3456  Q 3181 3784 2986 3965  Q 2791 4147 2438 4147  L 1613 4147  z " transform="scale(0.015625)"/>
       <path id="DejaVuSans-Oblique-72" d="M 2853 2969  Q 2766 3016 2653 3041  Q 2541 3066 2413 3066  Q 1953 3066 1609 2717  Q 1266 2369 1153 1784  L 800 0  L 225 0  L 909 3500  L 1484 3500  L 1375 2956  Q 1603 3259 1920 3421  Q 2238 3584 2597 3584  Q 2691 3584 2781 3573  Q 2872 3563 2963 3538  L 2853 2969  z " transform="scale(0.015625)"/>
       <path id="DejaVuSans-Oblique-69" d="M 1172 4863  L 1747 4863  L 1606 4134  L 1031 4134  L 1172 4863  z M 909 3500  L 1484 3500  L 800 0  L 225 0  L 909 3500  z " transform="scale(0.015625)"/>
       <path id="DejaVuSans-Oblique-6e" d="M 3566 2113  L 3156 0  L 2578 0  L 2988 2091  Q 3016 2238 3031 2350  Q 3047 2463 3047 2528  Q 3047 2791 2881 2937  Q 2716 3084 2419 3084  Q 1956 3084 1622 2776  Q 1288 2469 1184 1941  L 800 0  L 225 0  L 903 3500  L 1478 3500  L 1363 2950  Q 1603 3253 1940 3418  Q 2278 3584 2650 3584  Q 3113 3584 3367 3334  Q 3622 3084 3622 2631  Q 3622 2519 3608 2391  Q 3594 2263 3566 2113  z " transform="scale(0.015625)"/>
       <path id="DejaVuSans-Oblique-63" d="M 3431 3366  L 3316 2797  Q 3109 2947 2876 3022  Q 2644 3097 2394 3097  Q 2119 3097 1870 3000  Q 1622 2903 1453 2725  Q 1184 2453 1037 2087  Q 891 1722 891 1331  Q 891 859 1127 628  Q 1363 397 1844 397  Q 2081 397 2348 469  Q 2616 541 2906 684  L 2797 116  Q 2547 13 2283 -39  Q 2019 -91 1741 -91  Q 1044 -91 669 257  Q 294 606 294 1253  Q 294 1797 489 2255  Q 684 2713 1069 3078  Q 1331 3328 1684 3456  Q 2038 3584 2456 3584  Q 2700 3584 2940 3529  Q 3181 3475 3431 3366  z " transform="scale(0.015625)"/>
       <path id="DejaVuSans-Oblique-70" d="M 3175 2156  Q 3175 2616 2975 2859  Q 2775 3103 2400 3103  Q 2144 3103 1911 2972  Q 1678 2841 1497 2591  Q 1319 2344 1212 1994  Q 1106 1644 1106 1300  Q 1106 863 1306 627  Q 1506 391 1875 391  Q 2147 391 2380 519  Q 2613 647 2778 891  Q 2956 1147 3065 1494  Q 3175 1841 3175 2156  z M 1394 2969  Q 1625 3272 1939 3428  Q 2253 3584 2638 3584  Q 3175 3584 3472 3232  Q 3769 2881 3769 2247  Q 3769 1728 3584 1258  Q 3400 788 3053 416  Q 2822 169 2531 39  Q 2241 -91 1919 -91  Q 1547 -91 1294 64  Q 1041 219 916 525  L 556 -1331  L -19 -1331  L 922 3500  L 1497 3500  L 1394 2969  z " transform="scale(0.015625)"/>
       <path id="DejaVuSans-Oblique-61" d="M 3438 1997  L 3047 0  L 2472 0  L 2578 531  Q 2325 219 2001 64  Q 1678 -91 1281 -91  Q 834 -91 548 182  Q 263 456 263 884  Q 263 1497 752 1853  Q 1241 2209 2100 2209  L 2900 2209  L 2931 2363  Q 2938 2388 2941 2417  Q 2944 2447 2944 2509  Q 2944 2788 2717 2942  Q 2491 3097 2081 3097  Q 1800 3097 1504 3025  Q 1209 2953 897 2809  L 997 3341  Q 1322 3463 1633 3523  Q 1944 3584 2234 3584  Q 2853 3584 3176 3315  Q 3500 3047 3500 2534  Q 3500 2431 3484 2292  Q 3469 2153 3438 1997  z M 2816 1759  L 2241 1759  Q 1534 1759 1195 1570  Q 856 1381 856 984  Q 856 709 1029 553  Q 1203 397 1509 397  Q 1978 397 2328 733  Q 2678 1069 2791 1631  L 2816 1759  z " transform="scale(0.015625)"/>
       <path id="DejaVuSans-Oblique-6c" d="M 1172 4863  L 1747 4863  L 800 0  L 225 0  L 1172 4863  z " transform="scale(0.015625)"/>
       <path id="DejaVuSans-Oblique-20" transform="scale(0.015625)"/>
       <path id="DejaVuSans-Oblique-43" d="M 4447 4306  L 4319 3641  Q 4019 3944 3683 4091  Q 3347 4238 2956 4238  Q 2422 4238 2017 3981  Q 1613 3725 1319 3200  Q 1131 2863 1032 2486  Q 934 2109 934 1728  Q 934 1091 1264 756  Q 1594 422 2222 422  Q 2656 422 3056 561  Q 3456 700 3834 978  L 3688 231  Q 3316 72 2936 -9  Q 2556 -91 2175 -91  Q 1278 -91 773 396  Q 269 884 269 1753  Q 269 2309 461 2846  Q 653 3384 1013 3828  Q 1394 4300 1883 4525  Q 2372 4750 3022 4750  Q 3422 4750 3780 4639  Q 4138 4528 4447 4306  z " transform="scale(0.015625)"/>
       <path id="DejaVuSans-Oblique-6f" d="M 1625 -91  Q 1009 -91 651 289  Q 294 669 294 1325  Q 294 1706 417 2101  Q 541 2497 738 2766  Q 1047 3184 1428 3384  Q 1809 3584 2291 3584  Q 2888 3584 3255 3212  Q 3622 2841 3622 2241  Q 3622 1825 3500 1412  Q 3378 1000 3181 728  Q 2875 309 2494 109  Q 2113 -91 1625 -91  z M 891 1344  Q 891 869 1089 633  Q 1288 397 1691 397  Q 2269 397 2648 901  Q 3028 1406 3028 2181  Q 3028 2634 2825 2865  Q 2622 3097 2228 3097  Q 1903 3097 1650 2945  Q 1397 2794 1197 2484  Q 1050 2253 970 1956  Q 891 1659 891 1344  z " transform="scale(0.015625)"/>
       <path id="DejaVuSans-Oblique-6d" d="M 5747 2113  L 5338 0  L 4763 0  L 5166 2094  Q 5191 2228 5203 2325  Q 5216 2422 5216 2491  Q 5216 2772 5059 2928  Q 4903 3084 4622 3084  Q 4203 3084 3875 2770  Q 3547 2456 3450 1953  L 3066 0  L 2491 0  L 2900 2094  Q 2925 2209 2937 2307  Q 2950 2406 2950 2484  Q 2950 2769 2794 2926  Q 2638 3084 2363 3084  Q 1938 3084 1609 2770  Q 1281 2456 1184 1953  L 800 0  L 225 0  L 909 3500  L 1484 3500  L 1375 2956  Q 1609 3263 1923 3423  Q 2238 3584 2597 3584  Q 2978 3584 3223 3384  Q 3469 3184 3519 2828  Q 3781 3197 4126 3390  Q 4472 3584 4856 3584  Q 5306 3584 5551 3325  Q 5797 3066 5797 2591  Q 5797 2488 5784 2364  Q 5772 2241 5747 2113  z " transform="scale(0.015625)"/>
       <path id="DejaVuSans-Oblique-65" d="M 3078 2063  Q 3088 2113 3092 2166  Q 3097 2219 3097 2272  Q 3097 2653 2873 2875  Q 2650 3097 2266 3097  Q 1838 3097 1509 2826  Q 1181 2556 1013 2059  L 3078 2063  z M 3578 1613  L 903 1613  Q 884 1494 878 1425  Q 872 1356 872 1306  Q 872 872 1139 634  Q 1406 397 1894 397  Q 2269 397 2603 481  Q 2938 566 3225 728  L 3116 159  Q 2806 34 2476 -28  Q 2147 -91 1806 -91  Q 1078 -91 686 257  Q 294 606 294 1247  Q 294 1794 489 2264  Q 684 2734 1063 3103  Q 1306 3334 1642 3459  Q 1978 3584 2356 3584  Q 2950 3584 3301 3228  Q 3653 2872 3653 2272  Q 3653 2128 3634 1964  Q 3616 1800 3578 1613  z " transform="scale(0.015625)"/>
       <path id="DejaVuSans-Oblique-74" d="M 2706 3500  L 2619 3053  L 1472 3053  L 1100 1153  Q 1081 1047 1072 975  Q 1063 903 1063 863  Q 1063 663 1183 572  Q 1303 481 1569 481  L 2150 481  L 2053 0  L 1503 0  Q 991 0 739 200  Q 488 400 488 806  Q 488 878 497 964  Q 506 1050 525 1153  L 897 3053  L 409 3053  L 500 3500  L 978 3500  L 1172 4494  L 1747 4494  L 1556 3500  L 2706 3500  z " transform="scale(0.015625)"/>
       <path id="DejaVuSans-Oblique-31" d="M 416 531  L 1447 531  L 2144 4122  L 978 3897  L 1088 4441  L 2247 4666  L 2881 4666  L 2075 531  L 3103 531  L 3003 0  L 313 0  L 416 531  z " transform="scale(0.015625)"/>
      </defs>
      <use xlink:href="#DejaVuSans-Oblique-50"/>
      <use xlink:href="#DejaVuSans-Oblique-72" x="60.302734"/>
      <use xlink:href="#DejaVuSans-Oblique-69" x="101.416016"/>
      <use xlink:href="#DejaVuSans-Oblique-6e" x="129.199219"/>
      <use xlink:href="#DejaVuSans-Oblique-63" x="192.578125"/>
      <use xlink:href="#DejaVuSans-Oblique-69" x="247.558594"/>
      <use xlink:href="#DejaVuSans-Oblique-70" x="275.341797"/>
      <use xlink:href="#DejaVuSans-Oblique-61" x="338.818359"/>
      <use xlink:href="#DejaVuSans-Oblique-6c" x="400.097656"/>
      <use xlink:href="#DejaVuSans-Oblique-20" x="427.880859"/>
      <use xlink:href="#DejaVuSans-Oblique-43" x="459.667969"/>
      <use xlink:href="#DejaVuSans-Oblique-6f" x="529.492188"/>
      <use xlink:href="#DejaVuSans-Oblique-6d" x="590.673828"/>
      <use xlink:href="#DejaVuSans-Oblique-70" x="688.085938"/>
      <use xlink:href="#DejaVuSans-Oblique-6f" x="751.5625"/>
      <use xlink:href="#DejaVuSans-Oblique-6e" x="812.744141"/>
      <use xlink:href="#DejaVuSans-Oblique-65" x="876.123047"/>
      <use xlink:href="#DejaVuSans-Oblique-6e" x="937.646484"/>
      <use xlink:href="#DejaVuSans-Oblique-74" x="1001.025391"/>
      <use xlink:href="#DejaVuSans-Oblique-20" x="1040.234375"/>
      <use xlink:href="#DejaVuSans-Oblique-31" x="1072.021484"/>
     </g>
    </g>
   </g>
   <g id="matplotlib.axis_2">
    <g id="ytick_1">
     <g id="line2d_8">
      <defs>
       <path id="m5656db37d0" d="M 0 0  L -3.5 0  " style="stroke: #000000; stroke-width: 0.8"/>
      </defs>
      <g>
       <use xlink:href="#m5656db37d0" x="92.16" y="255.710583" style="stroke: #000000; stroke-width: 0.8"/>
      </g>
     </g>
     <g id="text_9">
      <!-- −40 -->
      <g transform="translate(53.502969 261.409412)scale(0.15 -0.15)">
       <defs>
        <path id="DejaVuSans-34" d="M 2419 4116  L 825 1625  L 2419 1625  L 2419 4116  z M 2253 4666  L 3047 4666  L 3047 1625  L 3713 1625  L 3713 1100  L 3047 1100  L 3047 0  L 2419 0  L 2419 1100  L 313 1100  L 313 1709  L 2253 4666  z " transform="scale(0.015625)"/>
       </defs>
       <use xlink:href="#DejaVuSans-2212"/>
       <use xlink:href="#DejaVuSans-34" x="83.789062"/>
       <use xlink:href="#DejaVuSans-30" x="147.412109"/>
      </g>
     </g>
    </g>
    <g id="ytick_2">
     <g id="line2d_9">
      <g>
       <use xlink:href="#m5656db37d0" x="92.16" y="210.752722" style="stroke: #000000; stroke-width: 0.8"/>
      </g>
     </g>
     <g id="text_10">
      <!-- −20 -->
      <g transform="translate(53.502969 216.45155)scale(0.15 -0.15)">
       <use xlink:href="#DejaVuSans-2212"/>
       <use xlink:href="#DejaVuSans-32" x="83.789062"/>
       <use xlink:href="#DejaVuSans-30" x="147.412109"/>
      </g>
     </g>
    </g>
    <g id="ytick_3">
     <g id="line2d_10">
      <g>
       <use xlink:href="#m5656db37d0" x="92.16" y="165.79486" style="stroke: #000000; stroke-width: 0.8"/>
      </g>
     </g>
     <g id="text_11">
      <!-- 0 -->
      <g transform="translate(75.61625 171.493688)scale(0.15 -0.15)">
       <use xlink:href="#DejaVuSans-30"/>
      </g>
     </g>
    </g>
    <g id="ytick_4">
     <g id="line2d_11">
      <g>
       <use xlink:href="#m5656db37d0" x="92.16" y="120.836999" style="stroke: #000000; stroke-width: 0.8"/>
      </g>
     </g>
     <g id="text_12">
      <!-- 20 -->
      <g transform="translate(66.0725 126.535827)scale(0.15 -0.15)">
       <use xlink:href="#DejaVuSans-32"/>
       <use xlink:href="#DejaVuSans-30" x="63.623047"/>
      </g>
     </g>
    </g>
    <g id="ytick_5">
     <g id="line2d_12">
      <g>
       <use xlink:href="#m5656db37d0" x="92.16" y="75.879137" style="stroke: #000000; stroke-width: 0.8"/>
      </g>
     </g>
     <g id="text_13">
      <!-- 40 -->
      <g transform="translate(66.0725 81.577965)scale(0.15 -0.15)">
       <use xlink:href="#DejaVuSans-34"/>
       <use xlink:href="#DejaVuSans-30" x="63.623047"/>
      </g>
     </g>
    </g>
    <g id="text_14">
     <!-- Principal Component 2 -->
     <g transform="translate(45.759531 266.367656)rotate(-90)scale(0.18 -0.18)">
      <defs>
       <path id="DejaVuSans-Oblique-32" d="M 2950 2253  L 934 525  L 3163 525  L 3053 0  L 25 0  L 128 531  L 2234 2338  Q 2656 2703 2832 2979  Q 3009 3256 3009 3547  Q 3009 3850 2796 4040  Q 2584 4231 2241 4231  Q 1944 4231 1581 4125  Q 1219 4019 806 3816  L 922 4441  Q 1309 4594 1662 4672  Q 2016 4750 2316 4750  Q 2928 4750 3301 4425  Q 3675 4100 3675 3572  Q 3675 3216 3497 2892  Q 3319 2569 2950 2253  z " transform="scale(0.015625)"/>
      </defs>
      <use xlink:href="#DejaVuSans-Oblique-50"/>
      <use xlink:href="#DejaVuSans-Oblique-72" x="60.302734"/>
      <use xlink:href="#DejaVuSans-Oblique-69" x="101.416016"/>
      <use xlink:href="#DejaVuSans-Oblique-6e" x="129.199219"/>
      <use xlink:href="#DejaVuSans-Oblique-63" x="192.578125"/>
      <use xlink:href="#DejaVuSans-Oblique-69" x="247.558594"/>
      <use xlink:href="#DejaVuSans-Oblique-70" x="275.341797"/>
      <use xlink:href="#DejaVuSans-Oblique-61" x="338.818359"/>
      <use xlink:href="#DejaVuSans-Oblique-6c" x="400.097656"/>
      <use xlink:href="#DejaVuSans-Oblique-20" x="427.880859"/>
      <use xlink:href="#DejaVuSans-Oblique-43" x="459.667969"/>
      <use xlink:href="#DejaVuSans-Oblique-6f" x="529.492188"/>
      <use xlink:href="#DejaVuSans-Oblique-6d" x="590.673828"/>
      <use xlink:href="#DejaVuSans-Oblique-70" x="688.085938"/>
      <use xlink:href="#DejaVuSans-Oblique-6f" x="751.5625"/>
      <use xlink:href="#DejaVuSans-Oblique-6e" x="812.744141"/>
      <use xlink:href="#DejaVuSans-Oblique-65" x="876.123047"/>
      <use xlink:href="#DejaVuSans-Oblique-6e" x="937.646484"/>
      <use xlink:href="#DejaVuSans-Oblique-74" x="1001.025391"/>
      <use xlink:href="#DejaVuSans-Oblique-20" x="1040.234375"/>
      <use xlink:href="#DejaVuSans-Oblique-32" x="1072.021484"/>
     </g>
    </g>
   </g>
   <g id="patch_3">
    <path d="M 92.16 276.48  L 92.16 51.84  " style="fill: none; stroke: #000000; stroke-width: 0.8; stroke-linejoin: miter; stroke-linecap: square"/>
   </g>
   <g id="patch_4">
    <path d="M 414.72 276.48  L 414.72 51.84  " style="fill: none; stroke: #cccccc; stroke-width: 0.8; stroke-linejoin: miter; stroke-linecap: square"/>
   </g>
   <g id="patch_5">
    <path d="M 92.16 276.48  L 414.72 276.48  " style="fill: none; stroke: #000000; stroke-width: 0.8; stroke-linejoin: miter; stroke-linecap: square"/>
   </g>
   <g id="patch_6">
    <path d="M 92.16 51.84  L 414.72 51.84  " style="fill: none; stroke: #cccccc; stroke-width: 0.8; stroke-linejoin: miter; stroke-linecap: square"/>
   </g>
   <g id="text_15">
    <!-- 3 Clusters van Vector ACA-T type 3 -->
    <g transform="translate(57.93375 23.288125)scale(0.2 -0.2)">
     <defs>
      <path id="DejaVuSans-Bold-33" d="M 2981 2516  Q 3453 2394 3698 2092  Q 3944 1791 3944 1325  Q 3944 631 3412 270  Q 2881 -91 1863 -91  Q 1503 -91 1142 -33  Q 781 25 428 141  L 428 1069  Q 766 900 1098 814  Q 1431 728 1753 728  Q 2231 728 2486 893  Q 2741 1059 2741 1369  Q 2741 1688 2480 1852  Q 2219 2016 1709 2016  L 1228 2016  L 1228 2791  L 1734 2791  Q 2188 2791 2409 2933  Q 2631 3075 2631 3366  Q 2631 3634 2415 3781  Q 2200 3928 1806 3928  Q 1516 3928 1219 3862  Q 922 3797 628 3669  L 628 4550  Q 984 4650 1334 4700  Q 1684 4750 2022 4750  Q 2931 4750 3382 4451  Q 3834 4153 3834 3553  Q 3834 3144 3618 2883  Q 3403 2622 2981 2516  z " transform="scale(0.015625)"/>
      <path id="DejaVuSans-Bold-20" transform="scale(0.015625)"/>
      <path id="DejaVuSans-Bold-43" d="M 4288 256  Q 3956 84 3597 -3  Q 3238 -91 2847 -91  Q 1681 -91 1000 561  Q 319 1213 319 2328  Q 319 3447 1000 4098  Q 1681 4750 2847 4750  Q 3238 4750 3597 4662  Q 3956 4575 4288 4403  L 4288 3438  Q 3953 3666 3628 3772  Q 3303 3878 2944 3878  Q 2300 3878 1931 3465  Q 1563 3053 1563 2328  Q 1563 1606 1931 1193  Q 2300 781 2944 781  Q 3303 781 3628 887  Q 3953 994 4288 1222  L 4288 256  z " transform="scale(0.015625)"/>
      <path id="DejaVuSans-Bold-6c" d="M 538 4863  L 1656 4863  L 1656 0  L 538 0  L 538 4863  z " transform="scale(0.015625)"/>
      <path id="DejaVuSans-Bold-75" d="M 500 1363  L 500 3500  L 1625 3500  L 1625 3150  Q 1625 2866 1622 2436  Q 1619 2006 1619 1863  Q 1619 1441 1641 1255  Q 1663 1069 1716 984  Q 1784 875 1895 815  Q 2006 756 2150 756  Q 2500 756 2700 1025  Q 2900 1294 2900 1772  L 2900 3500  L 4019 3500  L 4019 0  L 2900 0  L 2900 506  Q 2647 200 2364 54  Q 2081 -91 1741 -91  Q 1134 -91 817 281  Q 500 653 500 1363  z " transform="scale(0.015625)"/>
      <path id="DejaVuSans-Bold-73" d="M 3272 3391  L 3272 2541  Q 2913 2691 2578 2766  Q 2244 2841 1947 2841  Q 1628 2841 1473 2761  Q 1319 2681 1319 2516  Q 1319 2381 1436 2309  Q 1553 2238 1856 2203  L 2053 2175  Q 2913 2066 3209 1816  Q 3506 1566 3506 1031  Q 3506 472 3093 190  Q 2681 -91 1863 -91  Q 1516 -91 1145 -36  Q 775 19 384 128  L 384 978  Q 719 816 1070 734  Q 1422 653 1784 653  Q 2113 653 2278 743  Q 2444 834 2444 1013  Q 2444 1163 2330 1236  Q 2216 1309 1875 1350  L 1678 1375  Q 931 1469 631 1722  Q 331 1975 331 2491  Q 331 3047 712 3315  Q 1094 3584 1881 3584  Q 2191 3584 2531 3537  Q 2872 3491 3272 3391  z " transform="scale(0.015625)"/>
      <path id="DejaVuSans-Bold-74" d="M 1759 4494  L 1759 3500  L 2913 3500  L 2913 2700  L 1759 2700  L 1759 1216  Q 1759 972 1856 886  Q 1953 800 2241 800  L 2816 800  L 2816 0  L 1856 0  Q 1194 0 917 276  Q 641 553 641 1216  L 641 2700  L 84 2700  L 84 3500  L 641 3500  L 641 4494  L 1759 4494  z " transform="scale(0.015625)"/>
      <path id="DejaVuSans-Bold-65" d="M 4031 1759  L 4031 1441  L 1416 1441  Q 1456 1047 1700 850  Q 1944 653 2381 653  Q 2734 653 3104 758  Q 3475 863 3866 1075  L 3866 213  Q 3469 63 3072 -14  Q 2675 -91 2278 -91  Q 1328 -91 801 392  Q 275 875 275 1747  Q 275 2603 792 3093  Q 1309 3584 2216 3584  Q 3041 3584 3536 3087  Q 4031 2591 4031 1759  z M 2881 2131  Q 2881 2450 2695 2645  Q 2509 2841 2209 2841  Q 1884 2841 1681 2658  Q 1478 2475 1428 2131  L 2881 2131  z " transform="scale(0.015625)"/>
      <path id="DejaVuSans-Bold-72" d="M 3138 2547  Q 2991 2616 2845 2648  Q 2700 2681 2553 2681  Q 2122 2681 1889 2404  Q 1656 2128 1656 1613  L 1656 0  L 538 0  L 538 3500  L 1656 3500  L 1656 2925  Q 1872 3269 2151 3426  Q 2431 3584 2822 3584  Q 2878 3584 2943 3579  Q 3009 3575 3134 3559  L 3138 2547  z " transform="scale(0.015625)"/>
      <path id="DejaVuSans-Bold-76" d="M 97 3500  L 1216 3500  L 2088 1081  L 2956 3500  L 4078 3500  L 2700 0  L 1472 0  L 97 3500  z " transform="scale(0.015625)"/>
      <path id="DejaVuSans-Bold-61" d="M 2106 1575  Q 1756 1575 1579 1456  Q 1403 1338 1403 1106  Q 1403 894 1545 773  Q 1688 653 1941 653  Q 2256 653 2472 879  Q 2688 1106 2688 1447  L 2688 1575  L 2106 1575  z M 3816 1997  L 3816 0  L 2688 0  L 2688 519  Q 2463 200 2181 54  Q 1900 -91 1497 -91  Q 953 -91 614 226  Q 275 544 275 1050  Q 275 1666 698 1953  Q 1122 2241 2028 2241  L 2688 2241  L 2688 2328  Q 2688 2594 2478 2717  Q 2269 2841 1825 2841  Q 1466 2841 1156 2769  Q 847 2697 581 2553  L 581 3406  Q 941 3494 1303 3539  Q 1666 3584 2028 3584  Q 2975 3584 3395 3211  Q 3816 2838 3816 1997  z " transform="scale(0.015625)"/>
      <path id="DejaVuSans-Bold-6e" d="M 4056 2131  L 4056 0  L 2931 0  L 2931 347  L 2931 1631  Q 2931 2084 2911 2256  Q 2891 2428 2841 2509  Q 2775 2619 2662 2680  Q 2550 2741 2406 2741  Q 2056 2741 1856 2470  Q 1656 2200 1656 1722  L 1656 0  L 538 0  L 538 3500  L 1656 3500  L 1656 2988  Q 1909 3294 2193 3439  Q 2478 3584 2822 3584  Q 3428 3584 3742 3212  Q 4056 2841 4056 2131  z " transform="scale(0.015625)"/>
      <path id="DejaVuSans-Bold-56" d="M 31 4666  L 1241 4666  L 2478 1222  L 3713 4666  L 4922 4666  L 3194 0  L 1759 0  L 31 4666  z " transform="scale(0.015625)"/>
      <path id="DejaVuSans-Bold-63" d="M 3366 3391  L 3366 2478  Q 3138 2634 2908 2709  Q 2678 2784 2431 2784  Q 1963 2784 1702 2511  Q 1441 2238 1441 1747  Q 1441 1256 1702 982  Q 1963 709 2431 709  Q 2694 709 2930 787  Q 3166 866 3366 1019  L 3366 103  Q 3103 6 2833 -42  Q 2563 -91 2291 -91  Q 1344 -91 809 395  Q 275 881 275 1747  Q 275 2613 809 3098  Q 1344 3584 2291 3584  Q 2566 3584 2833 3536  Q 3100 3488 3366 3391  z " transform="scale(0.015625)"/>
      <path id="DejaVuSans-Bold-6f" d="M 2203 2784  Q 1831 2784 1636 2517  Q 1441 2250 1441 1747  Q 1441 1244 1636 976  Q 1831 709 2203 709  Q 2569 709 2762 976  Q 2956 1244 2956 1747  Q 2956 2250 2762 2517  Q 2569 2784 2203 2784  z M 2203 3584  Q 3106 3584 3614 3096  Q 4122 2609 4122 1747  Q 4122 884 3614 396  Q 3106 -91 2203 -91  Q 1297 -91 786 396  Q 275 884 275 1747  Q 275 2609 786 3096  Q 1297 3584 2203 3584  z " transform="scale(0.015625)"/>
      <path id="DejaVuSans-Bold-41" d="M 3419 850  L 1538 850  L 1241 0  L 31 0  L 1759 4666  L 3194 4666  L 4922 0  L 3713 0  L 3419 850  z M 1838 1716  L 3116 1716  L 2478 3572  L 1838 1716  z " transform="scale(0.015625)"/>
      <path id="DejaVuSans-Bold-2d" d="M 347 2297  L 2309 2297  L 2309 1388  L 347 1388  L 347 2297  z " transform="scale(0.015625)"/>
      <path id="DejaVuSans-Bold-54" d="M 31 4666  L 4331 4666  L 4331 3756  L 2784 3756  L 2784 0  L 1581 0  L 1581 3756  L 31 3756  L 31 4666  z " transform="scale(0.015625)"/>
      <path id="DejaVuSans-Bold-79" d="M 78 3500  L 1197 3500  L 2138 1125  L 2938 3500  L 4056 3500  L 2584 -331  Q 2363 -916 2067 -1148  Q 1772 -1381 1288 -1381  L 641 -1381  L 641 -647  L 991 -647  Q 1275 -647 1404 -556  Q 1534 -466 1606 -231  L 1638 -134  L 78 3500  z " transform="scale(0.015625)"/>
      <path id="DejaVuSans-Bold-70" d="M 1656 506  L 1656 -1331  L 538 -1331  L 538 3500  L 1656 3500  L 1656 2988  Q 1888 3294 2169 3439  Q 2450 3584 2816 3584  Q 3463 3584 3878 3070  Q 4294 2556 4294 1747  Q 4294 938 3878 423  Q 3463 -91 2816 -91  Q 2450 -91 2169 54  Q 1888 200 1656 506  z M 2400 2772  Q 2041 2772 1848 2508  Q 1656 2244 1656 1747  Q 1656 1250 1848 986  Q 2041 722 2400 722  Q 2759 722 2948 984  Q 3138 1247 3138 1747  Q 3138 2247 2948 2509  Q 2759 2772 2400 2772  z " transform="scale(0.015625)"/>
     </defs>
     <use xlink:href="#DejaVuSans-Bold-33"/>
     <use xlink:href="#DejaVuSans-Bold-20" x="69.580078"/>
     <use xlink:href="#DejaVuSans-Bold-43" x="104.394531"/>
     <use xlink:href="#DejaVuSans-Bold-6c" x="177.783203"/>
     <use xlink:href="#DejaVuSans-Bold-75" x="212.060547"/>
     <use xlink:href="#DejaVuSans-Bold-73" x="283.251953"/>
     <use xlink:href="#DejaVuSans-Bold-74" x="342.773438"/>
     <use xlink:href="#DejaVuSans-Bold-65" x="390.576172"/>
     <use xlink:href="#DejaVuSans-Bold-72" x="458.398438"/>
     <use xlink:href="#DejaVuSans-Bold-73" x="507.714844"/>
     <use xlink:href="#DejaVuSans-Bold-20" x="567.236328"/>
     <use xlink:href="#DejaVuSans-Bold-76" x="602.050781"/>
     <use xlink:href="#DejaVuSans-Bold-61" x="667.236328"/>
     <use xlink:href="#DejaVuSans-Bold-6e" x="734.716797"/>
     <use xlink:href="#DejaVuSans-Bold-20" x="805.908203"/>
     <use xlink:href="#DejaVuSans-Bold-56" x="840.722656"/>
     <use xlink:href="#DejaVuSans-Bold-65" x="912.615234"/>
     <use xlink:href="#DejaVuSans-Bold-63" x="980.4375"/>
     <use xlink:href="#DejaVuSans-Bold-74" x="1039.714844"/>
     <use xlink:href="#DejaVuSans-Bold-6f" x="1087.517578"/>
     <use xlink:href="#DejaVuSans-Bold-72" x="1156.21875"/>
     <use xlink:href="#DejaVuSans-Bold-20" x="1205.535156"/>
     <use xlink:href="#DejaVuSans-Bold-41" x="1240.349609"/>
     <use xlink:href="#DejaVuSans-Bold-43" x="1317.742188"/>
     <use xlink:href="#DejaVuSans-Bold-41" x="1391.130859"/>
     <use xlink:href="#DejaVuSans-Bold-2d" x="1468.523438"/>
     <use xlink:href="#DejaVuSans-Bold-54" x="1495.277344"/>
     <use xlink:href="#DejaVuSans-Bold-20" x="1563.490234"/>
     <use xlink:href="#DejaVuSans-Bold-74" x="1598.304688"/>
     <use xlink:href="#DejaVuSans-Bold-79" x="1646.107422"/>
     <use xlink:href="#DejaVuSans-Bold-70" x="1711.292969"/>
     <use xlink:href="#DejaVuSans-Bold-65" x="1782.875"/>
     <use xlink:href="#DejaVuSans-Bold-20" x="1850.697266"/>
     <use xlink:href="#DejaVuSans-Bold-33" x="1885.511719"/>
    </g>
    <!-- rang 25 -->
    <g transform="translate(210.086875 45.84)scale(0.2 -0.2)">
     <defs>
      <path id="DejaVuSans-Bold-67" d="M 2919 594  Q 2688 288 2409 144  Q 2131 0 1766 0  Q 1125 0 706 504  Q 288 1009 288 1791  Q 288 2575 706 3076  Q 1125 3578 1766 3578  Q 2131 3578 2409 3434  Q 2688 3291 2919 2981  L 2919 3500  L 4044 3500  L 4044 353  Q 4044 -491 3511 -936  Q 2978 -1381 1966 -1381  Q 1638 -1381 1331 -1331  Q 1025 -1281 716 -1178  L 716 -306  Q 1009 -475 1290 -558  Q 1572 -641 1856 -641  Q 2406 -641 2662 -400  Q 2919 -159 2919 353  L 2919 594  z M 2181 2772  Q 1834 2772 1640 2515  Q 1447 2259 1447 1791  Q 1447 1309 1634 1061  Q 1822 813 2181 813  Q 2531 813 2725 1069  Q 2919 1325 2919 1791  Q 2919 2259 2725 2515  Q 2531 2772 2181 2772  z " transform="scale(0.015625)"/>
      <path id="DejaVuSans-Bold-32" d="M 1844 884  L 3897 884  L 3897 0  L 506 0  L 506 884  L 2209 2388  Q 2438 2594 2547 2791  Q 2656 2988 2656 3200  Q 2656 3528 2436 3728  Q 2216 3928 1850 3928  Q 1569 3928 1234 3808  Q 900 3688 519 3450  L 519 4475  Q 925 4609 1322 4679  Q 1719 4750 2100 4750  Q 2938 4750 3402 4381  Q 3866 4013 3866 3353  Q 3866 2972 3669 2642  Q 3472 2313 2841 1759  L 1844 884  z " transform="scale(0.015625)"/>
      <path id="DejaVuSans-Bold-35" d="M 678 4666  L 3669 4666  L 3669 3781  L 1638 3781  L 1638 3059  Q 1775 3097 1914 3117  Q 2053 3138 2203 3138  Q 3056 3138 3531 2711  Q 4006 2284 4006 1522  Q 4006 766 3489 337  Q 2972 -91 2053 -91  Q 1656 -91 1267 -14  Q 878 63 494 219  L 494 1166  Q 875 947 1217 837  Q 1559 728 1863 728  Q 2300 728 2551 942  Q 2803 1156 2803 1522  Q 2803 1891 2551 2103  Q 2300 2316 1863 2316  Q 1603 2316 1309 2248  Q 1016 2181 678 2041  L 678 4666  z " transform="scale(0.015625)"/>
     </defs>
     <use xlink:href="#DejaVuSans-Bold-72"/>
     <use xlink:href="#DejaVuSans-Bold-61" x="49.316406"/>
     <use xlink:href="#DejaVuSans-Bold-6e" x="116.796875"/>
     <use xlink:href="#DejaVuSans-Bold-67" x="187.988281"/>
     <use xlink:href="#DejaVuSans-Bold-20" x="259.570312"/>
     <use xlink:href="#DejaVuSans-Bold-32" x="294.384766"/>
     <use xlink:href="#DejaVuSans-Bold-35" x="363.964844"/>
    </g>
   </g>
  </g>
 </g>
 <defs>
  <clipPath id="pfee7a73892">
   <rect x="92.16" y="51.84" width="322.56" height="224.64"/>
  </clipPath>
 </defs>
</svg>