<?xml version="1.0" encoding="utf-8" standalone="no"?>
<!DOCTYPE svg PUBLIC "-//W3C//DTD SVG 1.1//EN"
  "http://www.w3.org/Graphics/SVG/1.1/DTD/svg11.dtd">
<svg xmlns:xlink="http://www.w3.org/1999/xlink" width="460.8pt" height="345.6pt" viewBox="0 0 460.8 345.6" xmlns="http://www.w3.org/2000/svg" version="1.1">
 <metadata>
  <rdf:RDF xmlns:dc="http://purl.org/dc/elements/1.1/" xmlns:cc="http://creativecommons.org/ns#" xmlns:rdf="http://www.w3.org/1999/02/22-rdf-syntax-ns#">
   <cc:Work>
    <dc:type rdf:resource="http://purl.org/dc/dcmitype/StillImage"/>
    <dc:date>2024-03-01T12:33:57.023411</dc:date>
    <dc:format>image/svg+xml</dc:format>
    <dc:creator>
     <cc:Agent>
      <dc:title>Matplotlib v3.8.0, https://matplotlib.org/</dc:title>
     </cc:Agent>
    </dc:creator>
   </cc:Work>
  </rdf:RDF>
 </metadata>
 <defs>
  <style type="text/css">*{stroke-linejoin: round; stroke-linecap: butt}</style>
 </defs>
 <g id="figure_1">
  <g id="patch_1">
   <path d="M 0 345.6 
L 460.8 345.6 
L 460.8 0 
L 0 0 
L 0 345.6 
z
" style="fill: none"/>
  </g>
  <g id="axes_1">
   <g id="patch_2">
    <path d="M 57.6 307.584 
L 414.72 307.584 
L 414.72 41.472 
L 57.6 41.472 
L 57.6 307.584 
z
" style="fill: none"/>
   </g>
   <g id="PathCollection_1">
    <defs>
     <path id="md6ced6126a" d="M 0 3 
C 0.795609 3 1.55874 2.683901 2.12132 2.12132 
C 2.683901 1.55874 3 0.795609 3 0 
C 3 -0.795609 2.683901 -1.55874 2.12132 -2.12132 
C 1.55874 -2.683901 0.795609 -3 0 -3 
C -0.795609 -3 -1.55874 -2.683901 -2.12132 -2.12132 
C -2.683901 -1.55874 -3 -0.795609 -3 0 
C -3 0.795609 -2.683901 1.55874 -2.12132 2.12132 
C -1.55874 2.683901 -0.795609 3 0 3 
z
" style="stroke: #bfbf00"/>
    </defs>
    <g clip-path="url(#p1e486ea830)">
     <use xlink:href="#md6ced6126a" x="116.932802" y="272.731212" style="fill: #bfbf00; stroke: #bfbf00"/>
     <use xlink:href="#md6ced6126a" x="73.832727" y="274.173049" style="fill: #bfbf00; stroke: #bfbf00"/>
     <use xlink:href="#md6ced6126a" x="74.110142" y="270.464356" style="fill: #bfbf00; stroke: #bfbf00"/>
     <use xlink:href="#md6ced6126a" x="84.07382" y="267.826964" style="fill: #bfbf00; stroke: #bfbf00"/>
     <use xlink:href="#md6ced6126a" x="98.025682" y="273.579579" style="fill: #bfbf00; stroke: #bfbf00"/>
     <use xlink:href="#md6ced6126a" x="85.043097" y="269.263392" style="fill: #bfbf00; stroke: #bfbf00"/>
     <use xlink:href="#md6ced6126a" x="98.614905" y="269.724787" style="fill: #bfbf00; stroke: #bfbf00"/>
     <use xlink:href="#md6ced6126a" x="170.403876" y="269.746727" style="fill: #bfbf00; stroke: #bfbf00"/>
     <use xlink:href="#md6ced6126a" x="169.091616" y="270.499288" style="fill: #bfbf00; stroke: #bfbf00"/>
     <use xlink:href="#md6ced6126a" x="171.704727" y="269.514782" style="fill: #bfbf00; stroke: #bfbf00"/>
     <use xlink:href="#md6ced6126a" x="169.801502" y="275.326757" style="fill: #bfbf00; stroke: #bfbf00"/>
     <use xlink:href="#md6ced6126a" x="167.784959" y="263.982538" style="fill: #bfbf00; stroke: #bfbf00"/>
     <use xlink:href="#md6ced6126a" x="174.573382" y="267.672683" style="fill: #bfbf00; stroke: #bfbf00"/>
     <use xlink:href="#md6ced6126a" x="101.177635" y="279.338216" style="fill: #bfbf00; stroke: #bfbf00"/>
     <use xlink:href="#md6ced6126a" x="121.336214" y="268.441833" style="fill: #bfbf00; stroke: #bfbf00"/>
     <use xlink:href="#md6ced6126a" x="136.859567" y="270.330438" style="fill: #bfbf00; stroke: #bfbf00"/>
     <use xlink:href="#md6ced6126a" x="130.205042" y="262.525262" style="fill: #bfbf00; stroke: #bfbf00"/>
     <use xlink:href="#md6ced6126a" x="149.960628" y="254.216943" style="fill: #bfbf00; stroke: #bfbf00"/>
     <use xlink:href="#md6ced6126a" x="139.977892" y="262.634602" style="fill: #bfbf00; stroke: #bfbf00"/>
     <use xlink:href="#md6ced6126a" x="153.10073" y="246.755397" style="fill: #bfbf00; stroke: #bfbf00"/>
     <use xlink:href="#md6ced6126a" x="93.099388" y="283.096544" style="fill: #bfbf00; stroke: #bfbf00"/>
     <use xlink:href="#md6ced6126a" x="103.772417" y="282.044966" style="fill: #bfbf00; stroke: #bfbf00"/>
     <use xlink:href="#md6ced6126a" x="103.332757" y="266.151606" style="fill: #bfbf00; stroke: #bfbf00"/>
     <use xlink:href="#md6ced6126a" x="118.947172" y="253.180845" style="fill: #bfbf00; stroke: #bfbf00"/>
     <use xlink:href="#md6ced6126a" x="96.980441" y="258.637478" style="fill: #bfbf00; stroke: #bfbf00"/>
     <use xlink:href="#md6ced6126a" x="125.949257" y="245.980012" style="fill: #bfbf00; stroke: #bfbf00"/>
     <use xlink:href="#md6ced6126a" x="124.73478" y="269.099693" style="fill: #bfbf00; stroke: #bfbf00"/>
     <use xlink:href="#md6ced6126a" x="138.614642" y="263.179317" style="fill: #bfbf00; stroke: #bfbf00"/>
     <use xlink:href="#md6ced6126a" x="134.449217" y="260.56856" style="fill: #bfbf00; stroke: #bfbf00"/>
     <use xlink:href="#md6ced6126a" x="136.533624" y="241.668345" style="fill: #bfbf00; stroke: #bfbf00"/>
     <use xlink:href="#md6ced6126a" x="121.961284" y="247.277031" style="fill: #bfbf00; stroke: #bfbf00"/>
     <use xlink:href="#md6ced6126a" x="139.073719" y="239.231824" style="fill: #bfbf00; stroke: #bfbf00"/>
     <use xlink:href="#md6ced6126a" x="123.242214" y="248.817345" style="fill: #bfbf00; stroke: #bfbf00"/>
     <use xlink:href="#md6ced6126a" x="109.304274" y="289.2486" style="fill: #bfbf00; stroke: #bfbf00"/>
     <use xlink:href="#md6ced6126a" x="107.234729" y="295.488" style="fill: #bfbf00; stroke: #bfbf00"/>
     <use xlink:href="#md6ced6126a" x="165.965657" y="232.325783" style="fill: #bfbf00; stroke: #bfbf00"/>
     <use xlink:href="#md6ced6126a" x="156.567042" y="222.692031" style="fill: #bfbf00; stroke: #bfbf00"/>
     <use xlink:href="#md6ced6126a" x="159.333936" y="228.74573" style="fill: #bfbf00; stroke: #bfbf00"/>
     <use xlink:href="#md6ced6126a" x="158.715036" y="227.833926" style="fill: #bfbf00; stroke: #bfbf00"/>
     <use xlink:href="#md6ced6126a" x="162.666432" y="231.910322" style="fill: #bfbf00; stroke: #bfbf00"/>
     <use xlink:href="#md6ced6126a" x="162.70173" y="236.418082" style="fill: #bfbf00; stroke: #bfbf00"/>
     <use xlink:href="#md6ced6126a" x="164.654938" y="230.621122" style="fill: #bfbf00; stroke: #bfbf00"/>
     <use xlink:href="#md6ced6126a" x="157.82157" y="228.390159" style="fill: #bfbf00; stroke: #bfbf00"/>
     <use xlink:href="#md6ced6126a" x="157.948765" y="232.123143" style="fill: #bfbf00; stroke: #bfbf00"/>
     <use xlink:href="#md6ced6126a" x="167.441032" y="239.19652" style="fill: #bfbf00; stroke: #bfbf00"/>
     <use xlink:href="#md6ced6126a" x="179.516236" y="224.152242" style="fill: #bfbf00; stroke: #bfbf00"/>
     <use xlink:href="#md6ced6126a" x="195.407013" y="217.124535" style="fill: #bfbf00; stroke: #bfbf00"/>
     <use xlink:href="#md6ced6126a" x="189.419116" y="209.208129" style="fill: #bfbf00; stroke: #bfbf00"/>
     <use xlink:href="#md6ced6126a" x="182.887741" y="206.216042" style="fill: #bfbf00; stroke: #bfbf00"/>
     <use xlink:href="#md6ced6126a" x="185.52316" y="212.09626" style="fill: #bfbf00; stroke: #bfbf00"/>
     <use xlink:href="#md6ced6126a" x="198.402288" y="196.721067" style="fill: #bfbf00; stroke: #bfbf00"/>
     <use xlink:href="#md6ced6126a" x="161.242139" y="251.350107" style="fill: #bfbf00; stroke: #bfbf00"/>
     <use xlink:href="#md6ced6126a" x="147.490203" y="265.698886" style="fill: #bfbf00; stroke: #bfbf00"/>
     <use xlink:href="#md6ced6126a" x="151.822307" y="273.135214" style="fill: #bfbf00; stroke: #bfbf00"/>
     <use xlink:href="#md6ced6126a" x="165.244056" y="228.428066" style="fill: #bfbf00; stroke: #bfbf00"/>
     <use xlink:href="#md6ced6126a" x="159.859059" y="237.753147" style="fill: #bfbf00; stroke: #bfbf00"/>
     <use xlink:href="#md6ced6126a" x="171.002592" y="226.695741" style="fill: #bfbf00; stroke: #bfbf00"/>
     <use xlink:href="#md6ced6126a" x="162.958895" y="266.081039" style="fill: #bfbf00; stroke: #bfbf00"/>
     <use xlink:href="#md6ced6126a" x="177.748009" y="252.301049" style="fill: #bfbf00; stroke: #bfbf00"/>
     <use xlink:href="#md6ced6126a" x="184.357267" y="248.436596" style="fill: #bfbf00; stroke: #bfbf00"/>
     <use xlink:href="#md6ced6126a" x="186.29456" y="235.929996" style="fill: #bfbf00; stroke: #bfbf00"/>
     <use xlink:href="#md6ced6126a" x="184.63157" y="237.519191" style="fill: #bfbf00; stroke: #bfbf00"/>
     <use xlink:href="#md6ced6126a" x="181.536803" y="244.710845" style="fill: #bfbf00; stroke: #bfbf00"/>
    </g>
   </g>
   <g id="PathCollection_2">
    <defs>
     <path id="m3b63ac4897" d="M 0 3 
C 0.795609 3 1.55874 2.683901 2.12132 2.12132 
C 2.683901 1.55874 3 0.795609 3 0 
C 3 -0.795609 2.683901 -1.55874 2.12132 -2.12132 
C 1.55874 -2.683901 0.795609 -3 0 -3 
C -0.795609 -3 -1.55874 -2.683901 -2.12132 -2.12132 
C -2.683901 -1.55874 -3 -0.795609 -3 0 
C -3 0.795609 -2.683901 1.55874 -2.12132 2.12132 
C -1.55874 2.683901 -0.795609 3 0 3 
z
" style="stroke: #ff0000"/>
    </defs>
    <g clip-path="url(#p1e486ea830)">
     <use xlink:href="#m3b63ac4897" x="251.622003" y="281.761984" style="fill: #ff0000; stroke: #ff0000"/>
     <use xlink:href="#m3b63ac4897" x="254.618912" y="284.364783" style="fill: #ff0000; stroke: #ff0000"/>
     <use xlink:href="#m3b63ac4897" x="256.754579" y="283.663772" style="fill: #ff0000; stroke: #ff0000"/>
     <use xlink:href="#m3b63ac4897" x="253.400558" y="288.387577" style="fill: #ff0000; stroke: #ff0000"/>
     <use xlink:href="#m3b63ac4897" x="251.266454" y="280.63239" style="fill: #ff0000; stroke: #ff0000"/>
     <use xlink:href="#m3b63ac4897" x="252.147848" y="268.644521" style="fill: #ff0000; stroke: #ff0000"/>
     <use xlink:href="#m3b63ac4897" x="376.232845" y="230.679423" style="fill: #ff0000; stroke: #ff0000"/>
     <use xlink:href="#m3b63ac4897" x="375.837009" y="238.535007" style="fill: #ff0000; stroke: #ff0000"/>
     <use xlink:href="#m3b63ac4897" x="369.691477" y="228.605563" style="fill: #ff0000; stroke: #ff0000"/>
     <use xlink:href="#m3b63ac4897" x="368.148884" y="237.035652" style="fill: #ff0000; stroke: #ff0000"/>
     <use xlink:href="#m3b63ac4897" x="351.990614" y="235.578548" style="fill: #ff0000; stroke: #ff0000"/>
     <use xlink:href="#m3b63ac4897" x="370.525803" y="246.028164" style="fill: #ff0000; stroke: #ff0000"/>
     <use xlink:href="#m3b63ac4897" x="375.731999" y="219.937384" style="fill: #ff0000; stroke: #ff0000"/>
     <use xlink:href="#m3b63ac4897" x="351.788776" y="241.96191" style="fill: #ff0000; stroke: #ff0000"/>
     <use xlink:href="#m3b63ac4897" x="363.488835" y="239.31869" style="fill: #ff0000; stroke: #ff0000"/>
     <use xlink:href="#m3b63ac4897" x="369.661221" y="203.058129" style="fill: #ff0000; stroke: #ff0000"/>
     <use xlink:href="#m3b63ac4897" x="342.63468" y="244.385229" style="fill: #ff0000; stroke: #ff0000"/>
     <use xlink:href="#m3b63ac4897" x="343.280695" y="243.471866" style="fill: #ff0000; stroke: #ff0000"/>
     <use xlink:href="#m3b63ac4897" x="358.706732" y="213.354621" style="fill: #ff0000; stroke: #ff0000"/>
     <use xlink:href="#m3b63ac4897" x="350.936474" y="262.085253" style="fill: #ff0000; stroke: #ff0000"/>
     <use xlink:href="#m3b63ac4897" x="318.425193" y="246.188896" style="fill: #ff0000; stroke: #ff0000"/>
     <use xlink:href="#m3b63ac4897" x="334.543054" y="260.987362" style="fill: #ff0000; stroke: #ff0000"/>
     <use xlink:href="#m3b63ac4897" x="341.25552" y="252.798033" style="fill: #ff0000; stroke: #ff0000"/>
     <use xlink:href="#m3b63ac4897" x="323.162044" y="233.240513" style="fill: #ff0000; stroke: #ff0000"/>
     <use xlink:href="#m3b63ac4897" x="319.694033" y="231.169092" style="fill: #ff0000; stroke: #ff0000"/>
     <use xlink:href="#m3b63ac4897" x="315.992876" y="217.213027" style="fill: #ff0000; stroke: #ff0000"/>
     <use xlink:href="#m3b63ac4897" x="356.763114" y="281.705052" style="fill: #ff0000; stroke: #ff0000"/>
     <use xlink:href="#m3b63ac4897" x="361.061163" y="270.350817" style="fill: #ff0000; stroke: #ff0000"/>
     <use xlink:href="#m3b63ac4897" x="355.025818" y="270.142577" style="fill: #ff0000; stroke: #ff0000"/>
     <use xlink:href="#m3b63ac4897" x="358.968774" y="220.917648" style="fill: #ff0000; stroke: #ff0000"/>
     <use xlink:href="#m3b63ac4897" x="357.124247" y="238.78864" style="fill: #ff0000; stroke: #ff0000"/>
     <use xlink:href="#m3b63ac4897" x="354.990586" y="229.310638" style="fill: #ff0000; stroke: #ff0000"/>
     <use xlink:href="#m3b63ac4897" x="362.177361" y="165.230912" style="fill: #ff0000; stroke: #ff0000"/>
     <use xlink:href="#m3b63ac4897" x="369.667514" y="174.567976" style="fill: #ff0000; stroke: #ff0000"/>
     <use xlink:href="#m3b63ac4897" x="355.970822" y="162.54603" style="fill: #ff0000; stroke: #ff0000"/>
     <use xlink:href="#m3b63ac4897" x="368.157038" y="177.906534" style="fill: #ff0000; stroke: #ff0000"/>
     <use xlink:href="#m3b63ac4897" x="357.538051" y="163.543358" style="fill: #ff0000; stroke: #ff0000"/>
     <use xlink:href="#m3b63ac4897" x="342.542339" y="167.002337" style="fill: #ff0000; stroke: #ff0000"/>
     <use xlink:href="#m3b63ac4897" x="379.375566" y="210.81885" style="fill: #ff0000; stroke: #ff0000"/>
     <use xlink:href="#m3b63ac4897" x="379.022496" y="203.825288" style="fill: #ff0000; stroke: #ff0000"/>
     <use xlink:href="#m3b63ac4897" x="370.628996" y="204.23945" style="fill: #ff0000; stroke: #ff0000"/>
     <use xlink:href="#m3b63ac4897" x="368.570001" y="210.509163" style="fill: #ff0000; stroke: #ff0000"/>
     <use xlink:href="#m3b63ac4897" x="366.566506" y="185.244925" style="fill: #ff0000; stroke: #ff0000"/>
     <use xlink:href="#m3b63ac4897" x="361.455565" y="187.128524" style="fill: #ff0000; stroke: #ff0000"/>
     <use xlink:href="#m3b63ac4897" x="367.606849" y="193.623849" style="fill: #ff0000; stroke: #ff0000"/>
     <use xlink:href="#m3b63ac4897" x="372.687298" y="191.817262" style="fill: #ff0000; stroke: #ff0000"/>
     <use xlink:href="#m3b63ac4897" x="378.087053" y="192.471274" style="fill: #ff0000; stroke: #ff0000"/>
     <use xlink:href="#m3b63ac4897" x="366.463343" y="172.401397" style="fill: #ff0000; stroke: #ff0000"/>
     <use xlink:href="#m3b63ac4897" x="371.691402" y="200.509173" style="fill: #ff0000; stroke: #ff0000"/>
     <use xlink:href="#m3b63ac4897" x="365.620414" y="190.619826" style="fill: #ff0000; stroke: #ff0000"/>
     <use xlink:href="#m3b63ac4897" x="376.979766" y="196.268384" style="fill: #ff0000; stroke: #ff0000"/>
     <use xlink:href="#m3b63ac4897" x="382.178911" y="201.949688" style="fill: #ff0000; stroke: #ff0000"/>
     <use xlink:href="#m3b63ac4897" x="345.679182" y="178.645503" style="fill: #ff0000; stroke: #ff0000"/>
     <use xlink:href="#m3b63ac4897" x="379.499979" y="198.149057" style="fill: #ff0000; stroke: #ff0000"/>
     <use xlink:href="#m3b63ac4897" x="384.803453" y="190.046236" style="fill: #ff0000; stroke: #ff0000"/>
     <use xlink:href="#m3b63ac4897" x="398.487273" y="202.548849" style="fill: #ff0000; stroke: #ff0000"/>
     <use xlink:href="#m3b63ac4897" x="344.652289" y="232.57527" style="fill: #ff0000; stroke: #ff0000"/>
     <use xlink:href="#m3b63ac4897" x="372.117994" y="226.398399" style="fill: #ff0000; stroke: #ff0000"/>
     <use xlink:href="#m3b63ac4897" x="374.848782" y="231.376346" style="fill: #ff0000; stroke: #ff0000"/>
     <use xlink:href="#m3b63ac4897" x="368.616438" y="238.273816" style="fill: #ff0000; stroke: #ff0000"/>
     <use xlink:href="#m3b63ac4897" x="379.160836" y="220.169417" style="fill: #ff0000; stroke: #ff0000"/>
     <use xlink:href="#m3b63ac4897" x="379.503236" y="233.776063" style="fill: #ff0000; stroke: #ff0000"/>
    </g>
   </g>
   <g id="PathCollection_3">
    <defs>
     <path id="m2cd9c253d1" d="M 0 3 
C 0.795609 3 1.55874 2.683901 2.12132 2.12132 
C 2.683901 1.55874 3 0.795609 3 0 
C 3 -0.795609 2.683901 -1.55874 2.12132 -2.12132 
C 1.55874 -2.683901 0.795609 -3 0 -3 
C -0.795609 -3 -1.55874 -2.683901 -2.12132 -2.12132 
C -2.683901 -1.55874 -3 -0.795609 -3 0 
C -3 0.795609 -2.683901 1.55874 -2.12132 2.12132 
C -1.55874 2.683901 -0.795609 3 0 3 
z
" style="stroke: #008000"/>
    </defs>
    <g clip-path="url(#p1e486ea830)">
     <use xlink:href="#m2cd9c253d1" x="189.570799" y="123.794055" style="fill: #008000; stroke: #008000"/>
     <use xlink:href="#m2cd9c253d1" x="196.305533" y="118.410511" style="fill: #008000; stroke: #008000"/>
     <use xlink:href="#m2cd9c253d1" x="175.608616" y="162.460819" style="fill: #008000; stroke: #008000"/>
     <use xlink:href="#m2cd9c253d1" x="118.964529" y="173.367123" style="fill: #008000; stroke: #008000"/>
     <use xlink:href="#m2cd9c253d1" x="182.357209" y="169.960032" style="fill: #008000; stroke: #008000"/>
     <use xlink:href="#m2cd9c253d1" x="173.610442" y="169.021628" style="fill: #008000; stroke: #008000"/>
     <use xlink:href="#m2cd9c253d1" x="203.392346" y="76.186831" style="fill: #008000; stroke: #008000"/>
     <use xlink:href="#m2cd9c253d1" x="204.093137" y="71.894092" style="fill: #008000; stroke: #008000"/>
     <use xlink:href="#m2cd9c253d1" x="212.014224" y="71.708931" style="fill: #008000; stroke: #008000"/>
     <use xlink:href="#m2cd9c253d1" x="203.773212" y="66.846015" style="fill: #008000; stroke: #008000"/>
     <use xlink:href="#m2cd9c253d1" x="207.597704" y="55.737282" style="fill: #008000; stroke: #008000"/>
     <use xlink:href="#m2cd9c253d1" x="210.55813" y="53.568" style="fill: #008000; stroke: #008000"/>
     <use xlink:href="#m2cd9c253d1" x="181.963647" y="160.306197" style="fill: #008000; stroke: #008000"/>
     <use xlink:href="#m2cd9c253d1" x="173.390818" y="153.26704" style="fill: #008000; stroke: #008000"/>
     <use xlink:href="#m2cd9c253d1" x="175.764759" y="158.166564" style="fill: #008000; stroke: #008000"/>
     <use xlink:href="#m2cd9c253d1" x="171.350312" y="179.966619" style="fill: #008000; stroke: #008000"/>
     <use xlink:href="#m2cd9c253d1" x="179.402431" y="161.378199" style="fill: #008000; stroke: #008000"/>
     <use xlink:href="#m2cd9c253d1" x="174.347703" y="156.410389" style="fill: #008000; stroke: #008000"/>
     <use xlink:href="#m2cd9c253d1" x="194.806901" y="111.637816" style="fill: #008000; stroke: #008000"/>
     <use xlink:href="#m2cd9c253d1" x="190.863282" y="110.012396" style="fill: #008000; stroke: #008000"/>
     <use xlink:href="#m2cd9c253d1" x="193.228185" y="113.77237" style="fill: #008000; stroke: #008000"/>
     <use xlink:href="#m2cd9c253d1" x="209.559254" y="136.764692" style="fill: #008000; stroke: #008000"/>
     <use xlink:href="#m2cd9c253d1" x="210.942575" y="133.704133" style="fill: #008000; stroke: #008000"/>
     <use xlink:href="#m2cd9c253d1" x="200.996653" y="117.201136" style="fill: #008000; stroke: #008000"/>
     <use xlink:href="#m2cd9c253d1" x="181.999434" y="87.233458" style="fill: #008000; stroke: #008000"/>
     <use xlink:href="#m2cd9c253d1" x="188.816254" y="91.666462" style="fill: #008000; stroke: #008000"/>
     <use xlink:href="#m2cd9c253d1" x="189.100425" y="98.079633" style="fill: #008000; stroke: #008000"/>
     <use xlink:href="#m2cd9c253d1" x="204.14294" y="110.762357" style="fill: #008000; stroke: #008000"/>
     <use xlink:href="#m2cd9c253d1" x="200.32677" y="106.705936" style="fill: #008000; stroke: #008000"/>
     <use xlink:href="#m2cd9c253d1" x="201.325385" y="99.338187" style="fill: #008000; stroke: #008000"/>
     <use xlink:href="#m2cd9c253d1" x="176.418051" y="157.348492" style="fill: #008000; stroke: #008000"/>
     <use xlink:href="#m2cd9c253d1" x="176.457735" y="153.283564" style="fill: #008000; stroke: #008000"/>
     <use xlink:href="#m2cd9c253d1" x="179.017803" y="154.05476" style="fill: #008000; stroke: #008000"/>
     <use xlink:href="#m2cd9c253d1" x="178.108478" y="157.373353" style="fill: #008000; stroke: #008000"/>
     <use xlink:href="#m2cd9c253d1" x="182.769555" y="154.170398" style="fill: #008000; stroke: #008000"/>
     <use xlink:href="#m2cd9c253d1" x="181.776804" y="142.941003" style="fill: #008000; stroke: #008000"/>
     <use xlink:href="#m2cd9c253d1" x="198.77387" y="68.511792" style="fill: #008000; stroke: #008000"/>
     <use xlink:href="#m2cd9c253d1" x="207.045059" y="74.025585" style="fill: #008000; stroke: #008000"/>
     <use xlink:href="#m2cd9c253d1" x="208.28372" y="73.385166" style="fill: #008000; stroke: #008000"/>
     <use xlink:href="#m2cd9c253d1" x="206.685665" y="75.076842" style="fill: #008000; stroke: #008000"/>
     <use xlink:href="#m2cd9c253d1" x="214.567831" y="78.713574" style="fill: #008000; stroke: #008000"/>
     <use xlink:href="#m2cd9c253d1" x="206.200134" y="75.092961" style="fill: #008000; stroke: #008000"/>
     <use xlink:href="#m2cd9c253d1" x="209.295042" y="86.764268" style="fill: #008000; stroke: #008000"/>
     <use xlink:href="#m2cd9c253d1" x="204.888762" y="82.588344" style="fill: #008000; stroke: #008000"/>
     <use xlink:href="#m2cd9c253d1" x="205.980575" y="78.361501" style="fill: #008000; stroke: #008000"/>
     <use xlink:href="#m2cd9c253d1" x="212.127938" y="66.765249" style="fill: #008000; stroke: #008000"/>
     <use xlink:href="#m2cd9c253d1" x="214.003147" y="80.078935" style="fill: #008000; stroke: #008000"/>
     <use xlink:href="#m2cd9c253d1" x="209.551102" y="82.413922" style="fill: #008000; stroke: #008000"/>
     <use xlink:href="#m2cd9c253d1" x="183.127963" y="54.470805" style="fill: #008000; stroke: #008000"/>
     <use xlink:href="#m2cd9c253d1" x="220.240038" y="107.890591" style="fill: #008000; stroke: #008000"/>
     <use xlink:href="#m2cd9c253d1" x="199.66768" y="85.92449" style="fill: #008000; stroke: #008000"/>
     <use xlink:href="#m2cd9c253d1" x="195.387315" y="66.241928" style="fill: #008000; stroke: #008000"/>
     <use xlink:href="#m2cd9c253d1" x="185.289" y="63.05813" style="fill: #008000; stroke: #008000"/>
     <use xlink:href="#m2cd9c253d1" x="188.88276" y="68.487037" style="fill: #008000; stroke: #008000"/>
     <use xlink:href="#m2cd9c253d1" x="187.528824" y="60.801612" style="fill: #008000; stroke: #008000"/>
     <use xlink:href="#m2cd9c253d1" x="200.699528" y="56.658258" style="fill: #008000; stroke: #008000"/>
     <use xlink:href="#m2cd9c253d1" x="212.878812" y="80.350205" style="fill: #008000; stroke: #008000"/>
     <use xlink:href="#m2cd9c253d1" x="205.610586" y="69.321725" style="fill: #008000; stroke: #008000"/>
     <use xlink:href="#m2cd9c253d1" x="209.049063" y="79.735467" style="fill: #008000; stroke: #008000"/>
     <use xlink:href="#m2cd9c253d1" x="210.707478" y="85.18754" style="fill: #008000; stroke: #008000"/>
     <use xlink:href="#m2cd9c253d1" x="209.426871" y="61.119088" style="fill: #008000; stroke: #008000"/>
    </g>
   </g>
   <g id="matplotlib.axis_1">
    <g id="xtick_1">
     <g id="line2d_1">
      <defs>
       <path id="m39ea5b8937" d="M 0 0 
L 0 3.5 
" style="stroke: #000000; stroke-width: 0.8"/>
      </defs>
      <g>
       <use xlink:href="#m39ea5b8937" x="93.043926" y="307.584" style="stroke: #000000; stroke-width: 0.8"/>
      </g>
     </g>
     <g id="text_1">
      <!-- −60 -->
      <g transform="translate(82.491582 322.182437) scale(0.1 -0.1)">
       <defs>
        <path id="DejaVuSans-2212" d="M 678 2272 
L 4684 2272 
L 4684 1741 
L 678 1741 
L 678 2272 
z
" transform="scale(0.015625)"/>
        <path id="DejaVuSans-36" d="M 2113 2584 
Q 1688 2584 1439 2293 
Q 1191 2003 1191 1497 
Q 1191 994 1439 701 
Q 1688 409 2113 409 
Q 2538 409 2786 701 
Q 3034 994 3034 1497 
Q 3034 2003 2786 2293 
Q 2538 2584 2113 2584 
z
M 3366 4563 
L 3366 3988 
Q 3128 4100 2886 4159 
Q 2644 4219 2406 4219 
Q 1781 4219 1451 3797 
Q 1122 3375 1075 2522 
Q 1259 2794 1537 2939 
Q 1816 3084 2150 3084 
Q 2853 3084 3261 2657 
Q 3669 2231 3669 1497 
Q 3669 778 3244 343 
Q 2819 -91 2113 -91 
Q 1303 -91 875 529 
Q 447 1150 447 2328 
Q 447 3434 972 4092 
Q 1497 4750 2381 4750 
Q 2619 4750 2861 4703 
Q 3103 4656 3366 4563 
z
" transform="scale(0.015625)"/>
        <path id="DejaVuSans-30" d="M 2034 4250 
Q 1547 4250 1301 3770 
Q 1056 3291 1056 2328 
Q 1056 1369 1301 889 
Q 1547 409 2034 409 
Q 2525 409 2770 889 
Q 3016 1369 3016 2328 
Q 3016 3291 2770 3770 
Q 2525 4250 2034 4250 
z
M 2034 4750 
Q 2819 4750 3233 4129 
Q 3647 3509 3647 2328 
Q 3647 1150 3233 529 
Q 2819 -91 2034 -91 
Q 1250 -91 836 529 
Q 422 1150 422 2328 
Q 422 3509 836 4129 
Q 1250 4750 2034 4750 
z
" transform="scale(0.015625)"/>
       </defs>
       <use xlink:href="#DejaVuSans-2212"/>
       <use xlink:href="#DejaVuSans-36" x="83.789062"/>
       <use xlink:href="#DejaVuSans-30" x="147.412109"/>
      </g>
     </g>
    </g>
    <g id="xtick_2">
     <g id="line2d_2">
      <g>
       <use xlink:href="#m39ea5b8937" x="138.730808" y="307.584" style="stroke: #000000; stroke-width: 0.8"/>
      </g>
     </g>
     <g id="text_2">
      <!-- −40 -->
      <g transform="translate(128.178464 322.182437) scale(0.1 -0.1)">
       <defs>
        <path id="DejaVuSans-34" d="M 2419 4116 
L 825 1625 
L 2419 1625 
L 2419 4116 
z
M 2253 4666 
L 3047 4666 
L 3047 1625 
L 3713 1625 
L 3713 1100 
L 3047 1100 
L 3047 0 
L 2419 0 
L 2419 1100 
L 313 1100 
L 313 1709 
L 2253 4666 
z
" transform="scale(0.015625)"/>
       </defs>
       <use xlink:href="#DejaVuSans-2212"/>
       <use xlink:href="#DejaVuSans-34" x="83.789062"/>
       <use xlink:href="#DejaVuSans-30" x="147.412109"/>
      </g>
     </g>
    </g>
    <g id="xtick_3">
     <g id="line2d_3">
      <g>
       <use xlink:href="#m39ea5b8937" x="184.41769" y="307.584" style="stroke: #000000; stroke-width: 0.8"/>
      </g>
     </g>
     <g id="text_3">
      <!-- −20 -->
      <g transform="translate(173.865346 322.182437) scale(0.1 -0.1)">
       <defs>
        <path id="DejaVuSans-32" d="M 1228 531 
L 3431 531 
L 3431 0 
L 469 0 
L 469 531 
Q 828 903 1448 1529 
Q 2069 2156 2228 2338 
Q 2531 2678 2651 2914 
Q 2772 3150 2772 3378 
Q 2772 3750 2511 3984 
Q 2250 4219 1831 4219 
Q 1534 4219 1204 4116 
Q 875 4013 500 3803 
L 500 4441 
Q 881 4594 1212 4672 
Q 1544 4750 1819 4750 
Q 2544 4750 2975 4387 
Q 3406 4025 3406 3419 
Q 3406 3131 3298 2873 
Q 3191 2616 2906 2266 
Q 2828 2175 2409 1742 
Q 1991 1309 1228 531 
z
" transform="scale(0.015625)"/>
       </defs>
       <use xlink:href="#DejaVuSans-2212"/>
       <use xlink:href="#DejaVuSans-32" x="83.789062"/>
       <use xlink:href="#DejaVuSans-30" x="147.412109"/>
      </g>
     </g>
    </g>
    <g id="xtick_4">
     <g id="line2d_4">
      <g>
       <use xlink:href="#m39ea5b8937" x="230.104572" y="307.584" style="stroke: #000000; stroke-width: 0.8"/>
      </g>
     </g>
     <g id="text_4">
      <!-- 0 -->
      <g transform="translate(226.923322 322.182437) scale(0.1 -0.1)">
       <use xlink:href="#DejaVuSans-30"/>
      </g>
     </g>
    </g>
    <g id="xtick_5">
     <g id="line2d_5">
      <g>
       <use xlink:href="#m39ea5b8937" x="275.791454" y="307.584" style="stroke: #000000; stroke-width: 0.8"/>
      </g>
     </g>
     <g id="text_5">
      <!-- 20 -->
      <g transform="translate(269.428954 322.182437) scale(0.1 -0.1)">
       <use xlink:href="#DejaVuSans-32"/>
       <use xlink:href="#DejaVuSans-30" x="63.623047"/>
      </g>
     </g>
    </g>
    <g id="xtick_6">
     <g id="line2d_6">
      <g>
       <use xlink:href="#m39ea5b8937" x="321.478336" y="307.584" style="stroke: #000000; stroke-width: 0.8"/>
      </g>
     </g>
     <g id="text_6">
      <!-- 40 -->
      <g transform="translate(315.115836 322.182437) scale(0.1 -0.1)">
       <use xlink:href="#DejaVuSans-34"/>
       <use xlink:href="#DejaVuSans-30" x="63.623047"/>
      </g>
     </g>
    </g>
    <g id="xtick_7">
     <g id="line2d_7">
      <g>
       <use xlink:href="#m39ea5b8937" x="367.165218" y="307.584" style="stroke: #000000; stroke-width: 0.8"/>
      </g>
     </g>
     <g id="text_7">
      <!-- 60 -->
      <g transform="translate(360.802718 322.182437) scale(0.1 -0.1)">
       <use xlink:href="#DejaVuSans-36"/>
       <use xlink:href="#DejaVuSans-30" x="63.623047"/>
      </g>
     </g>
    </g>
    <g id="xtick_8">
     <g id="line2d_8">
      <g>
       <use xlink:href="#m39ea5b8937" x="412.8521" y="307.584" style="stroke: #000000; stroke-width: 0.8"/>
      </g>
     </g>
     <g id="text_8">
      <!-- 80 -->
      <g transform="translate(406.4896 322.182437) scale(0.1 -0.1)">
       <defs>
        <path id="DejaVuSans-38" d="M 2034 2216 
Q 1584 2216 1326 1975 
Q 1069 1734 1069 1313 
Q 1069 891 1326 650 
Q 1584 409 2034 409 
Q 2484 409 2743 651 
Q 3003 894 3003 1313 
Q 3003 1734 2745 1975 
Q 2488 2216 2034 2216 
z
M 1403 2484 
Q 997 2584 770 2862 
Q 544 3141 544 3541 
Q 544 4100 942 4425 
Q 1341 4750 2034 4750 
Q 2731 4750 3128 4425 
Q 3525 4100 3525 3541 
Q 3525 3141 3298 2862 
Q 3072 2584 2669 2484 
Q 3125 2378 3379 2068 
Q 3634 1759 3634 1313 
Q 3634 634 3220 271 
Q 2806 -91 2034 -91 
Q 1263 -91 848 271 
Q 434 634 434 1313 
Q 434 1759 690 2068 
Q 947 2378 1403 2484 
z
M 1172 3481 
Q 1172 3119 1398 2916 
Q 1625 2713 2034 2713 
Q 2441 2713 2670 2916 
Q 2900 3119 2900 3481 
Q 2900 3844 2670 4047 
Q 2441 4250 2034 4250 
Q 1625 4250 1398 4047 
Q 1172 3844 1172 3481 
z
" transform="scale(0.015625)"/>
       </defs>
       <use xlink:href="#DejaVuSans-38"/>
       <use xlink:href="#DejaVuSans-30" x="63.623047"/>
      </g>
     </g>
    </g>
    <g id="text_9">
     <!-- Principal Component 1 -->
     <g transform="translate(179.377969 335.860562) scale(0.1 -0.1)">
      <defs>
       <path id="DejaVuSans-Oblique-50" d="M 1081 4666 
L 2541 4666 
Q 3178 4666 3512 4369 
Q 3847 4072 3847 3500 
Q 3847 2731 3353 2303 
Q 2859 1875 1966 1875 
L 1172 1875 
L 806 0 
L 172 0 
L 1081 4666 
z
M 1613 4147 
L 1275 2394 
L 2069 2394 
Q 2606 2394 2893 2669 
Q 3181 2944 3181 3456 
Q 3181 3784 2986 3965 
Q 2791 4147 2438 4147 
L 1613 4147 
z
" transform="scale(0.015625)"/>
       <path id="DejaVuSans-Oblique-72" d="M 2853 2969 
Q 2766 3016 2653 3041 
Q 2541 3066 2413 3066 
Q 1953 3066 1609 2717 
Q 1266 2369 1153 1784 
L 800 0 
L 225 0 
L 909 3500 
L 1484 3500 
L 1375 2956 
Q 1603 3259 1920 3421 
Q 2238 3584 2597 3584 
Q 2691 3584 2781 3573 
Q 2872 3563 2963 3538 
L 2853 2969 
z
" transform="scale(0.015625)"/>
       <path id="DejaVuSans-Oblique-69" d="M 1172 4863 
L 1747 4863 
L 1606 4134 
L 1031 4134 
L 1172 4863 
z
M 909 3500 
L 1484 3500 
L 800 0 
L 225 0 
L 909 3500 
z
" transform="scale(0.015625)"/>
       <path id="DejaVuSans-Oblique-6e" d="M 3566 2113 
L 3156 0 
L 2578 0 
L 2988 2091 
Q 3016 2238 3031 2350 
Q 3047 2463 3047 2528 
Q 3047 2791 2881 2937 
Q 2716 3084 2419 3084 
Q 1956 3084 1622 2776 
Q 1288 2469 1184 1941 
L 800 0 
L 225 0 
L 903 3500 
L 1478 3500 
L 1363 2950 
Q 1603 3253 1940 3418 
Q 2278 3584 2650 3584 
Q 3113 3584 3367 3334 
Q 3622 3084 3622 2631 
Q 3622 2519 3608 2391 
Q 3594 2263 3566 2113 
z
" transform="scale(0.015625)"/>
       <path id="DejaVuSans-Oblique-63" d="M 3431 3366 
L 3316 2797 
Q 3109 2947 2876 3022 
Q 2644 3097 2394 3097 
Q 2119 3097 1870 3000 
Q 1622 2903 1453 2725 
Q 1184 2453 1037 2087 
Q 891 1722 891 1331 
Q 891 859 1127 628 
Q 1363 397 1844 397 
Q 2081 397 2348 469 
Q 2616 541 2906 684 
L 2797 116 
Q 2547 13 2283 -39 
Q 2019 -91 1741 -91 
Q 1044 -91 669 257 
Q 294 606 294 1253 
Q 294 1797 489 2255 
Q 684 2713 1069 3078 
Q 1331 3328 1684 3456 
Q 2038 3584 2456 3584 
Q 2700 3584 2940 3529 
Q 3181 3475 3431 3366 
z
" transform="scale(0.015625)"/>
       <path id="DejaVuSans-Oblique-70" d="M 3175 2156 
Q 3175 2616 2975 2859 
Q 2775 3103 2400 3103 
Q 2144 3103 1911 2972 
Q 1678 2841 1497 2591 
Q 1319 2344 1212 1994 
Q 1106 1644 1106 1300 
Q 1106 863 1306 627 
Q 1506 391 1875 391 
Q 2147 391 2380 519 
Q 2613 647 2778 891 
Q 2956 1147 3065 1494 
Q 3175 1841 3175 2156 
z
M 1394 2969 
Q 1625 3272 1939 3428 
Q 2253 3584 2638 3584 
Q 3175 3584 3472 3232 
Q 3769 2881 3769 2247 
Q 3769 1728 3584 1258 
Q 3400 788 3053 416 
Q 2822 169 2531 39 
Q 2241 -91 1919 -91 
Q 1547 -91 1294 64 
Q 1041 219 916 525 
L 556 -1331 
L -19 -1331 
L 922 3500 
L 1497 3500 
L 1394 2969 
z
" transform="scale(0.015625)"/>
       <path id="DejaVuSans-Oblique-61" d="M 3438 1997 
L 3047 0 
L 2472 0 
L 2578 531 
Q 2325 219 2001 64 
Q 1678 -91 1281 -91 
Q 834 -91 548 182 
Q 263 456 263 884 
Q 263 1497 752 1853 
Q 1241 2209 2100 2209 
L 2900 2209 
L 2931 2363 
Q 2938 2388 2941 2417 
Q 2944 2447 2944 2509 
Q 2944 2788 2717 2942 
Q 2491 3097 2081 3097 
Q 1800 3097 1504 3025 
Q 1209 2953 897 2809 
L 997 3341 
Q 1322 3463 1633 3523 
Q 1944 3584 2234 3584 
Q 2853 3584 3176 3315 
Q 3500 3047 3500 2534 
Q 3500 2431 3484 2292 
Q 3469 2153 3438 1997 
z
M 2816 1759 
L 2241 1759 
Q 1534 1759 1195 1570 
Q 856 1381 856 984 
Q 856 709 1029 553 
Q 1203 397 1509 397 
Q 1978 397 2328 733 
Q 2678 1069 2791 1631 
L 2816 1759 
z
" transform="scale(0.015625)"/>
       <path id="DejaVuSans-Oblique-6c" d="M 1172 4863 
L 1747 4863 
L 800 0 
L 225 0 
L 1172 4863 
z
" transform="scale(0.015625)"/>
       <path id="DejaVuSans-Oblique-20" transform="scale(0.015625)"/>
       <path id="DejaVuSans-Oblique-43" d="M 4447 4306 
L 4319 3641 
Q 4019 3944 3683 4091 
Q 3347 4238 2956 4238 
Q 2422 4238 2017 3981 
Q 1613 3725 1319 3200 
Q 1131 2863 1032 2486 
Q 934 2109 934 1728 
Q 934 1091 1264 756 
Q 1594 422 2222 422 
Q 2656 422 3056 561 
Q 3456 700 3834 978 
L 3688 231 
Q 3316 72 2936 -9 
Q 2556 -91 2175 -91 
Q 1278 -91 773 396 
Q 269 884 269 1753 
Q 269 2309 461 2846 
Q 653 3384 1013 3828 
Q 1394 4300 1883 4525 
Q 2372 4750 3022 4750 
Q 3422 4750 3780 4639 
Q 4138 4528 4447 4306 
z
" transform="scale(0.015625)"/>
       <path id="DejaVuSans-Oblique-6f" d="M 1625 -91 
Q 1009 -91 651 289 
Q 294 669 294 1325 
Q 294 1706 417 2101 
Q 541 2497 738 2766 
Q 1047 3184 1428 3384 
Q 1809 3584 2291 3584 
Q 2888 3584 3255 3212 
Q 3622 2841 3622 2241 
Q 3622 1825 3500 1412 
Q 3378 1000 3181 728 
Q 2875 309 2494 109 
Q 2113 -91 1625 -91 
z
M 891 1344 
Q 891 869 1089 633 
Q 1288 397 1691 397 
Q 2269 397 2648 901 
Q 3028 1406 3028 2181 
Q 3028 2634 2825 2865 
Q 2622 3097 2228 3097 
Q 1903 3097 1650 2945 
Q 1397 2794 1197 2484 
Q 1050 2253 970 1956 
Q 891 1659 891 1344 
z
" transform="scale(0.015625)"/>
       <path id="DejaVuSans-Oblique-6d" d="M 5747 2113 
L 5338 0 
L 4763 0 
L 5166 2094 
Q 5191 2228 5203 2325 
Q 5216 2422 5216 2491 
Q 5216 2772 5059 2928 
Q 4903 3084 4622 3084 
Q 4203 3084 3875 2770 
Q 3547 2456 3450 1953 
L 3066 0 
L 2491 0 
L 2900 2094 
Q 2925 2209 2937 2307 
Q 2950 2406 2950 2484 
Q 2950 2769 2794 2926 
Q 2638 3084 2363 3084 
Q 1938 3084 1609 2770 
Q 1281 2456 1184 1953 
L 800 0 
L 225 0 
L 909 3500 
L 1484 3500 
L 1375 2956 
Q 1609 3263 1923 3423 
Q 2238 3584 2597 3584 
Q 2978 3584 3223 3384 
Q 3469 3184 3519 2828 
Q 3781 3197 4126 3390 
Q 4472 3584 4856 3584 
Q 5306 3584 5551 3325 
Q 5797 3066 5797 2591 
Q 5797 2488 5784 2364 
Q 5772 2241 5747 2113 
z
" transform="scale(0.015625)"/>
       <path id="DejaVuSans-Oblique-65" d="M 3078 2063 
Q 3088 2113 3092 2166 
Q 3097 2219 3097 2272 
Q 3097 2653 2873 2875 
Q 2650 3097 2266 3097 
Q 1838 3097 1509 2826 
Q 1181 2556 1013 2059 
L 3078 2063 
z
M 3578 1613 
L 903 1613 
Q 884 1494 878 1425 
Q 872 1356 872 1306 
Q 872 872 1139 634 
Q 1406 397 1894 397 
Q 2269 397 2603 481 
Q 2938 566 3225 728 
L 3116 159 
Q 2806 34 2476 -28 
Q 2147 -91 1806 -91 
Q 1078 -91 686 257 
Q 294 606 294 1247 
Q 294 1794 489 2264 
Q 684 2734 1063 3103 
Q 1306 3334 1642 3459 
Q 1978 3584 2356 3584 
Q 2950 3584 3301 3228 
Q 3653 2872 3653 2272 
Q 3653 2128 3634 1964 
Q 3616 1800 3578 1613 
z
" transform="scale(0.015625)"/>
       <path id="DejaVuSans-Oblique-74" d="M 2706 3500 
L 2619 3053 
L 1472 3053 
L 1100 1153 
Q 1081 1047 1072 975 
Q 1063 903 1063 863 
Q 1063 663 1183 572 
Q 1303 481 1569 481 
L 2150 481 
L 2053 0 
L 1503 0 
Q 991 0 739 200 
Q 488 400 488 806 
Q 488 878 497 964 
Q 506 1050 525 1153 
L 897 3053 
L 409 3053 
L 500 3500 
L 978 3500 
L 1172 4494 
L 1747 4494 
L 1556 3500 
L 2706 3500 
z
" transform="scale(0.015625)"/>
       <path id="DejaVuSans-Oblique-31" d="M 416 531 
L 1447 531 
L 2144 4122 
L 978 3897 
L 1088 4441 
L 2247 4666 
L 2881 4666 
L 2075 531 
L 3103 531 
L 3003 0 
L 313 0 
L 416 531 
z
" transform="scale(0.015625)"/>
      </defs>
      <use xlink:href="#DejaVuSans-Oblique-50"/>
      <use xlink:href="#DejaVuSans-Oblique-72" x="60.302734"/>
      <use xlink:href="#DejaVuSans-Oblique-69" x="101.416016"/>
      <use xlink:href="#DejaVuSans-Oblique-6e" x="129.199219"/>
      <use xlink:href="#DejaVuSans-Oblique-63" x="192.578125"/>
      <use xlink:href="#DejaVuSans-Oblique-69" x="247.558594"/>
      <use xlink:href="#DejaVuSans-Oblique-70" x="275.341797"/>
      <use xlink:href="#DejaVuSans-Oblique-61" x="338.818359"/>
      <use xlink:href="#DejaVuSans-Oblique-6c" x="400.097656"/>
      <use xlink:href="#DejaVuSans-Oblique-20" x="427.880859"/>
      <use xlink:href="#DejaVuSans-Oblique-43" x="459.667969"/>
      <use xlink:href="#DejaVuSans-Oblique-6f" x="529.492188"/>
      <use xlink:href="#DejaVuSans-Oblique-6d" x="590.673828"/>
      <use xlink:href="#DejaVuSans-Oblique-70" x="688.085938"/>
      <use xlink:href="#DejaVuSans-Oblique-6f" x="751.5625"/>
      <use xlink:href="#DejaVuSans-Oblique-6e" x="812.744141"/>
      <use xlink:href="#DejaVuSans-Oblique-65" x="876.123047"/>
      <use xlink:href="#DejaVuSans-Oblique-6e" x="937.646484"/>
      <use xlink:href="#DejaVuSans-Oblique-74" x="1001.025391"/>
      <use xlink:href="#DejaVuSans-Oblique-20" x="1040.234375"/>
      <use xlink:href="#DejaVuSans-Oblique-31" x="1072.021484"/>
     </g>
    </g>
   </g>
   <g id="matplotlib.axis_2">
    <g id="ytick_1">
     <g id="line2d_9">
      <defs>
       <path id="mdd39f63dab" d="M 0 0 
L -3.5 0 
" style="stroke: #000000; stroke-width: 0.8"/>
      </defs>
      <g>
       <use xlink:href="#mdd39f63dab" x="57.6" y="280.41378" style="stroke: #000000; stroke-width: 0.8"/>
      </g>
     </g>
     <g id="text_10">
      <!-- −40 -->
      <g transform="translate(29.495313 284.212999) scale(0.1 -0.1)">
       <use xlink:href="#DejaVuSans-2212"/>
       <use xlink:href="#DejaVuSans-34" x="83.789062"/>
       <use xlink:href="#DejaVuSans-30" x="147.412109"/>
      </g>
     </g>
    </g>
    <g id="ytick_2">
     <g id="line2d_10">
      <g>
       <use xlink:href="#mdd39f63dab" x="57.6" y="237.126904" style="stroke: #000000; stroke-width: 0.8"/>
      </g>
     </g>
     <g id="text_11">
      <!-- −20 -->
      <g transform="translate(29.495313 240.926123) scale(0.1 -0.1)">
       <use xlink:href="#DejaVuSans-2212"/>
       <use xlink:href="#DejaVuSans-32" x="83.789062"/>
       <use xlink:href="#DejaVuSans-30" x="147.412109"/>
      </g>
     </g>
    </g>
    <g id="ytick_3">
     <g id="line2d_11">
      <g>
       <use xlink:href="#mdd39f63dab" x="57.6" y="193.840029" style="stroke: #000000; stroke-width: 0.8"/>
      </g>
     </g>
     <g id="text_12">
      <!-- 0 -->
      <g transform="translate(44.2375 197.639247) scale(0.1 -0.1)">
       <use xlink:href="#DejaVuSans-30"/>
      </g>
     </g>
    </g>
    <g id="ytick_4">
     <g id="line2d_12">
      <g>
       <use xlink:href="#mdd39f63dab" x="57.6" y="150.553153" style="stroke: #000000; stroke-width: 0.8"/>
      </g>
     </g>
     <g id="text_13">
      <!-- 20 -->
      <g transform="translate(37.875 154.352372) scale(0.1 -0.1)">
       <use xlink:href="#DejaVuSans-32"/>
       <use xlink:href="#DejaVuSans-30" x="63.623047"/>
      </g>
     </g>
    </g>
    <g id="ytick_5">
     <g id="line2d_13">
      <g>
       <use xlink:href="#mdd39f63dab" x="57.6" y="107.266277" style="stroke: #000000; stroke-width: 0.8"/>
      </g>
     </g>
     <g id="text_14">
      <!-- 40 -->
      <g transform="translate(37.875 111.065496) scale(0.1 -0.1)">
       <use xlink:href="#DejaVuSans-34"/>
       <use xlink:href="#DejaVuSans-30" x="63.623047"/>
      </g>
     </g>
    </g>
    <g id="ytick_6">
     <g id="line2d_14">
      <g>
       <use xlink:href="#mdd39f63dab" x="57.6" y="63.979402" style="stroke: #000000; stroke-width: 0.8"/>
      </g>
     </g>
     <g id="text_15">
      <!-- 60 -->
      <g transform="translate(37.875 67.77862) scale(0.1 -0.1)">
       <use xlink:href="#DejaVuSans-36"/>
       <use xlink:href="#DejaVuSans-30" x="63.623047"/>
      </g>
     </g>
    </g>
    <g id="text_16">
     <!-- Principal Component 2 -->
     <g transform="translate(23.415625 231.310031) rotate(-90) scale(0.1 -0.1)">
      <defs>
       <path id="DejaVuSans-Oblique-32" d="M 2950 2253 
L 934 525 
L 3163 525 
L 3053 0 
L 25 0 
L 128 531 
L 2234 2338 
Q 2656 2703 2832 2979 
Q 3009 3256 3009 3547 
Q 3009 3850 2796 4040 
Q 2584 4231 2241 4231 
Q 1944 4231 1581 4125 
Q 1219 4019 806 3816 
L 922 4441 
Q 1309 4594 1662 4672 
Q 2016 4750 2316 4750 
Q 2928 4750 3301 4425 
Q 3675 4100 3675 3572 
Q 3675 3216 3497 2892 
Q 3319 2569 2950 2253 
z
" transform="scale(0.015625)"/>
      </defs>
      <use xlink:href="#DejaVuSans-Oblique-50"/>
      <use xlink:href="#DejaVuSans-Oblique-72" x="60.302734"/>
      <use xlink:href="#DejaVuSans-Oblique-69" x="101.416016"/>
      <use xlink:href="#DejaVuSans-Oblique-6e" x="129.199219"/>
      <use xlink:href="#DejaVuSans-Oblique-63" x="192.578125"/>
      <use xlink:href="#DejaVuSans-Oblique-69" x="247.558594"/>
      <use xlink:href="#DejaVuSans-Oblique-70" x="275.341797"/>
      <use xlink:href="#DejaVuSans-Oblique-61" x="338.818359"/>
      <use xlink:href="#DejaVuSans-Oblique-6c" x="400.097656"/>
      <use xlink:href="#DejaVuSans-Oblique-20" x="427.880859"/>
      <use xlink:href="#DejaVuSans-Oblique-43" x="459.667969"/>
      <use xlink:href="#DejaVuSans-Oblique-6f" x="529.492188"/>
      <use xlink:href="#DejaVuSans-Oblique-6d" x="590.673828"/>
      <use xlink:href="#DejaVuSans-Oblique-70" x="688.085938"/>
      <use xlink:href="#DejaVuSans-Oblique-6f" x="751.5625"/>
      <use xlink:href="#DejaVuSans-Oblique-6e" x="812.744141"/>
      <use xlink:href="#DejaVuSans-Oblique-65" x="876.123047"/>
      <use xlink:href="#DejaVuSans-Oblique-6e" x="937.646484"/>
      <use xlink:href="#DejaVuSans-Oblique-74" x="1001.025391"/>
      <use xlink:href="#DejaVuSans-Oblique-20" x="1040.234375"/>
      <use xlink:href="#DejaVuSans-Oblique-32" x="1072.021484"/>
     </g>
    </g>
   </g>
   <g id="patch_3">
    <path d="M 57.6 307.584 
L 57.6 41.472 
" style="fill: none; stroke: #000000; stroke-width: 0.8; stroke-linejoin: miter; stroke-linecap: square"/>
   </g>
   <g id="patch_4">
    <path d="M 414.72 307.584 
L 414.72 41.472 
" style="fill: none; stroke: #cccccc; stroke-width: 0.8; stroke-linejoin: miter; stroke-linecap: square"/>
   </g>
   <g id="patch_5">
    <path d="M 57.6 307.584 
L 414.72 307.584 
" style="fill: none; stroke: #000000; stroke-width: 0.8; stroke-linejoin: miter; stroke-linecap: square"/>
   </g>
   <g id="patch_6">
    <path d="M 57.6 41.472 
L 414.72 41.472 
" style="fill: none; stroke: #cccccc; stroke-width: 0.8; stroke-linejoin: miter; stroke-linecap: square"/>
   </g>
   <g id="text_17">
    <!-- Clustering in 3 clusters met vector_aca_t met rang 25 -->
    <g transform="translate(54.890625 35.472) scale(0.12 -0.12)">
     <defs>
      <path id="DejaVuSans-Bold-43" d="M 4288 256 
Q 3956 84 3597 -3 
Q 3238 -91 2847 -91 
Q 1681 -91 1000 561 
Q 319 1213 319 2328 
Q 319 3447 1000 4098 
Q 1681 4750 2847 4750 
Q 3238 4750 3597 4662 
Q 3956 4575 4288 4403 
L 4288 3438 
Q 3953 3666 3628 3772 
Q 3303 3878 2944 3878 
Q 2300 3878 1931 3465 
Q 1563 3053 1563 2328 
Q 1563 1606 1931 1193 
Q 2300 781 2944 781 
Q 3303 781 3628 887 
Q 3953 994 4288 1222 
L 4288 256 
z
" transform="scale(0.015625)"/>
      <path id="DejaVuSans-Bold-6c" d="M 538 4863 
L 1656 4863 
L 1656 0 
L 538 0 
L 538 4863 
z
" transform="scale(0.015625)"/>
      <path id="DejaVuSans-Bold-75" d="M 500 1363 
L 500 3500 
L 1625 3500 
L 1625 3150 
Q 1625 2866 1622 2436 
Q 1619 2006 1619 1863 
Q 1619 1441 1641 1255 
Q 1663 1069 1716 984 
Q 1784 875 1895 815 
Q 2006 756 2150 756 
Q 2500 756 2700 1025 
Q 2900 1294 2900 1772 
L 2900 3500 
L 4019 3500 
L 4019 0 
L 2900 0 
L 2900 506 
Q 2647 200 2364 54 
Q 2081 -91 1741 -91 
Q 1134 -91 817 281 
Q 500 653 500 1363 
z
" transform="scale(0.015625)"/>
      <path id="DejaVuSans-Bold-73" d="M 3272 3391 
L 3272 2541 
Q 2913 2691 2578 2766 
Q 2244 2841 1947 2841 
Q 1628 2841 1473 2761 
Q 1319 2681 1319 2516 
Q 1319 2381 1436 2309 
Q 1553 2238 1856 2203 
L 2053 2175 
Q 2913 2066 3209 1816 
Q 3506 1566 3506 1031 
Q 3506 472 3093 190 
Q 2681 -91 1863 -91 
Q 1516 -91 1145 -36 
Q 775 19 384 128 
L 384 978 
Q 719 816 1070 734 
Q 1422 653 1784 653 
Q 2113 653 2278 743 
Q 2444 834 2444 1013 
Q 2444 1163 2330 1236 
Q 2216 1309 1875 1350 
L 1678 1375 
Q 931 1469 631 1722 
Q 331 1975 331 2491 
Q 331 3047 712 3315 
Q 1094 3584 1881 3584 
Q 2191 3584 2531 3537 
Q 2872 3491 3272 3391 
z
" transform="scale(0.015625)"/>
      <path id="DejaVuSans-Bold-74" d="M 1759 4494 
L 1759 3500 
L 2913 3500 
L 2913 2700 
L 1759 2700 
L 1759 1216 
Q 1759 972 1856 886 
Q 1953 800 2241 800 
L 2816 800 
L 2816 0 
L 1856 0 
Q 1194 0 917 276 
Q 641 553 641 1216 
L 641 2700 
L 84 2700 
L 84 3500 
L 641 3500 
L 641 4494 
L 1759 4494 
z
" transform="scale(0.015625)"/>
      <path id="DejaVuSans-Bold-65" d="M 4031 1759 
L 4031 1441 
L 1416 1441 
Q 1456 1047 1700 850 
Q 1944 653 2381 653 
Q 2734 653 3104 758 
Q 3475 863 3866 1075 
L 3866 213 
Q 3469 63 3072 -14 
Q 2675 -91 2278 -91 
Q 1328 -91 801 392 
Q 275 875 275 1747 
Q 275 2603 792 3093 
Q 1309 3584 2216 3584 
Q 3041 3584 3536 3087 
Q 4031 2591 4031 1759 
z
M 2881 2131 
Q 2881 2450 2695 2645 
Q 2509 2841 2209 2841 
Q 1884 2841 1681 2658 
Q 1478 2475 1428 2131 
L 2881 2131 
z
" transform="scale(0.015625)"/>
      <path id="DejaVuSans-Bold-72" d="M 3138 2547 
Q 2991 2616 2845 2648 
Q 2700 2681 2553 2681 
Q 2122 2681 1889 2404 
Q 1656 2128 1656 1613 
L 1656 0 
L 538 0 
L 538 3500 
L 1656 3500 
L 1656 2925 
Q 1872 3269 2151 3426 
Q 2431 3584 2822 3584 
Q 2878 3584 2943 3579 
Q 3009 3575 3134 3559 
L 3138 2547 
z
" transform="scale(0.015625)"/>
      <path id="DejaVuSans-Bold-69" d="M 538 3500 
L 1656 3500 
L 1656 0 
L 538 0 
L 538 3500 
z
M 538 4863 
L 1656 4863 
L 1656 3950 
L 538 3950 
L 538 4863 
z
" transform="scale(0.015625)"/>
      <path id="DejaVuSans-Bold-6e" d="M 4056 2131 
L 4056 0 
L 2931 0 
L 2931 347 
L 2931 1631 
Q 2931 2084 2911 2256 
Q 2891 2428 2841 2509 
Q 2775 2619 2662 2680 
Q 2550 2741 2406 2741 
Q 2056 2741 1856 2470 
Q 1656 2200 1656 1722 
L 1656 0 
L 538 0 
L 538 3500 
L 1656 3500 
L 1656 2988 
Q 1909 3294 2193 3439 
Q 2478 3584 2822 3584 
Q 3428 3584 3742 3212 
Q 4056 2841 4056 2131 
z
" transform="scale(0.015625)"/>
      <path id="DejaVuSans-Bold-67" d="M 2919 594 
Q 2688 288 2409 144 
Q 2131 0 1766 0 
Q 1125 0 706 504 
Q 288 1009 288 1791 
Q 288 2575 706 3076 
Q 1125 3578 1766 3578 
Q 2131 3578 2409 3434 
Q 2688 3291 2919 2981 
L 2919 3500 
L 4044 3500 
L 4044 353 
Q 4044 -491 3511 -936 
Q 2978 -1381 1966 -1381 
Q 1638 -1381 1331 -1331 
Q 1025 -1281 716 -1178 
L 716 -306 
Q 1009 -475 1290 -558 
Q 1572 -641 1856 -641 
Q 2406 -641 2662 -400 
Q 2919 -159 2919 353 
L 2919 594 
z
M 2181 2772 
Q 1834 2772 1640 2515 
Q 1447 2259 1447 1791 
Q 1447 1309 1634 1061 
Q 1822 813 2181 813 
Q 2531 813 2725 1069 
Q 2919 1325 2919 1791 
Q 2919 2259 2725 2515 
Q 2531 2772 2181 2772 
z
" transform="scale(0.015625)"/>
      <path id="DejaVuSans-Bold-20" transform="scale(0.015625)"/>
      <path id="DejaVuSans-Bold-33" d="M 2981 2516 
Q 3453 2394 3698 2092 
Q 3944 1791 3944 1325 
Q 3944 631 3412 270 
Q 2881 -91 1863 -91 
Q 1503 -91 1142 -33 
Q 781 25 428 141 
L 428 1069 
Q 766 900 1098 814 
Q 1431 728 1753 728 
Q 2231 728 2486 893 
Q 2741 1059 2741 1369 
Q 2741 1688 2480 1852 
Q 2219 2016 1709 2016 
L 1228 2016 
L 1228 2791 
L 1734 2791 
Q 2188 2791 2409 2933 
Q 2631 3075 2631 3366 
Q 2631 3634 2415 3781 
Q 2200 3928 1806 3928 
Q 1516 3928 1219 3862 
Q 922 3797 628 3669 
L 628 4550 
Q 984 4650 1334 4700 
Q 1684 4750 2022 4750 
Q 2931 4750 3382 4451 
Q 3834 4153 3834 3553 
Q 3834 3144 3618 2883 
Q 3403 2622 2981 2516 
z
" transform="scale(0.015625)"/>
      <path id="DejaVuSans-Bold-63" d="M 3366 3391 
L 3366 2478 
Q 3138 2634 2908 2709 
Q 2678 2784 2431 2784 
Q 1963 2784 1702 2511 
Q 1441 2238 1441 1747 
Q 1441 1256 1702 982 
Q 1963 709 2431 709 
Q 2694 709 2930 787 
Q 3166 866 3366 1019 
L 3366 103 
Q 3103 6 2833 -42 
Q 2563 -91 2291 -91 
Q 1344 -91 809 395 
Q 275 881 275 1747 
Q 275 2613 809 3098 
Q 1344 3584 2291 3584 
Q 2566 3584 2833 3536 
Q 3100 3488 3366 3391 
z
" transform="scale(0.015625)"/>
      <path id="DejaVuSans-Bold-6d" d="M 3781 2919 
Q 3994 3244 4286 3414 
Q 4578 3584 4928 3584 
Q 5531 3584 5847 3212 
Q 6163 2841 6163 2131 
L 6163 0 
L 5038 0 
L 5038 1825 
Q 5041 1866 5042 1909 
Q 5044 1953 5044 2034 
Q 5044 2406 4934 2573 
Q 4825 2741 4581 2741 
Q 4263 2741 4089 2478 
Q 3916 2216 3909 1719 
L 3909 0 
L 2784 0 
L 2784 1825 
Q 2784 2406 2684 2573 
Q 2584 2741 2328 2741 
Q 2006 2741 1831 2477 
Q 1656 2213 1656 1722 
L 1656 0 
L 531 0 
L 531 3500 
L 1656 3500 
L 1656 2988 
Q 1863 3284 2130 3434 
Q 2397 3584 2719 3584 
Q 3081 3584 3359 3409 
Q 3638 3234 3781 2919 
z
" transform="scale(0.015625)"/>
      <path id="DejaVuSans-Bold-76" d="M 97 3500 
L 1216 3500 
L 2088 1081 
L 2956 3500 
L 4078 3500 
L 2700 0 
L 1472 0 
L 97 3500 
z
" transform="scale(0.015625)"/>
      <path id="DejaVuSans-Bold-6f" d="M 2203 2784 
Q 1831 2784 1636 2517 
Q 1441 2250 1441 1747 
Q 1441 1244 1636 976 
Q 1831 709 2203 709 
Q 2569 709 2762 976 
Q 2956 1244 2956 1747 
Q 2956 2250 2762 2517 
Q 2569 2784 2203 2784 
z
M 2203 3584 
Q 3106 3584 3614 3096 
Q 4122 2609 4122 1747 
Q 4122 884 3614 396 
Q 3106 -91 2203 -91 
Q 1297 -91 786 396 
Q 275 884 275 1747 
Q 275 2609 786 3096 
Q 1297 3584 2203 3584 
z
" transform="scale(0.015625)"/>
      <path id="DejaVuSans-Bold-5f" d="M 3200 -916 
L 3200 -1509 
L 0 -1509 
L 0 -916 
L 3200 -916 
z
" transform="scale(0.015625)"/>
      <path id="DejaVuSans-Bold-61" d="M 2106 1575 
Q 1756 1575 1579 1456 
Q 1403 1338 1403 1106 
Q 1403 894 1545 773 
Q 1688 653 1941 653 
Q 2256 653 2472 879 
Q 2688 1106 2688 1447 
L 2688 1575 
L 2106 1575 
z
M 3816 1997 
L 3816 0 
L 2688 0 
L 2688 519 
Q 2463 200 2181 54 
Q 1900 -91 1497 -91 
Q 953 -91 614 226 
Q 275 544 275 1050 
Q 275 1666 698 1953 
Q 1122 2241 2028 2241 
L 2688 2241 
L 2688 2328 
Q 2688 2594 2478 2717 
Q 2269 2841 1825 2841 
Q 1466 2841 1156 2769 
Q 847 2697 581 2553 
L 581 3406 
Q 941 3494 1303 3539 
Q 1666 3584 2028 3584 
Q 2975 3584 3395 3211 
Q 3816 2838 3816 1997 
z
" transform="scale(0.015625)"/>
      <path id="DejaVuSans-Bold-32" d="M 1844 884 
L 3897 884 
L 3897 0 
L 506 0 
L 506 884 
L 2209 2388 
Q 2438 2594 2547 2791 
Q 2656 2988 2656 3200 
Q 2656 3528 2436 3728 
Q 2216 3928 1850 3928 
Q 1569 3928 1234 3808 
Q 900 3688 519 3450 
L 519 4475 
Q 925 4609 1322 4679 
Q 1719 4750 2100 4750 
Q 2938 4750 3402 4381 
Q 3866 4013 3866 3353 
Q 3866 2972 3669 2642 
Q 3472 2313 2841 1759 
L 1844 884 
z
" transform="scale(0.015625)"/>
      <path id="DejaVuSans-Bold-35" d="M 678 4666 
L 3669 4666 
L 3669 3781 
L 1638 3781 
L 1638 3059 
Q 1775 3097 1914 3117 
Q 2053 3138 2203 3138 
Q 3056 3138 3531 2711 
Q 4006 2284 4006 1522 
Q 4006 766 3489 337 
Q 2972 -91 2053 -91 
Q 1656 -91 1267 -14 
Q 878 63 494 219 
L 494 1166 
Q 875 947 1217 837 
Q 1559 728 1863 728 
Q 2300 728 2551 942 
Q 2803 1156 2803 1522 
Q 2803 1891 2551 2103 
Q 2300 2316 1863 2316 
Q 1603 2316 1309 2248 
Q 1016 2181 678 2041 
L 678 4666 
z
" transform="scale(0.015625)"/>
     </defs>
     <use xlink:href="#DejaVuSans-Bold-43"/>
     <use xlink:href="#DejaVuSans-Bold-6c" x="73.388672"/>
     <use xlink:href="#DejaVuSans-Bold-75" x="107.666016"/>
     <use xlink:href="#DejaVuSans-Bold-73" x="178.857422"/>
     <use xlink:href="#DejaVuSans-Bold-74" x="238.378906"/>
     <use xlink:href="#DejaVuSans-Bold-65" x="286.181641"/>
     <use xlink:href="#DejaVuSans-Bold-72" x="354.003906"/>
     <use xlink:href="#DejaVuSans-Bold-69" x="403.320312"/>
     <use xlink:href="#DejaVuSans-Bold-6e" x="437.597656"/>
     <use xlink:href="#DejaVuSans-Bold-67" x="508.789062"/>
     <use xlink:href="#DejaVuSans-Bold-20" x="580.371094"/>
     <use xlink:href="#DejaVuSans-Bold-69" x="615.185547"/>
     <use xlink:href="#DejaVuSans-Bold-6e" x="649.462891"/>
     <use xlink:href="#DejaVuSans-Bold-20" x="720.654297"/>
     <use xlink:href="#DejaVuSans-Bold-33" x="755.46875"/>
     <use xlink:href="#DejaVuSans-Bold-20" x="825.048828"/>
     <use xlink:href="#DejaVuSans-Bold-63" x="859.863281"/>
     <use xlink:href="#DejaVuSans-Bold-6c" x="919.140625"/>
     <use xlink:href="#DejaVuSans-Bold-75" x="953.417969"/>
     <use xlink:href="#DejaVuSans-Bold-73" x="1024.609375"/>
     <use xlink:href="#DejaVuSans-Bold-74" x="1084.130859"/>
     <use xlink:href="#DejaVuSans-Bold-65" x="1131.933594"/>
     <use xlink:href="#DejaVuSans-Bold-72" x="1199.755859"/>
     <use xlink:href="#DejaVuSans-Bold-73" x="1249.072266"/>
     <use xlink:href="#DejaVuSans-Bold-20" x="1308.59375"/>
     <use xlink:href="#DejaVuSans-Bold-6d" x="1343.408203"/>
     <use xlink:href="#DejaVuSans-Bold-65" x="1447.607422"/>
     <use xlink:href="#DejaVuSans-Bold-74" x="1515.429688"/>
     <use xlink:href="#DejaVuSans-Bold-20" x="1563.232422"/>
     <use xlink:href="#DejaVuSans-Bold-76" x="1598.046875"/>
     <use xlink:href="#DejaVuSans-Bold-65" x="1663.232422"/>
     <use xlink:href="#DejaVuSans-Bold-63" x="1731.054688"/>
     <use xlink:href="#DejaVuSans-Bold-74" x="1790.332031"/>
     <use xlink:href="#DejaVuSans-Bold-6f" x="1838.134766"/>
     <use xlink:href="#DejaVuSans-Bold-72" x="1906.835938"/>
     <use xlink:href="#DejaVuSans-Bold-5f" x="1956.152344"/>
     <use xlink:href="#DejaVuSans-Bold-61" x="2006.152344"/>
     <use xlink:href="#DejaVuSans-Bold-63" x="2073.632812"/>
     <use xlink:href="#DejaVuSans-Bold-61" x="2132.910156"/>
     <use xlink:href="#DejaVuSans-Bold-5f" x="2200.390625"/>
     <use xlink:href="#DejaVuSans-Bold-74" x="2250.390625"/>
     <use xlink:href="#DejaVuSans-Bold-20" x="2298.193359"/>
     <use xlink:href="#DejaVuSans-Bold-6d" x="2333.007812"/>
     <use xlink:href="#DejaVuSans-Bold-65" x="2437.207031"/>
     <use xlink:href="#DejaVuSans-Bold-74" x="2505.029297"/>
     <use xlink:href="#DejaVuSans-Bold-20" x="2552.832031"/>
     <use xlink:href="#DejaVuSans-Bold-72" x="2587.646484"/>
     <use xlink:href="#DejaVuSans-Bold-61" x="2636.962891"/>
     <use xlink:href="#DejaVuSans-Bold-6e" x="2704.443359"/>
     <use xlink:href="#DejaVuSans-Bold-67" x="2775.634766"/>
     <use xlink:href="#DejaVuSans-Bold-20" x="2847.216797"/>
     <use xlink:href="#DejaVuSans-Bold-32" x="2882.03125"/>
     <use xlink:href="#DejaVuSans-Bold-35" x="2951.611328"/>
    </g>
   </g>
  </g>
 </g>
 <defs>
  <clipPath id="p1e486ea830">
   <rect x="57.6" y="41.472" width="357.12" height="266.112"/>
  </clipPath>
 </defs>
</svg>
