<?xml version="1.0" encoding="utf-8" standalone="no"?>
<!DOCTYPE svg PUBLIC "-//W3C//DTD SVG 1.1//EN"
  "http://www.w3.org/Graphics/SVG/1.1/DTD/svg11.dtd">
<svg xmlns:xlink="http://www.w3.org/1999/xlink" width="460.8pt" height="345.6pt" viewBox="0 0 460.8 345.6" xmlns="http://www.w3.org/2000/svg" version="1.1">
 <metadata>
  <rdf:RDF xmlns:dc="http://purl.org/dc/elements/1.1/" xmlns:cc="http://creativecommons.org/ns#" xmlns:rdf="http://www.w3.org/1999/02/22-rdf-syntax-ns#">
   <cc:Work>
    <dc:type rdf:resource="http://purl.org/dc/dcmitype/StillImage"/>
    <dc:date>2024-03-01T12:01:36.082774</dc:date>
    <dc:format>image/svg+xml</dc:format>
    <dc:creator>
     <cc:Agent>
      <dc:title>Matplotlib v3.8.0, https://matplotlib.org/</dc:title>
     </cc:Agent>
    </dc:creator>
   </cc:Work>
  </rdf:RDF>
 </metadata>
 <defs>
  <style type="text/css">*{stroke-linejoin: round; stroke-linecap: butt}</style>
 </defs>
 <g id="figure_1">
  <g id="patch_1">
   <path d="M 0 345.6 
L 460.8 345.6 
L 460.8 0 
L 0 0 
L 0 345.6 
z
" style="fill: none"/>
  </g>
  <g id="axes_1">
   <g id="patch_2">
    <path d="M 57.6 307.584 
L 414.72 307.584 
L 414.72 41.472 
L 57.6 41.472 
L 57.6 307.584 
z
" style="fill: none"/>
   </g>
   <g id="PathCollection_1">
    <defs>
     <path id="m8abed7f87e" d="M 0 3 
C 0.795609 3 1.55874 2.683901 2.12132 2.12132 
C 2.683901 1.55874 3 0.795609 3 0 
C 3 -0.795609 2.683901 -1.55874 2.12132 -2.12132 
C 1.55874 -2.683901 0.795609 -3 0 -3 
C -0.795609 -3 -1.55874 -2.683901 -2.12132 -2.12132 
C -2.683901 -1.55874 -3 -0.795609 -3 0 
C -3 0.795609 -2.683901 1.55874 -2.12132 2.12132 
C -1.55874 2.683901 -0.795609 3 0 3 
z
" style="stroke: #bfbf00"/>
    </defs>
    <g clip-path="url(#p2084df7ec5)">
     <use xlink:href="#m8abed7f87e" x="131.894308" y="80.437462" style="fill: #bfbf00; stroke: #bfbf00"/>
     <use xlink:href="#m8abed7f87e" x="128.34619" y="53.568" style="fill: #bfbf00; stroke: #bfbf00"/>
     <use xlink:href="#m8abed7f87e" x="131.21485" y="64.43584" style="fill: #bfbf00; stroke: #bfbf00"/>
     <use xlink:href="#m8abed7f87e" x="133.626543" y="68.740272" style="fill: #bfbf00; stroke: #bfbf00"/>
     <use xlink:href="#m8abed7f87e" x="138.929291" y="77.685355" style="fill: #bfbf00; stroke: #bfbf00"/>
     <use xlink:href="#m8abed7f87e" x="138.560023" y="73.749939" style="fill: #bfbf00; stroke: #bfbf00"/>
     <use xlink:href="#m8abed7f87e" x="139.81" y="75.320977" style="fill: #bfbf00; stroke: #bfbf00"/>
     <use xlink:href="#m8abed7f87e" x="258.817294" y="107.736945" style="fill: #bfbf00; stroke: #bfbf00"/>
     <use xlink:href="#m8abed7f87e" x="259.238712" y="108.85382" style="fill: #bfbf00; stroke: #bfbf00"/>
     <use xlink:href="#m8abed7f87e" x="257.538673" y="114.16128" style="fill: #bfbf00; stroke: #bfbf00"/>
     <use xlink:href="#m8abed7f87e" x="254.375382" y="106.670776" style="fill: #bfbf00; stroke: #bfbf00"/>
     <use xlink:href="#m8abed7f87e" x="257.725451" y="109.507219" style="fill: #bfbf00; stroke: #bfbf00"/>
     <use xlink:href="#m8abed7f87e" x="251.994755" y="118.864829" style="fill: #bfbf00; stroke: #bfbf00"/>
     <use xlink:href="#m8abed7f87e" x="281.27324" y="106.905143" style="fill: #bfbf00; stroke: #bfbf00"/>
     <use xlink:href="#m8abed7f87e" x="282.673235" y="106.008733" style="fill: #bfbf00; stroke: #bfbf00"/>
     <use xlink:href="#m8abed7f87e" x="281.188005" y="105.52492" style="fill: #bfbf00; stroke: #bfbf00"/>
     <use xlink:href="#m8abed7f87e" x="272.615263" y="108.817462" style="fill: #bfbf00; stroke: #bfbf00"/>
     <use xlink:href="#m8abed7f87e" x="279.083038" y="104.930722" style="fill: #bfbf00; stroke: #bfbf00"/>
     <use xlink:href="#m8abed7f87e" x="279.574958" y="106.121215" style="fill: #bfbf00; stroke: #bfbf00"/>
     <use xlink:href="#m8abed7f87e" x="131.127385" y="70.487314" style="fill: #bfbf00; stroke: #bfbf00"/>
     <use xlink:href="#m8abed7f87e" x="192.828657" y="98.793063" style="fill: #bfbf00; stroke: #bfbf00"/>
     <use xlink:href="#m8abed7f87e" x="196.950157" y="109.811432" style="fill: #bfbf00; stroke: #bfbf00"/>
     <use xlink:href="#m8abed7f87e" x="198.644866" y="114.049914" style="fill: #bfbf00; stroke: #bfbf00"/>
     <use xlink:href="#m8abed7f87e" x="198.97927" y="130.036417" style="fill: #bfbf00; stroke: #bfbf00"/>
     <use xlink:href="#m8abed7f87e" x="193.307941" y="117.16419" style="fill: #bfbf00; stroke: #bfbf00"/>
     <use xlink:href="#m8abed7f87e" x="190.832698" y="138.533997" style="fill: #bfbf00; stroke: #bfbf00"/>
     <use xlink:href="#m8abed7f87e" x="182.990006" y="73.715827" style="fill: #bfbf00; stroke: #bfbf00"/>
     <use xlink:href="#m8abed7f87e" x="180.687806" y="83.541351" style="fill: #bfbf00; stroke: #bfbf00"/>
     <use xlink:href="#m8abed7f87e" x="186.721909" y="98.051828" style="fill: #bfbf00; stroke: #bfbf00"/>
     <use xlink:href="#m8abed7f87e" x="195.999873" y="113.533581" style="fill: #bfbf00; stroke: #bfbf00"/>
     <use xlink:href="#m8abed7f87e" x="187.411183" y="102.865126" style="fill: #bfbf00; stroke: #bfbf00"/>
     <use xlink:href="#m8abed7f87e" x="182.981579" y="133.874374" style="fill: #bfbf00; stroke: #bfbf00"/>
     <use xlink:href="#m8abed7f87e" x="184.777514" y="104.249658" style="fill: #bfbf00; stroke: #bfbf00"/>
     <use xlink:href="#m8abed7f87e" x="189.098425" y="118.36698" style="fill: #bfbf00; stroke: #bfbf00"/>
     <use xlink:href="#m8abed7f87e" x="193.800907" y="115.933468" style="fill: #bfbf00; stroke: #bfbf00"/>
     <use xlink:href="#m8abed7f87e" x="190.593284" y="130.84467" style="fill: #bfbf00; stroke: #bfbf00"/>
     <use xlink:href="#m8abed7f87e" x="180.986572" y="118.447573" style="fill: #bfbf00; stroke: #bfbf00"/>
     <use xlink:href="#m8abed7f87e" x="194.80106" y="126.280527" style="fill: #bfbf00; stroke: #bfbf00"/>
     <use xlink:href="#m8abed7f87e" x="188.91288" y="111.518484" style="fill: #bfbf00; stroke: #bfbf00"/>
     <use xlink:href="#m8abed7f87e" x="224.327829" y="64.179971" style="fill: #bfbf00; stroke: #bfbf00"/>
     <use xlink:href="#m8abed7f87e" x="218.15846" y="68.107311" style="fill: #bfbf00; stroke: #bfbf00"/>
     <use xlink:href="#m8abed7f87e" x="203.773289" y="158.040341" style="fill: #bfbf00; stroke: #bfbf00"/>
     <use xlink:href="#m8abed7f87e" x="214.444457" y="155.821759" style="fill: #bfbf00; stroke: #bfbf00"/>
     <use xlink:href="#m8abed7f87e" x="218.974252" y="151.115576" style="fill: #bfbf00; stroke: #bfbf00"/>
     <use xlink:href="#m8abed7f87e" x="215.426864" y="151.805147" style="fill: #bfbf00; stroke: #bfbf00"/>
     <use xlink:href="#m8abed7f87e" x="213.448272" y="155.033563" style="fill: #bfbf00; stroke: #bfbf00"/>
     <use xlink:href="#m8abed7f87e" x="213.784831" y="150.413262" style="fill: #bfbf00; stroke: #bfbf00"/>
     <use xlink:href="#m8abed7f87e" x="213.83117" y="158.121321" style="fill: #bfbf00; stroke: #bfbf00"/>
     <use xlink:href="#m8abed7f87e" x="216.880501" y="155.52729" style="fill: #bfbf00; stroke: #bfbf00"/>
     <use xlink:href="#m8abed7f87e" x="205.575223" y="155.436724" style="fill: #bfbf00; stroke: #bfbf00"/>
     <use xlink:href="#m8abed7f87e" x="207.660842" y="157.067173" style="fill: #bfbf00; stroke: #bfbf00"/>
     <use xlink:href="#m8abed7f87e" x="205.757371" y="164.487704" style="fill: #bfbf00; stroke: #bfbf00"/>
     <use xlink:href="#m8abed7f87e" x="204.772423" y="173.06859" style="fill: #bfbf00; stroke: #bfbf00"/>
     <use xlink:href="#m8abed7f87e" x="202.666395" y="169.937263" style="fill: #bfbf00; stroke: #bfbf00"/>
     <use xlink:href="#m8abed7f87e" x="197.69761" y="174.71751" style="fill: #bfbf00; stroke: #bfbf00"/>
     <use xlink:href="#m8abed7f87e" x="196.682904" y="171.159485" style="fill: #bfbf00; stroke: #bfbf00"/>
     <use xlink:href="#m8abed7f87e" x="187.752009" y="193.192603" style="fill: #bfbf00; stroke: #bfbf00"/>
     <use xlink:href="#m8abed7f87e" x="231.734411" y="153.27071" style="fill: #bfbf00; stroke: #bfbf00"/>
     <use xlink:href="#m8abed7f87e" x="222.98092" y="133.460567" style="fill: #bfbf00; stroke: #bfbf00"/>
     <use xlink:href="#m8abed7f87e" x="219.330552" y="120.043745" style="fill: #bfbf00; stroke: #bfbf00"/>
     <use xlink:href="#m8abed7f87e" x="197.601771" y="172.955557" style="fill: #bfbf00; stroke: #bfbf00"/>
     <use xlink:href="#m8abed7f87e" x="197.019008" y="163.789233" style="fill: #bfbf00; stroke: #bfbf00"/>
     <use xlink:href="#m8abed7f87e" x="204.688988" y="175.019873" style="fill: #bfbf00; stroke: #bfbf00"/>
     <use xlink:href="#m8abed7f87e" x="281.868457" y="94.863761" style="fill: #bfbf00; stroke: #bfbf00"/>
     <use xlink:href="#m8abed7f87e" x="264.97603" y="121.372397" style="fill: #bfbf00; stroke: #bfbf00"/>
     <use xlink:href="#m8abed7f87e" x="261.484323" y="130.666496" style="fill: #bfbf00; stroke: #bfbf00"/>
     <use xlink:href="#m8abed7f87e" x="256.534867" y="141.743724" style="fill: #bfbf00; stroke: #bfbf00"/>
     <use xlink:href="#m8abed7f87e" x="250.04337" y="142.502832" style="fill: #bfbf00; stroke: #bfbf00"/>
     <use xlink:href="#m8abed7f87e" x="254.994328" y="129.966753" style="fill: #bfbf00; stroke: #bfbf00"/>
    </g>
   </g>
   <g id="PathCollection_2">
    <defs>
     <path id="m81fd159ad8" d="M 0 3 
C 0.795609 3 1.55874 2.683901 2.12132 2.12132 
C 2.683901 1.55874 3 0.795609 3 0 
C 3 -0.795609 2.683901 -1.55874 2.12132 -2.12132 
C 1.55874 -2.683901 0.795609 -3 0 -3 
C -0.795609 -3 -1.55874 -2.683901 -2.12132 -2.12132 
C -2.683901 -1.55874 -3 -0.795609 -3 0 
C -3 0.795609 -2.683901 1.55874 -2.12132 2.12132 
C -1.55874 2.683901 -0.795609 3 0 3 
z
" style="stroke: #ff0000"/>
    </defs>
    <g clip-path="url(#p2084df7ec5)">
     <use xlink:href="#m81fd159ad8" x="136.610872" y="229.06393" style="fill: #ff0000; stroke: #ff0000"/>
     <use xlink:href="#m81fd159ad8" x="135.379647" y="229.180933" style="fill: #ff0000; stroke: #ff0000"/>
     <use xlink:href="#m81fd159ad8" x="114.442611" y="183.356854" style="fill: #ff0000; stroke: #ff0000"/>
     <use xlink:href="#m81fd159ad8" x="106.882496" y="160.240914" style="fill: #ff0000; stroke: #ff0000"/>
     <use xlink:href="#m81fd159ad8" x="118.924597" y="175.787819" style="fill: #ff0000; stroke: #ff0000"/>
     <use xlink:href="#m81fd159ad8" x="118.297184" y="178.06793" style="fill: #ff0000; stroke: #ff0000"/>
     <use xlink:href="#m81fd159ad8" x="180.3662" y="264.143368" style="fill: #ff0000; stroke: #ff0000"/>
     <use xlink:href="#m81fd159ad8" x="187.256253" y="265.230142" style="fill: #ff0000; stroke: #ff0000"/>
     <use xlink:href="#m81fd159ad8" x="180.495351" y="271.918051" style="fill: #ff0000; stroke: #ff0000"/>
     <use xlink:href="#m81fd159ad8" x="180.390221" y="275.65972" style="fill: #ff0000; stroke: #ff0000"/>
     <use xlink:href="#m81fd159ad8" x="172.585586" y="276.07262" style="fill: #ff0000; stroke: #ff0000"/>
     <use xlink:href="#m81fd159ad8" x="174.733198" y="280.96035" style="fill: #ff0000; stroke: #ff0000"/>
     <use xlink:href="#m81fd159ad8" x="108.407261" y="197.878594" style="fill: #ff0000; stroke: #ff0000"/>
     <use xlink:href="#m81fd159ad8" x="105.467337" y="203.161401" style="fill: #ff0000; stroke: #ff0000"/>
     <use xlink:href="#m81fd159ad8" x="104.131567" y="203.595212" style="fill: #ff0000; stroke: #ff0000"/>
     <use xlink:href="#m81fd159ad8" x="106.647769" y="193.36863" style="fill: #ff0000; stroke: #ff0000"/>
     <use xlink:href="#m81fd159ad8" x="105.559901" y="200.797055" style="fill: #ff0000; stroke: #ff0000"/>
     <use xlink:href="#m81fd159ad8" x="110.325424" y="198.6344" style="fill: #ff0000; stroke: #ff0000"/>
     <use xlink:href="#m81fd159ad8" x="119.832958" y="239.428928" style="fill: #ff0000; stroke: #ff0000"/>
     <use xlink:href="#m81fd159ad8" x="125.112639" y="232.559827" style="fill: #ff0000; stroke: #ff0000"/>
     <use xlink:href="#m81fd159ad8" x="125.914041" y="231.932354" style="fill: #ff0000; stroke: #ff0000"/>
     <use xlink:href="#m81fd159ad8" x="125.263617" y="225.524294" style="fill: #ff0000; stroke: #ff0000"/>
     <use xlink:href="#m81fd159ad8" x="118.657493" y="228.601443" style="fill: #ff0000; stroke: #ff0000"/>
     <use xlink:href="#m81fd159ad8" x="123.906066" y="240.874461" style="fill: #ff0000; stroke: #ff0000"/>
     <use xlink:href="#m81fd159ad8" x="102.393516" y="256.422187" style="fill: #ff0000; stroke: #ff0000"/>
     <use xlink:href="#m81fd159ad8" x="106.294923" y="254.562683" style="fill: #ff0000; stroke: #ff0000"/>
     <use xlink:href="#m81fd159ad8" x="102.792621" y="254.640621" style="fill: #ff0000; stroke: #ff0000"/>
     <use xlink:href="#m81fd159ad8" x="103.92624" y="250.153569" style="fill: #ff0000; stroke: #ff0000"/>
     <use xlink:href="#m81fd159ad8" x="108.122354" y="247.659799" style="fill: #ff0000; stroke: #ff0000"/>
     <use xlink:href="#m81fd159ad8" x="107.081757" y="249.4113" style="fill: #ff0000; stroke: #ff0000"/>
     <use xlink:href="#m81fd159ad8" x="174.225607" y="186.238727" style="fill: #ff0000; stroke: #ff0000"/>
     <use xlink:href="#m81fd159ad8" x="172.123297" y="190.107905" style="fill: #ff0000; stroke: #ff0000"/>
     <use xlink:href="#m81fd159ad8" x="173.977356" y="188.218562" style="fill: #ff0000; stroke: #ff0000"/>
     <use xlink:href="#m81fd159ad8" x="173.777536" y="190.452883" style="fill: #ff0000; stroke: #ff0000"/>
     <use xlink:href="#m81fd159ad8" x="175.273912" y="188.125765" style="fill: #ff0000; stroke: #ff0000"/>
     <use xlink:href="#m81fd159ad8" x="166.352196" y="193.357338" style="fill: #ff0000; stroke: #ff0000"/>
     <use xlink:href="#m81fd159ad8" x="99.953908" y="280.403632" style="fill: #ff0000; stroke: #ff0000"/>
     <use xlink:href="#m81fd159ad8" x="106.181073" y="279.195593" style="fill: #ff0000; stroke: #ff0000"/>
     <use xlink:href="#m81fd159ad8" x="97.401885" y="277.83618" style="fill: #ff0000; stroke: #ff0000"/>
     <use xlink:href="#m81fd159ad8" x="91.57829" y="279.673391" style="fill: #ff0000; stroke: #ff0000"/>
     <use xlink:href="#m81fd159ad8" x="104.035075" y="278.190504" style="fill: #ff0000; stroke: #ff0000"/>
     <use xlink:href="#m81fd159ad8" x="99.342667" y="281.072225" style="fill: #ff0000; stroke: #ff0000"/>
     <use xlink:href="#m81fd159ad8" x="93.91984" y="279.160628" style="fill: #ff0000; stroke: #ff0000"/>
     <use xlink:href="#m81fd159ad8" x="94.103801" y="281.237829" style="fill: #ff0000; stroke: #ff0000"/>
     <use xlink:href="#m81fd159ad8" x="92.251289" y="281.450493" style="fill: #ff0000; stroke: #ff0000"/>
     <use xlink:href="#m81fd159ad8" x="89.492717" y="277.377314" style="fill: #ff0000; stroke: #ff0000"/>
     <use xlink:href="#m81fd159ad8" x="93.311239" y="281.072867" style="fill: #ff0000; stroke: #ff0000"/>
     <use xlink:href="#m81fd159ad8" x="86.043967" y="281.230702" style="fill: #ff0000; stroke: #ff0000"/>
     <use xlink:href="#m81fd159ad8" x="108.569722" y="290.602681" style="fill: #ff0000; stroke: #ff0000"/>
     <use xlink:href="#m81fd159ad8" x="105.182137" y="266.90139" style="fill: #ff0000; stroke: #ff0000"/>
     <use xlink:href="#m81fd159ad8" x="107.993606" y="274.297561" style="fill: #ff0000; stroke: #ff0000"/>
     <use xlink:href="#m81fd159ad8" x="104.361188" y="285.737001" style="fill: #ff0000; stroke: #ff0000"/>
     <use xlink:href="#m81fd159ad8" x="101.793813" y="286.14933" style="fill: #ff0000; stroke: #ff0000"/>
     <use xlink:href="#m81fd159ad8" x="107.530009" y="282.150486" style="fill: #ff0000; stroke: #ff0000"/>
     <use xlink:href="#m81fd159ad8" x="99.063425" y="285.947011" style="fill: #ff0000; stroke: #ff0000"/>
     <use xlink:href="#m81fd159ad8" x="73.832727" y="288.760633" style="fill: #ff0000; stroke: #ff0000"/>
     <use xlink:href="#m81fd159ad8" x="184.485777" y="262.542699" style="fill: #ff0000; stroke: #ff0000"/>
     <use xlink:href="#m81fd159ad8" x="185.160632" y="266.259867" style="fill: #ff0000; stroke: #ff0000"/>
     <use xlink:href="#m81fd159ad8" x="180.231031" y="266.168262" style="fill: #ff0000; stroke: #ff0000"/>
     <use xlink:href="#m81fd159ad8" x="194.882226" y="259.585296" style="fill: #ff0000; stroke: #ff0000"/>
     <use xlink:href="#m81fd159ad8" x="184.29968" y="268.299056" style="fill: #ff0000; stroke: #ff0000"/>
    </g>
   </g>
   <g id="PathCollection_3">
    <defs>
     <path id="m6dbabd0bd9" d="M 0 3 
C 0.795609 3 1.55874 2.683901 2.12132 2.12132 
C 2.683901 1.55874 3 0.795609 3 0 
C 3 -0.795609 2.683901 -1.55874 2.12132 -2.12132 
C 1.55874 -2.683901 0.795609 -3 0 -3 
C -0.795609 -3 -1.55874 -2.683901 -2.12132 -2.12132 
C -2.683901 -1.55874 -3 -0.795609 -3 0 
C -3 0.795609 -2.683901 1.55874 -2.12132 2.12132 
C -1.55874 2.683901 -0.795609 3 0 3 
z
" style="stroke: #008000"/>
    </defs>
    <g clip-path="url(#p2084df7ec5)">
     <use xlink:href="#m6dbabd0bd9" x="389.389257" y="242.275088" style="fill: #008000; stroke: #008000"/>
     <use xlink:href="#m6dbabd0bd9" x="398.487273" y="237.084437" style="fill: #008000; stroke: #008000"/>
     <use xlink:href="#m6dbabd0bd9" x="394.928701" y="235.254142" style="fill: #008000; stroke: #008000"/>
     <use xlink:href="#m6dbabd0bd9" x="388.71612" y="233.825686" style="fill: #008000; stroke: #008000"/>
     <use xlink:href="#m6dbabd0bd9" x="336.369689" y="232.160133" style="fill: #008000; stroke: #008000"/>
     <use xlink:href="#m6dbabd0bd9" x="395.501748" y="240.144254" style="fill: #008000; stroke: #008000"/>
     <use xlink:href="#m6dbabd0bd9" x="397.4254" y="247.720828" style="fill: #008000; stroke: #008000"/>
     <use xlink:href="#m6dbabd0bd9" x="323.263682" y="197.372834" style="fill: #008000; stroke: #008000"/>
     <use xlink:href="#m6dbabd0bd9" x="331.549797" y="206.719359" style="fill: #008000; stroke: #008000"/>
     <use xlink:href="#m6dbabd0bd9" x="323.434348" y="245.303749" style="fill: #008000; stroke: #008000"/>
     <use xlink:href="#m6dbabd0bd9" x="330.684469" y="187.265127" style="fill: #008000; stroke: #008000"/>
     <use xlink:href="#m6dbabd0bd9" x="337.914476" y="177.930147" style="fill: #008000; stroke: #008000"/>
     <use xlink:href="#m6dbabd0bd9" x="334.577881" y="201.747938" style="fill: #008000; stroke: #008000"/>
     <use xlink:href="#m6dbabd0bd9" x="341.617561" y="185.64968" style="fill: #008000; stroke: #008000"/>
     <use xlink:href="#m6dbabd0bd9" x="252.878196" y="180.935197" style="fill: #008000; stroke: #008000"/>
     <use xlink:href="#m6dbabd0bd9" x="280.513334" y="181.087538" style="fill: #008000; stroke: #008000"/>
     <use xlink:href="#m6dbabd0bd9" x="303.070883" y="186.993124" style="fill: #008000; stroke: #008000"/>
     <use xlink:href="#m6dbabd0bd9" x="266.128047" y="188.78077" style="fill: #008000; stroke: #008000"/>
     <use xlink:href="#m6dbabd0bd9" x="277.64939" y="189.24329" style="fill: #008000; stroke: #008000"/>
     <use xlink:href="#m6dbabd0bd9" x="253.560678" y="201.539931" style="fill: #008000; stroke: #008000"/>
     <use xlink:href="#m6dbabd0bd9" x="335.203506" y="183.826747" style="fill: #008000; stroke: #008000"/>
     <use xlink:href="#m6dbabd0bd9" x="356.976324" y="194.912261" style="fill: #008000; stroke: #008000"/>
     <use xlink:href="#m6dbabd0bd9" x="348.580953" y="191.703524" style="fill: #008000; stroke: #008000"/>
     <use xlink:href="#m6dbabd0bd9" x="360.262174" y="211.799659" style="fill: #008000; stroke: #008000"/>
     <use xlink:href="#m6dbabd0bd9" x="350.249259" y="211.193302" style="fill: #008000; stroke: #008000"/>
     <use xlink:href="#m6dbabd0bd9" x="355.678408" y="216.879569" style="fill: #008000; stroke: #008000"/>
     <use xlink:href="#m6dbabd0bd9" x="334.552362" y="275.924311" style="fill: #008000; stroke: #008000"/>
     <use xlink:href="#m6dbabd0bd9" x="340.569734" y="284.845637" style="fill: #008000; stroke: #008000"/>
     <use xlink:href="#m6dbabd0bd9" x="337.399232" y="295.488" style="fill: #008000; stroke: #008000"/>
     <use xlink:href="#m6dbabd0bd9" x="291.66957" y="274.661392" style="fill: #008000; stroke: #008000"/>
     <use xlink:href="#m6dbabd0bd9" x="274.99749" y="275.209951" style="fill: #008000; stroke: #008000"/>
     <use xlink:href="#m6dbabd0bd9" x="255.359218" y="275.211958" style="fill: #008000; stroke: #008000"/>
     <use xlink:href="#m6dbabd0bd9" x="320.539426" y="266.336007" style="fill: #008000; stroke: #008000"/>
     <use xlink:href="#m6dbabd0bd9" x="333.902296" y="271.583283" style="fill: #008000; stroke: #008000"/>
     <use xlink:href="#m6dbabd0bd9" x="331.670402" y="265.943344" style="fill: #008000; stroke: #008000"/>
     <use xlink:href="#m6dbabd0bd9" x="310.589519" y="267.552415" style="fill: #008000; stroke: #008000"/>
     <use xlink:href="#m6dbabd0bd9" x="309.789259" y="272.078352" style="fill: #008000; stroke: #008000"/>
     <use xlink:href="#m6dbabd0bd9" x="325.166978" y="269.724612" style="fill: #008000; stroke: #008000"/>
     <use xlink:href="#m6dbabd0bd9" x="280.036294" y="258.187845" style="fill: #008000; stroke: #008000"/>
     <use xlink:href="#m6dbabd0bd9" x="300.369687" y="254.69791" style="fill: #008000; stroke: #008000"/>
     <use xlink:href="#m6dbabd0bd9" x="304.597444" y="255.453151" style="fill: #008000; stroke: #008000"/>
     <use xlink:href="#m6dbabd0bd9" x="268.95651" y="264.848742" style="fill: #008000; stroke: #008000"/>
     <use xlink:href="#m6dbabd0bd9" x="261.789709" y="252.717288" style="fill: #008000; stroke: #008000"/>
     <use xlink:href="#m6dbabd0bd9" x="274.862471" y="257.622362" style="fill: #008000; stroke: #008000"/>
     <use xlink:href="#m6dbabd0bd9" x="328.91853" y="269.99879" style="fill: #008000; stroke: #008000"/>
     <use xlink:href="#m6dbabd0bd9" x="305.288887" y="272.70401" style="fill: #008000; stroke: #008000"/>
     <use xlink:href="#m6dbabd0bd9" x="305.379977" y="277.750666" style="fill: #008000; stroke: #008000"/>
     <use xlink:href="#m6dbabd0bd9" x="296.943779" y="278.007841" style="fill: #008000; stroke: #008000"/>
     <use xlink:href="#m6dbabd0bd9" x="322.013426" y="284.280328" style="fill: #008000; stroke: #008000"/>
     <use xlink:href="#m6dbabd0bd9" x="322.832361" y="281.518816" style="fill: #008000; stroke: #008000"/>
     <use xlink:href="#m6dbabd0bd9" x="284.352705" y="209.64572" style="fill: #008000; stroke: #008000"/>
     <use xlink:href="#m6dbabd0bd9" x="319.386853" y="215.260944" style="fill: #008000; stroke: #008000"/>
     <use xlink:href="#m6dbabd0bd9" x="316.08352" y="214.026592" style="fill: #008000; stroke: #008000"/>
     <use xlink:href="#m6dbabd0bd9" x="303.252155" y="218.735049" style="fill: #008000; stroke: #008000"/>
     <use xlink:href="#m6dbabd0bd9" x="329.550261" y="218.625172" style="fill: #008000; stroke: #008000"/>
     <use xlink:href="#m6dbabd0bd9" x="337.929948" y="220.046165" style="fill: #008000; stroke: #008000"/>
    </g>
   </g>
   <g id="matplotlib.axis_1">
    <g id="xtick_1">
     <g id="line2d_1">
      <defs>
       <path id="m082b563768" d="M 0 0 
L 0 3.5 
" style="stroke: #000000; stroke-width: 0.8"/>
      </defs>
      <g>
       <use xlink:href="#m082b563768" x="109.13205" y="307.584" style="stroke: #000000; stroke-width: 0.8"/>
      </g>
     </g>
     <g id="text_1">
      <!-- −1.0 -->
      <g transform="translate(96.990643 322.182437) scale(0.1 -0.1)">
       <defs>
        <path id="DejaVuSans-2212" d="M 678 2272 
L 4684 2272 
L 4684 1741 
L 678 1741 
L 678 2272 
z
" transform="scale(0.015625)"/>
        <path id="DejaVuSans-31" d="M 794 531 
L 1825 531 
L 1825 4091 
L 703 3866 
L 703 4441 
L 1819 4666 
L 2450 4666 
L 2450 531 
L 3481 531 
L 3481 0 
L 794 0 
L 794 531 
z
" transform="scale(0.015625)"/>
        <path id="DejaVuSans-2e" d="M 684 794 
L 1344 794 
L 1344 0 
L 684 0 
L 684 794 
z
" transform="scale(0.015625)"/>
        <path id="DejaVuSans-30" d="M 2034 4250 
Q 1547 4250 1301 3770 
Q 1056 3291 1056 2328 
Q 1056 1369 1301 889 
Q 1547 409 2034 409 
Q 2525 409 2770 889 
Q 3016 1369 3016 2328 
Q 3016 3291 2770 3770 
Q 2525 4250 2034 4250 
z
M 2034 4750 
Q 2819 4750 3233 4129 
Q 3647 3509 3647 2328 
Q 3647 1150 3233 529 
Q 2819 -91 2034 -91 
Q 1250 -91 836 529 
Q 422 1150 422 2328 
Q 422 3509 836 4129 
Q 1250 4750 2034 4750 
z
" transform="scale(0.015625)"/>
       </defs>
       <use xlink:href="#DejaVuSans-2212"/>
       <use xlink:href="#DejaVuSans-31" x="83.789062"/>
       <use xlink:href="#DejaVuSans-2e" x="147.412109"/>
       <use xlink:href="#DejaVuSans-30" x="179.199219"/>
      </g>
     </g>
    </g>
    <g id="xtick_2">
     <g id="line2d_2">
      <g>
       <use xlink:href="#m082b563768" x="162.72753" y="307.584" style="stroke: #000000; stroke-width: 0.8"/>
      </g>
     </g>
     <g id="text_2">
      <!-- −0.5 -->
      <g transform="translate(150.586123 322.182437) scale(0.1 -0.1)">
       <defs>
        <path id="DejaVuSans-35" d="M 691 4666 
L 3169 4666 
L 3169 4134 
L 1269 4134 
L 1269 2991 
Q 1406 3038 1543 3061 
Q 1681 3084 1819 3084 
Q 2600 3084 3056 2656 
Q 3513 2228 3513 1497 
Q 3513 744 3044 326 
Q 2575 -91 1722 -91 
Q 1428 -91 1123 -41 
Q 819 9 494 109 
L 494 744 
Q 775 591 1075 516 
Q 1375 441 1709 441 
Q 2250 441 2565 725 
Q 2881 1009 2881 1497 
Q 2881 1984 2565 2268 
Q 2250 2553 1709 2553 
Q 1456 2553 1204 2497 
Q 953 2441 691 2322 
L 691 4666 
z
" transform="scale(0.015625)"/>
       </defs>
       <use xlink:href="#DejaVuSans-2212"/>
       <use xlink:href="#DejaVuSans-30" x="83.789062"/>
       <use xlink:href="#DejaVuSans-2e" x="147.412109"/>
       <use xlink:href="#DejaVuSans-35" x="179.199219"/>
      </g>
     </g>
    </g>
    <g id="xtick_3">
     <g id="line2d_3">
      <g>
       <use xlink:href="#m082b563768" x="216.32301" y="307.584" style="stroke: #000000; stroke-width: 0.8"/>
      </g>
     </g>
     <g id="text_3">
      <!-- 0.0 -->
      <g transform="translate(208.371447 322.182437) scale(0.1 -0.1)">
       <use xlink:href="#DejaVuSans-30"/>
       <use xlink:href="#DejaVuSans-2e" x="63.623047"/>
       <use xlink:href="#DejaVuSans-30" x="95.410156"/>
      </g>
     </g>
    </g>
    <g id="xtick_4">
     <g id="line2d_4">
      <g>
       <use xlink:href="#m082b563768" x="269.91849" y="307.584" style="stroke: #000000; stroke-width: 0.8"/>
      </g>
     </g>
     <g id="text_4">
      <!-- 0.5 -->
      <g transform="translate(261.966927 322.182437) scale(0.1 -0.1)">
       <use xlink:href="#DejaVuSans-30"/>
       <use xlink:href="#DejaVuSans-2e" x="63.623047"/>
       <use xlink:href="#DejaVuSans-35" x="95.410156"/>
      </g>
     </g>
    </g>
    <g id="xtick_5">
     <g id="line2d_5">
      <g>
       <use xlink:href="#m082b563768" x="323.51397" y="307.584" style="stroke: #000000; stroke-width: 0.8"/>
      </g>
     </g>
     <g id="text_5">
      <!-- 1.0 -->
      <g transform="translate(315.562407 322.182437) scale(0.1 -0.1)">
       <use xlink:href="#DejaVuSans-31"/>
       <use xlink:href="#DejaVuSans-2e" x="63.623047"/>
       <use xlink:href="#DejaVuSans-30" x="95.410156"/>
      </g>
     </g>
    </g>
    <g id="xtick_6">
     <g id="line2d_6">
      <g>
       <use xlink:href="#m082b563768" x="377.10945" y="307.584" style="stroke: #000000; stroke-width: 0.8"/>
      </g>
     </g>
     <g id="text_6">
      <!-- 1.5 -->
      <g transform="translate(369.157887 322.182437) scale(0.1 -0.1)">
       <use xlink:href="#DejaVuSans-31"/>
       <use xlink:href="#DejaVuSans-2e" x="63.623047"/>
       <use xlink:href="#DejaVuSans-35" x="95.410156"/>
      </g>
     </g>
    </g>
    <g id="text_7">
     <!-- Principal Component 1 -->
     <g transform="translate(179.465469 335.860562) scale(0.1 -0.1)">
      <defs>
       <path id="DejaVuSans-50" d="M 1259 4147 
L 1259 2394 
L 2053 2394 
Q 2494 2394 2734 2622 
Q 2975 2850 2975 3272 
Q 2975 3691 2734 3919 
Q 2494 4147 2053 4147 
L 1259 4147 
z
M 628 4666 
L 2053 4666 
Q 2838 4666 3239 4311 
Q 3641 3956 3641 3272 
Q 3641 2581 3239 2228 
Q 2838 1875 2053 1875 
L 1259 1875 
L 1259 0 
L 628 0 
L 628 4666 
z
" transform="scale(0.015625)"/>
       <path id="DejaVuSans-72" d="M 2631 2963 
Q 2534 3019 2420 3045 
Q 2306 3072 2169 3072 
Q 1681 3072 1420 2755 
Q 1159 2438 1159 1844 
L 1159 0 
L 581 0 
L 581 3500 
L 1159 3500 
L 1159 2956 
Q 1341 3275 1631 3429 
Q 1922 3584 2338 3584 
Q 2397 3584 2469 3576 
Q 2541 3569 2628 3553 
L 2631 2963 
z
" transform="scale(0.015625)"/>
       <path id="DejaVuSans-69" d="M 603 3500 
L 1178 3500 
L 1178 0 
L 603 0 
L 603 3500 
z
M 603 4863 
L 1178 4863 
L 1178 4134 
L 603 4134 
L 603 4863 
z
" transform="scale(0.015625)"/>
       <path id="DejaVuSans-6e" d="M 3513 2113 
L 3513 0 
L 2938 0 
L 2938 2094 
Q 2938 2591 2744 2837 
Q 2550 3084 2163 3084 
Q 1697 3084 1428 2787 
Q 1159 2491 1159 1978 
L 1159 0 
L 581 0 
L 581 3500 
L 1159 3500 
L 1159 2956 
Q 1366 3272 1645 3428 
Q 1925 3584 2291 3584 
Q 2894 3584 3203 3211 
Q 3513 2838 3513 2113 
z
" transform="scale(0.015625)"/>
       <path id="DejaVuSans-63" d="M 3122 3366 
L 3122 2828 
Q 2878 2963 2633 3030 
Q 2388 3097 2138 3097 
Q 1578 3097 1268 2742 
Q 959 2388 959 1747 
Q 959 1106 1268 751 
Q 1578 397 2138 397 
Q 2388 397 2633 464 
Q 2878 531 3122 666 
L 3122 134 
Q 2881 22 2623 -34 
Q 2366 -91 2075 -91 
Q 1284 -91 818 406 
Q 353 903 353 1747 
Q 353 2603 823 3093 
Q 1294 3584 2113 3584 
Q 2378 3584 2631 3529 
Q 2884 3475 3122 3366 
z
" transform="scale(0.015625)"/>
       <path id="DejaVuSans-70" d="M 1159 525 
L 1159 -1331 
L 581 -1331 
L 581 3500 
L 1159 3500 
L 1159 2969 
Q 1341 3281 1617 3432 
Q 1894 3584 2278 3584 
Q 2916 3584 3314 3078 
Q 3713 2572 3713 1747 
Q 3713 922 3314 415 
Q 2916 -91 2278 -91 
Q 1894 -91 1617 61 
Q 1341 213 1159 525 
z
M 3116 1747 
Q 3116 2381 2855 2742 
Q 2594 3103 2138 3103 
Q 1681 3103 1420 2742 
Q 1159 2381 1159 1747 
Q 1159 1113 1420 752 
Q 1681 391 2138 391 
Q 2594 391 2855 752 
Q 3116 1113 3116 1747 
z
" transform="scale(0.015625)"/>
       <path id="DejaVuSans-61" d="M 2194 1759 
Q 1497 1759 1228 1600 
Q 959 1441 959 1056 
Q 959 750 1161 570 
Q 1363 391 1709 391 
Q 2188 391 2477 730 
Q 2766 1069 2766 1631 
L 2766 1759 
L 2194 1759 
z
M 3341 1997 
L 3341 0 
L 2766 0 
L 2766 531 
Q 2569 213 2275 61 
Q 1981 -91 1556 -91 
Q 1019 -91 701 211 
Q 384 513 384 1019 
Q 384 1609 779 1909 
Q 1175 2209 1959 2209 
L 2766 2209 
L 2766 2266 
Q 2766 2663 2505 2880 
Q 2244 3097 1772 3097 
Q 1472 3097 1187 3025 
Q 903 2953 641 2809 
L 641 3341 
Q 956 3463 1253 3523 
Q 1550 3584 1831 3584 
Q 2591 3584 2966 3190 
Q 3341 2797 3341 1997 
z
" transform="scale(0.015625)"/>
       <path id="DejaVuSans-6c" d="M 603 4863 
L 1178 4863 
L 1178 0 
L 603 0 
L 603 4863 
z
" transform="scale(0.015625)"/>
       <path id="DejaVuSans-20" transform="scale(0.015625)"/>
       <path id="DejaVuSans-43" d="M 4122 4306 
L 4122 3641 
Q 3803 3938 3442 4084 
Q 3081 4231 2675 4231 
Q 1875 4231 1450 3742 
Q 1025 3253 1025 2328 
Q 1025 1406 1450 917 
Q 1875 428 2675 428 
Q 3081 428 3442 575 
Q 3803 722 4122 1019 
L 4122 359 
Q 3791 134 3420 21 
Q 3050 -91 2638 -91 
Q 1578 -91 968 557 
Q 359 1206 359 2328 
Q 359 3453 968 4101 
Q 1578 4750 2638 4750 
Q 3056 4750 3426 4639 
Q 3797 4528 4122 4306 
z
" transform="scale(0.015625)"/>
       <path id="DejaVuSans-6f" d="M 1959 3097 
Q 1497 3097 1228 2736 
Q 959 2375 959 1747 
Q 959 1119 1226 758 
Q 1494 397 1959 397 
Q 2419 397 2687 759 
Q 2956 1122 2956 1747 
Q 2956 2369 2687 2733 
Q 2419 3097 1959 3097 
z
M 1959 3584 
Q 2709 3584 3137 3096 
Q 3566 2609 3566 1747 
Q 3566 888 3137 398 
Q 2709 -91 1959 -91 
Q 1206 -91 779 398 
Q 353 888 353 1747 
Q 353 2609 779 3096 
Q 1206 3584 1959 3584 
z
" transform="scale(0.015625)"/>
       <path id="DejaVuSans-6d" d="M 3328 2828 
Q 3544 3216 3844 3400 
Q 4144 3584 4550 3584 
Q 5097 3584 5394 3201 
Q 5691 2819 5691 2113 
L 5691 0 
L 5113 0 
L 5113 2094 
Q 5113 2597 4934 2840 
Q 4756 3084 4391 3084 
Q 3944 3084 3684 2787 
Q 3425 2491 3425 1978 
L 3425 0 
L 2847 0 
L 2847 2094 
Q 2847 2600 2669 2842 
Q 2491 3084 2119 3084 
Q 1678 3084 1418 2786 
Q 1159 2488 1159 1978 
L 1159 0 
L 581 0 
L 581 3500 
L 1159 3500 
L 1159 2956 
Q 1356 3278 1631 3431 
Q 1906 3584 2284 3584 
Q 2666 3584 2933 3390 
Q 3200 3197 3328 2828 
z
" transform="scale(0.015625)"/>
       <path id="DejaVuSans-65" d="M 3597 1894 
L 3597 1613 
L 953 1613 
Q 991 1019 1311 708 
Q 1631 397 2203 397 
Q 2534 397 2845 478 
Q 3156 559 3463 722 
L 3463 178 
Q 3153 47 2828 -22 
Q 2503 -91 2169 -91 
Q 1331 -91 842 396 
Q 353 884 353 1716 
Q 353 2575 817 3079 
Q 1281 3584 2069 3584 
Q 2775 3584 3186 3129 
Q 3597 2675 3597 1894 
z
M 3022 2063 
Q 3016 2534 2758 2815 
Q 2500 3097 2075 3097 
Q 1594 3097 1305 2825 
Q 1016 2553 972 2059 
L 3022 2063 
z
" transform="scale(0.015625)"/>
       <path id="DejaVuSans-74" d="M 1172 4494 
L 1172 3500 
L 2356 3500 
L 2356 3053 
L 1172 3053 
L 1172 1153 
Q 1172 725 1289 603 
Q 1406 481 1766 481 
L 2356 481 
L 2356 0 
L 1766 0 
Q 1100 0 847 248 
Q 594 497 594 1153 
L 594 3053 
L 172 3053 
L 172 3500 
L 594 3500 
L 594 4494 
L 1172 4494 
z
" transform="scale(0.015625)"/>
      </defs>
      <use xlink:href="#DejaVuSans-50"/>
      <use xlink:href="#DejaVuSans-72" x="58.552734"/>
      <use xlink:href="#DejaVuSans-69" x="99.666016"/>
      <use xlink:href="#DejaVuSans-6e" x="127.449219"/>
      <use xlink:href="#DejaVuSans-63" x="190.828125"/>
      <use xlink:href="#DejaVuSans-69" x="245.808594"/>
      <use xlink:href="#DejaVuSans-70" x="273.591797"/>
      <use xlink:href="#DejaVuSans-61" x="337.068359"/>
      <use xlink:href="#DejaVuSans-6c" x="398.347656"/>
      <use xlink:href="#DejaVuSans-20" x="426.130859"/>
      <use xlink:href="#DejaVuSans-43" x="457.917969"/>
      <use xlink:href="#DejaVuSans-6f" x="527.742188"/>
      <use xlink:href="#DejaVuSans-6d" x="588.923828"/>
      <use xlink:href="#DejaVuSans-70" x="686.335938"/>
      <use xlink:href="#DejaVuSans-6f" x="749.8125"/>
      <use xlink:href="#DejaVuSans-6e" x="810.994141"/>
      <use xlink:href="#DejaVuSans-65" x="874.373047"/>
      <use xlink:href="#DejaVuSans-6e" x="935.896484"/>
      <use xlink:href="#DejaVuSans-74" x="999.275391"/>
      <use xlink:href="#DejaVuSans-20" x="1038.484375"/>
      <use xlink:href="#DejaVuSans-31" x="1070.271484"/>
     </g>
    </g>
   </g>
   <g id="matplotlib.axis_2">
    <g id="ytick_1">
     <g id="line2d_7">
      <defs>
       <path id="m43417c85cd" d="M 0 0 
L -3.5 0 
" style="stroke: #000000; stroke-width: 0.8"/>
      </defs>
      <g>
       <use xlink:href="#m43417c85cd" x="57.6" y="290.463262" style="stroke: #000000; stroke-width: 0.8"/>
      </g>
     </g>
     <g id="text_8">
      <!-- −1.0 -->
      <g transform="translate(26.317187 294.262481) scale(0.1 -0.1)">
       <use xlink:href="#DejaVuSans-2212"/>
       <use xlink:href="#DejaVuSans-31" x="83.789062"/>
       <use xlink:href="#DejaVuSans-2e" x="147.412109"/>
       <use xlink:href="#DejaVuSans-30" x="179.199219"/>
      </g>
     </g>
    </g>
    <g id="ytick_2">
     <g id="line2d_8">
      <g>
       <use xlink:href="#m43417c85cd" x="57.6" y="243.618075" style="stroke: #000000; stroke-width: 0.8"/>
      </g>
     </g>
     <g id="text_9">
      <!-- −0.5 -->
      <g transform="translate(26.317187 247.417294) scale(0.1 -0.1)">
       <use xlink:href="#DejaVuSans-2212"/>
       <use xlink:href="#DejaVuSans-30" x="83.789062"/>
       <use xlink:href="#DejaVuSans-2e" x="147.412109"/>
       <use xlink:href="#DejaVuSans-35" x="179.199219"/>
      </g>
     </g>
    </g>
    <g id="ytick_3">
     <g id="line2d_9">
      <g>
       <use xlink:href="#m43417c85cd" x="57.6" y="196.772888" style="stroke: #000000; stroke-width: 0.8"/>
      </g>
     </g>
     <g id="text_10">
      <!-- 0.0 -->
      <g transform="translate(34.696875 200.572106) scale(0.1 -0.1)">
       <use xlink:href="#DejaVuSans-30"/>
       <use xlink:href="#DejaVuSans-2e" x="63.623047"/>
       <use xlink:href="#DejaVuSans-30" x="95.410156"/>
      </g>
     </g>
    </g>
    <g id="ytick_4">
     <g id="line2d_10">
      <g>
       <use xlink:href="#m43417c85cd" x="57.6" y="149.9277" style="stroke: #000000; stroke-width: 0.8"/>
      </g>
     </g>
     <g id="text_11">
      <!-- 0.5 -->
      <g transform="translate(34.696875 153.726919) scale(0.1 -0.1)">
       <use xlink:href="#DejaVuSans-30"/>
       <use xlink:href="#DejaVuSans-2e" x="63.623047"/>
       <use xlink:href="#DejaVuSans-35" x="95.410156"/>
      </g>
     </g>
    </g>
    <g id="ytick_5">
     <g id="line2d_11">
      <g>
       <use xlink:href="#m43417c85cd" x="57.6" y="103.082513" style="stroke: #000000; stroke-width: 0.8"/>
      </g>
     </g>
     <g id="text_12">
      <!-- 1.0 -->
      <g transform="translate(34.696875 106.881732) scale(0.1 -0.1)">
       <use xlink:href="#DejaVuSans-31"/>
       <use xlink:href="#DejaVuSans-2e" x="63.623047"/>
       <use xlink:href="#DejaVuSans-30" x="95.410156"/>
      </g>
     </g>
    </g>
    <g id="ytick_6">
     <g id="line2d_12">
      <g>
       <use xlink:href="#m43417c85cd" x="57.6" y="56.237326" style="stroke: #000000; stroke-width: 0.8"/>
      </g>
     </g>
     <g id="text_13">
      <!-- 1.5 -->
      <g transform="translate(34.696875 60.036545) scale(0.1 -0.1)">
       <use xlink:href="#DejaVuSans-31"/>
       <use xlink:href="#DejaVuSans-2e" x="63.623047"/>
       <use xlink:href="#DejaVuSans-35" x="95.410156"/>
      </g>
     </g>
    </g>
    <g id="text_14">
     <!-- Principal Component 2 -->
     <g transform="translate(20.2375 231.222531) rotate(-90) scale(0.1 -0.1)">
      <defs>
       <path id="DejaVuSans-32" d="M 1228 531 
L 3431 531 
L 3431 0 
L 469 0 
L 469 531 
Q 828 903 1448 1529 
Q 2069 2156 2228 2338 
Q 2531 2678 2651 2914 
Q 2772 3150 2772 3378 
Q 2772 3750 2511 3984 
Q 2250 4219 1831 4219 
Q 1534 4219 1204 4116 
Q 875 4013 500 3803 
L 500 4441 
Q 881 4594 1212 4672 
Q 1544 4750 1819 4750 
Q 2544 4750 2975 4387 
Q 3406 4025 3406 3419 
Q 3406 3131 3298 2873 
Q 3191 2616 2906 2266 
Q 2828 2175 2409 1742 
Q 1991 1309 1228 531 
z
" transform="scale(0.015625)"/>
      </defs>
      <use xlink:href="#DejaVuSans-50"/>
      <use xlink:href="#DejaVuSans-72" x="58.552734"/>
      <use xlink:href="#DejaVuSans-69" x="99.666016"/>
      <use xlink:href="#DejaVuSans-6e" x="127.449219"/>
      <use xlink:href="#DejaVuSans-63" x="190.828125"/>
      <use xlink:href="#DejaVuSans-69" x="245.808594"/>
      <use xlink:href="#DejaVuSans-70" x="273.591797"/>
      <use xlink:href="#DejaVuSans-61" x="337.068359"/>
      <use xlink:href="#DejaVuSans-6c" x="398.347656"/>
      <use xlink:href="#DejaVuSans-20" x="426.130859"/>
      <use xlink:href="#DejaVuSans-43" x="457.917969"/>
      <use xlink:href="#DejaVuSans-6f" x="527.742188"/>
      <use xlink:href="#DejaVuSans-6d" x="588.923828"/>
      <use xlink:href="#DejaVuSans-70" x="686.335938"/>
      <use xlink:href="#DejaVuSans-6f" x="749.8125"/>
      <use xlink:href="#DejaVuSans-6e" x="810.994141"/>
      <use xlink:href="#DejaVuSans-65" x="874.373047"/>
      <use xlink:href="#DejaVuSans-6e" x="935.896484"/>
      <use xlink:href="#DejaVuSans-74" x="999.275391"/>
      <use xlink:href="#DejaVuSans-20" x="1038.484375"/>
      <use xlink:href="#DejaVuSans-32" x="1070.271484"/>
     </g>
    </g>
   </g>
   <g id="patch_3">
    <path d="M 57.6 307.584 
L 57.6 41.472 
" style="fill: none; stroke: #000000; stroke-width: 0.8; stroke-linejoin: miter; stroke-linecap: square"/>
   </g>
   <g id="patch_4">
    <path d="M 414.72 307.584 
L 414.72 41.472 
" style="fill: none; stroke: #000000; stroke-width: 0.8; stroke-linejoin: miter; stroke-linecap: square"/>
   </g>
   <g id="patch_5">
    <path d="M 57.6 307.584 
L 414.72 307.584 
" style="fill: none; stroke: #000000; stroke-width: 0.8; stroke-linejoin: miter; stroke-linecap: square"/>
   </g>
   <g id="patch_6">
    <path d="M 57.6 41.472 
L 414.72 41.472 
" style="fill: none; stroke: #000000; stroke-width: 0.8; stroke-linejoin: miter; stroke-linecap: square"/>
   </g>
   <g id="text_15">
    <!-- Clustering in 3 clusters met cp met rang 20 -->
    <g transform="translate(105.239062 35.472) scale(0.12 -0.12)">
     <defs>
      <path id="DejaVuSans-75" d="M 544 1381 
L 544 3500 
L 1119 3500 
L 1119 1403 
Q 1119 906 1312 657 
Q 1506 409 1894 409 
Q 2359 409 2629 706 
Q 2900 1003 2900 1516 
L 2900 3500 
L 3475 3500 
L 3475 0 
L 2900 0 
L 2900 538 
Q 2691 219 2414 64 
Q 2138 -91 1772 -91 
Q 1169 -91 856 284 
Q 544 659 544 1381 
z
M 1991 3584 
L 1991 3584 
z
" transform="scale(0.015625)"/>
      <path id="DejaVuSans-73" d="M 2834 3397 
L 2834 2853 
Q 2591 2978 2328 3040 
Q 2066 3103 1784 3103 
Q 1356 3103 1142 2972 
Q 928 2841 928 2578 
Q 928 2378 1081 2264 
Q 1234 2150 1697 2047 
L 1894 2003 
Q 2506 1872 2764 1633 
Q 3022 1394 3022 966 
Q 3022 478 2636 193 
Q 2250 -91 1575 -91 
Q 1294 -91 989 -36 
Q 684 19 347 128 
L 347 722 
Q 666 556 975 473 
Q 1284 391 1588 391 
Q 1994 391 2212 530 
Q 2431 669 2431 922 
Q 2431 1156 2273 1281 
Q 2116 1406 1581 1522 
L 1381 1569 
Q 847 1681 609 1914 
Q 372 2147 372 2553 
Q 372 3047 722 3315 
Q 1072 3584 1716 3584 
Q 2034 3584 2315 3537 
Q 2597 3491 2834 3397 
z
" transform="scale(0.015625)"/>
      <path id="DejaVuSans-67" d="M 2906 1791 
Q 2906 2416 2648 2759 
Q 2391 3103 1925 3103 
Q 1463 3103 1205 2759 
Q 947 2416 947 1791 
Q 947 1169 1205 825 
Q 1463 481 1925 481 
Q 2391 481 2648 825 
Q 2906 1169 2906 1791 
z
M 3481 434 
Q 3481 -459 3084 -895 
Q 2688 -1331 1869 -1331 
Q 1566 -1331 1297 -1286 
Q 1028 -1241 775 -1147 
L 775 -588 
Q 1028 -725 1275 -790 
Q 1522 -856 1778 -856 
Q 2344 -856 2625 -561 
Q 2906 -266 2906 331 
L 2906 616 
Q 2728 306 2450 153 
Q 2172 0 1784 0 
Q 1141 0 747 490 
Q 353 981 353 1791 
Q 353 2603 747 3093 
Q 1141 3584 1784 3584 
Q 2172 3584 2450 3431 
Q 2728 3278 2906 2969 
L 2906 3500 
L 3481 3500 
L 3481 434 
z
" transform="scale(0.015625)"/>
      <path id="DejaVuSans-33" d="M 2597 2516 
Q 3050 2419 3304 2112 
Q 3559 1806 3559 1356 
Q 3559 666 3084 287 
Q 2609 -91 1734 -91 
Q 1441 -91 1130 -33 
Q 819 25 488 141 
L 488 750 
Q 750 597 1062 519 
Q 1375 441 1716 441 
Q 2309 441 2620 675 
Q 2931 909 2931 1356 
Q 2931 1769 2642 2001 
Q 2353 2234 1838 2234 
L 1294 2234 
L 1294 2753 
L 1863 2753 
Q 2328 2753 2575 2939 
Q 2822 3125 2822 3475 
Q 2822 3834 2567 4026 
Q 2313 4219 1838 4219 
Q 1578 4219 1281 4162 
Q 984 4106 628 3988 
L 628 4550 
Q 988 4650 1302 4700 
Q 1616 4750 1894 4750 
Q 2613 4750 3031 4423 
Q 3450 4097 3450 3541 
Q 3450 3153 3228 2886 
Q 3006 2619 2597 2516 
z
" transform="scale(0.015625)"/>
     </defs>
     <use xlink:href="#DejaVuSans-43"/>
     <use xlink:href="#DejaVuSans-6c" x="69.824219"/>
     <use xlink:href="#DejaVuSans-75" x="97.607422"/>
     <use xlink:href="#DejaVuSans-73" x="160.986328"/>
     <use xlink:href="#DejaVuSans-74" x="213.085938"/>
     <use xlink:href="#DejaVuSans-65" x="252.294922"/>
     <use xlink:href="#DejaVuSans-72" x="313.818359"/>
     <use xlink:href="#DejaVuSans-69" x="354.931641"/>
     <use xlink:href="#DejaVuSans-6e" x="382.714844"/>
     <use xlink:href="#DejaVuSans-67" x="446.09375"/>
     <use xlink:href="#DejaVuSans-20" x="509.570312"/>
     <use xlink:href="#DejaVuSans-69" x="541.357422"/>
     <use xlink:href="#DejaVuSans-6e" x="569.140625"/>
     <use xlink:href="#DejaVuSans-20" x="632.519531"/>
     <use xlink:href="#DejaVuSans-33" x="664.306641"/>
     <use xlink:href="#DejaVuSans-20" x="727.929688"/>
     <use xlink:href="#DejaVuSans-63" x="759.716797"/>
     <use xlink:href="#DejaVuSans-6c" x="814.697266"/>
     <use xlink:href="#DejaVuSans-75" x="842.480469"/>
     <use xlink:href="#DejaVuSans-73" x="905.859375"/>
     <use xlink:href="#DejaVuSans-74" x="957.958984"/>
     <use xlink:href="#DejaVuSans-65" x="997.167969"/>
     <use xlink:href="#DejaVuSans-72" x="1058.691406"/>
     <use xlink:href="#DejaVuSans-73" x="1099.804688"/>
     <use xlink:href="#DejaVuSans-20" x="1151.904297"/>
     <use xlink:href="#DejaVuSans-6d" x="1183.691406"/>
     <use xlink:href="#DejaVuSans-65" x="1281.103516"/>
     <use xlink:href="#DejaVuSans-74" x="1342.626953"/>
     <use xlink:href="#DejaVuSans-20" x="1381.835938"/>
     <use xlink:href="#DejaVuSans-63" x="1413.623047"/>
     <use xlink:href="#DejaVuSans-70" x="1468.603516"/>
     <use xlink:href="#DejaVuSans-20" x="1532.080078"/>
     <use xlink:href="#DejaVuSans-6d" x="1563.867188"/>
     <use xlink:href="#DejaVuSans-65" x="1661.279297"/>
     <use xlink:href="#DejaVuSans-74" x="1722.802734"/>
     <use xlink:href="#DejaVuSans-20" x="1762.011719"/>
     <use xlink:href="#DejaVuSans-72" x="1793.798828"/>
     <use xlink:href="#DejaVuSans-61" x="1834.912109"/>
     <use xlink:href="#DejaVuSans-6e" x="1896.191406"/>
     <use xlink:href="#DejaVuSans-67" x="1959.570312"/>
     <use xlink:href="#DejaVuSans-20" x="2023.046875"/>
     <use xlink:href="#DejaVuSans-32" x="2054.833984"/>
     <use xlink:href="#DejaVuSans-30" x="2118.457031"/>
    </g>
   </g>
  </g>
 </g>
 <defs>
  <clipPath id="p2084df7ec5">
   <rect x="57.6" y="41.472" width="357.12" height="266.112"/>
  </clipPath>
 </defs>
</svg>
