<?xml version="1.0" encoding="utf-8" standalone="no"?>
<!DOCTYPE svg PUBLIC "-//W3C//DTD SVG 1.1//EN"
  "http://www.w3.org/Graphics/SVG/1.1/DTD/svg11.dtd">
<svg xmlns:xlink="http://www.w3.org/1999/xlink" width="460.8pt" height="345.6pt" viewBox="0 0 460.8 345.6" xmlns="http://www.w3.org/2000/svg" version="1.1">
 <metadata>
  <rdf:RDF xmlns:dc="http://purl.org/dc/elements/1.1/" xmlns:cc="http://creativecommons.org/ns#" xmlns:rdf="http://www.w3.org/1999/02/22-rdf-syntax-ns#">
   <cc:Work>
    <dc:type rdf:resource="http://purl.org/dc/dcmitype/StillImage"/>
    <dc:date>2024-03-01T12:33:57.654250</dc:date>
    <dc:format>image/svg+xml</dc:format>
    <dc:creator>
     <cc:Agent>
      <dc:title>Matplotlib v3.8.0, https://matplotlib.org/</dc:title>
     </cc:Agent>
    </dc:creator>
   </cc:Work>
  </rdf:RDF>
 </metadata>
 <defs>
  <style type="text/css">*{stroke-linejoin: round; stroke-linecap: butt}</style>
 </defs>
 <g id="figure_1">
  <g id="patch_1">
   <path d="M 0 345.6 
L 460.8 345.6 
L 460.8 0 
L 0 0 
L 0 345.6 
z
" style="fill: none"/>
  </g>
  <g id="axes_1">
   <g id="patch_2">
    <path d="M 57.6 307.584 
L 414.72 307.584 
L 414.72 41.472 
L 57.6 41.472 
L 57.6 307.584 
z
" style="fill: none"/>
   </g>
   <g id="PathCollection_1">
    <defs>
     <path id="m49f34daf1c" d="M 0 3 
C 0.795609 3 1.55874 2.683901 2.12132 2.12132 
C 2.683901 1.55874 3 0.795609 3 0 
C 3 -0.795609 2.683901 -1.55874 2.12132 -2.12132 
C 1.55874 -2.683901 0.795609 -3 0 -3 
C -0.795609 -3 -1.55874 -2.683901 -2.12132 -2.12132 
C -2.683901 -1.55874 -3 -0.795609 -3 0 
C -3 0.795609 -2.683901 1.55874 -2.12132 2.12132 
C -1.55874 2.683901 -0.795609 3 0 3 
z
" style="stroke: #bfbf00"/>
    </defs>
    <g clip-path="url(#p76a029bad8)">
     <use xlink:href="#m49f34daf1c" x="357.559121" y="199.281086" style="fill: #bfbf00; stroke: #bfbf00"/>
     <use xlink:href="#m49f34daf1c" x="398.487273" y="185.31737" style="fill: #bfbf00; stroke: #bfbf00"/>
     <use xlink:href="#m49f34daf1c" x="383.102138" y="190.168132" style="fill: #bfbf00; stroke: #bfbf00"/>
     <use xlink:href="#m49f34daf1c" x="377.223519" y="194.114244" style="fill: #bfbf00; stroke: #bfbf00"/>
     <use xlink:href="#m49f34daf1c" x="367.363792" y="189.423502" style="fill: #bfbf00; stroke: #bfbf00"/>
     <use xlink:href="#m49f34daf1c" x="372.210236" y="196.094555" style="fill: #bfbf00; stroke: #bfbf00"/>
     <use xlink:href="#m49f34daf1c" x="367.49564" y="188.920797" style="fill: #bfbf00; stroke: #bfbf00"/>
     <use xlink:href="#m49f34daf1c" x="356.509356" y="166.987522" style="fill: #bfbf00; stroke: #bfbf00"/>
     <use xlink:href="#m49f34daf1c" x="360.823827" y="166.105799" style="fill: #bfbf00; stroke: #bfbf00"/>
     <use xlink:href="#m49f34daf1c" x="358.550404" y="163.334675" style="fill: #bfbf00; stroke: #bfbf00"/>
     <use xlink:href="#m49f34daf1c" x="360.05002" y="167.743154" style="fill: #bfbf00; stroke: #bfbf00"/>
     <use xlink:href="#m49f34daf1c" x="361.453328" y="162.633681" style="fill: #bfbf00; stroke: #bfbf00"/>
     <use xlink:href="#m49f34daf1c" x="346.018151" y="162.940514" style="fill: #bfbf00; stroke: #bfbf00"/>
     <use xlink:href="#m49f34daf1c" x="377.647133" y="192.596611" style="fill: #bfbf00; stroke: #bfbf00"/>
     <use xlink:href="#m49f34daf1c" x="362.264863" y="186.636637" style="fill: #bfbf00; stroke: #bfbf00"/>
     <use xlink:href="#m49f34daf1c" x="375.71256" y="178.312499" style="fill: #bfbf00; stroke: #bfbf00"/>
     <use xlink:href="#m49f34daf1c" x="364.485214" y="178.299339" style="fill: #bfbf00; stroke: #bfbf00"/>
     <use xlink:href="#m49f34daf1c" x="392.066733" y="175.612225" style="fill: #bfbf00; stroke: #bfbf00"/>
     <use xlink:href="#m49f34daf1c" x="385.408637" y="175.446329" style="fill: #bfbf00; stroke: #bfbf00"/>
     <use xlink:href="#m49f34daf1c" x="351.773792" y="158.52141" style="fill: #bfbf00; stroke: #bfbf00"/>
    </g>
   </g>
   <g id="PathCollection_2">
    <defs>
     <path id="m502f122744" d="M 0 3 
C 0.795609 3 1.55874 2.683901 2.12132 2.12132 
C 2.683901 1.55874 3 0.795609 3 0 
C 3 -0.795609 2.683901 -1.55874 2.12132 -2.12132 
C 1.55874 -2.683901 0.795609 -3 0 -3 
C -0.795609 -3 -1.55874 -2.683901 -2.12132 -2.12132 
C -2.683901 -1.55874 -3 -0.795609 -3 0 
C -3 0.795609 -2.683901 1.55874 -2.12132 2.12132 
C -1.55874 2.683901 -0.795609 3 0 3 
z
" style="stroke: #ff0000"/>
    </defs>
    <g clip-path="url(#p76a029bad8)">
     <use xlink:href="#m502f122744" x="87.739862" y="103.470825" style="fill: #ff0000; stroke: #ff0000"/>
     <use xlink:href="#m502f122744" x="86.556345" y="100.513427" style="fill: #ff0000; stroke: #ff0000"/>
     <use xlink:href="#m502f122744" x="73.832727" y="99.536748" style="fill: #ff0000; stroke: #ff0000"/>
     <use xlink:href="#m502f122744" x="95.036285" y="129.985952" style="fill: #ff0000; stroke: #ff0000"/>
     <use xlink:href="#m502f122744" x="91.78039" y="148.224304" style="fill: #ff0000; stroke: #ff0000"/>
     <use xlink:href="#m502f122744" x="88.531893" y="150.587796" style="fill: #ff0000; stroke: #ff0000"/>
     <use xlink:href="#m502f122744" x="100.351555" y="104.802672" style="fill: #ff0000; stroke: #ff0000"/>
     <use xlink:href="#m502f122744" x="96.798345" y="103.245567" style="fill: #ff0000; stroke: #ff0000"/>
     <use xlink:href="#m502f122744" x="101.697034" y="98.594667" style="fill: #ff0000; stroke: #ff0000"/>
     <use xlink:href="#m502f122744" x="100.432351" y="106.884883" style="fill: #ff0000; stroke: #ff0000"/>
     <use xlink:href="#m502f122744" x="97.473146" y="111.752949" style="fill: #ff0000; stroke: #ff0000"/>
     <use xlink:href="#m502f122744" x="100.41777" y="94.576093" style="fill: #ff0000; stroke: #ff0000"/>
     <use xlink:href="#m502f122744" x="111.211423" y="134.983967" style="fill: #ff0000; stroke: #ff0000"/>
     <use xlink:href="#m502f122744" x="123.086096" y="127.844921" style="fill: #ff0000; stroke: #ff0000"/>
     <use xlink:href="#m502f122744" x="120.098843" y="126.115617" style="fill: #ff0000; stroke: #ff0000"/>
     <use xlink:href="#m502f122744" x="105.132083" y="144.045513" style="fill: #ff0000; stroke: #ff0000"/>
     <use xlink:href="#m502f122744" x="121.099576" y="135.942762" style="fill: #ff0000; stroke: #ff0000"/>
     <use xlink:href="#m502f122744" x="105.866346" y="127.892085" style="fill: #ff0000; stroke: #ff0000"/>
     <use xlink:href="#m502f122744" x="111.226152" y="109.072997" style="fill: #ff0000; stroke: #ff0000"/>
     <use xlink:href="#m502f122744" x="105.155756" y="119.187727" style="fill: #ff0000; stroke: #ff0000"/>
     <use xlink:href="#m502f122744" x="100.587671" y="132.676744" style="fill: #ff0000; stroke: #ff0000"/>
     <use xlink:href="#m502f122744" x="87.768626" y="124.685834" style="fill: #ff0000; stroke: #ff0000"/>
     <use xlink:href="#m502f122744" x="82.733532" y="111.214708" style="fill: #ff0000; stroke: #ff0000"/>
     <use xlink:href="#m502f122744" x="83.071355" y="110.31569" style="fill: #ff0000; stroke: #ff0000"/>
    </g>
   </g>
   <g id="PathCollection_3">
    <defs>
     <path id="m7726f3d30c" d="M 0 3 
C 0.795609 3 1.55874 2.683901 2.12132 2.12132 
C 2.683901 1.55874 3 0.795609 3 0 
C 3 -0.795609 2.683901 -1.55874 2.12132 -2.12132 
C 1.55874 -2.683901 0.795609 -3 0 -3 
C -0.795609 -3 -1.55874 -2.683901 -2.12132 -2.12132 
C -2.683901 -1.55874 -3 -0.795609 -3 0 
C -3 0.795609 -2.683901 1.55874 -2.12132 2.12132 
C -1.55874 2.683901 -0.795609 3 0 3 
z
" style="stroke: #008000"/>
    </defs>
    <g clip-path="url(#p76a029bad8)">
     <use xlink:href="#m7726f3d30c" x="209.527925" y="244.698088" style="fill: #008000; stroke: #008000"/>
     <use xlink:href="#m7726f3d30c" x="205.151413" y="245.598884" style="fill: #008000; stroke: #008000"/>
     <use xlink:href="#m7726f3d30c" x="253.681427" y="231.444516" style="fill: #008000; stroke: #008000"/>
     <use xlink:href="#m7726f3d30c" x="182.385788" y="261.064399" style="fill: #008000; stroke: #008000"/>
     <use xlink:href="#m7726f3d30c" x="185.281419" y="254.028162" style="fill: #008000; stroke: #008000"/>
     <use xlink:href="#m7726f3d30c" x="176.34631" y="262.492856" style="fill: #008000; stroke: #008000"/>
     <use xlink:href="#m7726f3d30c" x="162.650988" y="259.508958" style="fill: #008000; stroke: #008000"/>
     <use xlink:href="#m7726f3d30c" x="153.646149" y="265.557508" style="fill: #008000; stroke: #008000"/>
     <use xlink:href="#m7726f3d30c" x="150.467982" y="265.379617" style="fill: #008000; stroke: #008000"/>
     <use xlink:href="#m7726f3d30c" x="235.803548" y="234.640752" style="fill: #008000; stroke: #008000"/>
     <use xlink:href="#m7726f3d30c" x="232.336589" y="234.119737" style="fill: #008000; stroke: #008000"/>
     <use xlink:href="#m7726f3d30c" x="230.384641" y="233.228763" style="fill: #008000; stroke: #008000"/>
     <use xlink:href="#m7726f3d30c" x="235.925945" y="236.740456" style="fill: #008000; stroke: #008000"/>
     <use xlink:href="#m7726f3d30c" x="228.265433" y="241.084616" style="fill: #008000; stroke: #008000"/>
     <use xlink:href="#m7726f3d30c" x="228.416354" y="230.268017" style="fill: #008000; stroke: #008000"/>
     <use xlink:href="#m7726f3d30c" x="183.298015" y="266.738769" style="fill: #008000; stroke: #008000"/>
     <use xlink:href="#m7726f3d30c" x="191.176105" y="258.402857" style="fill: #008000; stroke: #008000"/>
     <use xlink:href="#m7726f3d30c" x="192.741211" y="255.879447" style="fill: #008000; stroke: #008000"/>
     <use xlink:href="#m7726f3d30c" x="194.525193" y="254.66803" style="fill: #008000; stroke: #008000"/>
     <use xlink:href="#m7726f3d30c" x="189.351826" y="251.667192" style="fill: #008000; stroke: #008000"/>
     <use xlink:href="#m7726f3d30c" x="182.823379" y="246.281075" style="fill: #008000; stroke: #008000"/>
     <use xlink:href="#m7726f3d30c" x="169.692821" y="267.903089" style="fill: #008000; stroke: #008000"/>
     <use xlink:href="#m7726f3d30c" x="170.605021" y="268.321172" style="fill: #008000; stroke: #008000"/>
     <use xlink:href="#m7726f3d30c" x="167.493864" y="269.97505" style="fill: #008000; stroke: #008000"/>
     <use xlink:href="#m7726f3d30c" x="161.880644" y="267.764122" style="fill: #008000; stroke: #008000"/>
     <use xlink:href="#m7726f3d30c" x="163.009849" y="272.133307" style="fill: #008000; stroke: #008000"/>
     <use xlink:href="#m7726f3d30c" x="156.032003" y="268.763642" style="fill: #008000; stroke: #008000"/>
     <use xlink:href="#m7726f3d30c" x="180.004365" y="252.689519" style="fill: #008000; stroke: #008000"/>
     <use xlink:href="#m7726f3d30c" x="177.760199" y="256.411023" style="fill: #008000; stroke: #008000"/>
     <use xlink:href="#m7726f3d30c" x="170.835233" y="253.274769" style="fill: #008000; stroke: #008000"/>
     <use xlink:href="#m7726f3d30c" x="184.448994" y="247.971904" style="fill: #008000; stroke: #008000"/>
     <use xlink:href="#m7726f3d30c" x="170.133749" y="254.717666" style="fill: #008000; stroke: #008000"/>
    </g>
   </g>
   <g id="PathCollection_4">
    <defs>
     <path id="m654e8e858e" d="M 0 3 
C 0.795609 3 1.55874 2.683901 2.12132 2.12132 
C 2.683901 1.55874 3 0.795609 3 0 
C 3 -0.795609 2.683901 -1.55874 2.12132 -2.12132 
C 1.55874 -2.683901 0.795609 -3 0 -3 
C -0.795609 -3 -1.55874 -2.683901 -2.12132 -2.12132 
C -2.683901 -1.55874 -3 -0.795609 -3 0 
C -3 0.795609 -2.683901 1.55874 -2.12132 2.12132 
C -1.55874 2.683901 -0.795609 3 0 3 
z
" style="stroke: #a52a2a"/>
    </defs>
    <g clip-path="url(#p76a029bad8)">
     <use xlink:href="#m654e8e858e" x="352.87156" y="187.830242" style="fill: #a52a2a; stroke: #a52a2a"/>
     <use xlink:href="#m654e8e858e" x="345.884439" y="187.054799" style="fill: #a52a2a; stroke: #a52a2a"/>
     <use xlink:href="#m654e8e858e" x="332.546833" y="185.956836" style="fill: #a52a2a; stroke: #a52a2a"/>
     <use xlink:href="#m654e8e858e" x="344.155832" y="188.388149" style="fill: #a52a2a; stroke: #a52a2a"/>
     <use xlink:href="#m654e8e858e" x="302.249257" y="188.513957" style="fill: #a52a2a; stroke: #a52a2a"/>
     <use xlink:href="#m654e8e858e" x="352.030771" y="184.133773" style="fill: #a52a2a; stroke: #a52a2a"/>
     <use xlink:href="#m654e8e858e" x="341.461727" y="190.504801" style="fill: #a52a2a; stroke: #a52a2a"/>
     <use xlink:href="#m654e8e858e" x="347.281093" y="189.711934" style="fill: #a52a2a; stroke: #a52a2a"/>
     <use xlink:href="#m654e8e858e" x="301.940984" y="184.836521" style="fill: #a52a2a; stroke: #a52a2a"/>
     <use xlink:href="#m654e8e858e" x="343.147219" y="187.612265" style="fill: #a52a2a; stroke: #a52a2a"/>
     <use xlink:href="#m654e8e858e" x="327.789436" y="193.214432" style="fill: #a52a2a; stroke: #a52a2a"/>
     <use xlink:href="#m654e8e858e" x="331.002387" y="190.458864" style="fill: #a52a2a; stroke: #a52a2a"/>
     <use xlink:href="#m654e8e858e" x="315.833021" y="199.12218" style="fill: #a52a2a; stroke: #a52a2a"/>
     <use xlink:href="#m654e8e858e" x="330.660705" y="194.409021" style="fill: #a52a2a; stroke: #a52a2a"/>
     <use xlink:href="#m654e8e858e" x="307.934341" y="188.213787" style="fill: #a52a2a; stroke: #a52a2a"/>
     <use xlink:href="#m654e8e858e" x="328.037582" y="180.589464" style="fill: #a52a2a; stroke: #a52a2a"/>
     <use xlink:href="#m654e8e858e" x="308.972217" y="194.923173" style="fill: #a52a2a; stroke: #a52a2a"/>
     <use xlink:href="#m654e8e858e" x="326.941858" y="197.383536" style="fill: #a52a2a; stroke: #a52a2a"/>
     <use xlink:href="#m654e8e858e" x="315.974005" y="166.721085" style="fill: #a52a2a; stroke: #a52a2a"/>
     <use xlink:href="#m654e8e858e" x="303.052821" y="170.420083" style="fill: #a52a2a; stroke: #a52a2a"/>
     <use xlink:href="#m654e8e858e" x="296.108338" y="166.814505" style="fill: #a52a2a; stroke: #a52a2a"/>
     <use xlink:href="#m654e8e858e" x="292.309556" y="173.444871" style="fill: #a52a2a; stroke: #a52a2a"/>
     <use xlink:href="#m654e8e858e" x="305.237782" y="172.476256" style="fill: #a52a2a; stroke: #a52a2a"/>
    </g>
   </g>
   <g id="PathCollection_5">
    <defs>
     <path id="m66bf1b8726" d="M 0 3 
C 0.795609 3 1.55874 2.683901 2.12132 2.12132 
C 2.683901 1.55874 3 0.795609 3 0 
C 3 -0.795609 2.683901 -1.55874 2.12132 -2.12132 
C 1.55874 -2.683901 0.795609 -3 0 -3 
C -0.795609 -3 -1.55874 -2.683901 -2.12132 -2.12132 
C -2.683901 -1.55874 -3 -0.795609 -3 0 
C -3 0.795609 -2.683901 1.55874 -2.12132 2.12132 
C -1.55874 2.683901 -0.795609 3 0 3 
z
" style="stroke: #0000ff"/>
    </defs>
    <g clip-path="url(#p76a029bad8)">
     <use xlink:href="#m66bf1b8726" x="153.53349" y="62.325091" style="fill: #0000ff; stroke: #0000ff"/>
     <use xlink:href="#m66bf1b8726" x="159.145255" y="62.665373" style="fill: #0000ff; stroke: #0000ff"/>
     <use xlink:href="#m66bf1b8726" x="163.481165" y="57.108216" style="fill: #0000ff; stroke: #0000ff"/>
     <use xlink:href="#m66bf1b8726" x="161.375801" y="64.940576" style="fill: #0000ff; stroke: #0000ff"/>
     <use xlink:href="#m66bf1b8726" x="155.510886" y="91.606191" style="fill: #0000ff; stroke: #0000ff"/>
     <use xlink:href="#m66bf1b8726" x="155.512861" y="53.568" style="fill: #0000ff; stroke: #0000ff"/>
     <use xlink:href="#m66bf1b8726" x="147.85843" y="70.622124" style="fill: #0000ff; stroke: #0000ff"/>
     <use xlink:href="#m66bf1b8726" x="199.719834" y="99.183828" style="fill: #0000ff; stroke: #0000ff"/>
     <use xlink:href="#m66bf1b8726" x="191.04609" y="101.455078" style="fill: #0000ff; stroke: #0000ff"/>
     <use xlink:href="#m66bf1b8726" x="147.764494" y="115.337973" style="fill: #0000ff; stroke: #0000ff"/>
     <use xlink:href="#m66bf1b8726" x="210.731704" y="92.384603" style="fill: #0000ff; stroke: #0000ff"/>
     <use xlink:href="#m66bf1b8726" x="219.161006" y="89.660766" style="fill: #0000ff; stroke: #0000ff"/>
     <use xlink:href="#m66bf1b8726" x="192.894238" y="99.131583" style="fill: #0000ff; stroke: #0000ff"/>
     <use xlink:href="#m66bf1b8726" x="196.11384" y="81.231956" style="fill: #0000ff; stroke: #0000ff"/>
     <use xlink:href="#m66bf1b8726" x="201.419979" y="128.970372" style="fill: #0000ff; stroke: #0000ff"/>
     <use xlink:href="#m66bf1b8726" x="196.715142" y="115.916179" style="fill: #0000ff; stroke: #0000ff"/>
     <use xlink:href="#m66bf1b8726" x="194.30206" y="109.017168" style="fill: #0000ff; stroke: #0000ff"/>
     <use xlink:href="#m66bf1b8726" x="188.5527" y="123.030552" style="fill: #0000ff; stroke: #0000ff"/>
     <use xlink:href="#m66bf1b8726" x="188.9079" y="119.825685" style="fill: #0000ff; stroke: #0000ff"/>
     <use xlink:href="#m66bf1b8726" x="178.098587" y="134.416705" style="fill: #0000ff; stroke: #0000ff"/>
     <use xlink:href="#m66bf1b8726" x="190.671057" y="69.522478" style="fill: #0000ff; stroke: #0000ff"/>
     <use xlink:href="#m66bf1b8726" x="179.0453" y="63.790767" style="fill: #0000ff; stroke: #0000ff"/>
     <use xlink:href="#m66bf1b8726" x="178.574345" y="56.297967" style="fill: #0000ff; stroke: #0000ff"/>
     <use xlink:href="#m66bf1b8726" x="168.862408" y="63.164523" style="fill: #0000ff; stroke: #0000ff"/>
     <use xlink:href="#m66bf1b8726" x="167.766727" y="65.195445" style="fill: #0000ff; stroke: #0000ff"/>
     <use xlink:href="#m66bf1b8726" x="162.037877" y="64.580214" style="fill: #0000ff; stroke: #0000ff"/>
     <use xlink:href="#m66bf1b8726" x="177.526848" y="119.975806" style="fill: #0000ff; stroke: #0000ff"/>
     <use xlink:href="#m66bf1b8726" x="173.640457" y="100.906509" style="fill: #0000ff; stroke: #0000ff"/>
     <use xlink:href="#m66bf1b8726" x="173.500653" y="99.70399" style="fill: #0000ff; stroke: #0000ff"/>
     <use xlink:href="#m66bf1b8726" x="169.602092" y="101.415345" style="fill: #0000ff; stroke: #0000ff"/>
     <use xlink:href="#m66bf1b8726" x="171.381233" y="97.656672" style="fill: #0000ff; stroke: #0000ff"/>
     <use xlink:href="#m66bf1b8726" x="173.475898" y="83.95473" style="fill: #0000ff; stroke: #0000ff"/>
    </g>
   </g>
   <g id="PathCollection_6">
    <defs>
     <path id="mf2589ad61f" d="M 0 3 
C 0.795609 3 1.55874 2.683901 2.12132 2.12132 
C 2.683901 1.55874 3 0.795609 3 0 
C 3 -0.795609 2.683901 -1.55874 2.12132 -2.12132 
C 1.55874 -2.683901 0.795609 -3 0 -3 
C -0.795609 -3 -1.55874 -2.683901 -2.12132 -2.12132 
C -2.683901 -1.55874 -3 -0.795609 -3 0 
C -3 0.795609 -2.683901 1.55874 -2.12132 2.12132 
C -1.55874 2.683901 -0.795609 3 0 3 
z
" style="stroke: #00bfbf"/>
    </defs>
    <g clip-path="url(#p76a029bad8)">
     <use xlink:href="#mf2589ad61f" x="107.59903" y="278.008843" style="fill: #00bfbf; stroke: #00bfbf"/>
     <use xlink:href="#mf2589ad61f" x="111.216835" y="277.846877" style="fill: #00bfbf; stroke: #00bfbf"/>
     <use xlink:href="#mf2589ad61f" x="109.006247" y="284.371527" style="fill: #00bfbf; stroke: #00bfbf"/>
     <use xlink:href="#mf2589ad61f" x="104.464873" y="275.948648" style="fill: #00bfbf; stroke: #00bfbf"/>
     <use xlink:href="#mf2589ad61f" x="105.947701" y="278.06578" style="fill: #00bfbf; stroke: #00bfbf"/>
     <use xlink:href="#mf2589ad61f" x="104.56819" y="276.484813" style="fill: #00bfbf; stroke: #00bfbf"/>
     <use xlink:href="#mf2589ad61f" x="99.094273" y="279.844486" style="fill: #00bfbf; stroke: #00bfbf"/>
     <use xlink:href="#mf2589ad61f" x="102.808574" y="276.7987" style="fill: #00bfbf; stroke: #00bfbf"/>
     <use xlink:href="#mf2589ad61f" x="95.651807" y="280.509718" style="fill: #00bfbf; stroke: #00bfbf"/>
     <use xlink:href="#mf2589ad61f" x="90.955632" y="286.892701" style="fill: #00bfbf; stroke: #00bfbf"/>
     <use xlink:href="#mf2589ad61f" x="90.284471" y="280.721097" style="fill: #00bfbf; stroke: #00bfbf"/>
     <use xlink:href="#mf2589ad61f" x="81.692645" y="270.941469" style="fill: #00bfbf; stroke: #00bfbf"/>
     <use xlink:href="#mf2589ad61f" x="110.912623" y="288.271528" style="fill: #00bfbf; stroke: #00bfbf"/>
     <use xlink:href="#mf2589ad61f" x="121.331929" y="278.19089" style="fill: #00bfbf; stroke: #00bfbf"/>
     <use xlink:href="#mf2589ad61f" x="120.93403" y="280.315143" style="fill: #00bfbf; stroke: #00bfbf"/>
     <use xlink:href="#mf2589ad61f" x="114.202975" y="287.759631" style="fill: #00bfbf; stroke: #00bfbf"/>
     <use xlink:href="#mf2589ad61f" x="100.023502" y="295.488" style="fill: #00bfbf; stroke: #00bfbf"/>
     <use xlink:href="#mf2589ad61f" x="103.349505" y="290.801505" style="fill: #00bfbf; stroke: #00bfbf"/>
     <use xlink:href="#mf2589ad61f" x="93.245536" y="288.966624" style="fill: #00bfbf; stroke: #00bfbf"/>
     <use xlink:href="#mf2589ad61f" x="111.421744" y="290.926016" style="fill: #00bfbf; stroke: #00bfbf"/>
    </g>
   </g>
   <g id="PathCollection_7">
    <defs>
     <path id="m661a52b95d" d="M 0 3 
C 0.795609 3 1.55874 2.683901 2.12132 2.12132 
C 2.683901 1.55874 3 0.795609 3 0 
C 3 -0.795609 2.683901 -1.55874 2.12132 -2.12132 
C 1.55874 -2.683901 0.795609 -3 0 -3 
C -0.795609 -3 -1.55874 -2.683901 -2.12132 -2.12132 
C -2.683901 -1.55874 -3 -0.795609 -3 0 
C -3 0.795609 -2.683901 1.55874 -2.12132 2.12132 
C -1.55874 2.683901 -0.795609 3 0 3 
z
" style="stroke: #bf00bf"/>
    </defs>
    <g clip-path="url(#p76a029bad8)">
     <use xlink:href="#m661a52b95d" x="278.755605" y="226.353567" style="fill: #bf00bf; stroke: #bf00bf"/>
     <use xlink:href="#m661a52b95d" x="261.183764" y="231.526361" style="fill: #bf00bf; stroke: #bf00bf"/>
     <use xlink:href="#m661a52b95d" x="255.421165" y="226.613888" style="fill: #bf00bf; stroke: #bf00bf"/>
     <use xlink:href="#m661a52b95d" x="305.603746" y="126.173639" style="fill: #bf00bf; stroke: #bf00bf"/>
     <use xlink:href="#m661a52b95d" x="304.749836" y="124.871635" style="fill: #bf00bf; stroke: #bf00bf"/>
     <use xlink:href="#m661a52b95d" x="300.146858" y="120.912842" style="fill: #bf00bf; stroke: #bf00bf"/>
     <use xlink:href="#m661a52b95d" x="301.807485" y="125.437771" style="fill: #bf00bf; stroke: #bf00bf"/>
     <use xlink:href="#m661a52b95d" x="301.850675" y="121.423282" style="fill: #bf00bf; stroke: #bf00bf"/>
     <use xlink:href="#m661a52b95d" x="294.397837" y="126.225601" style="fill: #bf00bf; stroke: #bf00bf"/>
     <use xlink:href="#m661a52b95d" x="254.496609" y="219.993201" style="fill: #bf00bf; stroke: #bf00bf"/>
     <use xlink:href="#m661a52b95d" x="253.308702" y="221.622897" style="fill: #bf00bf; stroke: #bf00bf"/>
     <use xlink:href="#m661a52b95d" x="256.007978" y="220.409326" style="fill: #bf00bf; stroke: #bf00bf"/>
     <use xlink:href="#m661a52b95d" x="249.385745" y="214.944219" style="fill: #bf00bf; stroke: #bf00bf"/>
     <use xlink:href="#m661a52b95d" x="248.642163" y="223.725923" style="fill: #bf00bf; stroke: #bf00bf"/>
     <use xlink:href="#m661a52b95d" x="243.555736" y="218.19439" style="fill: #bf00bf; stroke: #bf00bf"/>
     <use xlink:href="#m661a52b95d" x="288.457275" y="180.708499" style="fill: #bf00bf; stroke: #bf00bf"/>
     <use xlink:href="#m661a52b95d" x="295.266432" y="184.998941" style="fill: #bf00bf; stroke: #bf00bf"/>
     <use xlink:href="#m661a52b95d" x="302.157052" y="188.131189" style="fill: #bf00bf; stroke: #bf00bf"/>
     <use xlink:href="#m661a52b95d" x="292.069759" y="182.445699" style="fill: #bf00bf; stroke: #bf00bf"/>
     <use xlink:href="#m661a52b95d" x="286.533726" y="189.347986" style="fill: #bf00bf; stroke: #bf00bf"/>
     <use xlink:href="#m661a52b95d" x="293.656553" y="186.023269" style="fill: #bf00bf; stroke: #bf00bf"/>
     <use xlink:href="#m661a52b95d" x="283.970329" y="188.858831" style="fill: #bf00bf; stroke: #bf00bf"/>
     <use xlink:href="#m661a52b95d" x="287.310279" y="187.953927" style="fill: #bf00bf; stroke: #bf00bf"/>
     <use xlink:href="#m661a52b95d" x="285.215583" y="186.904804" style="fill: #bf00bf; stroke: #bf00bf"/>
     <use xlink:href="#m661a52b95d" x="272.687109" y="183.27362" style="fill: #bf00bf; stroke: #bf00bf"/>
     <use xlink:href="#m661a52b95d" x="277.658285" y="187.568818" style="fill: #bf00bf; stroke: #bf00bf"/>
     <use xlink:href="#m661a52b95d" x="265.370993" y="188.973533" style="fill: #bf00bf; stroke: #bf00bf"/>
     <use xlink:href="#m661a52b95d" x="270.270539" y="192.153336" style="fill: #bf00bf; stroke: #bf00bf"/>
     <use xlink:href="#m661a52b95d" x="268.333056" y="202.919984" style="fill: #bf00bf; stroke: #bf00bf"/>
     <use xlink:href="#m661a52b95d" x="268.641181" y="197.796314" style="fill: #bf00bf; stroke: #bf00bf"/>
     <use xlink:href="#m661a52b95d" x="238.624058" y="201.093933" style="fill: #bf00bf; stroke: #bf00bf"/>
     <use xlink:href="#m661a52b95d" x="283.740535" y="193.925136" style="fill: #bf00bf; stroke: #bf00bf"/>
     <use xlink:href="#m661a52b95d" x="256.193805" y="202.680605" style="fill: #bf00bf; stroke: #bf00bf"/>
     <use xlink:href="#m661a52b95d" x="272.449144" y="201.724584" style="fill: #bf00bf; stroke: #bf00bf"/>
     <use xlink:href="#m661a52b95d" x="253.777903" y="201.489173" style="fill: #bf00bf; stroke: #bf00bf"/>
    </g>
   </g>
   <g id="matplotlib.axis_1">
    <g id="xtick_1">
     <g id="line2d_1">
      <defs>
       <path id="mfeb0536b6b" d="M 0 0 
L 0 3.5 
" style="stroke: #000000; stroke-width: 0.8"/>
      </defs>
      <g>
       <use xlink:href="#mfeb0536b6b" x="78.988869" y="307.584" style="stroke: #000000; stroke-width: 0.8"/>
      </g>
     </g>
     <g id="text_1">
      <!-- −75 -->
      <g transform="translate(68.436525 322.182437) scale(0.1 -0.1)">
       <defs>
        <path id="DejaVuSans-2212" d="M 678 2272 
L 4684 2272 
L 4684 1741 
L 678 1741 
L 678 2272 
z
" transform="scale(0.015625)"/>
        <path id="DejaVuSans-37" d="M 525 4666 
L 3525 4666 
L 3525 4397 
L 1831 0 
L 1172 0 
L 2766 4134 
L 525 4134 
L 525 4666 
z
" transform="scale(0.015625)"/>
        <path id="DejaVuSans-35" d="M 691 4666 
L 3169 4666 
L 3169 4134 
L 1269 4134 
L 1269 2991 
Q 1406 3038 1543 3061 
Q 1681 3084 1819 3084 
Q 2600 3084 3056 2656 
Q 3513 2228 3513 1497 
Q 3513 744 3044 326 
Q 2575 -91 1722 -91 
Q 1428 -91 1123 -41 
Q 819 9 494 109 
L 494 744 
Q 775 591 1075 516 
Q 1375 441 1709 441 
Q 2250 441 2565 725 
Q 2881 1009 2881 1497 
Q 2881 1984 2565 2268 
Q 2250 2553 1709 2553 
Q 1456 2553 1204 2497 
Q 953 2441 691 2322 
L 691 4666 
z
" transform="scale(0.015625)"/>
       </defs>
       <use xlink:href="#DejaVuSans-2212"/>
       <use xlink:href="#DejaVuSans-37" x="83.789062"/>
       <use xlink:href="#DejaVuSans-35" x="147.412109"/>
      </g>
     </g>
    </g>
    <g id="xtick_2">
     <g id="line2d_2">
      <g>
       <use xlink:href="#mfeb0536b6b" x="125.601431" y="307.584" style="stroke: #000000; stroke-width: 0.8"/>
      </g>
     </g>
     <g id="text_2">
      <!-- −50 -->
      <g transform="translate(115.049087 322.182437) scale(0.1 -0.1)">
       <defs>
        <path id="DejaVuSans-30" d="M 2034 4250 
Q 1547 4250 1301 3770 
Q 1056 3291 1056 2328 
Q 1056 1369 1301 889 
Q 1547 409 2034 409 
Q 2525 409 2770 889 
Q 3016 1369 3016 2328 
Q 3016 3291 2770 3770 
Q 2525 4250 2034 4250 
z
M 2034 4750 
Q 2819 4750 3233 4129 
Q 3647 3509 3647 2328 
Q 3647 1150 3233 529 
Q 2819 -91 2034 -91 
Q 1250 -91 836 529 
Q 422 1150 422 2328 
Q 422 3509 836 4129 
Q 1250 4750 2034 4750 
z
" transform="scale(0.015625)"/>
       </defs>
       <use xlink:href="#DejaVuSans-2212"/>
       <use xlink:href="#DejaVuSans-35" x="83.789062"/>
       <use xlink:href="#DejaVuSans-30" x="147.412109"/>
      </g>
     </g>
    </g>
    <g id="xtick_3">
     <g id="line2d_3">
      <g>
       <use xlink:href="#mfeb0536b6b" x="172.213992" y="307.584" style="stroke: #000000; stroke-width: 0.8"/>
      </g>
     </g>
     <g id="text_3">
      <!-- −25 -->
      <g transform="translate(161.661649 322.182437) scale(0.1 -0.1)">
       <defs>
        <path id="DejaVuSans-32" d="M 1228 531 
L 3431 531 
L 3431 0 
L 469 0 
L 469 531 
Q 828 903 1448 1529 
Q 2069 2156 2228 2338 
Q 2531 2678 2651 2914 
Q 2772 3150 2772 3378 
Q 2772 3750 2511 3984 
Q 2250 4219 1831 4219 
Q 1534 4219 1204 4116 
Q 875 4013 500 3803 
L 500 4441 
Q 881 4594 1212 4672 
Q 1544 4750 1819 4750 
Q 2544 4750 2975 4387 
Q 3406 4025 3406 3419 
Q 3406 3131 3298 2873 
Q 3191 2616 2906 2266 
Q 2828 2175 2409 1742 
Q 1991 1309 1228 531 
z
" transform="scale(0.015625)"/>
       </defs>
       <use xlink:href="#DejaVuSans-2212"/>
       <use xlink:href="#DejaVuSans-32" x="83.789062"/>
       <use xlink:href="#DejaVuSans-35" x="147.412109"/>
      </g>
     </g>
    </g>
    <g id="xtick_4">
     <g id="line2d_4">
      <g>
       <use xlink:href="#mfeb0536b6b" x="218.826554" y="307.584" style="stroke: #000000; stroke-width: 0.8"/>
      </g>
     </g>
     <g id="text_4">
      <!-- 0 -->
      <g transform="translate(215.645304 322.182437) scale(0.1 -0.1)">
       <use xlink:href="#DejaVuSans-30"/>
      </g>
     </g>
    </g>
    <g id="xtick_5">
     <g id="line2d_5">
      <g>
       <use xlink:href="#mfeb0536b6b" x="265.439116" y="307.584" style="stroke: #000000; stroke-width: 0.8"/>
      </g>
     </g>
     <g id="text_5">
      <!-- 25 -->
      <g transform="translate(259.076616 322.182437) scale(0.1 -0.1)">
       <use xlink:href="#DejaVuSans-32"/>
       <use xlink:href="#DejaVuSans-35" x="63.623047"/>
      </g>
     </g>
    </g>
    <g id="xtick_6">
     <g id="line2d_6">
      <g>
       <use xlink:href="#mfeb0536b6b" x="312.051677" y="307.584" style="stroke: #000000; stroke-width: 0.8"/>
      </g>
     </g>
     <g id="text_6">
      <!-- 50 -->
      <g transform="translate(305.689177 322.182437) scale(0.1 -0.1)">
       <use xlink:href="#DejaVuSans-35"/>
       <use xlink:href="#DejaVuSans-30" x="63.623047"/>
      </g>
     </g>
    </g>
    <g id="xtick_7">
     <g id="line2d_7">
      <g>
       <use xlink:href="#mfeb0536b6b" x="358.664239" y="307.584" style="stroke: #000000; stroke-width: 0.8"/>
      </g>
     </g>
     <g id="text_7">
      <!-- 75 -->
      <g transform="translate(352.301739 322.182437) scale(0.1 -0.1)">
       <use xlink:href="#DejaVuSans-37"/>
       <use xlink:href="#DejaVuSans-35" x="63.623047"/>
      </g>
     </g>
    </g>
    <g id="xtick_8">
     <g id="line2d_8">
      <g>
       <use xlink:href="#mfeb0536b6b" x="405.2768" y="307.584" style="stroke: #000000; stroke-width: 0.8"/>
      </g>
     </g>
     <g id="text_8">
      <!-- 100 -->
      <g transform="translate(395.73305 322.182437) scale(0.1 -0.1)">
       <defs>
        <path id="DejaVuSans-31" d="M 794 531 
L 1825 531 
L 1825 4091 
L 703 3866 
L 703 4441 
L 1819 4666 
L 2450 4666 
L 2450 531 
L 3481 531 
L 3481 0 
L 794 0 
L 794 531 
z
" transform="scale(0.015625)"/>
       </defs>
       <use xlink:href="#DejaVuSans-31"/>
       <use xlink:href="#DejaVuSans-30" x="63.623047"/>
       <use xlink:href="#DejaVuSans-30" x="127.246094"/>
      </g>
     </g>
    </g>
    <g id="text_9">
     <!-- Principal Component 1 -->
     <g transform="translate(179.377969 335.860562) scale(0.1 -0.1)">
      <defs>
       <path id="DejaVuSans-Oblique-50" d="M 1081 4666 
L 2541 4666 
Q 3178 4666 3512 4369 
Q 3847 4072 3847 3500 
Q 3847 2731 3353 2303 
Q 2859 1875 1966 1875 
L 1172 1875 
L 806 0 
L 172 0 
L 1081 4666 
z
M 1613 4147 
L 1275 2394 
L 2069 2394 
Q 2606 2394 2893 2669 
Q 3181 2944 3181 3456 
Q 3181 3784 2986 3965 
Q 2791 4147 2438 4147 
L 1613 4147 
z
" transform="scale(0.015625)"/>
       <path id="DejaVuSans-Oblique-72" d="M 2853 2969 
Q 2766 3016 2653 3041 
Q 2541 3066 2413 3066 
Q 1953 3066 1609 2717 
Q 1266 2369 1153 1784 
L 800 0 
L 225 0 
L 909 3500 
L 1484 3500 
L 1375 2956 
Q 1603 3259 1920 3421 
Q 2238 3584 2597 3584 
Q 2691 3584 2781 3573 
Q 2872 3563 2963 3538 
L 2853 2969 
z
" transform="scale(0.015625)"/>
       <path id="DejaVuSans-Oblique-69" d="M 1172 4863 
L 1747 4863 
L 1606 4134 
L 1031 4134 
L 1172 4863 
z
M 909 3500 
L 1484 3500 
L 800 0 
L 225 0 
L 909 3500 
z
" transform="scale(0.015625)"/>
       <path id="DejaVuSans-Oblique-6e" d="M 3566 2113 
L 3156 0 
L 2578 0 
L 2988 2091 
Q 3016 2238 3031 2350 
Q 3047 2463 3047 2528 
Q 3047 2791 2881 2937 
Q 2716 3084 2419 3084 
Q 1956 3084 1622 2776 
Q 1288 2469 1184 1941 
L 800 0 
L 225 0 
L 903 3500 
L 1478 3500 
L 1363 2950 
Q 1603 3253 1940 3418 
Q 2278 3584 2650 3584 
Q 3113 3584 3367 3334 
Q 3622 3084 3622 2631 
Q 3622 2519 3608 2391 
Q 3594 2263 3566 2113 
z
" transform="scale(0.015625)"/>
       <path id="DejaVuSans-Oblique-63" d="M 3431 3366 
L 3316 2797 
Q 3109 2947 2876 3022 
Q 2644 3097 2394 3097 
Q 2119 3097 1870 3000 
Q 1622 2903 1453 2725 
Q 1184 2453 1037 2087 
Q 891 1722 891 1331 
Q 891 859 1127 628 
Q 1363 397 1844 397 
Q 2081 397 2348 469 
Q 2616 541 2906 684 
L 2797 116 
Q 2547 13 2283 -39 
Q 2019 -91 1741 -91 
Q 1044 -91 669 257 
Q 294 606 294 1253 
Q 294 1797 489 2255 
Q 684 2713 1069 3078 
Q 1331 3328 1684 3456 
Q 2038 3584 2456 3584 
Q 2700 3584 2940 3529 
Q 3181 3475 3431 3366 
z
" transform="scale(0.015625)"/>
       <path id="DejaVuSans-Oblique-70" d="M 3175 2156 
Q 3175 2616 2975 2859 
Q 2775 3103 2400 3103 
Q 2144 3103 1911 2972 
Q 1678 2841 1497 2591 
Q 1319 2344 1212 1994 
Q 1106 1644 1106 1300 
Q 1106 863 1306 627 
Q 1506 391 1875 391 
Q 2147 391 2380 519 
Q 2613 647 2778 891 
Q 2956 1147 3065 1494 
Q 3175 1841 3175 2156 
z
M 1394 2969 
Q 1625 3272 1939 3428 
Q 2253 3584 2638 3584 
Q 3175 3584 3472 3232 
Q 3769 2881 3769 2247 
Q 3769 1728 3584 1258 
Q 3400 788 3053 416 
Q 2822 169 2531 39 
Q 2241 -91 1919 -91 
Q 1547 -91 1294 64 
Q 1041 219 916 525 
L 556 -1331 
L -19 -1331 
L 922 3500 
L 1497 3500 
L 1394 2969 
z
" transform="scale(0.015625)"/>
       <path id="DejaVuSans-Oblique-61" d="M 3438 1997 
L 3047 0 
L 2472 0 
L 2578 531 
Q 2325 219 2001 64 
Q 1678 -91 1281 -91 
Q 834 -91 548 182 
Q 263 456 263 884 
Q 263 1497 752 1853 
Q 1241 2209 2100 2209 
L 2900 2209 
L 2931 2363 
Q 2938 2388 2941 2417 
Q 2944 2447 2944 2509 
Q 2944 2788 2717 2942 
Q 2491 3097 2081 3097 
Q 1800 3097 1504 3025 
Q 1209 2953 897 2809 
L 997 3341 
Q 1322 3463 1633 3523 
Q 1944 3584 2234 3584 
Q 2853 3584 3176 3315 
Q 3500 3047 3500 2534 
Q 3500 2431 3484 2292 
Q 3469 2153 3438 1997 
z
M 2816 1759 
L 2241 1759 
Q 1534 1759 1195 1570 
Q 856 1381 856 984 
Q 856 709 1029 553 
Q 1203 397 1509 397 
Q 1978 397 2328 733 
Q 2678 1069 2791 1631 
L 2816 1759 
z
" transform="scale(0.015625)"/>
       <path id="DejaVuSans-Oblique-6c" d="M 1172 4863 
L 1747 4863 
L 800 0 
L 225 0 
L 1172 4863 
z
" transform="scale(0.015625)"/>
       <path id="DejaVuSans-Oblique-20" transform="scale(0.015625)"/>
       <path id="DejaVuSans-Oblique-43" d="M 4447 4306 
L 4319 3641 
Q 4019 3944 3683 4091 
Q 3347 4238 2956 4238 
Q 2422 4238 2017 3981 
Q 1613 3725 1319 3200 
Q 1131 2863 1032 2486 
Q 934 2109 934 1728 
Q 934 1091 1264 756 
Q 1594 422 2222 422 
Q 2656 422 3056 561 
Q 3456 700 3834 978 
L 3688 231 
Q 3316 72 2936 -9 
Q 2556 -91 2175 -91 
Q 1278 -91 773 396 
Q 269 884 269 1753 
Q 269 2309 461 2846 
Q 653 3384 1013 3828 
Q 1394 4300 1883 4525 
Q 2372 4750 3022 4750 
Q 3422 4750 3780 4639 
Q 4138 4528 4447 4306 
z
" transform="scale(0.015625)"/>
       <path id="DejaVuSans-Oblique-6f" d="M 1625 -91 
Q 1009 -91 651 289 
Q 294 669 294 1325 
Q 294 1706 417 2101 
Q 541 2497 738 2766 
Q 1047 3184 1428 3384 
Q 1809 3584 2291 3584 
Q 2888 3584 3255 3212 
Q 3622 2841 3622 2241 
Q 3622 1825 3500 1412 
Q 3378 1000 3181 728 
Q 2875 309 2494 109 
Q 2113 -91 1625 -91 
z
M 891 1344 
Q 891 869 1089 633 
Q 1288 397 1691 397 
Q 2269 397 2648 901 
Q 3028 1406 3028 2181 
Q 3028 2634 2825 2865 
Q 2622 3097 2228 3097 
Q 1903 3097 1650 2945 
Q 1397 2794 1197 2484 
Q 1050 2253 970 1956 
Q 891 1659 891 1344 
z
" transform="scale(0.015625)"/>
       <path id="DejaVuSans-Oblique-6d" d="M 5747 2113 
L 5338 0 
L 4763 0 
L 5166 2094 
Q 5191 2228 5203 2325 
Q 5216 2422 5216 2491 
Q 5216 2772 5059 2928 
Q 4903 3084 4622 3084 
Q 4203 3084 3875 2770 
Q 3547 2456 3450 1953 
L 3066 0 
L 2491 0 
L 2900 2094 
Q 2925 2209 2937 2307 
Q 2950 2406 2950 2484 
Q 2950 2769 2794 2926 
Q 2638 3084 2363 3084 
Q 1938 3084 1609 2770 
Q 1281 2456 1184 1953 
L 800 0 
L 225 0 
L 909 3500 
L 1484 3500 
L 1375 2956 
Q 1609 3263 1923 3423 
Q 2238 3584 2597 3584 
Q 2978 3584 3223 3384 
Q 3469 3184 3519 2828 
Q 3781 3197 4126 3390 
Q 4472 3584 4856 3584 
Q 5306 3584 5551 3325 
Q 5797 3066 5797 2591 
Q 5797 2488 5784 2364 
Q 5772 2241 5747 2113 
z
" transform="scale(0.015625)"/>
       <path id="DejaVuSans-Oblique-65" d="M 3078 2063 
Q 3088 2113 3092 2166 
Q 3097 2219 3097 2272 
Q 3097 2653 2873 2875 
Q 2650 3097 2266 3097 
Q 1838 3097 1509 2826 
Q 1181 2556 1013 2059 
L 3078 2063 
z
M 3578 1613 
L 903 1613 
Q 884 1494 878 1425 
Q 872 1356 872 1306 
Q 872 872 1139 634 
Q 1406 397 1894 397 
Q 2269 397 2603 481 
Q 2938 566 3225 728 
L 3116 159 
Q 2806 34 2476 -28 
Q 2147 -91 1806 -91 
Q 1078 -91 686 257 
Q 294 606 294 1247 
Q 294 1794 489 2264 
Q 684 2734 1063 3103 
Q 1306 3334 1642 3459 
Q 1978 3584 2356 3584 
Q 2950 3584 3301 3228 
Q 3653 2872 3653 2272 
Q 3653 2128 3634 1964 
Q 3616 1800 3578 1613 
z
" transform="scale(0.015625)"/>
       <path id="DejaVuSans-Oblique-74" d="M 2706 3500 
L 2619 3053 
L 1472 3053 
L 1100 1153 
Q 1081 1047 1072 975 
Q 1063 903 1063 863 
Q 1063 663 1183 572 
Q 1303 481 1569 481 
L 2150 481 
L 2053 0 
L 1503 0 
Q 991 0 739 200 
Q 488 400 488 806 
Q 488 878 497 964 
Q 506 1050 525 1153 
L 897 3053 
L 409 3053 
L 500 3500 
L 978 3500 
L 1172 4494 
L 1747 4494 
L 1556 3500 
L 2706 3500 
z
" transform="scale(0.015625)"/>
       <path id="DejaVuSans-Oblique-31" d="M 416 531 
L 1447 531 
L 2144 4122 
L 978 3897 
L 1088 4441 
L 2247 4666 
L 2881 4666 
L 2075 531 
L 3103 531 
L 3003 0 
L 313 0 
L 416 531 
z
" transform="scale(0.015625)"/>
      </defs>
      <use xlink:href="#DejaVuSans-Oblique-50"/>
      <use xlink:href="#DejaVuSans-Oblique-72" x="60.302734"/>
      <use xlink:href="#DejaVuSans-Oblique-69" x="101.416016"/>
      <use xlink:href="#DejaVuSans-Oblique-6e" x="129.199219"/>
      <use xlink:href="#DejaVuSans-Oblique-63" x="192.578125"/>
      <use xlink:href="#DejaVuSans-Oblique-69" x="247.558594"/>
      <use xlink:href="#DejaVuSans-Oblique-70" x="275.341797"/>
      <use xlink:href="#DejaVuSans-Oblique-61" x="338.818359"/>
      <use xlink:href="#DejaVuSans-Oblique-6c" x="400.097656"/>
      <use xlink:href="#DejaVuSans-Oblique-20" x="427.880859"/>
      <use xlink:href="#DejaVuSans-Oblique-43" x="459.667969"/>
      <use xlink:href="#DejaVuSans-Oblique-6f" x="529.492188"/>
      <use xlink:href="#DejaVuSans-Oblique-6d" x="590.673828"/>
      <use xlink:href="#DejaVuSans-Oblique-70" x="688.085938"/>
      <use xlink:href="#DejaVuSans-Oblique-6f" x="751.5625"/>
      <use xlink:href="#DejaVuSans-Oblique-6e" x="812.744141"/>
      <use xlink:href="#DejaVuSans-Oblique-65" x="876.123047"/>
      <use xlink:href="#DejaVuSans-Oblique-6e" x="937.646484"/>
      <use xlink:href="#DejaVuSans-Oblique-74" x="1001.025391"/>
      <use xlink:href="#DejaVuSans-Oblique-20" x="1040.234375"/>
      <use xlink:href="#DejaVuSans-Oblique-31" x="1072.021484"/>
     </g>
    </g>
   </g>
   <g id="matplotlib.axis_2">
    <g id="ytick_1">
     <g id="line2d_9">
      <defs>
       <path id="mb5a6644ec3" d="M 0 0 
L -3.5 0 
" style="stroke: #000000; stroke-width: 0.8"/>
      </defs>
      <g>
       <use xlink:href="#mb5a6644ec3" x="57.6" y="268.204054" style="stroke: #000000; stroke-width: 0.8"/>
      </g>
     </g>
     <g id="text_10">
      <!-- −40 -->
      <g transform="translate(29.495313 272.003273) scale(0.1 -0.1)">
       <defs>
        <path id="DejaVuSans-34" d="M 2419 4116 
L 825 1625 
L 2419 1625 
L 2419 4116 
z
M 2253 4666 
L 3047 4666 
L 3047 1625 
L 3713 1625 
L 3713 1100 
L 3047 1100 
L 3047 0 
L 2419 0 
L 2419 1100 
L 313 1100 
L 313 1709 
L 2253 4666 
z
" transform="scale(0.015625)"/>
       </defs>
       <use xlink:href="#DejaVuSans-2212"/>
       <use xlink:href="#DejaVuSans-34" x="83.789062"/>
       <use xlink:href="#DejaVuSans-30" x="147.412109"/>
      </g>
     </g>
    </g>
    <g id="ytick_2">
     <g id="line2d_10">
      <g>
       <use xlink:href="#mb5a6644ec3" x="57.6" y="225.2147" style="stroke: #000000; stroke-width: 0.8"/>
      </g>
     </g>
     <g id="text_11">
      <!-- −20 -->
      <g transform="translate(29.495313 229.013918) scale(0.1 -0.1)">
       <use xlink:href="#DejaVuSans-2212"/>
       <use xlink:href="#DejaVuSans-32" x="83.789062"/>
       <use xlink:href="#DejaVuSans-30" x="147.412109"/>
      </g>
     </g>
    </g>
    <g id="ytick_3">
     <g id="line2d_11">
      <g>
       <use xlink:href="#mb5a6644ec3" x="57.6" y="182.225345" style="stroke: #000000; stroke-width: 0.8"/>
      </g>
     </g>
     <g id="text_12">
      <!-- 0 -->
      <g transform="translate(44.2375 186.024564) scale(0.1 -0.1)">
       <use xlink:href="#DejaVuSans-30"/>
      </g>
     </g>
    </g>
    <g id="ytick_4">
     <g id="line2d_12">
      <g>
       <use xlink:href="#mb5a6644ec3" x="57.6" y="139.235991" style="stroke: #000000; stroke-width: 0.8"/>
      </g>
     </g>
     <g id="text_13">
      <!-- 20 -->
      <g transform="translate(37.875 143.035209) scale(0.1 -0.1)">
       <use xlink:href="#DejaVuSans-32"/>
       <use xlink:href="#DejaVuSans-30" x="63.623047"/>
      </g>
     </g>
    </g>
    <g id="ytick_5">
     <g id="line2d_13">
      <g>
       <use xlink:href="#mb5a6644ec3" x="57.6" y="96.246636" style="stroke: #000000; stroke-width: 0.8"/>
      </g>
     </g>
     <g id="text_14">
      <!-- 40 -->
      <g transform="translate(37.875 100.045855) scale(0.1 -0.1)">
       <use xlink:href="#DejaVuSans-34"/>
       <use xlink:href="#DejaVuSans-30" x="63.623047"/>
      </g>
     </g>
    </g>
    <g id="ytick_6">
     <g id="line2d_14">
      <g>
       <use xlink:href="#mb5a6644ec3" x="57.6" y="53.257282" style="stroke: #000000; stroke-width: 0.8"/>
      </g>
     </g>
     <g id="text_15">
      <!-- 60 -->
      <g transform="translate(37.875 57.0565) scale(0.1 -0.1)">
       <defs>
        <path id="DejaVuSans-36" d="M 2113 2584 
Q 1688 2584 1439 2293 
Q 1191 2003 1191 1497 
Q 1191 994 1439 701 
Q 1688 409 2113 409 
Q 2538 409 2786 701 
Q 3034 994 3034 1497 
Q 3034 2003 2786 2293 
Q 2538 2584 2113 2584 
z
M 3366 4563 
L 3366 3988 
Q 3128 4100 2886 4159 
Q 2644 4219 2406 4219 
Q 1781 4219 1451 3797 
Q 1122 3375 1075 2522 
Q 1259 2794 1537 2939 
Q 1816 3084 2150 3084 
Q 2853 3084 3261 2657 
Q 3669 2231 3669 1497 
Q 3669 778 3244 343 
Q 2819 -91 2113 -91 
Q 1303 -91 875 529 
Q 447 1150 447 2328 
Q 447 3434 972 4092 
Q 1497 4750 2381 4750 
Q 2619 4750 2861 4703 
Q 3103 4656 3366 4563 
z
" transform="scale(0.015625)"/>
       </defs>
       <use xlink:href="#DejaVuSans-36"/>
       <use xlink:href="#DejaVuSans-30" x="63.623047"/>
      </g>
     </g>
    </g>
    <g id="text_16">
     <!-- Principal Component 2 -->
     <g transform="translate(23.415625 231.310031) rotate(-90) scale(0.1 -0.1)">
      <defs>
       <path id="DejaVuSans-Oblique-32" d="M 2950 2253 
L 934 525 
L 3163 525 
L 3053 0 
L 25 0 
L 128 531 
L 2234 2338 
Q 2656 2703 2832 2979 
Q 3009 3256 3009 3547 
Q 3009 3850 2796 4040 
Q 2584 4231 2241 4231 
Q 1944 4231 1581 4125 
Q 1219 4019 806 3816 
L 922 4441 
Q 1309 4594 1662 4672 
Q 2016 4750 2316 4750 
Q 2928 4750 3301 4425 
Q 3675 4100 3675 3572 
Q 3675 3216 3497 2892 
Q 3319 2569 2950 2253 
z
" transform="scale(0.015625)"/>
      </defs>
      <use xlink:href="#DejaVuSans-Oblique-50"/>
      <use xlink:href="#DejaVuSans-Oblique-72" x="60.302734"/>
      <use xlink:href="#DejaVuSans-Oblique-69" x="101.416016"/>
      <use xlink:href="#DejaVuSans-Oblique-6e" x="129.199219"/>
      <use xlink:href="#DejaVuSans-Oblique-63" x="192.578125"/>
      <use xlink:href="#DejaVuSans-Oblique-69" x="247.558594"/>
      <use xlink:href="#DejaVuSans-Oblique-70" x="275.341797"/>
      <use xlink:href="#DejaVuSans-Oblique-61" x="338.818359"/>
      <use xlink:href="#DejaVuSans-Oblique-6c" x="400.097656"/>
      <use xlink:href="#DejaVuSans-Oblique-20" x="427.880859"/>
      <use xlink:href="#DejaVuSans-Oblique-43" x="459.667969"/>
      <use xlink:href="#DejaVuSans-Oblique-6f" x="529.492188"/>
      <use xlink:href="#DejaVuSans-Oblique-6d" x="590.673828"/>
      <use xlink:href="#DejaVuSans-Oblique-70" x="688.085938"/>
      <use xlink:href="#DejaVuSans-Oblique-6f" x="751.5625"/>
      <use xlink:href="#DejaVuSans-Oblique-6e" x="812.744141"/>
      <use xlink:href="#DejaVuSans-Oblique-65" x="876.123047"/>
      <use xlink:href="#DejaVuSans-Oblique-6e" x="937.646484"/>
      <use xlink:href="#DejaVuSans-Oblique-74" x="1001.025391"/>
      <use xlink:href="#DejaVuSans-Oblique-20" x="1040.234375"/>
      <use xlink:href="#DejaVuSans-Oblique-32" x="1072.021484"/>
     </g>
    </g>
   </g>
   <g id="patch_3">
    <path d="M 57.6 307.584 
L 57.6 41.472 
" style="fill: none; stroke: #000000; stroke-width: 0.8; stroke-linejoin: miter; stroke-linecap: square"/>
   </g>
   <g id="patch_4">
    <path d="M 414.72 307.584 
L 414.72 41.472 
" style="fill: none; stroke: #cccccc; stroke-width: 0.8; stroke-linejoin: miter; stroke-linecap: square"/>
   </g>
   <g id="patch_5">
    <path d="M 57.6 307.584 
L 414.72 307.584 
" style="fill: none; stroke: #000000; stroke-width: 0.8; stroke-linejoin: miter; stroke-linecap: square"/>
   </g>
   <g id="patch_6">
    <path d="M 57.6 41.472 
L 414.72 41.472 
" style="fill: none; stroke: #cccccc; stroke-width: 0.8; stroke-linejoin: miter; stroke-linecap: square"/>
   </g>
   <g id="text_17">
    <!-- Clustering in 7 clusters met vector_aca_t met rang 25 -->
    <g transform="translate(54.890625 35.472) scale(0.12 -0.12)">
     <defs>
      <path id="DejaVuSans-Bold-43" d="M 4288 256 
Q 3956 84 3597 -3 
Q 3238 -91 2847 -91 
Q 1681 -91 1000 561 
Q 319 1213 319 2328 
Q 319 3447 1000 4098 
Q 1681 4750 2847 4750 
Q 3238 4750 3597 4662 
Q 3956 4575 4288 4403 
L 4288 3438 
Q 3953 3666 3628 3772 
Q 3303 3878 2944 3878 
Q 2300 3878 1931 3465 
Q 1563 3053 1563 2328 
Q 1563 1606 1931 1193 
Q 2300 781 2944 781 
Q 3303 781 3628 887 
Q 3953 994 4288 1222 
L 4288 256 
z
" transform="scale(0.015625)"/>
      <path id="DejaVuSans-Bold-6c" d="M 538 4863 
L 1656 4863 
L 1656 0 
L 538 0 
L 538 4863 
z
" transform="scale(0.015625)"/>
      <path id="DejaVuSans-Bold-75" d="M 500 1363 
L 500 3500 
L 1625 3500 
L 1625 3150 
Q 1625 2866 1622 2436 
Q 1619 2006 1619 1863 
Q 1619 1441 1641 1255 
Q 1663 1069 1716 984 
Q 1784 875 1895 815 
Q 2006 756 2150 756 
Q 2500 756 2700 1025 
Q 2900 1294 2900 1772 
L 2900 3500 
L 4019 3500 
L 4019 0 
L 2900 0 
L 2900 506 
Q 2647 200 2364 54 
Q 2081 -91 1741 -91 
Q 1134 -91 817 281 
Q 500 653 500 1363 
z
" transform="scale(0.015625)"/>
      <path id="DejaVuSans-Bold-73" d="M 3272 3391 
L 3272 2541 
Q 2913 2691 2578 2766 
Q 2244 2841 1947 2841 
Q 1628 2841 1473 2761 
Q 1319 2681 1319 2516 
Q 1319 2381 1436 2309 
Q 1553 2238 1856 2203 
L 2053 2175 
Q 2913 2066 3209 1816 
Q 3506 1566 3506 1031 
Q 3506 472 3093 190 
Q 2681 -91 1863 -91 
Q 1516 -91 1145 -36 
Q 775 19 384 128 
L 384 978 
Q 719 816 1070 734 
Q 1422 653 1784 653 
Q 2113 653 2278 743 
Q 2444 834 2444 1013 
Q 2444 1163 2330 1236 
Q 2216 1309 1875 1350 
L 1678 1375 
Q 931 1469 631 1722 
Q 331 1975 331 2491 
Q 331 3047 712 3315 
Q 1094 3584 1881 3584 
Q 2191 3584 2531 3537 
Q 2872 3491 3272 3391 
z
" transform="scale(0.015625)"/>
      <path id="DejaVuSans-Bold-74" d="M 1759 4494 
L 1759 3500 
L 2913 3500 
L 2913 2700 
L 1759 2700 
L 1759 1216 
Q 1759 972 1856 886 
Q 1953 800 2241 800 
L 2816 800 
L 2816 0 
L 1856 0 
Q 1194 0 917 276 
Q 641 553 641 1216 
L 641 2700 
L 84 2700 
L 84 3500 
L 641 3500 
L 641 4494 
L 1759 4494 
z
" transform="scale(0.015625)"/>
      <path id="DejaVuSans-Bold-65" d="M 4031 1759 
L 4031 1441 
L 1416 1441 
Q 1456 1047 1700 850 
Q 1944 653 2381 653 
Q 2734 653 3104 758 
Q 3475 863 3866 1075 
L 3866 213 
Q 3469 63 3072 -14 
Q 2675 -91 2278 -91 
Q 1328 -91 801 392 
Q 275 875 275 1747 
Q 275 2603 792 3093 
Q 1309 3584 2216 3584 
Q 3041 3584 3536 3087 
Q 4031 2591 4031 1759 
z
M 2881 2131 
Q 2881 2450 2695 2645 
Q 2509 2841 2209 2841 
Q 1884 2841 1681 2658 
Q 1478 2475 1428 2131 
L 2881 2131 
z
" transform="scale(0.015625)"/>
      <path id="DejaVuSans-Bold-72" d="M 3138 2547 
Q 2991 2616 2845 2648 
Q 2700 2681 2553 2681 
Q 2122 2681 1889 2404 
Q 1656 2128 1656 1613 
L 1656 0 
L 538 0 
L 538 3500 
L 1656 3500 
L 1656 2925 
Q 1872 3269 2151 3426 
Q 2431 3584 2822 3584 
Q 2878 3584 2943 3579 
Q 3009 3575 3134 3559 
L 3138 2547 
z
" transform="scale(0.015625)"/>
      <path id="DejaVuSans-Bold-69" d="M 538 3500 
L 1656 3500 
L 1656 0 
L 538 0 
L 538 3500 
z
M 538 4863 
L 1656 4863 
L 1656 3950 
L 538 3950 
L 538 4863 
z
" transform="scale(0.015625)"/>
      <path id="DejaVuSans-Bold-6e" d="M 4056 2131 
L 4056 0 
L 2931 0 
L 2931 347 
L 2931 1631 
Q 2931 2084 2911 2256 
Q 2891 2428 2841 2509 
Q 2775 2619 2662 2680 
Q 2550 2741 2406 2741 
Q 2056 2741 1856 2470 
Q 1656 2200 1656 1722 
L 1656 0 
L 538 0 
L 538 3500 
L 1656 3500 
L 1656 2988 
Q 1909 3294 2193 3439 
Q 2478 3584 2822 3584 
Q 3428 3584 3742 3212 
Q 4056 2841 4056 2131 
z
" transform="scale(0.015625)"/>
      <path id="DejaVuSans-Bold-67" d="M 2919 594 
Q 2688 288 2409 144 
Q 2131 0 1766 0 
Q 1125 0 706 504 
Q 288 1009 288 1791 
Q 288 2575 706 3076 
Q 1125 3578 1766 3578 
Q 2131 3578 2409 3434 
Q 2688 3291 2919 2981 
L 2919 3500 
L 4044 3500 
L 4044 353 
Q 4044 -491 3511 -936 
Q 2978 -1381 1966 -1381 
Q 1638 -1381 1331 -1331 
Q 1025 -1281 716 -1178 
L 716 -306 
Q 1009 -475 1290 -558 
Q 1572 -641 1856 -641 
Q 2406 -641 2662 -400 
Q 2919 -159 2919 353 
L 2919 594 
z
M 2181 2772 
Q 1834 2772 1640 2515 
Q 1447 2259 1447 1791 
Q 1447 1309 1634 1061 
Q 1822 813 2181 813 
Q 2531 813 2725 1069 
Q 2919 1325 2919 1791 
Q 2919 2259 2725 2515 
Q 2531 2772 2181 2772 
z
" transform="scale(0.015625)"/>
      <path id="DejaVuSans-Bold-20" transform="scale(0.015625)"/>
      <path id="DejaVuSans-Bold-37" d="M 428 4666 
L 3944 4666 
L 3944 3988 
L 2125 0 
L 953 0 
L 2675 3781 
L 428 3781 
L 428 4666 
z
" transform="scale(0.015625)"/>
      <path id="DejaVuSans-Bold-63" d="M 3366 3391 
L 3366 2478 
Q 3138 2634 2908 2709 
Q 2678 2784 2431 2784 
Q 1963 2784 1702 2511 
Q 1441 2238 1441 1747 
Q 1441 1256 1702 982 
Q 1963 709 2431 709 
Q 2694 709 2930 787 
Q 3166 866 3366 1019 
L 3366 103 
Q 3103 6 2833 -42 
Q 2563 -91 2291 -91 
Q 1344 -91 809 395 
Q 275 881 275 1747 
Q 275 2613 809 3098 
Q 1344 3584 2291 3584 
Q 2566 3584 2833 3536 
Q 3100 3488 3366 3391 
z
" transform="scale(0.015625)"/>
      <path id="DejaVuSans-Bold-6d" d="M 3781 2919 
Q 3994 3244 4286 3414 
Q 4578 3584 4928 3584 
Q 5531 3584 5847 3212 
Q 6163 2841 6163 2131 
L 6163 0 
L 5038 0 
L 5038 1825 
Q 5041 1866 5042 1909 
Q 5044 1953 5044 2034 
Q 5044 2406 4934 2573 
Q 4825 2741 4581 2741 
Q 4263 2741 4089 2478 
Q 3916 2216 3909 1719 
L 3909 0 
L 2784 0 
L 2784 1825 
Q 2784 2406 2684 2573 
Q 2584 2741 2328 2741 
Q 2006 2741 1831 2477 
Q 1656 2213 1656 1722 
L 1656 0 
L 531 0 
L 531 3500 
L 1656 3500 
L 1656 2988 
Q 1863 3284 2130 3434 
Q 2397 3584 2719 3584 
Q 3081 3584 3359 3409 
Q 3638 3234 3781 2919 
z
" transform="scale(0.015625)"/>
      <path id="DejaVuSans-Bold-76" d="M 97 3500 
L 1216 3500 
L 2088 1081 
L 2956 3500 
L 4078 3500 
L 2700 0 
L 1472 0 
L 97 3500 
z
" transform="scale(0.015625)"/>
      <path id="DejaVuSans-Bold-6f" d="M 2203 2784 
Q 1831 2784 1636 2517 
Q 1441 2250 1441 1747 
Q 1441 1244 1636 976 
Q 1831 709 2203 709 
Q 2569 709 2762 976 
Q 2956 1244 2956 1747 
Q 2956 2250 2762 2517 
Q 2569 2784 2203 2784 
z
M 2203 3584 
Q 3106 3584 3614 3096 
Q 4122 2609 4122 1747 
Q 4122 884 3614 396 
Q 3106 -91 2203 -91 
Q 1297 -91 786 396 
Q 275 884 275 1747 
Q 275 2609 786 3096 
Q 1297 3584 2203 3584 
z
" transform="scale(0.015625)"/>
      <path id="DejaVuSans-Bold-5f" d="M 3200 -916 
L 3200 -1509 
L 0 -1509 
L 0 -916 
L 3200 -916 
z
" transform="scale(0.015625)"/>
      <path id="DejaVuSans-Bold-61" d="M 2106 1575 
Q 1756 1575 1579 1456 
Q 1403 1338 1403 1106 
Q 1403 894 1545 773 
Q 1688 653 1941 653 
Q 2256 653 2472 879 
Q 2688 1106 2688 1447 
L 2688 1575 
L 2106 1575 
z
M 3816 1997 
L 3816 0 
L 2688 0 
L 2688 519 
Q 2463 200 2181 54 
Q 1900 -91 1497 -91 
Q 953 -91 614 226 
Q 275 544 275 1050 
Q 275 1666 698 1953 
Q 1122 2241 2028 2241 
L 2688 2241 
L 2688 2328 
Q 2688 2594 2478 2717 
Q 2269 2841 1825 2841 
Q 1466 2841 1156 2769 
Q 847 2697 581 2553 
L 581 3406 
Q 941 3494 1303 3539 
Q 1666 3584 2028 3584 
Q 2975 3584 3395 3211 
Q 3816 2838 3816 1997 
z
" transform="scale(0.015625)"/>
      <path id="DejaVuSans-Bold-32" d="M 1844 884 
L 3897 884 
L 3897 0 
L 506 0 
L 506 884 
L 2209 2388 
Q 2438 2594 2547 2791 
Q 2656 2988 2656 3200 
Q 2656 3528 2436 3728 
Q 2216 3928 1850 3928 
Q 1569 3928 1234 3808 
Q 900 3688 519 3450 
L 519 4475 
Q 925 4609 1322 4679 
Q 1719 4750 2100 4750 
Q 2938 4750 3402 4381 
Q 3866 4013 3866 3353 
Q 3866 2972 3669 2642 
Q 3472 2313 2841 1759 
L 1844 884 
z
" transform="scale(0.015625)"/>
      <path id="DejaVuSans-Bold-35" d="M 678 4666 
L 3669 4666 
L 3669 3781 
L 1638 3781 
L 1638 3059 
Q 1775 3097 1914 3117 
Q 2053 3138 2203 3138 
Q 3056 3138 3531 2711 
Q 4006 2284 4006 1522 
Q 4006 766 3489 337 
Q 2972 -91 2053 -91 
Q 1656 -91 1267 -14 
Q 878 63 494 219 
L 494 1166 
Q 875 947 1217 837 
Q 1559 728 1863 728 
Q 2300 728 2551 942 
Q 2803 1156 2803 1522 
Q 2803 1891 2551 2103 
Q 2300 2316 1863 2316 
Q 1603 2316 1309 2248 
Q 1016 2181 678 2041 
L 678 4666 
z
" transform="scale(0.015625)"/>
     </defs>
     <use xlink:href="#DejaVuSans-Bold-43"/>
     <use xlink:href="#DejaVuSans-Bold-6c" x="73.388672"/>
     <use xlink:href="#DejaVuSans-Bold-75" x="107.666016"/>
     <use xlink:href="#DejaVuSans-Bold-73" x="178.857422"/>
     <use xlink:href="#DejaVuSans-Bold-74" x="238.378906"/>
     <use xlink:href="#DejaVuSans-Bold-65" x="286.181641"/>
     <use xlink:href="#DejaVuSans-Bold-72" x="354.003906"/>
     <use xlink:href="#DejaVuSans-Bold-69" x="403.320312"/>
     <use xlink:href="#DejaVuSans-Bold-6e" x="437.597656"/>
     <use xlink:href="#DejaVuSans-Bold-67" x="508.789062"/>
     <use xlink:href="#DejaVuSans-Bold-20" x="580.371094"/>
     <use xlink:href="#DejaVuSans-Bold-69" x="615.185547"/>
     <use xlink:href="#DejaVuSans-Bold-6e" x="649.462891"/>
     <use xlink:href="#DejaVuSans-Bold-20" x="720.654297"/>
     <use xlink:href="#DejaVuSans-Bold-37" x="755.46875"/>
     <use xlink:href="#DejaVuSans-Bold-20" x="825.048828"/>
     <use xlink:href="#DejaVuSans-Bold-63" x="859.863281"/>
     <use xlink:href="#DejaVuSans-Bold-6c" x="919.140625"/>
     <use xlink:href="#DejaVuSans-Bold-75" x="953.417969"/>
     <use xlink:href="#DejaVuSans-Bold-73" x="1024.609375"/>
     <use xlink:href="#DejaVuSans-Bold-74" x="1084.130859"/>
     <use xlink:href="#DejaVuSans-Bold-65" x="1131.933594"/>
     <use xlink:href="#DejaVuSans-Bold-72" x="1199.755859"/>
     <use xlink:href="#DejaVuSans-Bold-73" x="1249.072266"/>
     <use xlink:href="#DejaVuSans-Bold-20" x="1308.59375"/>
     <use xlink:href="#DejaVuSans-Bold-6d" x="1343.408203"/>
     <use xlink:href="#DejaVuSans-Bold-65" x="1447.607422"/>
     <use xlink:href="#DejaVuSans-Bold-74" x="1515.429688"/>
     <use xlink:href="#DejaVuSans-Bold-20" x="1563.232422"/>
     <use xlink:href="#DejaVuSans-Bold-76" x="1598.046875"/>
     <use xlink:href="#DejaVuSans-Bold-65" x="1663.232422"/>
     <use xlink:href="#DejaVuSans-Bold-63" x="1731.054688"/>
     <use xlink:href="#DejaVuSans-Bold-74" x="1790.332031"/>
     <use xlink:href="#DejaVuSans-Bold-6f" x="1838.134766"/>
     <use xlink:href="#DejaVuSans-Bold-72" x="1906.835938"/>
     <use xlink:href="#DejaVuSans-Bold-5f" x="1956.152344"/>
     <use xlink:href="#DejaVuSans-Bold-61" x="2006.152344"/>
     <use xlink:href="#DejaVuSans-Bold-63" x="2073.632812"/>
     <use xlink:href="#DejaVuSans-Bold-61" x="2132.910156"/>
     <use xlink:href="#DejaVuSans-Bold-5f" x="2200.390625"/>
     <use xlink:href="#DejaVuSans-Bold-74" x="2250.390625"/>
     <use xlink:href="#DejaVuSans-Bold-20" x="2298.193359"/>
     <use xlink:href="#DejaVuSans-Bold-6d" x="2333.007812"/>
     <use xlink:href="#DejaVuSans-Bold-65" x="2437.207031"/>
     <use xlink:href="#DejaVuSans-Bold-74" x="2505.029297"/>
     <use xlink:href="#DejaVuSans-Bold-20" x="2552.832031"/>
     <use xlink:href="#DejaVuSans-Bold-72" x="2587.646484"/>
     <use xlink:href="#DejaVuSans-Bold-61" x="2636.962891"/>
     <use xlink:href="#DejaVuSans-Bold-6e" x="2704.443359"/>
     <use xlink:href="#DejaVuSans-Bold-67" x="2775.634766"/>
     <use xlink:href="#DejaVuSans-Bold-20" x="2847.216797"/>
     <use xlink:href="#DejaVuSans-Bold-32" x="2882.03125"/>
     <use xlink:href="#DejaVuSans-Bold-35" x="2951.611328"/>
    </g>
   </g>
  </g>
 </g>
 <defs>
  <clipPath id="p76a029bad8">
   <rect x="57.6" y="41.472" width="357.12" height="266.112"/>
  </clipPath>
 </defs>
</svg>
