<?xml version="1.0" encoding="utf-8" standalone="no"?>
<!DOCTYPE svg PUBLIC "-//W3C//DTD SVG 1.1//EN"
  "http://www.w3.org/Graphics/SVG/1.1/DTD/svg11.dtd">
<svg xmlns:xlink="http://www.w3.org/1999/xlink" width="892.8pt" height="345.6pt" viewBox="0 0 892.8 345.6" xmlns="http://www.w3.org/2000/svg" version="1.1">
 <metadata>
  <rdf:RDF xmlns:dc="http://purl.org/dc/elements/1.1/" xmlns:cc="http://creativecommons.org/ns#" xmlns:rdf="http://www.w3.org/1999/02/22-rdf-syntax-ns#">
   <cc:Work>
    <dc:type rdf:resource="http://purl.org/dc/dcmitype/StillImage"/>
    <dc:date>2024-03-05T08:19:11.104454</dc:date>
    <dc:format>image/svg+xml</dc:format>
    <dc:creator>
     <cc:Agent>
      <dc:title>Matplotlib v3.5.2, https://matplotlib.org/</dc:title>
     </cc:Agent>
    </dc:creator>
   </cc:Work>
  </rdf:RDF>
 </metadata>
 <defs>
  <style type="text/css">*{stroke-linejoin: round; stroke-linecap: butt}</style>
 </defs>
 <g id="figure_1">
  <g id="patch_1">
   <path d="M 0 345.6 
L 892.8 345.6 
L 892.8 0 
L 0 0 
L 0 345.6 
z
" style="fill: none"/>
  </g>
  <g id="axes_1">
   <g id="patch_2">
    <path d="M 66.96 297.216 
L 803.52 297.216 
L 803.52 41.472 
L 66.96 41.472 
L 66.96 297.216 
z
" style="fill: none"/>
   </g>
   <g id="patch_3">
    <path d="M 100.44 297.216 
L 121.585263 297.216 
L 121.585263 88.144929 
L 100.44 88.144929 
z
" clip-path="url(#pcf6bde8ff6)" style="fill: #b22222"/>
   </g>
   <g id="patch_4">
    <path d="M 241.408421 297.216 
L 262.553684 297.216 
L 262.553684 180.164183 
L 241.408421 180.164183 
z
" clip-path="url(#pcf6bde8ff6)" style="fill: #b22222"/>
   </g>
   <g id="patch_5">
    <path d="M 382.376842 297.216 
L 403.522105 297.216 
L 403.522105 197.373399 
L 382.376842 197.373399 
z
" clip-path="url(#pcf6bde8ff6)" style="fill: #b22222"/>
   </g>
   <g id="patch_6">
    <path d="M 523.345263 297.216 
L 544.490526 297.216 
L 544.490526 206.290951 
L 523.345263 206.290951 
z
" clip-path="url(#pcf6bde8ff6)" style="fill: #b22222"/>
   </g>
   <g id="patch_7">
    <path d="M 664.313684 297.216 
L 685.458947 297.216 
L 685.458947 209.935487 
L 664.313684 209.935487 
z
" clip-path="url(#pcf6bde8ff6)" style="fill: #b22222"/>
   </g>
   <g id="patch_8">
    <path d="M 121.585263 297.216 
L 142.730526 297.216 
L 142.730526 164.590327 
L 121.585263 164.590327 
z
" clip-path="url(#pcf6bde8ff6)" style="fill: #adff2f"/>
   </g>
   <g id="patch_9">
    <path d="M 262.553684 297.216 
L 283.698947 297.216 
L 283.698947 209.035579 
L 262.553684 209.035579 
z
" clip-path="url(#pcf6bde8ff6)" style="fill: #adff2f"/>
   </g>
   <g id="patch_10">
    <path d="M 403.522105 297.216 
L 424.667368 297.216 
L 424.667368 218.516799 
L 403.522105 218.516799 
z
" clip-path="url(#pcf6bde8ff6)" style="fill: #adff2f"/>
   </g>
   <g id="patch_11">
    <path d="M 544.490526 297.216 
L 565.635789 297.216 
L 565.635789 218.625873 
L 544.490526 218.625873 
z
" clip-path="url(#pcf6bde8ff6)" style="fill: #adff2f"/>
   </g>
   <g id="patch_12">
    <path d="M 685.458947 297.216 
L 706.604211 297.216 
L 706.604211 217.474255 
L 685.458947 217.474255 
z
" clip-path="url(#pcf6bde8ff6)" style="fill: #adff2f"/>
   </g>
   <g id="patch_13">
    <path d="M 142.730526 297.216 
L 163.875789 297.216 
L 163.875789 185.045311 
L 142.730526 185.045311 
z
" clip-path="url(#pcf6bde8ff6)" style="fill: #008080"/>
   </g>
   <g id="patch_14">
    <path d="M 283.698947 297.216 
L 304.844211 297.216 
L 304.844211 225.75045 
L 283.698947 225.75045 
z
" clip-path="url(#pcf6bde8ff6)" style="fill: #008080"/>
   </g>
   <g id="patch_15">
    <path d="M 424.667368 297.216 
L 445.812632 297.216 
L 445.812632 230.677963 
L 424.667368 230.677963 
z
" clip-path="url(#pcf6bde8ff6)" style="fill: #008080"/>
   </g>
   <g id="patch_16">
    <path d="M 565.635789 297.216 
L 586.781053 297.216 
L 586.781053 229.492511 
L 565.635789 229.492511 
z
" clip-path="url(#pcf6bde8ff6)" style="fill: #008080"/>
   </g>
   <g id="patch_17">
    <path d="M 706.604211 297.216 
L 727.749474 297.216 
L 727.749474 226.210284 
L 706.604211 226.210284 
z
" clip-path="url(#pcf6bde8ff6)" style="fill: #008080"/>
   </g>
   <g id="patch_18">
    <path d="M 163.875789 297.216 
L 185.021053 297.216 
L 185.021053 194.353086 
L 163.875789 194.353086 
z
" clip-path="url(#pcf6bde8ff6)" style="fill: #4b0082"/>
   </g>
   <g id="patch_19">
    <path d="M 304.844211 297.216 
L 325.989474 297.216 
L 325.989474 233.766587 
L 304.844211 233.766587 
z
" clip-path="url(#pcf6bde8ff6)" style="fill: #4b0082"/>
   </g>
   <g id="patch_20">
    <path d="M 445.812632 297.216 
L 466.957895 297.216 
L 466.957895 239.491052 
L 445.812632 239.491052 
z
" clip-path="url(#pcf6bde8ff6)" style="fill: #4b0082"/>
   </g>
   <g id="patch_21">
    <path d="M 586.781053 297.216 
L 607.926316 297.216 
L 607.926316 240.330654 
L 586.781053 240.330654 
z
" clip-path="url(#pcf6bde8ff6)" style="fill: #4b0082"/>
   </g>
   <g id="patch_22">
    <path d="M 727.749474 297.216 
L 748.894737 297.216 
L 748.894737 236.572478 
L 727.749474 236.572478 
z
" clip-path="url(#pcf6bde8ff6)" style="fill: #4b0082"/>
   </g>
   <g id="patch_23">
    <path d="M 185.021053 297.216 
L 206.166316 297.216 
L 206.166316 207.671282 
L 185.021053 207.671282 
z
" clip-path="url(#pcf6bde8ff6)" style="fill: #ffa500"/>
   </g>
   <g id="patch_24">
    <path d="M 325.989474 297.216 
L 347.134737 297.216 
L 347.134737 248.752743 
L 325.989474 248.752743 
z
" clip-path="url(#pcf6bde8ff6)" style="fill: #ffa500"/>
   </g>
   <g id="patch_25">
    <path d="M 466.957895 297.216 
L 488.103158 297.216 
L 488.103158 262.677922 
L 466.957895 262.677922 
z
" clip-path="url(#pcf6bde8ff6)" style="fill: #ffa500"/>
   </g>
   <g id="patch_26">
    <path d="M 607.926316 297.216 
L 629.071579 297.216 
L 629.071579 275.598114 
L 607.926316 275.598114 
z
" clip-path="url(#pcf6bde8ff6)" style="fill: #ffa500"/>
   </g>
   <g id="patch_27">
    <path d="M 748.894737 297.216 
L 770.04 297.216 
L 770.04 283.478761 
L 748.894737 283.478761 
z
" clip-path="url(#pcf6bde8ff6)" style="fill: #ffa500"/>
   </g>
   <g id="matplotlib.axis_1">
    <g id="xtick_1">
     <g id="line2d_1">
      <defs>
       <path id="md34356e37f" d="M 0 0 
L 0 3.5 
" style="stroke: #000000; stroke-width: 0.8"/>
      </defs>
      <g>
       <use xlink:href="#md34356e37f" x="153.303158" y="297.216" style="stroke: #000000; stroke-width: 0.8"/>
      </g>
     </g>
     <g id="text_1">
      <!-- 5 -->
      <g transform="translate(148.531283 315.613656)scale(0.15 -0.15)">
       <defs>
        <path id="DejaVuSans-35" d="M 691 4666 
L 3169 4666 
L 3169 4134 
L 1269 4134 
L 1269 2991 
Q 1406 3038 1543 3061 
Q 1681 3084 1819 3084 
Q 2600 3084 3056 2656 
Q 3513 2228 3513 1497 
Q 3513 744 3044 326 
Q 2575 -91 1722 -91 
Q 1428 -91 1123 -41 
Q 819 9 494 109 
L 494 744 
Q 775 591 1075 516 
Q 1375 441 1709 441 
Q 2250 441 2565 725 
Q 2881 1009 2881 1497 
Q 2881 1984 2565 2268 
Q 2250 2553 1709 2553 
Q 1456 2553 1204 2497 
Q 953 2441 691 2322 
L 691 4666 
z
" transform="scale(0.015625)"/>
       </defs>
       <use xlink:href="#DejaVuSans-35"/>
      </g>
     </g>
    </g>
    <g id="xtick_2">
     <g id="line2d_2">
      <g>
       <use xlink:href="#md34356e37f" x="294.271579" y="297.216" style="stroke: #000000; stroke-width: 0.8"/>
      </g>
     </g>
     <g id="text_2">
      <!-- 15 -->
      <g transform="translate(284.727829 315.613656)scale(0.15 -0.15)">
       <defs>
        <path id="DejaVuSans-31" d="M 794 531 
L 1825 531 
L 1825 4091 
L 703 3866 
L 703 4441 
L 1819 4666 
L 2450 4666 
L 2450 531 
L 3481 531 
L 3481 0 
L 794 0 
L 794 531 
z
" transform="scale(0.015625)"/>
       </defs>
       <use xlink:href="#DejaVuSans-31"/>
       <use xlink:href="#DejaVuSans-35" x="63.623047"/>
      </g>
     </g>
    </g>
    <g id="xtick_3">
     <g id="line2d_3">
      <g>
       <use xlink:href="#md34356e37f" x="435.24" y="297.216" style="stroke: #000000; stroke-width: 0.8"/>
      </g>
     </g>
     <g id="text_3">
      <!-- 25 -->
      <g transform="translate(425.69625 315.613656)scale(0.15 -0.15)">
       <defs>
        <path id="DejaVuSans-32" d="M 1228 531 
L 3431 531 
L 3431 0 
L 469 0 
L 469 531 
Q 828 903 1448 1529 
Q 2069 2156 2228 2338 
Q 2531 2678 2651 2914 
Q 2772 3150 2772 3378 
Q 2772 3750 2511 3984 
Q 2250 4219 1831 4219 
Q 1534 4219 1204 4116 
Q 875 4013 500 3803 
L 500 4441 
Q 881 4594 1212 4672 
Q 1544 4750 1819 4750 
Q 2544 4750 2975 4387 
Q 3406 4025 3406 3419 
Q 3406 3131 3298 2873 
Q 3191 2616 2906 2266 
Q 2828 2175 2409 1742 
Q 1991 1309 1228 531 
z
" transform="scale(0.015625)"/>
       </defs>
       <use xlink:href="#DejaVuSans-32"/>
       <use xlink:href="#DejaVuSans-35" x="63.623047"/>
      </g>
     </g>
    </g>
    <g id="xtick_4">
     <g id="line2d_4">
      <g>
       <use xlink:href="#md34356e37f" x="576.208421" y="297.216" style="stroke: #000000; stroke-width: 0.8"/>
      </g>
     </g>
     <g id="text_4">
      <!-- 35 -->
      <g transform="translate(566.664671 315.613656)scale(0.15 -0.15)">
       <defs>
        <path id="DejaVuSans-33" d="M 2597 2516 
Q 3050 2419 3304 2112 
Q 3559 1806 3559 1356 
Q 3559 666 3084 287 
Q 2609 -91 1734 -91 
Q 1441 -91 1130 -33 
Q 819 25 488 141 
L 488 750 
Q 750 597 1062 519 
Q 1375 441 1716 441 
Q 2309 441 2620 675 
Q 2931 909 2931 1356 
Q 2931 1769 2642 2001 
Q 2353 2234 1838 2234 
L 1294 2234 
L 1294 2753 
L 1863 2753 
Q 2328 2753 2575 2939 
Q 2822 3125 2822 3475 
Q 2822 3834 2567 4026 
Q 2313 4219 1838 4219 
Q 1578 4219 1281 4162 
Q 984 4106 628 3988 
L 628 4550 
Q 988 4650 1302 4700 
Q 1616 4750 1894 4750 
Q 2613 4750 3031 4423 
Q 3450 4097 3450 3541 
Q 3450 3153 3228 2886 
Q 3006 2619 2597 2516 
z
" transform="scale(0.015625)"/>
       </defs>
       <use xlink:href="#DejaVuSans-33"/>
       <use xlink:href="#DejaVuSans-35" x="63.623047"/>
      </g>
     </g>
    </g>
    <g id="xtick_5">
     <g id="line2d_5">
      <g>
       <use xlink:href="#md34356e37f" x="717.176842" y="297.216" style="stroke: #000000; stroke-width: 0.8"/>
      </g>
     </g>
     <g id="text_5">
      <!-- 45 -->
      <g transform="translate(707.633092 315.613656)scale(0.15 -0.15)">
       <defs>
        <path id="DejaVuSans-34" d="M 2419 4116 
L 825 1625 
L 2419 1625 
L 2419 4116 
z
M 2253 4666 
L 3047 4666 
L 3047 1625 
L 3713 1625 
L 3713 1100 
L 3047 1100 
L 3047 0 
L 2419 0 
L 2419 1100 
L 313 1100 
L 313 1709 
L 2253 4666 
z
" transform="scale(0.015625)"/>
       </defs>
       <use xlink:href="#DejaVuSans-34"/>
       <use xlink:href="#DejaVuSans-35" x="63.623047"/>
      </g>
     </g>
    </g>
    <g id="text_6">
     <!-- Aantal termen -->
     <g transform="translate(370.686094 336.410375)scale(0.18 -0.18)">
      <defs>
       <path id="DejaVuSans-Oblique-41" d="M 2356 4666 
L 3072 4666 
L 3938 0 
L 3278 0 
L 3084 1197 
L 984 1197 
L 325 0 
L -341 0 
L 2356 4666 
z
M 2584 4044 
L 1275 1722 
L 2988 1722 
L 2584 4044 
z
" transform="scale(0.015625)"/>
       <path id="DejaVuSans-Oblique-61" d="M 3438 1997 
L 3047 0 
L 2472 0 
L 2578 531 
Q 2325 219 2001 64 
Q 1678 -91 1281 -91 
Q 834 -91 548 182 
Q 263 456 263 884 
Q 263 1497 752 1853 
Q 1241 2209 2100 2209 
L 2900 2209 
L 2931 2363 
Q 2938 2388 2941 2417 
Q 2944 2447 2944 2509 
Q 2944 2788 2717 2942 
Q 2491 3097 2081 3097 
Q 1800 3097 1504 3025 
Q 1209 2953 897 2809 
L 997 3341 
Q 1322 3463 1633 3523 
Q 1944 3584 2234 3584 
Q 2853 3584 3176 3315 
Q 3500 3047 3500 2534 
Q 3500 2431 3484 2292 
Q 3469 2153 3438 1997 
z
M 2816 1759 
L 2241 1759 
Q 1534 1759 1195 1570 
Q 856 1381 856 984 
Q 856 709 1029 553 
Q 1203 397 1509 397 
Q 1978 397 2328 733 
Q 2678 1069 2791 1631 
L 2816 1759 
z
" transform="scale(0.015625)"/>
       <path id="DejaVuSans-Oblique-6e" d="M 3566 2113 
L 3156 0 
L 2578 0 
L 2988 2091 
Q 3016 2238 3031 2350 
Q 3047 2463 3047 2528 
Q 3047 2791 2881 2937 
Q 2716 3084 2419 3084 
Q 1956 3084 1622 2776 
Q 1288 2469 1184 1941 
L 800 0 
L 225 0 
L 903 3500 
L 1478 3500 
L 1363 2950 
Q 1603 3253 1940 3418 
Q 2278 3584 2650 3584 
Q 3113 3584 3367 3334 
Q 3622 3084 3622 2631 
Q 3622 2519 3608 2391 
Q 3594 2263 3566 2113 
z
" transform="scale(0.015625)"/>
       <path id="DejaVuSans-Oblique-74" d="M 2706 3500 
L 2619 3053 
L 1472 3053 
L 1100 1153 
Q 1081 1047 1072 975 
Q 1063 903 1063 863 
Q 1063 663 1183 572 
Q 1303 481 1569 481 
L 2150 481 
L 2053 0 
L 1503 0 
Q 991 0 739 200 
Q 488 400 488 806 
Q 488 878 497 964 
Q 506 1050 525 1153 
L 897 3053 
L 409 3053 
L 500 3500 
L 978 3500 
L 1172 4494 
L 1747 4494 
L 1556 3500 
L 2706 3500 
z
" transform="scale(0.015625)"/>
       <path id="DejaVuSans-Oblique-6c" d="M 1172 4863 
L 1747 4863 
L 800 0 
L 225 0 
L 1172 4863 
z
" transform="scale(0.015625)"/>
       <path id="DejaVuSans-Oblique-20" transform="scale(0.015625)"/>
       <path id="DejaVuSans-Oblique-65" d="M 3078 2063 
Q 3088 2113 3092 2166 
Q 3097 2219 3097 2272 
Q 3097 2653 2873 2875 
Q 2650 3097 2266 3097 
Q 1838 3097 1509 2826 
Q 1181 2556 1013 2059 
L 3078 2063 
z
M 3578 1613 
L 903 1613 
Q 884 1494 878 1425 
Q 872 1356 872 1306 
Q 872 872 1139 634 
Q 1406 397 1894 397 
Q 2269 397 2603 481 
Q 2938 566 3225 728 
L 3116 159 
Q 2806 34 2476 -28 
Q 2147 -91 1806 -91 
Q 1078 -91 686 257 
Q 294 606 294 1247 
Q 294 1794 489 2264 
Q 684 2734 1063 3103 
Q 1306 3334 1642 3459 
Q 1978 3584 2356 3584 
Q 2950 3584 3301 3228 
Q 3653 2872 3653 2272 
Q 3653 2128 3634 1964 
Q 3616 1800 3578 1613 
z
" transform="scale(0.015625)"/>
       <path id="DejaVuSans-Oblique-72" d="M 2853 2969 
Q 2766 3016 2653 3041 
Q 2541 3066 2413 3066 
Q 1953 3066 1609 2717 
Q 1266 2369 1153 1784 
L 800 0 
L 225 0 
L 909 3500 
L 1484 3500 
L 1375 2956 
Q 1603 3259 1920 3421 
Q 2238 3584 2597 3584 
Q 2691 3584 2781 3573 
Q 2872 3563 2963 3538 
L 2853 2969 
z
" transform="scale(0.015625)"/>
       <path id="DejaVuSans-Oblique-6d" d="M 5747 2113 
L 5338 0 
L 4763 0 
L 5166 2094 
Q 5191 2228 5203 2325 
Q 5216 2422 5216 2491 
Q 5216 2772 5059 2928 
Q 4903 3084 4622 3084 
Q 4203 3084 3875 2770 
Q 3547 2456 3450 1953 
L 3066 0 
L 2491 0 
L 2900 2094 
Q 2925 2209 2937 2307 
Q 2950 2406 2950 2484 
Q 2950 2769 2794 2926 
Q 2638 3084 2363 3084 
Q 1938 3084 1609 2770 
Q 1281 2456 1184 1953 
L 800 0 
L 225 0 
L 909 3500 
L 1484 3500 
L 1375 2956 
Q 1609 3263 1923 3423 
Q 2238 3584 2597 3584 
Q 2978 3584 3223 3384 
Q 3469 3184 3519 2828 
Q 3781 3197 4126 3390 
Q 4472 3584 4856 3584 
Q 5306 3584 5551 3325 
Q 5797 3066 5797 2591 
Q 5797 2488 5784 2364 
Q 5772 2241 5747 2113 
z
" transform="scale(0.015625)"/>
      </defs>
      <use xlink:href="#DejaVuSans-Oblique-41"/>
      <use xlink:href="#DejaVuSans-Oblique-61" x="68.408203"/>
      <use xlink:href="#DejaVuSans-Oblique-6e" x="129.6875"/>
      <use xlink:href="#DejaVuSans-Oblique-74" x="193.066406"/>
      <use xlink:href="#DejaVuSans-Oblique-61" x="232.275391"/>
      <use xlink:href="#DejaVuSans-Oblique-6c" x="293.554688"/>
      <use xlink:href="#DejaVuSans-Oblique-20" x="321.337891"/>
      <use xlink:href="#DejaVuSans-Oblique-74" x="353.125"/>
      <use xlink:href="#DejaVuSans-Oblique-65" x="392.333984"/>
      <use xlink:href="#DejaVuSans-Oblique-72" x="453.857422"/>
      <use xlink:href="#DejaVuSans-Oblique-6d" x="494.970703"/>
      <use xlink:href="#DejaVuSans-Oblique-65" x="592.382812"/>
      <use xlink:href="#DejaVuSans-Oblique-6e" x="653.90625"/>
     </g>
    </g>
   </g>
   <g id="matplotlib.axis_2">
    <g id="ytick_1">
     <g id="line2d_6">
      <path d="M 66.96 297.216 
L 803.52 297.216 
" clip-path="url(#pcf6bde8ff6)" style="fill: none; stroke: #b0b0b0; stroke-opacity: 0.7; stroke-width: 0.8; stroke-linecap: square"/>
     </g>
     <g id="line2d_7">
      <defs>
       <path id="m5f96d9c915" d="M 0 0 
L -3.5 0 
" style="stroke: #000000; stroke-width: 0.8"/>
      </defs>
      <g>
       <use xlink:href="#m5f96d9c915" x="66.96" y="297.216" style="stroke: #000000; stroke-width: 0.8"/>
      </g>
     </g>
     <g id="text_7">
      <!-- 0.0 -->
      <g transform="translate(36.105313 302.914828)scale(0.15 -0.15)">
       <defs>
        <path id="DejaVuSans-30" d="M 2034 4250 
Q 1547 4250 1301 3770 
Q 1056 3291 1056 2328 
Q 1056 1369 1301 889 
Q 1547 409 2034 409 
Q 2525 409 2770 889 
Q 3016 1369 3016 2328 
Q 3016 3291 2770 3770 
Q 2525 4250 2034 4250 
z
M 2034 4750 
Q 2819 4750 3233 4129 
Q 3647 3509 3647 2328 
Q 3647 1150 3233 529 
Q 2819 -91 2034 -91 
Q 1250 -91 836 529 
Q 422 1150 422 2328 
Q 422 3509 836 4129 
Q 1250 4750 2034 4750 
z
" transform="scale(0.015625)"/>
        <path id="DejaVuSans-2e" d="M 684 794 
L 1344 794 
L 1344 0 
L 684 0 
L 684 794 
z
" transform="scale(0.015625)"/>
       </defs>
       <use xlink:href="#DejaVuSans-30"/>
       <use xlink:href="#DejaVuSans-2e" x="63.623047"/>
       <use xlink:href="#DejaVuSans-30" x="95.410156"/>
      </g>
     </g>
    </g>
    <g id="ytick_2">
     <g id="line2d_8">
      <path d="M 66.96 260.306281 
L 803.52 260.306281 
" clip-path="url(#pcf6bde8ff6)" style="fill: none; stroke: #b0b0b0; stroke-opacity: 0.7; stroke-width: 0.8; stroke-linecap: square"/>
     </g>
     <g id="line2d_9">
      <g>
       <use xlink:href="#m5f96d9c915" x="66.96" y="260.306281" style="stroke: #000000; stroke-width: 0.8"/>
      </g>
     </g>
     <g id="text_8">
      <!-- 0.1 -->
      <g transform="translate(36.105313 266.005109)scale(0.15 -0.15)">
       <use xlink:href="#DejaVuSans-30"/>
       <use xlink:href="#DejaVuSans-2e" x="63.623047"/>
       <use xlink:href="#DejaVuSans-31" x="95.410156"/>
      </g>
     </g>
    </g>
    <g id="ytick_3">
     <g id="line2d_10">
      <path d="M 66.96 223.396563 
L 803.52 223.396563 
" clip-path="url(#pcf6bde8ff6)" style="fill: none; stroke: #b0b0b0; stroke-opacity: 0.7; stroke-width: 0.8; stroke-linecap: square"/>
     </g>
     <g id="line2d_11">
      <g>
       <use xlink:href="#m5f96d9c915" x="66.96" y="223.396563" style="stroke: #000000; stroke-width: 0.8"/>
      </g>
     </g>
     <g id="text_9">
      <!-- 0.2 -->
      <g transform="translate(36.105313 229.095391)scale(0.15 -0.15)">
       <use xlink:href="#DejaVuSans-30"/>
       <use xlink:href="#DejaVuSans-2e" x="63.623047"/>
       <use xlink:href="#DejaVuSans-32" x="95.410156"/>
      </g>
     </g>
    </g>
    <g id="ytick_4">
     <g id="line2d_12">
      <path d="M 66.96 186.486844 
L 803.52 186.486844 
" clip-path="url(#pcf6bde8ff6)" style="fill: none; stroke: #b0b0b0; stroke-opacity: 0.7; stroke-width: 0.8; stroke-linecap: square"/>
     </g>
     <g id="line2d_13">
      <g>
       <use xlink:href="#m5f96d9c915" x="66.96" y="186.486844" style="stroke: #000000; stroke-width: 0.8"/>
      </g>
     </g>
     <g id="text_10">
      <!-- 0.3 -->
      <g transform="translate(36.105313 192.185672)scale(0.15 -0.15)">
       <use xlink:href="#DejaVuSans-30"/>
       <use xlink:href="#DejaVuSans-2e" x="63.623047"/>
       <use xlink:href="#DejaVuSans-33" x="95.410156"/>
      </g>
     </g>
    </g>
    <g id="ytick_5">
     <g id="line2d_14">
      <path d="M 66.96 149.577125 
L 803.52 149.577125 
" clip-path="url(#pcf6bde8ff6)" style="fill: none; stroke: #b0b0b0; stroke-opacity: 0.7; stroke-width: 0.8; stroke-linecap: square"/>
     </g>
     <g id="line2d_15">
      <g>
       <use xlink:href="#m5f96d9c915" x="66.96" y="149.577125" style="stroke: #000000; stroke-width: 0.8"/>
      </g>
     </g>
     <g id="text_11">
      <!-- 0.4 -->
      <g transform="translate(36.105313 155.275953)scale(0.15 -0.15)">
       <use xlink:href="#DejaVuSans-30"/>
       <use xlink:href="#DejaVuSans-2e" x="63.623047"/>
       <use xlink:href="#DejaVuSans-34" x="95.410156"/>
      </g>
     </g>
    </g>
    <g id="ytick_6">
     <g id="line2d_16">
      <path d="M 66.96 112.667406 
L 803.52 112.667406 
" clip-path="url(#pcf6bde8ff6)" style="fill: none; stroke: #b0b0b0; stroke-opacity: 0.7; stroke-width: 0.8; stroke-linecap: square"/>
     </g>
     <g id="line2d_17">
      <g>
       <use xlink:href="#m5f96d9c915" x="66.96" y="112.667406" style="stroke: #000000; stroke-width: 0.8"/>
      </g>
     </g>
     <g id="text_12">
      <!-- 0.5 -->
      <g transform="translate(36.105313 118.366234)scale(0.15 -0.15)">
       <use xlink:href="#DejaVuSans-30"/>
       <use xlink:href="#DejaVuSans-2e" x="63.623047"/>
       <use xlink:href="#DejaVuSans-35" x="95.410156"/>
      </g>
     </g>
    </g>
    <g id="ytick_7">
     <g id="line2d_18">
      <path d="M 66.96 75.757688 
L 803.52 75.757688 
" clip-path="url(#pcf6bde8ff6)" style="fill: none; stroke: #b0b0b0; stroke-opacity: 0.7; stroke-width: 0.8; stroke-linecap: square"/>
     </g>
     <g id="line2d_19">
      <g>
       <use xlink:href="#m5f96d9c915" x="66.96" y="75.757688" style="stroke: #000000; stroke-width: 0.8"/>
      </g>
     </g>
     <g id="text_13">
      <!-- 0.6 -->
      <g transform="translate(36.105313 81.456516)scale(0.15 -0.15)">
       <defs>
        <path id="DejaVuSans-36" d="M 2113 2584 
Q 1688 2584 1439 2293 
Q 1191 2003 1191 1497 
Q 1191 994 1439 701 
Q 1688 409 2113 409 
Q 2538 409 2786 701 
Q 3034 994 3034 1497 
Q 3034 2003 2786 2293 
Q 2538 2584 2113 2584 
z
M 3366 4563 
L 3366 3988 
Q 3128 4100 2886 4159 
Q 2644 4219 2406 4219 
Q 1781 4219 1451 3797 
Q 1122 3375 1075 2522 
Q 1259 2794 1537 2939 
Q 1816 3084 2150 3084 
Q 2853 3084 3261 2657 
Q 3669 2231 3669 1497 
Q 3669 778 3244 343 
Q 2819 -91 2113 -91 
Q 1303 -91 875 529 
Q 447 1150 447 2328 
Q 447 3434 972 4092 
Q 1497 4750 2381 4750 
Q 2619 4750 2861 4703 
Q 3103 4656 3366 4563 
z
" transform="scale(0.015625)"/>
       </defs>
       <use xlink:href="#DejaVuSans-30"/>
       <use xlink:href="#DejaVuSans-2e" x="63.623047"/>
       <use xlink:href="#DejaVuSans-36" x="95.410156"/>
      </g>
     </g>
    </g>
    <g id="text_14">
     <!-- Relatieve fout -->
     <g transform="translate(28.361875 232.349625)rotate(-90)scale(0.18 -0.18)">
      <defs>
       <path id="DejaVuSans-Oblique-52" d="M 1613 4147 
L 1294 2491 
L 2106 2491 
Q 2584 2491 2879 2755 
Q 3175 3019 3175 3444 
Q 3175 3784 2976 3965 
Q 2778 4147 2406 4147 
L 1613 4147 
z
M 2772 2241 
Q 2972 2194 3105 2009 
Q 3238 1825 3413 1275 
L 3809 0 
L 3144 0 
L 2778 1197 
Q 2638 1659 2453 1815 
Q 2269 1972 1888 1972 
L 1191 1972 
L 806 0 
L 172 0 
L 1081 4666 
L 2503 4666 
Q 3150 4666 3495 4373 
Q 3841 4081 3841 3531 
Q 3841 3044 3547 2687 
Q 3253 2331 2772 2241 
z
" transform="scale(0.015625)"/>
       <path id="DejaVuSans-Oblique-69" d="M 1172 4863 
L 1747 4863 
L 1606 4134 
L 1031 4134 
L 1172 4863 
z
M 909 3500 
L 1484 3500 
L 800 0 
L 225 0 
L 909 3500 
z
" transform="scale(0.015625)"/>
       <path id="DejaVuSans-Oblique-76" d="M 459 3500 
L 1069 3500 
L 1581 525 
L 3256 3500 
L 3866 3500 
L 1875 0 
L 1100 0 
L 459 3500 
z
" transform="scale(0.015625)"/>
       <path id="DejaVuSans-Oblique-66" d="M 3059 4863 
L 2969 4384 
L 2419 4384 
Q 2106 4384 1964 4261 
Q 1822 4138 1753 3809 
L 1691 3500 
L 2638 3500 
L 2553 3053 
L 1606 3053 
L 1013 0 
L 434 0 
L 1031 3053 
L 481 3053 
L 563 3500 
L 1113 3500 
L 1159 3744 
Q 1278 4363 1576 4613 
Q 1875 4863 2516 4863 
L 3059 4863 
z
" transform="scale(0.015625)"/>
       <path id="DejaVuSans-Oblique-6f" d="M 1625 -91 
Q 1009 -91 651 289 
Q 294 669 294 1325 
Q 294 1706 417 2101 
Q 541 2497 738 2766 
Q 1047 3184 1428 3384 
Q 1809 3584 2291 3584 
Q 2888 3584 3255 3212 
Q 3622 2841 3622 2241 
Q 3622 1825 3500 1412 
Q 3378 1000 3181 728 
Q 2875 309 2494 109 
Q 2113 -91 1625 -91 
z
M 891 1344 
Q 891 869 1089 633 
Q 1288 397 1691 397 
Q 2269 397 2648 901 
Q 3028 1406 3028 2181 
Q 3028 2634 2825 2865 
Q 2622 3097 2228 3097 
Q 1903 3097 1650 2945 
Q 1397 2794 1197 2484 
Q 1050 2253 970 1956 
Q 891 1659 891 1344 
z
" transform="scale(0.015625)"/>
       <path id="DejaVuSans-Oblique-75" d="M 428 1388 
L 838 3500 
L 1416 3500 
L 1006 1409 
Q 975 1256 961 1147 
Q 947 1038 947 966 
Q 947 700 1109 554 
Q 1272 409 1569 409 
Q 2031 409 2368 721 
Q 2706 1034 2809 1563 
L 3194 3500 
L 3769 3500 
L 3091 0 
L 2516 0 
L 2631 550 
Q 2388 244 2052 76 
Q 1716 -91 1338 -91 
Q 878 -91 622 161 
Q 366 413 366 863 
Q 366 956 381 1097 
Q 397 1238 428 1388 
z
" transform="scale(0.015625)"/>
      </defs>
      <use xlink:href="#DejaVuSans-Oblique-52"/>
      <use xlink:href="#DejaVuSans-Oblique-65" x="69.482422"/>
      <use xlink:href="#DejaVuSans-Oblique-6c" x="131.005859"/>
      <use xlink:href="#DejaVuSans-Oblique-61" x="158.789062"/>
      <use xlink:href="#DejaVuSans-Oblique-74" x="220.068359"/>
      <use xlink:href="#DejaVuSans-Oblique-69" x="259.277344"/>
      <use xlink:href="#DejaVuSans-Oblique-65" x="287.060547"/>
      <use xlink:href="#DejaVuSans-Oblique-76" x="348.583984"/>
      <use xlink:href="#DejaVuSans-Oblique-65" x="407.763672"/>
      <use xlink:href="#DejaVuSans-Oblique-20" x="469.287109"/>
      <use xlink:href="#DejaVuSans-Oblique-66" x="501.074219"/>
      <use xlink:href="#DejaVuSans-Oblique-6f" x="536.279297"/>
      <use xlink:href="#DejaVuSans-Oblique-75" x="597.460938"/>
      <use xlink:href="#DejaVuSans-Oblique-74" x="660.839844"/>
     </g>
    </g>
   </g>
   <g id="LineCollection_1">
    <path d="M 111.012632 122.639572 
L 111.012632 53.650286 
" clip-path="url(#pcf6bde8ff6)" style="fill: none; stroke: #000000; stroke-width: 1.5"/>
    <path d="M 251.981053 198.354133 
L 251.981053 161.974233 
" clip-path="url(#pcf6bde8ff6)" style="fill: none; stroke: #000000; stroke-width: 1.5"/>
    <path d="M 392.949474 213.339595 
L 392.949474 181.407202 
" clip-path="url(#pcf6bde8ff6)" style="fill: none; stroke: #000000; stroke-width: 1.5"/>
    <path d="M 533.917895 213.562783 
L 533.917895 199.019119 
" clip-path="url(#pcf6bde8ff6)" style="fill: none; stroke: #000000; stroke-width: 1.5"/>
    <path d="M 674.886316 215.909197 
L 674.886316 203.961778 
" clip-path="url(#pcf6bde8ff6)" style="fill: none; stroke: #000000; stroke-width: 1.5"/>
   </g>
   <g id="LineCollection_2">
    <path d="M 132.157895 207.101444 
L 132.157895 122.079211 
" clip-path="url(#pcf6bde8ff6)" style="fill: none; stroke: #000000; stroke-width: 1.5"/>
    <path d="M 273.126316 216.914069 
L 273.126316 201.157088 
" clip-path="url(#pcf6bde8ff6)" style="fill: none; stroke: #000000; stroke-width: 1.5"/>
    <path d="M 414.094737 224.537581 
L 414.094737 212.496018 
" clip-path="url(#pcf6bde8ff6)" style="fill: none; stroke: #000000; stroke-width: 1.5"/>
    <path d="M 555.063158 224.447759 
L 555.063158 212.803986 
" clip-path="url(#pcf6bde8ff6)" style="fill: none; stroke: #000000; stroke-width: 1.5"/>
    <path d="M 696.031579 223.43716 
L 696.031579 211.51135 
" clip-path="url(#pcf6bde8ff6)" style="fill: none; stroke: #000000; stroke-width: 1.5"/>
   </g>
   <g id="LineCollection_3">
    <path d="M 153.303158 222.736925 
L 153.303158 147.353697 
" clip-path="url(#pcf6bde8ff6)" style="fill: none; stroke: #000000; stroke-width: 1.5"/>
    <path d="M 294.271579 232.166129 
L 294.271579 219.33477 
" clip-path="url(#pcf6bde8ff6)" style="fill: none; stroke: #000000; stroke-width: 1.5"/>
    <path d="M 435.24 236.410904 
L 435.24 224.945022 
" clip-path="url(#pcf6bde8ff6)" style="fill: none; stroke: #000000; stroke-width: 1.5"/>
    <path d="M 576.208421 234.437282 
L 576.208421 224.54774 
" clip-path="url(#pcf6bde8ff6)" style="fill: none; stroke: #000000; stroke-width: 1.5"/>
    <path d="M 717.176842 230.435736 
L 717.176842 221.984832 
" clip-path="url(#pcf6bde8ff6)" style="fill: none; stroke: #000000; stroke-width: 1.5"/>
   </g>
   <g id="LineCollection_4">
    <path d="M 174.448421 228.169227 
L 174.448421 160.536944 
" clip-path="url(#pcf6bde8ff6)" style="fill: none; stroke: #000000; stroke-width: 1.5"/>
    <path d="M 315.416842 240.301677 
L 315.416842 227.231498 
" clip-path="url(#pcf6bde8ff6)" style="fill: none; stroke: #000000; stroke-width: 1.5"/>
    <path d="M 456.385263 244.1518 
L 456.385263 234.830305 
" clip-path="url(#pcf6bde8ff6)" style="fill: none; stroke: #000000; stroke-width: 1.5"/>
    <path d="M 597.353684 244.616446 
L 597.353684 236.044861 
" clip-path="url(#pcf6bde8ff6)" style="fill: none; stroke: #000000; stroke-width: 1.5"/>
    <path d="M 738.322105 241.668141 
L 738.322105 231.476814 
" clip-path="url(#pcf6bde8ff6)" style="fill: none; stroke: #000000; stroke-width: 1.5"/>
   </g>
   <g id="LineCollection_5">
    <path d="M 195.593684 229.467081 
L 195.593684 185.875483 
" clip-path="url(#pcf6bde8ff6)" style="fill: none; stroke: #000000; stroke-width: 1.5"/>
    <path d="M 336.562105 254.473067 
L 336.562105 243.032418 
" clip-path="url(#pcf6bde8ff6)" style="fill: none; stroke: #000000; stroke-width: 1.5"/>
    <path d="M 477.530526 268.134665 
L 477.530526 257.221179 
" clip-path="url(#pcf6bde8ff6)" style="fill: none; stroke: #000000; stroke-width: 1.5"/>
    <path d="M 618.498947 277.595425 
L 618.498947 273.600803 
" clip-path="url(#pcf6bde8ff6)" style="fill: none; stroke: #000000; stroke-width: 1.5"/>
    <path d="M 759.467368 284.635007 
L 759.467368 282.322514 
" clip-path="url(#pcf6bde8ff6)" style="fill: none; stroke: #000000; stroke-width: 1.5"/>
   </g>
   <g id="patch_28">
    <path d="M 66.96 297.216 
L 66.96 41.472 
" style="fill: none; stroke: #000000; stroke-width: 0.8; stroke-linejoin: miter; stroke-linecap: square"/>
   </g>
   <g id="patch_29">
    <path d="M 803.52 297.216 
L 803.52 41.472 
" style="fill: none; stroke: #cccccc; stroke-width: 0.8; stroke-linejoin: miter; stroke-linecap: square"/>
   </g>
   <g id="patch_30">
    <path d="M 66.96 297.216 
L 803.52 297.216 
" style="fill: none; stroke: #000000; stroke-width: 0.8; stroke-linejoin: miter; stroke-linecap: square"/>
   </g>
   <g id="patch_31">
    <path d="M 66.96 41.472 
L 803.52 41.472 
" style="fill: none; stroke: #cccccc; stroke-width: 0.8; stroke-linejoin: miter; stroke-linecap: square"/>
   </g>
   <g id="text_15">
    <!-- Relatieve fout van ACA-T methodes per aantal termen -->
    <g transform="translate(130.9775 35.472)scale(0.2 -0.2)">
     <defs>
      <path id="DejaVuSans-Bold-52" d="M 2297 2597 
Q 2675 2597 2839 2737 
Q 3003 2878 3003 3200 
Q 3003 3519 2839 3656 
Q 2675 3794 2297 3794 
L 1791 3794 
L 1791 2597 
L 2297 2597 
z
M 1791 1766 
L 1791 0 
L 588 0 
L 588 4666 
L 2425 4666 
Q 3347 4666 3776 4356 
Q 4206 4047 4206 3378 
Q 4206 2916 3982 2619 
Q 3759 2322 3309 2181 
Q 3556 2125 3751 1926 
Q 3947 1728 4147 1325 
L 4800 0 
L 3519 0 
L 2950 1159 
Q 2778 1509 2601 1637 
Q 2425 1766 2131 1766 
L 1791 1766 
z
" transform="scale(0.015625)"/>
      <path id="DejaVuSans-Bold-65" d="M 4031 1759 
L 4031 1441 
L 1416 1441 
Q 1456 1047 1700 850 
Q 1944 653 2381 653 
Q 2734 653 3104 758 
Q 3475 863 3866 1075 
L 3866 213 
Q 3469 63 3072 -14 
Q 2675 -91 2278 -91 
Q 1328 -91 801 392 
Q 275 875 275 1747 
Q 275 2603 792 3093 
Q 1309 3584 2216 3584 
Q 3041 3584 3536 3087 
Q 4031 2591 4031 1759 
z
M 2881 2131 
Q 2881 2450 2695 2645 
Q 2509 2841 2209 2841 
Q 1884 2841 1681 2658 
Q 1478 2475 1428 2131 
L 2881 2131 
z
" transform="scale(0.015625)"/>
      <path id="DejaVuSans-Bold-6c" d="M 538 4863 
L 1656 4863 
L 1656 0 
L 538 0 
L 538 4863 
z
" transform="scale(0.015625)"/>
      <path id="DejaVuSans-Bold-61" d="M 2106 1575 
Q 1756 1575 1579 1456 
Q 1403 1338 1403 1106 
Q 1403 894 1545 773 
Q 1688 653 1941 653 
Q 2256 653 2472 879 
Q 2688 1106 2688 1447 
L 2688 1575 
L 2106 1575 
z
M 3816 1997 
L 3816 0 
L 2688 0 
L 2688 519 
Q 2463 200 2181 54 
Q 1900 -91 1497 -91 
Q 953 -91 614 226 
Q 275 544 275 1050 
Q 275 1666 698 1953 
Q 1122 2241 2028 2241 
L 2688 2241 
L 2688 2328 
Q 2688 2594 2478 2717 
Q 2269 2841 1825 2841 
Q 1466 2841 1156 2769 
Q 847 2697 581 2553 
L 581 3406 
Q 941 3494 1303 3539 
Q 1666 3584 2028 3584 
Q 2975 3584 3395 3211 
Q 3816 2838 3816 1997 
z
" transform="scale(0.015625)"/>
      <path id="DejaVuSans-Bold-74" d="M 1759 4494 
L 1759 3500 
L 2913 3500 
L 2913 2700 
L 1759 2700 
L 1759 1216 
Q 1759 972 1856 886 
Q 1953 800 2241 800 
L 2816 800 
L 2816 0 
L 1856 0 
Q 1194 0 917 276 
Q 641 553 641 1216 
L 641 2700 
L 84 2700 
L 84 3500 
L 641 3500 
L 641 4494 
L 1759 4494 
z
" transform="scale(0.015625)"/>
      <path id="DejaVuSans-Bold-69" d="M 538 3500 
L 1656 3500 
L 1656 0 
L 538 0 
L 538 3500 
z
M 538 4863 
L 1656 4863 
L 1656 3950 
L 538 3950 
L 538 4863 
z
" transform="scale(0.015625)"/>
      <path id="DejaVuSans-Bold-76" d="M 97 3500 
L 1216 3500 
L 2088 1081 
L 2956 3500 
L 4078 3500 
L 2700 0 
L 1472 0 
L 97 3500 
z
" transform="scale(0.015625)"/>
      <path id="DejaVuSans-Bold-20" transform="scale(0.015625)"/>
      <path id="DejaVuSans-Bold-66" d="M 2841 4863 
L 2841 4128 
L 2222 4128 
Q 1984 4128 1890 4042 
Q 1797 3956 1797 3744 
L 1797 3500 
L 2753 3500 
L 2753 2700 
L 1797 2700 
L 1797 0 
L 678 0 
L 678 2700 
L 122 2700 
L 122 3500 
L 678 3500 
L 678 3744 
Q 678 4316 997 4589 
Q 1316 4863 1984 4863 
L 2841 4863 
z
" transform="scale(0.015625)"/>
      <path id="DejaVuSans-Bold-6f" d="M 2203 2784 
Q 1831 2784 1636 2517 
Q 1441 2250 1441 1747 
Q 1441 1244 1636 976 
Q 1831 709 2203 709 
Q 2569 709 2762 976 
Q 2956 1244 2956 1747 
Q 2956 2250 2762 2517 
Q 2569 2784 2203 2784 
z
M 2203 3584 
Q 3106 3584 3614 3096 
Q 4122 2609 4122 1747 
Q 4122 884 3614 396 
Q 3106 -91 2203 -91 
Q 1297 -91 786 396 
Q 275 884 275 1747 
Q 275 2609 786 3096 
Q 1297 3584 2203 3584 
z
" transform="scale(0.015625)"/>
      <path id="DejaVuSans-Bold-75" d="M 500 1363 
L 500 3500 
L 1625 3500 
L 1625 3150 
Q 1625 2866 1622 2436 
Q 1619 2006 1619 1863 
Q 1619 1441 1641 1255 
Q 1663 1069 1716 984 
Q 1784 875 1895 815 
Q 2006 756 2150 756 
Q 2500 756 2700 1025 
Q 2900 1294 2900 1772 
L 2900 3500 
L 4019 3500 
L 4019 0 
L 2900 0 
L 2900 506 
Q 2647 200 2364 54 
Q 2081 -91 1741 -91 
Q 1134 -91 817 281 
Q 500 653 500 1363 
z
" transform="scale(0.015625)"/>
      <path id="DejaVuSans-Bold-6e" d="M 4056 2131 
L 4056 0 
L 2931 0 
L 2931 347 
L 2931 1631 
Q 2931 2084 2911 2256 
Q 2891 2428 2841 2509 
Q 2775 2619 2662 2680 
Q 2550 2741 2406 2741 
Q 2056 2741 1856 2470 
Q 1656 2200 1656 1722 
L 1656 0 
L 538 0 
L 538 3500 
L 1656 3500 
L 1656 2988 
Q 1909 3294 2193 3439 
Q 2478 3584 2822 3584 
Q 3428 3584 3742 3212 
Q 4056 2841 4056 2131 
z
" transform="scale(0.015625)"/>
      <path id="DejaVuSans-Bold-41" d="M 3419 850 
L 1538 850 
L 1241 0 
L 31 0 
L 1759 4666 
L 3194 4666 
L 4922 0 
L 3713 0 
L 3419 850 
z
M 1838 1716 
L 3116 1716 
L 2478 3572 
L 1838 1716 
z
" transform="scale(0.015625)"/>
      <path id="DejaVuSans-Bold-43" d="M 4288 256 
Q 3956 84 3597 -3 
Q 3238 -91 2847 -91 
Q 1681 -91 1000 561 
Q 319 1213 319 2328 
Q 319 3447 1000 4098 
Q 1681 4750 2847 4750 
Q 3238 4750 3597 4662 
Q 3956 4575 4288 4403 
L 4288 3438 
Q 3953 3666 3628 3772 
Q 3303 3878 2944 3878 
Q 2300 3878 1931 3465 
Q 1563 3053 1563 2328 
Q 1563 1606 1931 1193 
Q 2300 781 2944 781 
Q 3303 781 3628 887 
Q 3953 994 4288 1222 
L 4288 256 
z
" transform="scale(0.015625)"/>
      <path id="DejaVuSans-Bold-2d" d="M 347 2297 
L 2309 2297 
L 2309 1388 
L 347 1388 
L 347 2297 
z
" transform="scale(0.015625)"/>
      <path id="DejaVuSans-Bold-54" d="M 31 4666 
L 4331 4666 
L 4331 3756 
L 2784 3756 
L 2784 0 
L 1581 0 
L 1581 3756 
L 31 3756 
L 31 4666 
z
" transform="scale(0.015625)"/>
      <path id="DejaVuSans-Bold-6d" d="M 3781 2919 
Q 3994 3244 4286 3414 
Q 4578 3584 4928 3584 
Q 5531 3584 5847 3212 
Q 6163 2841 6163 2131 
L 6163 0 
L 5038 0 
L 5038 1825 
Q 5041 1866 5042 1909 
Q 5044 1953 5044 2034 
Q 5044 2406 4934 2573 
Q 4825 2741 4581 2741 
Q 4263 2741 4089 2478 
Q 3916 2216 3909 1719 
L 3909 0 
L 2784 0 
L 2784 1825 
Q 2784 2406 2684 2573 
Q 2584 2741 2328 2741 
Q 2006 2741 1831 2477 
Q 1656 2213 1656 1722 
L 1656 0 
L 531 0 
L 531 3500 
L 1656 3500 
L 1656 2988 
Q 1863 3284 2130 3434 
Q 2397 3584 2719 3584 
Q 3081 3584 3359 3409 
Q 3638 3234 3781 2919 
z
" transform="scale(0.015625)"/>
      <path id="DejaVuSans-Bold-68" d="M 4056 2131 
L 4056 0 
L 2931 0 
L 2931 347 
L 2931 1625 
Q 2931 2084 2911 2256 
Q 2891 2428 2841 2509 
Q 2775 2619 2662 2680 
Q 2550 2741 2406 2741 
Q 2056 2741 1856 2470 
Q 1656 2200 1656 1722 
L 1656 0 
L 538 0 
L 538 4863 
L 1656 4863 
L 1656 2988 
Q 1909 3294 2193 3439 
Q 2478 3584 2822 3584 
Q 3428 3584 3742 3212 
Q 4056 2841 4056 2131 
z
" transform="scale(0.015625)"/>
      <path id="DejaVuSans-Bold-64" d="M 2919 2988 
L 2919 4863 
L 4044 4863 
L 4044 0 
L 2919 0 
L 2919 506 
Q 2688 197 2409 53 
Q 2131 -91 1766 -91 
Q 1119 -91 703 423 
Q 288 938 288 1747 
Q 288 2556 703 3070 
Q 1119 3584 1766 3584 
Q 2128 3584 2408 3439 
Q 2688 3294 2919 2988 
z
M 2181 722 
Q 2541 722 2730 984 
Q 2919 1247 2919 1747 
Q 2919 2247 2730 2509 
Q 2541 2772 2181 2772 
Q 1825 2772 1636 2509 
Q 1447 2247 1447 1747 
Q 1447 1247 1636 984 
Q 1825 722 2181 722 
z
" transform="scale(0.015625)"/>
      <path id="DejaVuSans-Bold-73" d="M 3272 3391 
L 3272 2541 
Q 2913 2691 2578 2766 
Q 2244 2841 1947 2841 
Q 1628 2841 1473 2761 
Q 1319 2681 1319 2516 
Q 1319 2381 1436 2309 
Q 1553 2238 1856 2203 
L 2053 2175 
Q 2913 2066 3209 1816 
Q 3506 1566 3506 1031 
Q 3506 472 3093 190 
Q 2681 -91 1863 -91 
Q 1516 -91 1145 -36 
Q 775 19 384 128 
L 384 978 
Q 719 816 1070 734 
Q 1422 653 1784 653 
Q 2113 653 2278 743 
Q 2444 834 2444 1013 
Q 2444 1163 2330 1236 
Q 2216 1309 1875 1350 
L 1678 1375 
Q 931 1469 631 1722 
Q 331 1975 331 2491 
Q 331 3047 712 3315 
Q 1094 3584 1881 3584 
Q 2191 3584 2531 3537 
Q 2872 3491 3272 3391 
z
" transform="scale(0.015625)"/>
      <path id="DejaVuSans-Bold-70" d="M 1656 506 
L 1656 -1331 
L 538 -1331 
L 538 3500 
L 1656 3500 
L 1656 2988 
Q 1888 3294 2169 3439 
Q 2450 3584 2816 3584 
Q 3463 3584 3878 3070 
Q 4294 2556 4294 1747 
Q 4294 938 3878 423 
Q 3463 -91 2816 -91 
Q 2450 -91 2169 54 
Q 1888 200 1656 506 
z
M 2400 2772 
Q 2041 2772 1848 2508 
Q 1656 2244 1656 1747 
Q 1656 1250 1848 986 
Q 2041 722 2400 722 
Q 2759 722 2948 984 
Q 3138 1247 3138 1747 
Q 3138 2247 2948 2509 
Q 2759 2772 2400 2772 
z
" transform="scale(0.015625)"/>
      <path id="DejaVuSans-Bold-72" d="M 3138 2547 
Q 2991 2616 2845 2648 
Q 2700 2681 2553 2681 
Q 2122 2681 1889 2404 
Q 1656 2128 1656 1613 
L 1656 0 
L 538 0 
L 538 3500 
L 1656 3500 
L 1656 2925 
Q 1872 3269 2151 3426 
Q 2431 3584 2822 3584 
Q 2878 3584 2943 3579 
Q 3009 3575 3134 3559 
L 3138 2547 
z
" transform="scale(0.015625)"/>
     </defs>
     <use xlink:href="#DejaVuSans-Bold-52"/>
     <use xlink:href="#DejaVuSans-Bold-65" x="77.001953"/>
     <use xlink:href="#DejaVuSans-Bold-6c" x="144.824219"/>
     <use xlink:href="#DejaVuSans-Bold-61" x="179.101562"/>
     <use xlink:href="#DejaVuSans-Bold-74" x="246.582031"/>
     <use xlink:href="#DejaVuSans-Bold-69" x="294.384766"/>
     <use xlink:href="#DejaVuSans-Bold-65" x="328.662109"/>
     <use xlink:href="#DejaVuSans-Bold-76" x="396.484375"/>
     <use xlink:href="#DejaVuSans-Bold-65" x="461.669922"/>
     <use xlink:href="#DejaVuSans-Bold-20" x="529.492188"/>
     <use xlink:href="#DejaVuSans-Bold-66" x="564.306641"/>
     <use xlink:href="#DejaVuSans-Bold-6f" x="607.8125"/>
     <use xlink:href="#DejaVuSans-Bold-75" x="676.513672"/>
     <use xlink:href="#DejaVuSans-Bold-74" x="747.705078"/>
     <use xlink:href="#DejaVuSans-Bold-20" x="795.507812"/>
     <use xlink:href="#DejaVuSans-Bold-76" x="830.322266"/>
     <use xlink:href="#DejaVuSans-Bold-61" x="895.507812"/>
     <use xlink:href="#DejaVuSans-Bold-6e" x="962.988281"/>
     <use xlink:href="#DejaVuSans-Bold-20" x="1034.179688"/>
     <use xlink:href="#DejaVuSans-Bold-41" x="1068.994141"/>
     <use xlink:href="#DejaVuSans-Bold-43" x="1146.386719"/>
     <use xlink:href="#DejaVuSans-Bold-41" x="1219.775391"/>
     <use xlink:href="#DejaVuSans-Bold-2d" x="1297.167969"/>
     <use xlink:href="#DejaVuSans-Bold-54" x="1323.921875"/>
     <use xlink:href="#DejaVuSans-Bold-20" x="1392.134766"/>
     <use xlink:href="#DejaVuSans-Bold-6d" x="1426.949219"/>
     <use xlink:href="#DejaVuSans-Bold-65" x="1531.148438"/>
     <use xlink:href="#DejaVuSans-Bold-74" x="1598.970703"/>
     <use xlink:href="#DejaVuSans-Bold-68" x="1646.773438"/>
     <use xlink:href="#DejaVuSans-Bold-6f" x="1717.964844"/>
     <use xlink:href="#DejaVuSans-Bold-64" x="1786.666016"/>
     <use xlink:href="#DejaVuSans-Bold-65" x="1858.248047"/>
     <use xlink:href="#DejaVuSans-Bold-73" x="1926.070312"/>
     <use xlink:href="#DejaVuSans-Bold-20" x="1985.591797"/>
     <use xlink:href="#DejaVuSans-Bold-70" x="2020.40625"/>
     <use xlink:href="#DejaVuSans-Bold-65" x="2091.988281"/>
     <use xlink:href="#DejaVuSans-Bold-72" x="2159.810547"/>
     <use xlink:href="#DejaVuSans-Bold-20" x="2209.126953"/>
     <use xlink:href="#DejaVuSans-Bold-61" x="2243.941406"/>
     <use xlink:href="#DejaVuSans-Bold-61" x="2311.421875"/>
     <use xlink:href="#DejaVuSans-Bold-6e" x="2378.902344"/>
     <use xlink:href="#DejaVuSans-Bold-74" x="2450.09375"/>
     <use xlink:href="#DejaVuSans-Bold-61" x="2497.896484"/>
     <use xlink:href="#DejaVuSans-Bold-6c" x="2565.376953"/>
     <use xlink:href="#DejaVuSans-Bold-20" x="2599.654297"/>
     <use xlink:href="#DejaVuSans-Bold-74" x="2634.46875"/>
     <use xlink:href="#DejaVuSans-Bold-65" x="2682.271484"/>
     <use xlink:href="#DejaVuSans-Bold-72" x="2750.09375"/>
     <use xlink:href="#DejaVuSans-Bold-6d" x="2799.410156"/>
     <use xlink:href="#DejaVuSans-Bold-65" x="2903.609375"/>
     <use xlink:href="#DejaVuSans-Bold-6e" x="2971.431641"/>
    </g>
   </g>
   <g id="legend_1">
    <g id="patch_32">
     <path d="M 699.677813 122.862625 
L 796.52 122.862625 
Q 798.52 122.862625 798.52 120.862625 
L 798.52 48.472 
Q 798.52 46.472 796.52 46.472 
L 699.677813 46.472 
Q 697.677813 46.472 697.677813 48.472 
L 697.677813 120.862625 
Q 697.677813 122.862625 699.677813 122.862625 
z
" style="fill: #ffffff; opacity: 0.8; stroke: #cccccc; stroke-linejoin: miter"/>
    </g>
    <g id="patch_33">
     <path d="M 701.677813 58.070437 
L 721.677813 58.070437 
L 721.677813 51.070437 
L 701.677813 51.070437 
z
" style="fill: #b22222"/>
    </g>
    <g id="text_16">
     <!-- type 1 -->
     <g transform="translate(729.677813 58.070437)scale(0.1 -0.1)">
      <defs>
       <path id="DejaVuSans-74" d="M 1172 4494 
L 1172 3500 
L 2356 3500 
L 2356 3053 
L 1172 3053 
L 1172 1153 
Q 1172 725 1289 603 
Q 1406 481 1766 481 
L 2356 481 
L 2356 0 
L 1766 0 
Q 1100 0 847 248 
Q 594 497 594 1153 
L 594 3053 
L 172 3053 
L 172 3500 
L 594 3500 
L 594 4494 
L 1172 4494 
z
" transform="scale(0.015625)"/>
       <path id="DejaVuSans-79" d="M 2059 -325 
Q 1816 -950 1584 -1140 
Q 1353 -1331 966 -1331 
L 506 -1331 
L 506 -850 
L 844 -850 
Q 1081 -850 1212 -737 
Q 1344 -625 1503 -206 
L 1606 56 
L 191 3500 
L 800 3500 
L 1894 763 
L 2988 3500 
L 3597 3500 
L 2059 -325 
z
" transform="scale(0.015625)"/>
       <path id="DejaVuSans-70" d="M 1159 525 
L 1159 -1331 
L 581 -1331 
L 581 3500 
L 1159 3500 
L 1159 2969 
Q 1341 3281 1617 3432 
Q 1894 3584 2278 3584 
Q 2916 3584 3314 3078 
Q 3713 2572 3713 1747 
Q 3713 922 3314 415 
Q 2916 -91 2278 -91 
Q 1894 -91 1617 61 
Q 1341 213 1159 525 
z
M 3116 1747 
Q 3116 2381 2855 2742 
Q 2594 3103 2138 3103 
Q 1681 3103 1420 2742 
Q 1159 2381 1159 1747 
Q 1159 1113 1420 752 
Q 1681 391 2138 391 
Q 2594 391 2855 752 
Q 3116 1113 3116 1747 
z
" transform="scale(0.015625)"/>
       <path id="DejaVuSans-65" d="M 3597 1894 
L 3597 1613 
L 953 1613 
Q 991 1019 1311 708 
Q 1631 397 2203 397 
Q 2534 397 2845 478 
Q 3156 559 3463 722 
L 3463 178 
Q 3153 47 2828 -22 
Q 2503 -91 2169 -91 
Q 1331 -91 842 396 
Q 353 884 353 1716 
Q 353 2575 817 3079 
Q 1281 3584 2069 3584 
Q 2775 3584 3186 3129 
Q 3597 2675 3597 1894 
z
M 3022 2063 
Q 3016 2534 2758 2815 
Q 2500 3097 2075 3097 
Q 1594 3097 1305 2825 
Q 1016 2553 972 2059 
L 3022 2063 
z
" transform="scale(0.015625)"/>
       <path id="DejaVuSans-20" transform="scale(0.015625)"/>
      </defs>
      <use xlink:href="#DejaVuSans-74"/>
      <use xlink:href="#DejaVuSans-79" x="39.208984"/>
      <use xlink:href="#DejaVuSans-70" x="98.388672"/>
      <use xlink:href="#DejaVuSans-65" x="161.865234"/>
      <use xlink:href="#DejaVuSans-20" x="223.388672"/>
      <use xlink:href="#DejaVuSans-31" x="255.175781"/>
     </g>
    </g>
    <g id="patch_34">
     <path d="M 701.677813 72.748562 
L 721.677813 72.748562 
L 721.677813 65.748562 
L 701.677813 65.748562 
z
" style="fill: #adff2f"/>
    </g>
    <g id="text_17">
     <!-- type 3 -->
     <g transform="translate(729.677813 72.748562)scale(0.1 -0.1)">
      <use xlink:href="#DejaVuSans-74"/>
      <use xlink:href="#DejaVuSans-79" x="39.208984"/>
      <use xlink:href="#DejaVuSans-70" x="98.388672"/>
      <use xlink:href="#DejaVuSans-65" x="161.865234"/>
      <use xlink:href="#DejaVuSans-20" x="223.388672"/>
      <use xlink:href="#DejaVuSans-33" x="255.175781"/>
     </g>
    </g>
    <g id="patch_35">
     <path d="M 701.677813 87.426687 
L 721.677813 87.426687 
L 721.677813 80.426687 
L 701.677813 80.426687 
z
" style="fill: #008080"/>
    </g>
    <g id="text_18">
     <!-- type 8 -->
     <g transform="translate(729.677813 87.426687)scale(0.1 -0.1)">
      <defs>
       <path id="DejaVuSans-38" d="M 2034 2216 
Q 1584 2216 1326 1975 
Q 1069 1734 1069 1313 
Q 1069 891 1326 650 
Q 1584 409 2034 409 
Q 2484 409 2743 651 
Q 3003 894 3003 1313 
Q 3003 1734 2745 1975 
Q 2488 2216 2034 2216 
z
M 1403 2484 
Q 997 2584 770 2862 
Q 544 3141 544 3541 
Q 544 4100 942 4425 
Q 1341 4750 2034 4750 
Q 2731 4750 3128 4425 
Q 3525 4100 3525 3541 
Q 3525 3141 3298 2862 
Q 3072 2584 2669 2484 
Q 3125 2378 3379 2068 
Q 3634 1759 3634 1313 
Q 3634 634 3220 271 
Q 2806 -91 2034 -91 
Q 1263 -91 848 271 
Q 434 634 434 1313 
Q 434 1759 690 2068 
Q 947 2378 1403 2484 
z
M 1172 3481 
Q 1172 3119 1398 2916 
Q 1625 2713 2034 2713 
Q 2441 2713 2670 2916 
Q 2900 3119 2900 3481 
Q 2900 3844 2670 4047 
Q 2441 4250 2034 4250 
Q 1625 4250 1398 4047 
Q 1172 3844 1172 3481 
z
" transform="scale(0.015625)"/>
      </defs>
      <use xlink:href="#DejaVuSans-74"/>
      <use xlink:href="#DejaVuSans-79" x="39.208984"/>
      <use xlink:href="#DejaVuSans-70" x="98.388672"/>
      <use xlink:href="#DejaVuSans-65" x="161.865234"/>
      <use xlink:href="#DejaVuSans-20" x="223.388672"/>
      <use xlink:href="#DejaVuSans-38" x="255.175781"/>
     </g>
    </g>
    <g id="patch_36">
     <path d="M 701.677813 102.104812 
L 721.677813 102.104812 
L 721.677813 95.104812 
L 701.677813 95.104812 
z
" style="fill: #4b0082"/>
    </g>
    <g id="text_19">
     <!-- type 20 -->
     <g transform="translate(729.677813 102.104812)scale(0.1 -0.1)">
      <use xlink:href="#DejaVuSans-74"/>
      <use xlink:href="#DejaVuSans-79" x="39.208984"/>
      <use xlink:href="#DejaVuSans-70" x="98.388672"/>
      <use xlink:href="#DejaVuSans-65" x="161.865234"/>
      <use xlink:href="#DejaVuSans-20" x="223.388672"/>
      <use xlink:href="#DejaVuSans-32" x="255.175781"/>
      <use xlink:href="#DejaVuSans-30" x="318.798828"/>
     </g>
    </g>
    <g id="patch_37">
     <path d="M 701.677813 116.782937 
L 721.677813 116.782937 
L 721.677813 109.782937 
L 701.677813 109.782937 
z
" style="fill: #ffa500"/>
    </g>
    <g id="text_20">
     <!-- matrix ACA-T -->
     <g transform="translate(729.677813 116.782937)scale(0.1 -0.1)">
      <defs>
       <path id="DejaVuSans-6d" d="M 3328 2828 
Q 3544 3216 3844 3400 
Q 4144 3584 4550 3584 
Q 5097 3584 5394 3201 
Q 5691 2819 5691 2113 
L 5691 0 
L 5113 0 
L 5113 2094 
Q 5113 2597 4934 2840 
Q 4756 3084 4391 3084 
Q 3944 3084 3684 2787 
Q 3425 2491 3425 1978 
L 3425 0 
L 2847 0 
L 2847 2094 
Q 2847 2600 2669 2842 
Q 2491 3084 2119 3084 
Q 1678 3084 1418 2786 
Q 1159 2488 1159 1978 
L 1159 0 
L 581 0 
L 581 3500 
L 1159 3500 
L 1159 2956 
Q 1356 3278 1631 3431 
Q 1906 3584 2284 3584 
Q 2666 3584 2933 3390 
Q 3200 3197 3328 2828 
z
" transform="scale(0.015625)"/>
       <path id="DejaVuSans-61" d="M 2194 1759 
Q 1497 1759 1228 1600 
Q 959 1441 959 1056 
Q 959 750 1161 570 
Q 1363 391 1709 391 
Q 2188 391 2477 730 
Q 2766 1069 2766 1631 
L 2766 1759 
L 2194 1759 
z
M 3341 1997 
L 3341 0 
L 2766 0 
L 2766 531 
Q 2569 213 2275 61 
Q 1981 -91 1556 -91 
Q 1019 -91 701 211 
Q 384 513 384 1019 
Q 384 1609 779 1909 
Q 1175 2209 1959 2209 
L 2766 2209 
L 2766 2266 
Q 2766 2663 2505 2880 
Q 2244 3097 1772 3097 
Q 1472 3097 1187 3025 
Q 903 2953 641 2809 
L 641 3341 
Q 956 3463 1253 3523 
Q 1550 3584 1831 3584 
Q 2591 3584 2966 3190 
Q 3341 2797 3341 1997 
z
" transform="scale(0.015625)"/>
       <path id="DejaVuSans-72" d="M 2631 2963 
Q 2534 3019 2420 3045 
Q 2306 3072 2169 3072 
Q 1681 3072 1420 2755 
Q 1159 2438 1159 1844 
L 1159 0 
L 581 0 
L 581 3500 
L 1159 3500 
L 1159 2956 
Q 1341 3275 1631 3429 
Q 1922 3584 2338 3584 
Q 2397 3584 2469 3576 
Q 2541 3569 2628 3553 
L 2631 2963 
z
" transform="scale(0.015625)"/>
       <path id="DejaVuSans-69" d="M 603 3500 
L 1178 3500 
L 1178 0 
L 603 0 
L 603 3500 
z
M 603 4863 
L 1178 4863 
L 1178 4134 
L 603 4134 
L 603 4863 
z
" transform="scale(0.015625)"/>
       <path id="DejaVuSans-78" d="M 3513 3500 
L 2247 1797 
L 3578 0 
L 2900 0 
L 1881 1375 
L 863 0 
L 184 0 
L 1544 1831 
L 300 3500 
L 978 3500 
L 1906 2253 
L 2834 3500 
L 3513 3500 
z
" transform="scale(0.015625)"/>
       <path id="DejaVuSans-41" d="M 2188 4044 
L 1331 1722 
L 3047 1722 
L 2188 4044 
z
M 1831 4666 
L 2547 4666 
L 4325 0 
L 3669 0 
L 3244 1197 
L 1141 1197 
L 716 0 
L 50 0 
L 1831 4666 
z
" transform="scale(0.015625)"/>
       <path id="DejaVuSans-43" d="M 4122 4306 
L 4122 3641 
Q 3803 3938 3442 4084 
Q 3081 4231 2675 4231 
Q 1875 4231 1450 3742 
Q 1025 3253 1025 2328 
Q 1025 1406 1450 917 
Q 1875 428 2675 428 
Q 3081 428 3442 575 
Q 3803 722 4122 1019 
L 4122 359 
Q 3791 134 3420 21 
Q 3050 -91 2638 -91 
Q 1578 -91 968 557 
Q 359 1206 359 2328 
Q 359 3453 968 4101 
Q 1578 4750 2638 4750 
Q 3056 4750 3426 4639 
Q 3797 4528 4122 4306 
z
" transform="scale(0.015625)"/>
       <path id="DejaVuSans-2d" d="M 313 2009 
L 1997 2009 
L 1997 1497 
L 313 1497 
L 313 2009 
z
" transform="scale(0.015625)"/>
       <path id="DejaVuSans-54" d="M -19 4666 
L 3928 4666 
L 3928 4134 
L 2272 4134 
L 2272 0 
L 1638 0 
L 1638 4134 
L -19 4134 
L -19 4666 
z
" transform="scale(0.015625)"/>
      </defs>
      <use xlink:href="#DejaVuSans-6d"/>
      <use xlink:href="#DejaVuSans-61" x="97.412109"/>
      <use xlink:href="#DejaVuSans-74" x="158.691406"/>
      <use xlink:href="#DejaVuSans-72" x="197.900391"/>
      <use xlink:href="#DejaVuSans-69" x="239.013672"/>
      <use xlink:href="#DejaVuSans-78" x="266.796875"/>
      <use xlink:href="#DejaVuSans-20" x="325.976562"/>
      <use xlink:href="#DejaVuSans-41" x="357.763672"/>
      <use xlink:href="#DejaVuSans-43" x="424.421875"/>
      <use xlink:href="#DejaVuSans-41" x="494.246094"/>
      <use xlink:href="#DejaVuSans-2d" x="560.404297"/>
      <use xlink:href="#DejaVuSans-54" x="587.363281"/>
     </g>
    </g>
   </g>
  </g>
 </g>
 <defs>
  <clipPath id="pcf6bde8ff6">
   <rect x="66.96" y="41.472" width="736.56" height="255.744"/>
  </clipPath>
 </defs>
</svg>
