<?xml version="1.0" encoding="utf-8" standalone="no"?>
<!DOCTYPE svg PUBLIC "-//W3C//DTD SVG 1.1//EN"
  "http://www.w3.org/Graphics/SVG/1.1/DTD/svg11.dtd">
<svg xmlns:xlink="http://www.w3.org/1999/xlink" width="460.8pt" height="345.6pt" viewBox="0 0 460.8 345.6" xmlns="http://www.w3.org/2000/svg" version="1.1">
 <metadata>
  <rdf:RDF xmlns:dc="http://purl.org/dc/elements/1.1/" xmlns:cc="http://creativecommons.org/ns#" xmlns:rdf="http://www.w3.org/1999/02/22-rdf-syntax-ns#">
   <cc:Work>
    <dc:type rdf:resource="http://purl.org/dc/dcmitype/StillImage"/>
    <dc:date>2024-02-29T16:44:24.647908</dc:date>
    <dc:format>image/svg+xml</dc:format>
    <dc:creator>
     <cc:Agent>
      <dc:title>Matplotlib v3.8.0, https://matplotlib.org/</dc:title>
     </cc:Agent>
    </dc:creator>
   </cc:Work>
  </rdf:RDF>
 </metadata>
 <defs>
  <style type="text/css">*{stroke-linejoin: round; stroke-linecap: butt}</style>
 </defs>
 <g id="figure_1">
  <g id="patch_1">
   <path d="M 0 345.6 
L 460.8 345.6 
L 460.8 0 
L 0 0 
z
" style="fill: #deebf7"/>
  </g>
  <g id="axes_1">
   <g id="patch_2">
    <path d="M 57.6 307.584 
L 414.72 307.584 
L 414.72 41.472 
L 57.6 41.472 
z
" style="fill: #deebf7"/>
   </g>
   <g id="PathCollection_1">
    <defs>
     <path id="ma46fb80c16" d="M 0 3 
C 0.795609 3 1.55874 2.683901 2.12132 2.12132 
C 2.683901 1.55874 3 0.795609 3 0 
C 3 -0.795609 2.683901 -1.55874 2.12132 -2.12132 
C 1.55874 -2.683901 0.795609 -3 0 -3 
C -0.795609 -3 -1.55874 -2.683901 -2.12132 -2.12132 
C -2.683901 -1.55874 -3 -0.795609 -3 0 
C -3 0.795609 -2.683901 1.55874 -2.12132 2.12132 
C -1.55874 2.683901 -0.795609 3 0 3 
z
" style="stroke: #bfbf00"/>
    </defs>
    <g clip-path="url(#p289f32caf6)">
     <use xlink:href="#ma46fb80c16" x="349.337497" y="227.493971" style="fill: #bfbf00; stroke: #bfbf00"/>
     <use xlink:href="#ma46fb80c16" x="398.487273" y="270.406345" style="fill: #bfbf00; stroke: #bfbf00"/>
     <use xlink:href="#ma46fb80c16" x="381.512241" y="253.406046" style="fill: #bfbf00; stroke: #bfbf00"/>
     <use xlink:href="#ma46fb80c16" x="374.309857" y="250.15051" style="fill: #bfbf00; stroke: #bfbf00"/>
     <use xlink:href="#ma46fb80c16" x="345.868046" y="245.266928" style="fill: #bfbf00; stroke: #bfbf00"/>
     <use xlink:href="#ma46fb80c16" x="360.423386" y="247.774294" style="fill: #bfbf00; stroke: #bfbf00"/>
     <use xlink:href="#ma46fb80c16" x="350.467899" y="234.546257" style="fill: #bfbf00; stroke: #bfbf00"/>
     <use xlink:href="#ma46fb80c16" x="271.806726" y="277.293385" style="fill: #bfbf00; stroke: #bfbf00"/>
     <use xlink:href="#ma46fb80c16" x="275.82633" y="279.632402" style="fill: #bfbf00; stroke: #bfbf00"/>
     <use xlink:href="#ma46fb80c16" x="276.242004" y="279.141373" style="fill: #bfbf00; stroke: #bfbf00"/>
     <use xlink:href="#ma46fb80c16" x="272.894383" y="282.40189" style="fill: #bfbf00; stroke: #bfbf00"/>
     <use xlink:href="#ma46fb80c16" x="276.381738" y="280.454732" style="fill: #bfbf00; stroke: #bfbf00"/>
     <use xlink:href="#ma46fb80c16" x="278.287326" y="273.000624" style="fill: #bfbf00; stroke: #bfbf00"/>
     <use xlink:href="#ma46fb80c16" x="376.3805" y="248.127646" style="fill: #bfbf00; stroke: #bfbf00"/>
     <use xlink:href="#ma46fb80c16" x="323.664961" y="235.647569" style="fill: #bfbf00; stroke: #bfbf00"/>
     <use xlink:href="#ma46fb80c16" x="310.873569" y="232.086726" style="fill: #bfbf00; stroke: #bfbf00"/>
     <use xlink:href="#ma46fb80c16" x="304.438339" y="224.682272" style="fill: #bfbf00; stroke: #bfbf00"/>
     <use xlink:href="#ma46fb80c16" x="297.834313" y="212.479324" style="fill: #bfbf00; stroke: #bfbf00"/>
     <use xlink:href="#ma46fb80c16" x="307.004031" y="215.701025" style="fill: #bfbf00; stroke: #bfbf00"/>
     <use xlink:href="#ma46fb80c16" x="292.442882" y="203.808422" style="fill: #bfbf00; stroke: #bfbf00"/>
     <use xlink:href="#ma46fb80c16" x="341.984693" y="260.190388" style="fill: #bfbf00; stroke: #bfbf00"/>
     <use xlink:href="#ma46fb80c16" x="328.820034" y="248.899594" style="fill: #bfbf00; stroke: #bfbf00"/>
     <use xlink:href="#ma46fb80c16" x="315.906031" y="242.876659" style="fill: #bfbf00; stroke: #bfbf00"/>
     <use xlink:href="#ma46fb80c16" x="308.903929" y="234.494749" style="fill: #bfbf00; stroke: #bfbf00"/>
     <use xlink:href="#ma46fb80c16" x="310.298102" y="235.875887" style="fill: #bfbf00; stroke: #bfbf00"/>
     <use xlink:href="#ma46fb80c16" x="295.396651" y="206.198173" style="fill: #bfbf00; stroke: #bfbf00"/>
     <use xlink:href="#ma46fb80c16" x="313.903712" y="233.221855" style="fill: #bfbf00; stroke: #bfbf00"/>
     <use xlink:href="#ma46fb80c16" x="293.579428" y="220.696739" style="fill: #bfbf00; stroke: #bfbf00"/>
     <use xlink:href="#ma46fb80c16" x="290.613436" y="223.904543" style="fill: #bfbf00; stroke: #bfbf00"/>
     <use xlink:href="#ma46fb80c16" x="294.897304" y="216.351012" style="fill: #bfbf00; stroke: #bfbf00"/>
     <use xlink:href="#ma46fb80c16" x="312.921642" y="220.254318" style="fill: #bfbf00; stroke: #bfbf00"/>
     <use xlink:href="#ma46fb80c16" x="300.756599" y="215.499572" style="fill: #bfbf00; stroke: #bfbf00"/>
     <use xlink:href="#ma46fb80c16" x="313.965863" y="231.085387" style="fill: #bfbf00; stroke: #bfbf00"/>
     <use xlink:href="#ma46fb80c16" x="341.917795" y="295.488" style="fill: #bfbf00; stroke: #bfbf00"/>
     <use xlink:href="#ma46fb80c16" x="336.16938" y="282.854461" style="fill: #bfbf00; stroke: #bfbf00"/>
     <use xlink:href="#ma46fb80c16" x="249.159869" y="202.240682" style="fill: #bfbf00; stroke: #bfbf00"/>
     <use xlink:href="#ma46fb80c16" x="261.25537" y="205.010789" style="fill: #bfbf00; stroke: #bfbf00"/>
     <use xlink:href="#ma46fb80c16" x="253.765251" y="211.115921" style="fill: #bfbf00; stroke: #bfbf00"/>
     <use xlink:href="#ma46fb80c16" x="254.600983" y="206.090113" style="fill: #bfbf00; stroke: #bfbf00"/>
     <use xlink:href="#ma46fb80c16" x="260.533444" y="197.805623" style="fill: #bfbf00; stroke: #bfbf00"/>
     <use xlink:href="#ma46fb80c16" x="266.171393" y="199.35797" style="fill: #bfbf00; stroke: #bfbf00"/>
     <use xlink:href="#ma46fb80c16" x="257.098332" y="199.319916" style="fill: #bfbf00; stroke: #bfbf00"/>
     <use xlink:href="#ma46fb80c16" x="260.292836" y="203.058899" style="fill: #bfbf00; stroke: #bfbf00"/>
     <use xlink:href="#ma46fb80c16" x="266.736896" y="189.975517" style="fill: #bfbf00; stroke: #bfbf00"/>
     <use xlink:href="#ma46fb80c16" x="258.380656" y="193.41982" style="fill: #bfbf00; stroke: #bfbf00"/>
     <use xlink:href="#ma46fb80c16" x="243.020399" y="187.956382" style="fill: #bfbf00; stroke: #bfbf00"/>
     <use xlink:href="#ma46fb80c16" x="257.269013" y="224.317946" style="fill: #bfbf00; stroke: #bfbf00"/>
     <use xlink:href="#ma46fb80c16" x="273.117955" y="234.434826" style="fill: #bfbf00; stroke: #bfbf00"/>
     <use xlink:href="#ma46fb80c16" x="285.379673" y="236.375504" style="fill: #bfbf00; stroke: #bfbf00"/>
     <use xlink:href="#ma46fb80c16" x="253.546134" y="194.355075" style="fill: #bfbf00; stroke: #bfbf00"/>
     <use xlink:href="#ma46fb80c16" x="266.050916" y="201.044558" style="fill: #bfbf00; stroke: #bfbf00"/>
     <use xlink:href="#ma46fb80c16" x="257.628989" y="199.987084" style="fill: #bfbf00; stroke: #bfbf00"/>
     <use xlink:href="#ma46fb80c16" x="265.128034" y="269.352075" style="fill: #bfbf00; stroke: #bfbf00"/>
     <use xlink:href="#ma46fb80c16" x="244.94827" y="238.779851" style="fill: #bfbf00; stroke: #bfbf00"/>
     <use xlink:href="#ma46fb80c16" x="236.157947" y="229.169393" style="fill: #bfbf00; stroke: #bfbf00"/>
     <use xlink:href="#ma46fb80c16" x="238.72802" y="222.786795" style="fill: #bfbf00; stroke: #bfbf00"/>
     <use xlink:href="#ma46fb80c16" x="234.189844" y="221.988638" style="fill: #bfbf00; stroke: #bfbf00"/>
     <use xlink:href="#ma46fb80c16" x="249.218554" y="230.865737" style="fill: #bfbf00; stroke: #bfbf00"/>
    </g>
   </g>
   <g id="PathCollection_2">
    <defs>
     <path id="me85d7bf07d" d="M 0 3 
C 0.795609 3 1.55874 2.683901 2.12132 2.12132 
C 2.683901 1.55874 3 0.795609 3 0 
C 3 -0.795609 2.683901 -1.55874 2.12132 -2.12132 
C 1.55874 -2.683901 0.795609 -3 0 -3 
C -0.795609 -3 -1.55874 -2.683901 -2.12132 -2.12132 
C -2.683901 -1.55874 -3 -0.795609 -3 0 
C -3 0.795609 -2.683901 1.55874 -2.12132 2.12132 
C -1.55874 2.683901 -0.795609 3 0 3 
z
" style="stroke: #ff0000"/>
    </defs>
    <g clip-path="url(#p289f32caf6)">
     <use xlink:href="#me85d7bf07d" x="233.957096" y="106.042042" style="fill: #ff0000; stroke: #ff0000"/>
     <use xlink:href="#me85d7bf07d" x="232.267631" y="101.382897" style="fill: #ff0000; stroke: #ff0000"/>
     <use xlink:href="#me85d7bf07d" x="262.108848" y="122.142619" style="fill: #ff0000; stroke: #ff0000"/>
     <use xlink:href="#me85d7bf07d" x="290.470044" y="138.69635" style="fill: #ff0000; stroke: #ff0000"/>
     <use xlink:href="#me85d7bf07d" x="259.539853" y="132.971122" style="fill: #ff0000; stroke: #ff0000"/>
     <use xlink:href="#me85d7bf07d" x="264.442813" y="130.571736" style="fill: #ff0000; stroke: #ff0000"/>
     <use xlink:href="#me85d7bf07d" x="201.025587" y="108.565478" style="fill: #ff0000; stroke: #ff0000"/>
     <use xlink:href="#me85d7bf07d" x="191.68491" y="117.522573" style="fill: #ff0000; stroke: #ff0000"/>
     <use xlink:href="#me85d7bf07d" x="197.048182" y="105.72272" style="fill: #ff0000; stroke: #ff0000"/>
     <use xlink:href="#me85d7bf07d" x="188.430054" y="106.694581" style="fill: #ff0000; stroke: #ff0000"/>
     <use xlink:href="#me85d7bf07d" x="199.749796" y="89.013667" style="fill: #ff0000; stroke: #ff0000"/>
     <use xlink:href="#me85d7bf07d" x="188.61852" y="94.141324" style="fill: #ff0000; stroke: #ff0000"/>
     <use xlink:href="#me85d7bf07d" x="262.209245" y="118.997457" style="fill: #ff0000; stroke: #ff0000"/>
     <use xlink:href="#me85d7bf07d" x="266.070777" y="116.412843" style="fill: #ff0000; stroke: #ff0000"/>
     <use xlink:href="#me85d7bf07d" x="264.859876" y="112.474592" style="fill: #ff0000; stroke: #ff0000"/>
     <use xlink:href="#me85d7bf07d" x="263.608462" y="123.356268" style="fill: #ff0000; stroke: #ff0000"/>
     <use xlink:href="#me85d7bf07d" x="262.04468" y="109.000709" style="fill: #ff0000; stroke: #ff0000"/>
     <use xlink:href="#me85d7bf07d" x="264.365141" y="108.070417" style="fill: #ff0000; stroke: #ff0000"/>
     <use xlink:href="#me85d7bf07d" x="234.217319" y="93.647269" style="fill: #ff0000; stroke: #ff0000"/>
     <use xlink:href="#me85d7bf07d" x="234.116461" y="100.425032" style="fill: #ff0000; stroke: #ff0000"/>
     <use xlink:href="#me85d7bf07d" x="233.240086" y="98.728262" style="fill: #ff0000; stroke: #ff0000"/>
     <use xlink:href="#me85d7bf07d" x="231.074876" y="103.893732" style="fill: #ff0000; stroke: #ff0000"/>
     <use xlink:href="#me85d7bf07d" x="233.616003" y="102.527849" style="fill: #ff0000; stroke: #ff0000"/>
     <use xlink:href="#me85d7bf07d" x="214.308683" y="112.612834" style="fill: #ff0000; stroke: #ff0000"/>
     <use xlink:href="#me85d7bf07d" x="238.323358" y="82.673813" style="fill: #ff0000; stroke: #ff0000"/>
     <use xlink:href="#me85d7bf07d" x="233.832365" y="85.623593" style="fill: #ff0000; stroke: #ff0000"/>
     <use xlink:href="#me85d7bf07d" x="234.809842" y="85.278383" style="fill: #ff0000; stroke: #ff0000"/>
     <use xlink:href="#me85d7bf07d" x="237.759502" y="84.620884" style="fill: #ff0000; stroke: #ff0000"/>
     <use xlink:href="#me85d7bf07d" x="239.116967" y="83.853085" style="fill: #ff0000; stroke: #ff0000"/>
     <use xlink:href="#me85d7bf07d" x="239.033145" y="79.484688" style="fill: #ff0000; stroke: #ff0000"/>
     <use xlink:href="#me85d7bf07d" x="230.213008" y="150.172564" style="fill: #ff0000; stroke: #ff0000"/>
     <use xlink:href="#me85d7bf07d" x="230.218696" y="147.185218" style="fill: #ff0000; stroke: #ff0000"/>
     <use xlink:href="#me85d7bf07d" x="236.072789" y="143.521483" style="fill: #ff0000; stroke: #ff0000"/>
     <use xlink:href="#me85d7bf07d" x="228.254778" y="143.961377" style="fill: #ff0000; stroke: #ff0000"/>
     <use xlink:href="#me85d7bf07d" x="232.657894" y="141.510367" style="fill: #ff0000; stroke: #ff0000"/>
     <use xlink:href="#me85d7bf07d" x="232.269677" y="138.794646" style="fill: #ff0000; stroke: #ff0000"/>
     <use xlink:href="#me85d7bf07d" x="203.087942" y="80.030241" style="fill: #ff0000; stroke: #ff0000"/>
     <use xlink:href="#me85d7bf07d" x="203.447" y="77.383454" style="fill: #ff0000; stroke: #ff0000"/>
     <use xlink:href="#me85d7bf07d" x="218.506957" y="66.293554" style="fill: #ff0000; stroke: #ff0000"/>
     <use xlink:href="#me85d7bf07d" x="209.109221" y="76.801132" style="fill: #ff0000; stroke: #ff0000"/>
     <use xlink:href="#me85d7bf07d" x="201.334059" y="80.657054" style="fill: #ff0000; stroke: #ff0000"/>
     <use xlink:href="#me85d7bf07d" x="211.473927" y="73.079891" style="fill: #ff0000; stroke: #ff0000"/>
     <use xlink:href="#me85d7bf07d" x="208.67964" y="73.357098" style="fill: #ff0000; stroke: #ff0000"/>
     <use xlink:href="#me85d7bf07d" x="208.855691" y="71.411162" style="fill: #ff0000; stroke: #ff0000"/>
     <use xlink:href="#me85d7bf07d" x="209.967917" y="72.590632" style="fill: #ff0000; stroke: #ff0000"/>
     <use xlink:href="#me85d7bf07d" x="210.045421" y="60.197143" style="fill: #ff0000; stroke: #ff0000"/>
     <use xlink:href="#me85d7bf07d" x="199.599913" y="80.143977" style="fill: #ff0000; stroke: #ff0000"/>
     <use xlink:href="#me85d7bf07d" x="196.663432" y="81.308877" style="fill: #ff0000; stroke: #ff0000"/>
     <use xlink:href="#me85d7bf07d" x="231.283337" y="184.169799" style="fill: #ff0000; stroke: #ff0000"/>
     <use xlink:href="#me85d7bf07d" x="232.3307" y="180.549039" style="fill: #ff0000; stroke: #ff0000"/>
     <use xlink:href="#me85d7bf07d" x="239.933639" y="182.300465" style="fill: #ff0000; stroke: #ff0000"/>
     <use xlink:href="#me85d7bf07d" x="235.995951" y="181.178982" style="fill: #ff0000; stroke: #ff0000"/>
     <use xlink:href="#me85d7bf07d" x="234.29239" y="171.189471" style="fill: #ff0000; stroke: #ff0000"/>
     <use xlink:href="#me85d7bf07d" x="214.468812" y="69.398282" style="fill: #ff0000; stroke: #ff0000"/>
     <use xlink:href="#me85d7bf07d" x="207.864979" y="87.855531" style="fill: #ff0000; stroke: #ff0000"/>
     <use xlink:href="#me85d7bf07d" x="210.405328" y="80.231541" style="fill: #ff0000; stroke: #ff0000"/>
     <use xlink:href="#me85d7bf07d" x="213.205305" y="72.237333" style="fill: #ff0000; stroke: #ff0000"/>
     <use xlink:href="#me85d7bf07d" x="205.079952" y="80.255731" style="fill: #ff0000; stroke: #ff0000"/>
     <use xlink:href="#me85d7bf07d" x="215.128495" y="65.37444" style="fill: #ff0000; stroke: #ff0000"/>
     <use xlink:href="#me85d7bf07d" x="211.331599" y="65.026728" style="fill: #ff0000; stroke: #ff0000"/>
     <use xlink:href="#me85d7bf07d" x="236.75159" y="53.568" style="fill: #ff0000; stroke: #ff0000"/>
     <use xlink:href="#me85d7bf07d" x="198.69152" y="111.692704" style="fill: #ff0000; stroke: #ff0000"/>
     <use xlink:href="#me85d7bf07d" x="196.90426" y="114.014382" style="fill: #ff0000; stroke: #ff0000"/>
     <use xlink:href="#me85d7bf07d" x="195.802135" y="109.195335" style="fill: #ff0000; stroke: #ff0000"/>
     <use xlink:href="#me85d7bf07d" x="186.007497" y="130.019909" style="fill: #ff0000; stroke: #ff0000"/>
     <use xlink:href="#me85d7bf07d" x="189.614932" y="114.209704" style="fill: #ff0000; stroke: #ff0000"/>
    </g>
   </g>
   <g id="PathCollection_3">
    <defs>
     <path id="m54cec37369" d="M 0 3 
C 0.795609 3 1.55874 2.683901 2.12132 2.12132 
C 2.683901 1.55874 3 0.795609 3 0 
C 3 -0.795609 2.683901 -1.55874 2.12132 -2.12132 
C 1.55874 -2.683901 0.795609 -3 0 -3 
C -0.795609 -3 -1.55874 -2.683901 -2.12132 -2.12132 
C -2.683901 -1.55874 -3 -0.795609 -3 0 
C -3 0.795609 -2.683901 1.55874 -2.12132 2.12132 
C -1.55874 2.683901 -0.795609 3 0 3 
z
" style="stroke: #008000"/>
    </defs>
    <g clip-path="url(#p289f32caf6)">
     <use xlink:href="#m54cec37369" x="188.482536" y="237.254539" style="fill: #008000; stroke: #008000"/>
     <use xlink:href="#m54cec37369" x="185.536365" y="238.498328" style="fill: #008000; stroke: #008000"/>
     <use xlink:href="#m54cec37369" x="181.8853" y="235.055009" style="fill: #008000; stroke: #008000"/>
     <use xlink:href="#m54cec37369" x="184.238749" y="235.480942" style="fill: #008000; stroke: #008000"/>
     <use xlink:href="#m54cec37369" x="184.466172" y="235.231644" style="fill: #008000; stroke: #008000"/>
     <use xlink:href="#m54cec37369" x="184.366783" y="230.092594" style="fill: #008000; stroke: #008000"/>
     <use xlink:href="#m54cec37369" x="73.832727" y="256.201642" style="fill: #008000; stroke: #008000"/>
     <use xlink:href="#m54cec37369" x="76.908202" y="258.393146" style="fill: #008000; stroke: #008000"/>
     <use xlink:href="#m54cec37369" x="80.087184" y="254.814695" style="fill: #008000; stroke: #008000"/>
     <use xlink:href="#m54cec37369" x="78.054732" y="255.155719" style="fill: #008000; stroke: #008000"/>
     <use xlink:href="#m54cec37369" x="96.113411" y="219.884292" style="fill: #008000; stroke: #008000"/>
     <use xlink:href="#m54cec37369" x="74.166779" y="246.834086" style="fill: #008000; stroke: #008000"/>
     <use xlink:href="#m54cec37369" x="74.524647" y="245.23306" style="fill: #008000; stroke: #008000"/>
     <use xlink:href="#m54cec37369" x="117.325101" y="241.605638" style="fill: #008000; stroke: #008000"/>
     <use xlink:href="#m54cec37369" x="111.63707" y="239.992991" style="fill: #008000; stroke: #008000"/>
     <use xlink:href="#m54cec37369" x="108.575687" y="214.404735" style="fill: #008000; stroke: #008000"/>
     <use xlink:href="#m54cec37369" x="129.628146" y="230.724709" style="fill: #008000; stroke: #008000"/>
     <use xlink:href="#m54cec37369" x="127.748669" y="233.769299" style="fill: #008000; stroke: #008000"/>
     <use xlink:href="#m54cec37369" x="114.972511" y="224.959984" style="fill: #008000; stroke: #008000"/>
     <use xlink:href="#m54cec37369" x="105.725404" y="247.062292" style="fill: #008000; stroke: #008000"/>
     <use xlink:href="#m54cec37369" x="143.346198" y="215.373164" style="fill: #008000; stroke: #008000"/>
     <use xlink:href="#m54cec37369" x="138.045649" y="221.798043" style="fill: #008000; stroke: #008000"/>
     <use xlink:href="#m54cec37369" x="133.206163" y="224.852764" style="fill: #008000; stroke: #008000"/>
     <use xlink:href="#m54cec37369" x="144.03714" y="202.190505" style="fill: #008000; stroke: #008000"/>
     <use xlink:href="#m54cec37369" x="137.290746" y="203.719534" style="fill: #008000; stroke: #008000"/>
     <use xlink:href="#m54cec37369" x="140.070518" y="193.793763" style="fill: #008000; stroke: #008000"/>
     <use xlink:href="#m54cec37369" x="107.93643" y="253.012592" style="fill: #008000; stroke: #008000"/>
     <use xlink:href="#m54cec37369" x="99.10623" y="252.789544" style="fill: #008000; stroke: #008000"/>
     <use xlink:href="#m54cec37369" x="103.169365" y="247.889136" style="fill: #008000; stroke: #008000"/>
     <use xlink:href="#m54cec37369" x="96.255881" y="235.206622" style="fill: #008000; stroke: #008000"/>
     <use xlink:href="#m54cec37369" x="96.535082" y="239.402415" style="fill: #008000; stroke: #008000"/>
     <use xlink:href="#m54cec37369" x="92.792431" y="238.012281" style="fill: #008000; stroke: #008000"/>
     <use xlink:href="#m54cec37369" x="84.79439" y="186.31569" style="fill: #008000; stroke: #008000"/>
     <use xlink:href="#m54cec37369" x="80.403109" y="189.013884" style="fill: #008000; stroke: #008000"/>
     <use xlink:href="#m54cec37369" x="78.798784" y="183.563375" style="fill: #008000; stroke: #008000"/>
     <use xlink:href="#m54cec37369" x="105.321855" y="170.789584" style="fill: #008000; stroke: #008000"/>
     <use xlink:href="#m54cec37369" x="111.027475" y="165.062617" style="fill: #008000; stroke: #008000"/>
     <use xlink:href="#m54cec37369" x="115.18837" y="160.019796" style="fill: #008000; stroke: #008000"/>
     <use xlink:href="#m54cec37369" x="86.611691" y="209.347738" style="fill: #008000; stroke: #008000"/>
     <use xlink:href="#m54cec37369" x="84.375714" y="208.693824" style="fill: #008000; stroke: #008000"/>
     <use xlink:href="#m54cec37369" x="83.508212" y="210.555807" style="fill: #008000; stroke: #008000"/>
     <use xlink:href="#m54cec37369" x="90.69828" y="197.496312" style="fill: #008000; stroke: #008000"/>
     <use xlink:href="#m54cec37369" x="92.171732" y="192.833747" style="fill: #008000; stroke: #008000"/>
     <use xlink:href="#m54cec37369" x="88.821497" y="197.484734" style="fill: #008000; stroke: #008000"/>
     <use xlink:href="#m54cec37369" x="110.9627" y="186.640168" style="fill: #008000; stroke: #008000"/>
     <use xlink:href="#m54cec37369" x="106.28162" y="199.938075" style="fill: #008000; stroke: #008000"/>
     <use xlink:href="#m54cec37369" x="101.231853" y="199.245975" style="fill: #008000; stroke: #008000"/>
     <use xlink:href="#m54cec37369" x="112.471378" y="176.932821" style="fill: #008000; stroke: #008000"/>
     <use xlink:href="#m54cec37369" x="115.703174" y="186.103601" style="fill: #008000; stroke: #008000"/>
     <use xlink:href="#m54cec37369" x="102.197869" y="188.696191" style="fill: #008000; stroke: #008000"/>
     <use xlink:href="#m54cec37369" x="100.441693" y="214.633441" style="fill: #008000; stroke: #008000"/>
     <use xlink:href="#m54cec37369" x="108.906767" y="196.871929" style="fill: #008000; stroke: #008000"/>
     <use xlink:href="#m54cec37369" x="109.672479" y="192.49456" style="fill: #008000; stroke: #008000"/>
     <use xlink:href="#m54cec37369" x="103.518256" y="194.205747" style="fill: #008000; stroke: #008000"/>
     <use xlink:href="#m54cec37369" x="91.393063" y="195.107548" style="fill: #008000; stroke: #008000"/>
     <use xlink:href="#m54cec37369" x="90.170412" y="196.952782" style="fill: #008000; stroke: #008000"/>
     <use xlink:href="#m54cec37369" x="123.013045" y="226.181211" style="fill: #008000; stroke: #008000"/>
     <use xlink:href="#m54cec37369" x="108.688484" y="235.805837" style="fill: #008000; stroke: #008000"/>
     <use xlink:href="#m54cec37369" x="111.41504" y="234.904433" style="fill: #008000; stroke: #008000"/>
     <use xlink:href="#m54cec37369" x="115.941431" y="226.030934" style="fill: #008000; stroke: #008000"/>
     <use xlink:href="#m54cec37369" x="111.606201" y="230.815969" style="fill: #008000; stroke: #008000"/>
     <use xlink:href="#m54cec37369" x="103.81404" y="238.33987" style="fill: #008000; stroke: #008000"/>
    </g>
   </g>
   <g id="matplotlib.axis_1">
    <g id="xtick_1">
     <g id="line2d_1">
      <defs>
       <path id="mefebb91792" d="M 0 0 
L 0 3.5 
" style="stroke: #000000; stroke-width: 0.8"/>
      </defs>
      <g>
       <use xlink:href="#mefebb91792" x="86.068207" y="307.584" style="stroke: #000000; stroke-width: 0.8"/>
      </g>
     </g>
     <g id="text_1">
      <!-- −60 -->
      <g transform="translate(75.515863 322.182437) scale(0.1 -0.1)">
       <defs>
        <path id="DejaVuSans-2212" d="M 678 2272 
L 4684 2272 
L 4684 1741 
L 678 1741 
L 678 2272 
z
" transform="scale(0.015625)"/>
        <path id="DejaVuSans-36" d="M 2113 2584 
Q 1688 2584 1439 2293 
Q 1191 2003 1191 1497 
Q 1191 994 1439 701 
Q 1688 409 2113 409 
Q 2538 409 2786 701 
Q 3034 994 3034 1497 
Q 3034 2003 2786 2293 
Q 2538 2584 2113 2584 
z
M 3366 4563 
L 3366 3988 
Q 3128 4100 2886 4159 
Q 2644 4219 2406 4219 
Q 1781 4219 1451 3797 
Q 1122 3375 1075 2522 
Q 1259 2794 1537 2939 
Q 1816 3084 2150 3084 
Q 2853 3084 3261 2657 
Q 3669 2231 3669 1497 
Q 3669 778 3244 343 
Q 2819 -91 2113 -91 
Q 1303 -91 875 529 
Q 447 1150 447 2328 
Q 447 3434 972 4092 
Q 1497 4750 2381 4750 
Q 2619 4750 2861 4703 
Q 3103 4656 3366 4563 
z
" transform="scale(0.015625)"/>
        <path id="DejaVuSans-30" d="M 2034 4250 
Q 1547 4250 1301 3770 
Q 1056 3291 1056 2328 
Q 1056 1369 1301 889 
Q 1547 409 2034 409 
Q 2525 409 2770 889 
Q 3016 1369 3016 2328 
Q 3016 3291 2770 3770 
Q 2525 4250 2034 4250 
z
M 2034 4750 
Q 2819 4750 3233 4129 
Q 3647 3509 3647 2328 
Q 3647 1150 3233 529 
Q 2819 -91 2034 -91 
Q 1250 -91 836 529 
Q 422 1150 422 2328 
Q 422 3509 836 4129 
Q 1250 4750 2034 4750 
z
" transform="scale(0.015625)"/>
       </defs>
       <use xlink:href="#DejaVuSans-2212"/>
       <use xlink:href="#DejaVuSans-36" x="83.789062"/>
       <use xlink:href="#DejaVuSans-30" x="147.412109"/>
      </g>
     </g>
    </g>
    <g id="xtick_2">
     <g id="line2d_2">
      <g>
       <use xlink:href="#mefebb91792" x="126.87274" y="307.584" style="stroke: #000000; stroke-width: 0.8"/>
      </g>
     </g>
     <g id="text_2">
      <!-- −40 -->
      <g transform="translate(116.320396 322.182437) scale(0.1 -0.1)">
       <defs>
        <path id="DejaVuSans-34" d="M 2419 4116 
L 825 1625 
L 2419 1625 
L 2419 4116 
z
M 2253 4666 
L 3047 4666 
L 3047 1625 
L 3713 1625 
L 3713 1100 
L 3047 1100 
L 3047 0 
L 2419 0 
L 2419 1100 
L 313 1100 
L 313 1709 
L 2253 4666 
z
" transform="scale(0.015625)"/>
       </defs>
       <use xlink:href="#DejaVuSans-2212"/>
       <use xlink:href="#DejaVuSans-34" x="83.789062"/>
       <use xlink:href="#DejaVuSans-30" x="147.412109"/>
      </g>
     </g>
    </g>
    <g id="xtick_3">
     <g id="line2d_3">
      <g>
       <use xlink:href="#mefebb91792" x="167.677272" y="307.584" style="stroke: #000000; stroke-width: 0.8"/>
      </g>
     </g>
     <g id="text_3">
      <!-- −20 -->
      <g transform="translate(157.124929 322.182437) scale(0.1 -0.1)">
       <defs>
        <path id="DejaVuSans-32" d="M 1228 531 
L 3431 531 
L 3431 0 
L 469 0 
L 469 531 
Q 828 903 1448 1529 
Q 2069 2156 2228 2338 
Q 2531 2678 2651 2914 
Q 2772 3150 2772 3378 
Q 2772 3750 2511 3984 
Q 2250 4219 1831 4219 
Q 1534 4219 1204 4116 
Q 875 4013 500 3803 
L 500 4441 
Q 881 4594 1212 4672 
Q 1544 4750 1819 4750 
Q 2544 4750 2975 4387 
Q 3406 4025 3406 3419 
Q 3406 3131 3298 2873 
Q 3191 2616 2906 2266 
Q 2828 2175 2409 1742 
Q 1991 1309 1228 531 
z
" transform="scale(0.015625)"/>
       </defs>
       <use xlink:href="#DejaVuSans-2212"/>
       <use xlink:href="#DejaVuSans-32" x="83.789062"/>
       <use xlink:href="#DejaVuSans-30" x="147.412109"/>
      </g>
     </g>
    </g>
    <g id="xtick_4">
     <g id="line2d_4">
      <g>
       <use xlink:href="#mefebb91792" x="208.481805" y="307.584" style="stroke: #000000; stroke-width: 0.8"/>
      </g>
     </g>
     <g id="text_4">
      <!-- 0 -->
      <g transform="translate(205.300555 322.182437) scale(0.1 -0.1)">
       <use xlink:href="#DejaVuSans-30"/>
      </g>
     </g>
    </g>
    <g id="xtick_5">
     <g id="line2d_5">
      <g>
       <use xlink:href="#mefebb91792" x="249.286338" y="307.584" style="stroke: #000000; stroke-width: 0.8"/>
      </g>
     </g>
     <g id="text_5">
      <!-- 20 -->
      <g transform="translate(242.923838 322.182437) scale(0.1 -0.1)">
       <use xlink:href="#DejaVuSans-32"/>
       <use xlink:href="#DejaVuSans-30" x="63.623047"/>
      </g>
     </g>
    </g>
    <g id="xtick_6">
     <g id="line2d_6">
      <g>
       <use xlink:href="#mefebb91792" x="290.090871" y="307.584" style="stroke: #000000; stroke-width: 0.8"/>
      </g>
     </g>
     <g id="text_6">
      <!-- 40 -->
      <g transform="translate(283.728371 322.182437) scale(0.1 -0.1)">
       <use xlink:href="#DejaVuSans-34"/>
       <use xlink:href="#DejaVuSans-30" x="63.623047"/>
      </g>
     </g>
    </g>
    <g id="xtick_7">
     <g id="line2d_7">
      <g>
       <use xlink:href="#mefebb91792" x="330.895404" y="307.584" style="stroke: #000000; stroke-width: 0.8"/>
      </g>
     </g>
     <g id="text_7">
      <!-- 60 -->
      <g transform="translate(324.532904 322.182437) scale(0.1 -0.1)">
       <use xlink:href="#DejaVuSans-36"/>
       <use xlink:href="#DejaVuSans-30" x="63.623047"/>
      </g>
     </g>
    </g>
    <g id="xtick_8">
     <g id="line2d_8">
      <g>
       <use xlink:href="#mefebb91792" x="371.699937" y="307.584" style="stroke: #000000; stroke-width: 0.8"/>
      </g>
     </g>
     <g id="text_8">
      <!-- 80 -->
      <g transform="translate(365.337437 322.182437) scale(0.1 -0.1)">
       <defs>
        <path id="DejaVuSans-38" d="M 2034 2216 
Q 1584 2216 1326 1975 
Q 1069 1734 1069 1313 
Q 1069 891 1326 650 
Q 1584 409 2034 409 
Q 2484 409 2743 651 
Q 3003 894 3003 1313 
Q 3003 1734 2745 1975 
Q 2488 2216 2034 2216 
z
M 1403 2484 
Q 997 2584 770 2862 
Q 544 3141 544 3541 
Q 544 4100 942 4425 
Q 1341 4750 2034 4750 
Q 2731 4750 3128 4425 
Q 3525 4100 3525 3541 
Q 3525 3141 3298 2862 
Q 3072 2584 2669 2484 
Q 3125 2378 3379 2068 
Q 3634 1759 3634 1313 
Q 3634 634 3220 271 
Q 2806 -91 2034 -91 
Q 1263 -91 848 271 
Q 434 634 434 1313 
Q 434 1759 690 2068 
Q 947 2378 1403 2484 
z
M 1172 3481 
Q 1172 3119 1398 2916 
Q 1625 2713 2034 2713 
Q 2441 2713 2670 2916 
Q 2900 3119 2900 3481 
Q 2900 3844 2670 4047 
Q 2441 4250 2034 4250 
Q 1625 4250 1398 4047 
Q 1172 3844 1172 3481 
z
" transform="scale(0.015625)"/>
       </defs>
       <use xlink:href="#DejaVuSans-38"/>
       <use xlink:href="#DejaVuSans-30" x="63.623047"/>
      </g>
     </g>
    </g>
    <g id="xtick_9">
     <g id="line2d_9">
      <g>
       <use xlink:href="#mefebb91792" x="412.50447" y="307.584" style="stroke: #000000; stroke-width: 0.8"/>
      </g>
     </g>
     <g id="text_9">
      <!-- 100 -->
      <g transform="translate(402.96072 322.182437) scale(0.1 -0.1)">
       <defs>
        <path id="DejaVuSans-31" d="M 794 531 
L 1825 531 
L 1825 4091 
L 703 3866 
L 703 4441 
L 1819 4666 
L 2450 4666 
L 2450 531 
L 3481 531 
L 3481 0 
L 794 0 
L 794 531 
z
" transform="scale(0.015625)"/>
       </defs>
       <use xlink:href="#DejaVuSans-31"/>
       <use xlink:href="#DejaVuSans-30" x="63.623047"/>
       <use xlink:href="#DejaVuSans-30" x="127.246094"/>
      </g>
     </g>
    </g>
    <g id="text_10">
     <!-- Principal Component 1 -->
     <g transform="translate(179.465469 335.860562) scale(0.1 -0.1)">
      <defs>
       <path id="DejaVuSans-50" d="M 1259 4147 
L 1259 2394 
L 2053 2394 
Q 2494 2394 2734 2622 
Q 2975 2850 2975 3272 
Q 2975 3691 2734 3919 
Q 2494 4147 2053 4147 
L 1259 4147 
z
M 628 4666 
L 2053 4666 
Q 2838 4666 3239 4311 
Q 3641 3956 3641 3272 
Q 3641 2581 3239 2228 
Q 2838 1875 2053 1875 
L 1259 1875 
L 1259 0 
L 628 0 
L 628 4666 
z
" transform="scale(0.015625)"/>
       <path id="DejaVuSans-72" d="M 2631 2963 
Q 2534 3019 2420 3045 
Q 2306 3072 2169 3072 
Q 1681 3072 1420 2755 
Q 1159 2438 1159 1844 
L 1159 0 
L 581 0 
L 581 3500 
L 1159 3500 
L 1159 2956 
Q 1341 3275 1631 3429 
Q 1922 3584 2338 3584 
Q 2397 3584 2469 3576 
Q 2541 3569 2628 3553 
L 2631 2963 
z
" transform="scale(0.015625)"/>
       <path id="DejaVuSans-69" d="M 603 3500 
L 1178 3500 
L 1178 0 
L 603 0 
L 603 3500 
z
M 603 4863 
L 1178 4863 
L 1178 4134 
L 603 4134 
L 603 4863 
z
" transform="scale(0.015625)"/>
       <path id="DejaVuSans-6e" d="M 3513 2113 
L 3513 0 
L 2938 0 
L 2938 2094 
Q 2938 2591 2744 2837 
Q 2550 3084 2163 3084 
Q 1697 3084 1428 2787 
Q 1159 2491 1159 1978 
L 1159 0 
L 581 0 
L 581 3500 
L 1159 3500 
L 1159 2956 
Q 1366 3272 1645 3428 
Q 1925 3584 2291 3584 
Q 2894 3584 3203 3211 
Q 3513 2838 3513 2113 
z
" transform="scale(0.015625)"/>
       <path id="DejaVuSans-63" d="M 3122 3366 
L 3122 2828 
Q 2878 2963 2633 3030 
Q 2388 3097 2138 3097 
Q 1578 3097 1268 2742 
Q 959 2388 959 1747 
Q 959 1106 1268 751 
Q 1578 397 2138 397 
Q 2388 397 2633 464 
Q 2878 531 3122 666 
L 3122 134 
Q 2881 22 2623 -34 
Q 2366 -91 2075 -91 
Q 1284 -91 818 406 
Q 353 903 353 1747 
Q 353 2603 823 3093 
Q 1294 3584 2113 3584 
Q 2378 3584 2631 3529 
Q 2884 3475 3122 3366 
z
" transform="scale(0.015625)"/>
       <path id="DejaVuSans-70" d="M 1159 525 
L 1159 -1331 
L 581 -1331 
L 581 3500 
L 1159 3500 
L 1159 2969 
Q 1341 3281 1617 3432 
Q 1894 3584 2278 3584 
Q 2916 3584 3314 3078 
Q 3713 2572 3713 1747 
Q 3713 922 3314 415 
Q 2916 -91 2278 -91 
Q 1894 -91 1617 61 
Q 1341 213 1159 525 
z
M 3116 1747 
Q 3116 2381 2855 2742 
Q 2594 3103 2138 3103 
Q 1681 3103 1420 2742 
Q 1159 2381 1159 1747 
Q 1159 1113 1420 752 
Q 1681 391 2138 391 
Q 2594 391 2855 752 
Q 3116 1113 3116 1747 
z
" transform="scale(0.015625)"/>
       <path id="DejaVuSans-61" d="M 2194 1759 
Q 1497 1759 1228 1600 
Q 959 1441 959 1056 
Q 959 750 1161 570 
Q 1363 391 1709 391 
Q 2188 391 2477 730 
Q 2766 1069 2766 1631 
L 2766 1759 
L 2194 1759 
z
M 3341 1997 
L 3341 0 
L 2766 0 
L 2766 531 
Q 2569 213 2275 61 
Q 1981 -91 1556 -91 
Q 1019 -91 701 211 
Q 384 513 384 1019 
Q 384 1609 779 1909 
Q 1175 2209 1959 2209 
L 2766 2209 
L 2766 2266 
Q 2766 2663 2505 2880 
Q 2244 3097 1772 3097 
Q 1472 3097 1187 3025 
Q 903 2953 641 2809 
L 641 3341 
Q 956 3463 1253 3523 
Q 1550 3584 1831 3584 
Q 2591 3584 2966 3190 
Q 3341 2797 3341 1997 
z
" transform="scale(0.015625)"/>
       <path id="DejaVuSans-6c" d="M 603 4863 
L 1178 4863 
L 1178 0 
L 603 0 
L 603 4863 
z
" transform="scale(0.015625)"/>
       <path id="DejaVuSans-20" transform="scale(0.015625)"/>
       <path id="DejaVuSans-43" d="M 4122 4306 
L 4122 3641 
Q 3803 3938 3442 4084 
Q 3081 4231 2675 4231 
Q 1875 4231 1450 3742 
Q 1025 3253 1025 2328 
Q 1025 1406 1450 917 
Q 1875 428 2675 428 
Q 3081 428 3442 575 
Q 3803 722 4122 1019 
L 4122 359 
Q 3791 134 3420 21 
Q 3050 -91 2638 -91 
Q 1578 -91 968 557 
Q 359 1206 359 2328 
Q 359 3453 968 4101 
Q 1578 4750 2638 4750 
Q 3056 4750 3426 4639 
Q 3797 4528 4122 4306 
z
" transform="scale(0.015625)"/>
       <path id="DejaVuSans-6f" d="M 1959 3097 
Q 1497 3097 1228 2736 
Q 959 2375 959 1747 
Q 959 1119 1226 758 
Q 1494 397 1959 397 
Q 2419 397 2687 759 
Q 2956 1122 2956 1747 
Q 2956 2369 2687 2733 
Q 2419 3097 1959 3097 
z
M 1959 3584 
Q 2709 3584 3137 3096 
Q 3566 2609 3566 1747 
Q 3566 888 3137 398 
Q 2709 -91 1959 -91 
Q 1206 -91 779 398 
Q 353 888 353 1747 
Q 353 2609 779 3096 
Q 1206 3584 1959 3584 
z
" transform="scale(0.015625)"/>
       <path id="DejaVuSans-6d" d="M 3328 2828 
Q 3544 3216 3844 3400 
Q 4144 3584 4550 3584 
Q 5097 3584 5394 3201 
Q 5691 2819 5691 2113 
L 5691 0 
L 5113 0 
L 5113 2094 
Q 5113 2597 4934 2840 
Q 4756 3084 4391 3084 
Q 3944 3084 3684 2787 
Q 3425 2491 3425 1978 
L 3425 0 
L 2847 0 
L 2847 2094 
Q 2847 2600 2669 2842 
Q 2491 3084 2119 3084 
Q 1678 3084 1418 2786 
Q 1159 2488 1159 1978 
L 1159 0 
L 581 0 
L 581 3500 
L 1159 3500 
L 1159 2956 
Q 1356 3278 1631 3431 
Q 1906 3584 2284 3584 
Q 2666 3584 2933 3390 
Q 3200 3197 3328 2828 
z
" transform="scale(0.015625)"/>
       <path id="DejaVuSans-65" d="M 3597 1894 
L 3597 1613 
L 953 1613 
Q 991 1019 1311 708 
Q 1631 397 2203 397 
Q 2534 397 2845 478 
Q 3156 559 3463 722 
L 3463 178 
Q 3153 47 2828 -22 
Q 2503 -91 2169 -91 
Q 1331 -91 842 396 
Q 353 884 353 1716 
Q 353 2575 817 3079 
Q 1281 3584 2069 3584 
Q 2775 3584 3186 3129 
Q 3597 2675 3597 1894 
z
M 3022 2063 
Q 3016 2534 2758 2815 
Q 2500 3097 2075 3097 
Q 1594 3097 1305 2825 
Q 1016 2553 972 2059 
L 3022 2063 
z
" transform="scale(0.015625)"/>
       <path id="DejaVuSans-74" d="M 1172 4494 
L 1172 3500 
L 2356 3500 
L 2356 3053 
L 1172 3053 
L 1172 1153 
Q 1172 725 1289 603 
Q 1406 481 1766 481 
L 2356 481 
L 2356 0 
L 1766 0 
Q 1100 0 847 248 
Q 594 497 594 1153 
L 594 3053 
L 172 3053 
L 172 3500 
L 594 3500 
L 594 4494 
L 1172 4494 
z
" transform="scale(0.015625)"/>
      </defs>
      <use xlink:href="#DejaVuSans-50"/>
      <use xlink:href="#DejaVuSans-72" x="58.552734"/>
      <use xlink:href="#DejaVuSans-69" x="99.666016"/>
      <use xlink:href="#DejaVuSans-6e" x="127.449219"/>
      <use xlink:href="#DejaVuSans-63" x="190.828125"/>
      <use xlink:href="#DejaVuSans-69" x="245.808594"/>
      <use xlink:href="#DejaVuSans-70" x="273.591797"/>
      <use xlink:href="#DejaVuSans-61" x="337.068359"/>
      <use xlink:href="#DejaVuSans-6c" x="398.347656"/>
      <use xlink:href="#DejaVuSans-20" x="426.130859"/>
      <use xlink:href="#DejaVuSans-43" x="457.917969"/>
      <use xlink:href="#DejaVuSans-6f" x="527.742188"/>
      <use xlink:href="#DejaVuSans-6d" x="588.923828"/>
      <use xlink:href="#DejaVuSans-70" x="686.335938"/>
      <use xlink:href="#DejaVuSans-6f" x="749.8125"/>
      <use xlink:href="#DejaVuSans-6e" x="810.994141"/>
      <use xlink:href="#DejaVuSans-65" x="874.373047"/>
      <use xlink:href="#DejaVuSans-6e" x="935.896484"/>
      <use xlink:href="#DejaVuSans-74" x="999.275391"/>
      <use xlink:href="#DejaVuSans-20" x="1038.484375"/>
      <use xlink:href="#DejaVuSans-31" x="1070.271484"/>
     </g>
    </g>
   </g>
   <g id="matplotlib.axis_2">
    <g id="ytick_1">
     <g id="line2d_10">
      <defs>
       <path id="mbd43e95689" d="M 0 0 
L -3.5 0 
" style="stroke: #000000; stroke-width: 0.8"/>
      </defs>
      <g>
       <use xlink:href="#mbd43e95689" x="57.6" y="277.544202" style="stroke: #000000; stroke-width: 0.8"/>
      </g>
     </g>
     <g id="text_11">
      <!-- −40 -->
      <g transform="translate(29.495313 281.343421) scale(0.1 -0.1)">
       <use xlink:href="#DejaVuSans-2212"/>
       <use xlink:href="#DejaVuSans-34" x="83.789062"/>
       <use xlink:href="#DejaVuSans-30" x="147.412109"/>
      </g>
     </g>
    </g>
    <g id="ytick_2">
     <g id="line2d_11">
      <g>
       <use xlink:href="#mbd43e95689" x="57.6" y="229.917225" style="stroke: #000000; stroke-width: 0.8"/>
      </g>
     </g>
     <g id="text_12">
      <!-- −20 -->
      <g transform="translate(29.495313 233.716444) scale(0.1 -0.1)">
       <use xlink:href="#DejaVuSans-2212"/>
       <use xlink:href="#DejaVuSans-32" x="83.789062"/>
       <use xlink:href="#DejaVuSans-30" x="147.412109"/>
      </g>
     </g>
    </g>
    <g id="ytick_3">
     <g id="line2d_12">
      <g>
       <use xlink:href="#mbd43e95689" x="57.6" y="182.290248" style="stroke: #000000; stroke-width: 0.8"/>
      </g>
     </g>
     <g id="text_13">
      <!-- 0 -->
      <g transform="translate(44.2375 186.089467) scale(0.1 -0.1)">
       <use xlink:href="#DejaVuSans-30"/>
      </g>
     </g>
    </g>
    <g id="ytick_4">
     <g id="line2d_13">
      <g>
       <use xlink:href="#mbd43e95689" x="57.6" y="134.663271" style="stroke: #000000; stroke-width: 0.8"/>
      </g>
     </g>
     <g id="text_14">
      <!-- 20 -->
      <g transform="translate(37.875 138.46249) scale(0.1 -0.1)">
       <use xlink:href="#DejaVuSans-32"/>
       <use xlink:href="#DejaVuSans-30" x="63.623047"/>
      </g>
     </g>
    </g>
    <g id="ytick_5">
     <g id="line2d_14">
      <g>
       <use xlink:href="#mbd43e95689" x="57.6" y="87.036294" style="stroke: #000000; stroke-width: 0.8"/>
      </g>
     </g>
     <g id="text_15">
      <!-- 40 -->
      <g transform="translate(37.875 90.835513) scale(0.1 -0.1)">
       <use xlink:href="#DejaVuSans-34"/>
       <use xlink:href="#DejaVuSans-30" x="63.623047"/>
      </g>
     </g>
    </g>
    <g id="text_16">
     <!-- Principal Component 2 -->
     <g transform="translate(23.415625 231.222531) rotate(-90) scale(0.1 -0.1)">
      <use xlink:href="#DejaVuSans-50"/>
      <use xlink:href="#DejaVuSans-72" x="58.552734"/>
      <use xlink:href="#DejaVuSans-69" x="99.666016"/>
      <use xlink:href="#DejaVuSans-6e" x="127.449219"/>
      <use xlink:href="#DejaVuSans-63" x="190.828125"/>
      <use xlink:href="#DejaVuSans-69" x="245.808594"/>
      <use xlink:href="#DejaVuSans-70" x="273.591797"/>
      <use xlink:href="#DejaVuSans-61" x="337.068359"/>
      <use xlink:href="#DejaVuSans-6c" x="398.347656"/>
      <use xlink:href="#DejaVuSans-20" x="426.130859"/>
      <use xlink:href="#DejaVuSans-43" x="457.917969"/>
      <use xlink:href="#DejaVuSans-6f" x="527.742188"/>
      <use xlink:href="#DejaVuSans-6d" x="588.923828"/>
      <use xlink:href="#DejaVuSans-70" x="686.335938"/>
      <use xlink:href="#DejaVuSans-6f" x="749.8125"/>
      <use xlink:href="#DejaVuSans-6e" x="810.994141"/>
      <use xlink:href="#DejaVuSans-65" x="874.373047"/>
      <use xlink:href="#DejaVuSans-6e" x="935.896484"/>
      <use xlink:href="#DejaVuSans-74" x="999.275391"/>
      <use xlink:href="#DejaVuSans-20" x="1038.484375"/>
      <use xlink:href="#DejaVuSans-32" x="1070.271484"/>
     </g>
    </g>
   </g>
   <g id="patch_3">
    <path d="M 57.6 307.584 
L 57.6 41.472 
" style="fill: none; stroke: #000000; stroke-width: 0.8; stroke-linejoin: miter; stroke-linecap: square"/>
   </g>
   <g id="patch_4">
    <path d="M 414.72 307.584 
L 414.72 41.472 
" style="fill: none; stroke: #000000; stroke-width: 0.8; stroke-linejoin: miter; stroke-linecap: square"/>
   </g>
   <g id="patch_5">
    <path d="M 57.6 307.584 
L 414.72 307.584 
" style="fill: none; stroke: #000000; stroke-width: 0.8; stroke-linejoin: miter; stroke-linecap: square"/>
   </g>
   <g id="patch_6">
    <path d="M 57.6 41.472 
L 414.72 41.472 
" style="fill: none; stroke: #000000; stroke-width: 0.8; stroke-linejoin: miter; stroke-linecap: square"/>
   </g>
   <g id="text_17">
    <!-- Clustering met vector_aca_t met rang 10 -->
    <g transform="translate(112.847813 35.472) scale(0.12 -0.12)">
     <defs>
      <path id="DejaVuSans-75" d="M 544 1381 
L 544 3500 
L 1119 3500 
L 1119 1403 
Q 1119 906 1312 657 
Q 1506 409 1894 409 
Q 2359 409 2629 706 
Q 2900 1003 2900 1516 
L 2900 3500 
L 3475 3500 
L 3475 0 
L 2900 0 
L 2900 538 
Q 2691 219 2414 64 
Q 2138 -91 1772 -91 
Q 1169 -91 856 284 
Q 544 659 544 1381 
z
M 1991 3584 
L 1991 3584 
z
" transform="scale(0.015625)"/>
      <path id="DejaVuSans-73" d="M 2834 3397 
L 2834 2853 
Q 2591 2978 2328 3040 
Q 2066 3103 1784 3103 
Q 1356 3103 1142 2972 
Q 928 2841 928 2578 
Q 928 2378 1081 2264 
Q 1234 2150 1697 2047 
L 1894 2003 
Q 2506 1872 2764 1633 
Q 3022 1394 3022 966 
Q 3022 478 2636 193 
Q 2250 -91 1575 -91 
Q 1294 -91 989 -36 
Q 684 19 347 128 
L 347 722 
Q 666 556 975 473 
Q 1284 391 1588 391 
Q 1994 391 2212 530 
Q 2431 669 2431 922 
Q 2431 1156 2273 1281 
Q 2116 1406 1581 1522 
L 1381 1569 
Q 847 1681 609 1914 
Q 372 2147 372 2553 
Q 372 3047 722 3315 
Q 1072 3584 1716 3584 
Q 2034 3584 2315 3537 
Q 2597 3491 2834 3397 
z
" transform="scale(0.015625)"/>
      <path id="DejaVuSans-67" d="M 2906 1791 
Q 2906 2416 2648 2759 
Q 2391 3103 1925 3103 
Q 1463 3103 1205 2759 
Q 947 2416 947 1791 
Q 947 1169 1205 825 
Q 1463 481 1925 481 
Q 2391 481 2648 825 
Q 2906 1169 2906 1791 
z
M 3481 434 
Q 3481 -459 3084 -895 
Q 2688 -1331 1869 -1331 
Q 1566 -1331 1297 -1286 
Q 1028 -1241 775 -1147 
L 775 -588 
Q 1028 -725 1275 -790 
Q 1522 -856 1778 -856 
Q 2344 -856 2625 -561 
Q 2906 -266 2906 331 
L 2906 616 
Q 2728 306 2450 153 
Q 2172 0 1784 0 
Q 1141 0 747 490 
Q 353 981 353 1791 
Q 353 2603 747 3093 
Q 1141 3584 1784 3584 
Q 2172 3584 2450 3431 
Q 2728 3278 2906 2969 
L 2906 3500 
L 3481 3500 
L 3481 434 
z
" transform="scale(0.015625)"/>
      <path id="DejaVuSans-76" d="M 191 3500 
L 800 3500 
L 1894 563 
L 2988 3500 
L 3597 3500 
L 2284 0 
L 1503 0 
L 191 3500 
z
" transform="scale(0.015625)"/>
      <path id="DejaVuSans-5f" d="M 3263 -1063 
L 3263 -1509 
L -63 -1509 
L -63 -1063 
L 3263 -1063 
z
" transform="scale(0.015625)"/>
     </defs>
     <use xlink:href="#DejaVuSans-43"/>
     <use xlink:href="#DejaVuSans-6c" x="69.824219"/>
     <use xlink:href="#DejaVuSans-75" x="97.607422"/>
     <use xlink:href="#DejaVuSans-73" x="160.986328"/>
     <use xlink:href="#DejaVuSans-74" x="213.085938"/>
     <use xlink:href="#DejaVuSans-65" x="252.294922"/>
     <use xlink:href="#DejaVuSans-72" x="313.818359"/>
     <use xlink:href="#DejaVuSans-69" x="354.931641"/>
     <use xlink:href="#DejaVuSans-6e" x="382.714844"/>
     <use xlink:href="#DejaVuSans-67" x="446.09375"/>
     <use xlink:href="#DejaVuSans-20" x="509.570312"/>
     <use xlink:href="#DejaVuSans-6d" x="541.357422"/>
     <use xlink:href="#DejaVuSans-65" x="638.769531"/>
     <use xlink:href="#DejaVuSans-74" x="700.292969"/>
     <use xlink:href="#DejaVuSans-20" x="739.501953"/>
     <use xlink:href="#DejaVuSans-76" x="771.289062"/>
     <use xlink:href="#DejaVuSans-65" x="830.46875"/>
     <use xlink:href="#DejaVuSans-63" x="891.992188"/>
     <use xlink:href="#DejaVuSans-74" x="946.972656"/>
     <use xlink:href="#DejaVuSans-6f" x="986.181641"/>
     <use xlink:href="#DejaVuSans-72" x="1047.363281"/>
     <use xlink:href="#DejaVuSans-5f" x="1088.476562"/>
     <use xlink:href="#DejaVuSans-61" x="1138.476562"/>
     <use xlink:href="#DejaVuSans-63" x="1199.755859"/>
     <use xlink:href="#DejaVuSans-61" x="1254.736328"/>
     <use xlink:href="#DejaVuSans-5f" x="1316.015625"/>
     <use xlink:href="#DejaVuSans-74" x="1366.015625"/>
     <use xlink:href="#DejaVuSans-20" x="1405.224609"/>
     <use xlink:href="#DejaVuSans-6d" x="1437.011719"/>
     <use xlink:href="#DejaVuSans-65" x="1534.423828"/>
     <use xlink:href="#DejaVuSans-74" x="1595.947266"/>
     <use xlink:href="#DejaVuSans-20" x="1635.15625"/>
     <use xlink:href="#DejaVuSans-72" x="1666.943359"/>
     <use xlink:href="#DejaVuSans-61" x="1708.056641"/>
     <use xlink:href="#DejaVuSans-6e" x="1769.335938"/>
     <use xlink:href="#DejaVuSans-67" x="1832.714844"/>
     <use xlink:href="#DejaVuSans-20" x="1896.191406"/>
     <use xlink:href="#DejaVuSans-31" x="1927.978516"/>
     <use xlink:href="#DejaVuSans-30" x="1991.601562"/>
    </g>
   </g>
  </g>
 </g>
 <defs>
  <clipPath id="p289f32caf6">
   <rect x="57.6" y="41.472" width="357.12" height="266.112"/>
  </clipPath>
 </defs>
</svg>
